<svg width="386" height="249" viewBox="0 0 386 249" fill="none" xmlns="http://www.w3.org/2000/svg">
<g clip-path="url(#clip0)">
<path d="M77.2472 240.104H308.831C351.31 240.104 386.079 205.309 386.079 162.799V118.556C386.079 76.0462 351.31 41.2507 308.831 41.2507H168.024L42.6354 0L81.731 41.3294H77.2472C34.7691 41.3294 0 76.1249 0 118.635V162.877C0 205.309 34.7691 240.104 77.2472 240.104Z" fill="url(#paint0_linear)"/>
<path d="M77.2472 249H308.831C351.31 249 386.079 214.205 386.079 171.694V127.531C386.079 85.0206 351.31 50.2251 308.831 50.2251H168.024L42.6354 0L81.731 50.2251H77.2472C34.7691 50.2251 0 85.0206 0 127.531V171.773C0 214.283 34.7691 249 77.2472 249Z" fill="url(#paint1_linear)"/>
<path d="M38.8 94.614C38.492 97.65 37.788 100.136 36.82 102.094C35.874 101.324 34.906 100.62 33.982 99.96C34.422 98.42 34.906 96.55 35.346 94.614H38.8ZM39.504 93.03L39.218 93.096H35.654C35.962 91.6 36.248 90.104 36.424 88.74L34.818 88.608C34.642 89.994 34.4 91.556 34.092 93.096H31.1V94.614H33.762C33.256 96.858 32.706 99.014 32.156 100.576C33.366 101.412 34.73 102.446 35.962 103.48C34.708 105.35 33.08 106.604 31.1 107.352C31.452 107.704 31.87 108.298 32.112 108.716C34.18 107.792 35.874 106.472 37.216 104.58C38.096 105.394 38.866 106.164 39.416 106.846L40.516 105.482C39.944 104.778 39.086 103.986 38.096 103.15C39.394 100.686 40.208 97.474 40.516 93.228L39.504 93.03ZM43.244 104.932V92.524H48.634V104.932H43.244ZM41.704 90.962V108.122H43.244V106.494H48.634V107.814H50.24V90.962H41.704ZM57.214 96.924V94.658H62.164V96.924H57.214ZM57.214 91.072H62.164V93.316H57.214V91.072ZM68.852 93.316H63.858V91.072H68.852V93.316ZM68.852 96.924H63.858V94.658H68.852V96.924ZM72.592 101.698V100.18H63.858V98.332H70.59V89.642H55.564V98.332H62.164V100.18H53.43V101.698H60.8C58.864 103.788 55.74 105.68 52.88 106.604C53.232 106.934 53.76 107.572 53.98 107.946C56.84 106.868 60.052 104.778 62.164 102.38V108.694H63.858V102.27C66.014 104.602 69.248 106.736 72.042 107.858C72.284 107.462 72.79 106.824 73.164 106.494C70.392 105.57 67.246 103.722 65.222 101.698H72.592ZM92.59 92.084C92.238 92.876 91.842 93.69 91.534 94.24L92.92 94.526C93.47 93.646 94.13 92.15 94.702 90.896L93.58 90.588L93.316 90.654H85.088C85.352 90.104 85.594 89.554 85.814 89.004L84.296 88.63C83.57 90.698 82.294 92.7 80.798 93.998C81.15 94.24 81.766 94.746 82.03 95.032C82.844 94.24 83.636 93.228 84.318 92.084H92.59ZM90.324 95.208C91.402 96.572 92.524 98.442 93.008 99.674L94.416 98.948C93.91 97.738 92.766 95.912 91.644 94.592L90.324 95.208ZM87.574 104.338C86.958 103.26 85.572 101.676 84.362 100.554L83.108 101.28C84.296 102.446 85.66 104.074 86.21 105.13L87.574 104.338ZM84.274 94.636C83.68 96.154 82.668 97.694 81.524 98.728C81.876 98.948 82.47 99.388 82.756 99.652C83.9 98.53 85.066 96.792 85.77 95.054L84.274 94.636ZM89.114 92.832H87.552V99.256C87.552 99.498 87.464 99.564 87.2 99.564C86.914 99.586 86.012 99.586 84.978 99.564C85.176 99.982 85.418 100.554 85.506 100.994C86.892 100.994 87.772 100.994 88.344 100.73C88.96 100.488 89.114 100.092 89.114 99.278V92.832ZM76.662 107.792C77.476 106.45 78.246 104.382 78.818 102.952L77.344 102.358C76.86 103.788 76.002 105.79 75.122 107.088L76.662 107.792ZM80.094 88.542C78.84 90.984 76.86 93.404 74.836 94.922C75.166 95.23 75.694 95.89 75.914 96.198C76.618 95.604 77.344 94.9 78.026 94.13V101.104H79.61V92.172C80.336 91.16 81.018 90.104 81.546 89.026L80.094 88.542ZM83.152 106.758C81.7 106.758 81.436 106.648 81.436 106.01V102.226H79.808V106.032C79.808 107.814 80.49 108.276 83.086 108.276H88.322C90.5 108.276 91.028 107.594 91.248 104.822C90.786 104.734 90.104 104.492 89.73 104.206C89.62 106.428 89.422 106.758 88.212 106.758H83.152ZM90.852 102.512C91.842 104.074 92.854 106.186 93.162 107.528L94.724 106.89C94.35 105.548 93.316 103.524 92.282 101.962L90.852 102.512ZM112.434 99.212H103.26V96.99H112.434V99.212ZM103.26 102.93V100.62H112.434V102.93H103.26ZM116.614 92.964V91.424H105.416C105.746 90.632 106.01 89.796 106.274 88.982L104.646 88.586C104.382 89.532 104.052 90.478 103.678 91.424H97.474V92.964H102.996C101.588 95.868 99.586 98.508 96.946 100.29C97.276 100.598 97.782 101.192 98.002 101.544C99.388 100.576 100.598 99.388 101.654 98.09V108.672H103.26V104.338H112.434V106.626C112.434 106.956 112.302 107.066 111.928 107.088C111.532 107.088 110.212 107.11 108.76 107.044C108.98 107.506 109.222 108.166 109.288 108.65C111.158 108.65 112.39 108.628 113.116 108.364C113.82 108.1 114.04 107.616 114.04 106.626V95.516H103.436C103.92 94.702 104.36 93.822 104.778 92.964H116.614ZM124.512 88.608C123.17 92.018 120.948 95.384 118.55 97.518C118.902 97.914 119.408 98.75 119.562 99.146C120.464 98.288 121.344 97.276 122.158 96.176V108.694H123.764V93.756C124.666 92.26 125.436 90.698 126.096 89.092L124.512 88.608ZM139.032 99.52V97.936H132.828V91.842C134.808 91.446 136.656 90.984 138.152 90.5L136.942 89.136C134.258 90.104 129.506 90.984 125.436 91.512C125.612 91.886 125.876 92.502 125.942 92.898C127.614 92.7 129.44 92.436 131.2 92.128V97.936H124.71V99.52H131.2V106.274H125.546V107.858H138.702V106.274H132.828V99.52H139.032ZM145.918 88.608C144.796 91.886 142.926 95.142 140.924 97.276C141.188 97.628 141.672 98.486 141.826 98.86C142.53 98.09 143.234 97.21 143.872 96.198V108.65H145.478V93.514C146.226 92.084 146.886 90.566 147.436 89.092L145.918 88.608ZM153.464 96.836V101.478H149.68V96.836H153.464ZM154.982 102.93V95.384H148.118V104.448H149.68V102.93H154.982ZM161.098 90.72H147.48V92.304H157.886V106.428C157.886 106.868 157.732 106.978 157.27 107C156.786 107.022 155.18 107.044 153.42 106.978C153.662 107.44 153.948 108.188 154.014 108.65C156.148 108.65 157.6 108.606 158.414 108.342C159.184 108.078 159.492 107.594 159.492 106.428V92.304H161.098V90.72ZM170.096 95.78C171.658 95.78 172.098 95.208 172.274 92.92C171.856 92.81 171.262 92.568 170.932 92.326C170.844 94.152 170.712 94.416 169.964 94.416H166.752C165.828 94.416 165.652 94.306 165.652 93.756V92.458C167.676 91.974 169.92 91.314 171.526 90.61L170.404 89.51C169.26 90.082 167.412 90.72 165.652 91.204V88.718H164.156V93.756C164.156 95.34 164.662 95.78 166.62 95.78H170.096ZM172.208 102.754V101.368H168.666V101.082V99.102H171.702V97.738H166.048C166.246 97.232 166.422 96.704 166.576 96.176L165.124 95.868C164.662 97.562 163.914 99.3 162.902 100.466C163.276 100.664 163.87 101.038 164.156 101.28C164.64 100.686 165.08 99.938 165.498 99.102H167.192V101.06V101.368H163.188V102.754H167.06C166.752 104.404 165.828 106.318 163.034 107.682C163.408 107.924 163.848 108.408 164.068 108.738C166.246 107.594 167.412 106.164 168.006 104.712C169.018 105.636 170.052 106.67 170.602 107.396L171.636 106.34C170.954 105.504 169.568 104.25 168.468 103.282C168.49 103.106 168.534 102.93 168.556 102.754H172.208ZM180.436 107.044C179.688 107.044 178.918 106.978 178.236 106.78V102.754H182.24V101.346H178.236V97.628H181.162C180.898 98.486 180.546 99.344 180.238 99.938L181.448 100.312C181.998 99.344 182.548 97.804 182.988 96.462L181.998 96.176L181.734 96.242H179.402L180.392 95.142C179.908 94.746 179.248 94.284 178.522 93.844C180.018 92.788 181.536 91.314 182.526 89.906L181.514 89.246L181.206 89.334H172.714V90.654H180.062C179.292 91.512 178.258 92.414 177.224 93.074C176.388 92.634 175.552 92.216 174.804 91.886L173.858 92.898C175.772 93.8 178.17 95.208 179.358 96.242H172.428V97.628H176.762V106.12C175.882 105.482 175.156 104.492 174.65 102.93C174.826 101.764 174.936 100.51 175.002 99.124L173.506 99.08C173.374 102.886 172.89 105.922 171.02 107.858C171.394 108.056 172.054 108.54 172.296 108.782C173.198 107.704 173.814 106.406 174.232 104.866C175.596 107.77 177.73 108.43 180.348 108.43H182.614C182.68 108.034 182.878 107.374 183.076 107.044H180.436ZM186.112 108.694H187.718V93.536H186.112V108.694ZM186.354 89.664C187.454 90.808 188.906 92.392 189.61 93.338L190.82 92.436C190.116 91.512 188.642 89.994 187.542 88.894L186.354 89.664ZM197.2 96.726V101.786H192.602V96.726H197.2ZM198.784 103.282V95.23H191.106V104.69H192.602V103.282H198.784ZM203.888 89.84H191.832V91.358H202.282V106.384C202.282 106.758 202.15 106.89 201.754 106.912C201.402 106.912 200.082 106.934 198.762 106.868C198.982 107.33 199.246 108.056 199.312 108.518C201.094 108.54 202.26 108.496 202.964 108.232C203.646 107.946 203.888 107.462 203.888 106.406V89.84ZM209.454 109.354C211.764 108.54 213.26 106.736 213.26 104.36C213.26 102.82 212.6 101.83 211.39 101.83C210.488 101.83 209.718 102.38 209.718 103.414C209.718 104.448 210.466 104.976 211.368 104.976C211.5 104.976 211.61 104.976 211.742 104.954C211.632 106.45 210.664 107.484 208.97 108.188L209.454 109.354ZM36.798 124.326C36.116 123.446 34.62 122.082 33.476 121.114L32.42 122.082C33.564 123.116 35.016 124.546 35.676 125.47L36.798 124.326ZM35.852 136.844V127.472H30.99V129.034H34.268V137.02C34.268 137.988 33.652 138.648 33.234 138.89C33.52 139.22 33.938 139.902 34.092 140.276C34.422 139.858 34.994 139.374 38.668 136.536C38.492 136.228 38.206 135.612 38.096 135.172L35.852 136.844ZM40.868 136.096V134.314H47.732V136.096H40.868ZM47.732 131.476V133.17H40.868V131.476H47.732ZM49.294 130.2H39.328V140.672H40.868V137.284H47.732V138.824C47.732 139.11 47.644 139.198 47.314 139.198C47.05 139.22 45.994 139.22 44.872 139.176C45.07 139.594 45.29 140.188 45.356 140.584C46.918 140.606 47.886 140.584 48.524 140.342C49.118 140.1 49.294 139.682 49.294 138.846V130.2ZM45.092 127.692V126.152H49.712V124.964H45.092V123.578H50.372V122.324H45.092V120.608H43.486V122.324H38.426V123.578H43.486V124.964H38.954V126.152H43.486V127.692H37.766V128.946H51.01V127.692H45.092ZM70.568 127.648V129.474H66.498V127.648H70.568ZM66.498 132.576V130.662H70.568V132.576H66.498ZM65.09 137.46H66.498V133.786H70.568V135.964C70.568 136.162 70.48 136.228 70.282 136.25C70.062 136.25 69.424 136.25 68.72 136.228C68.896 136.602 69.05 137.108 69.116 137.482C70.216 137.482 70.964 137.482 71.426 137.24C71.91 137.02 72.042 136.668 72.042 135.964V126.372H66.256C66.586 125.778 66.894 125.14 67.136 124.48H72.944V123.05H67.664C67.906 122.346 68.082 121.598 68.258 120.85L66.806 120.586C66.63 121.444 66.41 122.28 66.124 123.05H62.956V124.48H65.596C64.782 126.24 63.77 127.736 62.428 128.836C62.758 129.078 63.308 129.628 63.528 129.914C64.078 129.386 64.628 128.836 65.09 128.176V137.46ZM62.626 125.866C62.186 124.942 61.196 123.534 60.316 122.5L59.216 123.094C60.096 124.15 61.042 125.624 61.46 126.548L62.626 125.866ZM58.38 121.466L58.16 121.532H53.804V140.694H55.256V123.006H57.632C57.258 124.502 56.73 126.526 56.18 128.154C57.5 129.936 57.786 131.476 57.786 132.686C57.786 133.368 57.698 134.006 57.412 134.248C57.258 134.358 57.082 134.424 56.84 134.446C56.576 134.468 56.224 134.468 55.828 134.402C56.048 134.82 56.158 135.414 56.18 135.81C56.598 135.832 57.06 135.832 57.39 135.788C57.786 135.722 58.138 135.612 58.424 135.392C58.952 134.974 59.172 134.006 59.172 132.862C59.172 131.476 58.886 129.848 57.544 127.978C58.182 126.196 58.864 123.908 59.392 122.06L58.38 121.466ZM62.56 128.99H59.128V130.398H61.13V136.558C60.294 136.91 59.348 137.878 58.402 139.132L59.414 140.474C60.25 139.044 61.13 137.724 61.724 137.724C62.164 137.724 62.824 138.406 63.594 138.978C64.826 139.858 66.168 140.21 68.104 140.21C69.446 140.21 71.756 140.144 72.79 140.056C72.812 139.638 73.01 138.912 73.164 138.516C71.712 138.692 69.556 138.802 68.126 138.802C66.322 138.802 65.046 138.538 63.924 137.746C63.33 137.328 62.934 136.976 62.56 136.712V128.99ZM81.15 123.908V128.704H77.41V123.908H81.15ZM77.41 135.15V130.178H81.15V135.15H77.41ZM82.69 122.434H75.87V138.384H77.41V136.646H82.69V122.434ZM95.076 124.986H92.414V120.718H90.786V124.986H83.68V126.592H90.786V138.252C90.786 138.692 90.61 138.824 90.17 138.846C89.686 138.868 88.058 138.868 86.364 138.824C86.628 139.264 86.87 140.012 86.958 140.452C89.158 140.474 90.544 140.452 91.314 140.166C92.084 139.924 92.414 139.418 92.414 138.252V126.592H95.076V124.986ZM89.202 133.588C88.476 132.268 86.936 130.024 85.77 128.352L84.428 129.056C85.594 130.75 87.068 133.082 87.772 134.424L89.202 133.588ZM110.938 133.742H97.342V135.326H110.938V133.742ZM101.764 129.122C102.05 127.934 102.336 126.57 102.644 125.184H115.184V123.622H102.952C103.128 122.808 103.26 121.994 103.414 121.246L101.764 121.07C101.236 124.084 100.356 128.22 99.674 130.64L101.038 130.662H113.71C113.204 135.7 112.654 137.966 111.818 138.604C111.576 138.846 111.246 138.868 110.696 138.868C110.058 138.868 108.364 138.868 106.648 138.714C106.978 139.154 107.22 139.836 107.264 140.32C108.804 140.43 110.388 140.452 111.18 140.408C112.104 140.364 112.676 140.21 113.226 139.638C114.216 138.692 114.832 136.184 115.448 129.914C115.492 129.694 115.514 129.122 115.514 129.122H101.764ZM138.196 124.832C137.492 123.798 135.952 122.258 134.698 121.18L133.444 122.038C134.72 123.16 136.216 124.744 136.876 125.778L138.196 124.832ZM136.238 129.628C135.49 131.036 134.522 132.378 133.356 133.632C132.982 132.18 132.674 130.486 132.454 128.616H138.746V127.054H132.278C132.102 125.096 132.014 122.984 132.014 120.784H130.342C130.364 122.94 130.452 125.052 130.65 127.054H125.612V123.226C126.954 122.94 128.23 122.588 129.286 122.214L128.12 120.872C126.052 121.642 122.51 122.39 119.43 122.852C119.65 123.248 119.87 123.82 119.958 124.216C121.256 124.04 122.642 123.82 124.006 123.556V127.054H119.298V128.616H124.006V132.466C122.092 132.862 120.31 133.236 118.99 133.456L119.452 135.106C120.772 134.82 122.356 134.446 124.006 134.094V138.56C124.006 138.956 123.874 139.066 123.478 139.066C123.104 139.088 121.806 139.11 120.398 139.044C120.64 139.506 120.926 140.254 121.014 140.694C122.796 140.694 123.984 140.65 124.666 140.386C125.348 140.122 125.612 139.638 125.612 138.582V133.698C126.954 133.39 128.318 133.082 129.66 132.752L129.55 131.278C128.252 131.564 126.91 131.85 125.612 132.136V128.616H130.782C131.068 130.992 131.486 133.17 132.014 134.996C130.452 136.448 128.648 137.658 126.8 138.56C127.218 138.912 127.68 139.462 127.922 139.858C129.572 139 131.134 137.9 132.564 136.624C133.576 139.198 134.896 140.738 136.634 140.738C138.284 140.738 138.856 139.682 139.164 136.052C138.702 135.898 138.13 135.524 137.778 135.172C137.646 137.988 137.382 139.11 136.788 139.11C135.688 139.11 134.698 137.702 133.862 135.392C135.402 133.83 136.7 132.092 137.69 130.222L136.238 129.628ZM145.016 120.718C144.07 124.084 142.596 127.45 140.858 129.672C141.144 130.046 141.606 130.948 141.738 131.3C142.266 130.618 142.772 129.848 143.256 128.99V140.672H144.84V125.822C145.478 124.326 146.072 122.72 146.512 121.136L145.016 120.718ZM147.48 140.694H149.064V125.008H147.48V140.694ZM148.382 121.29C149.372 122.632 150.472 124.48 150.934 125.58L152.276 124.81C151.77 123.71 150.626 121.928 149.658 120.608L148.382 121.29ZM160.196 121.4H152.65V122.896H158.59V138.582C158.59 138.956 158.48 139.066 158.106 139.088C157.754 139.11 156.544 139.132 155.29 139.066C155.51 139.506 155.752 140.21 155.818 140.628C157.534 140.628 158.656 140.606 159.316 140.342C159.954 140.078 160.196 139.616 160.196 138.604V121.4ZM176.212 124.282C175.816 123.336 174.87 121.95 173.99 120.96L172.692 121.598C173.55 122.632 174.452 124.062 174.826 125.008L176.212 124.282ZM165.762 132.004H168.952V135.084C167.83 135.26 166.752 135.436 165.762 135.59V132.004ZM168.952 123.028V126.108H165.762V123.028H168.952ZM165.762 127.494H168.952V130.64H165.762V127.494ZM172.186 136.008L172.076 134.6L170.36 134.864V123.028H171.328V121.532H163.1V123.028H164.31V135.832L162.902 136.008L163.254 137.548L168.952 136.58V140.694H170.36V136.316L172.186 136.008ZM182.922 132.136V130.64H177.554C177.598 130.156 177.598 129.738 177.598 129.298V126.658H182.108V125.14H179.138C179.886 124.062 180.722 122.698 181.426 121.444L179.776 120.982C179.226 122.236 178.236 123.996 177.4 125.14H171.966V126.658H175.97V129.276C175.97 129.716 175.97 130.156 175.926 130.64H171.438V132.136H175.772C175.398 134.622 174.21 137.438 170.668 139.726C171.064 140.012 171.614 140.518 171.856 140.892C174.65 138.978 176.124 136.734 176.85 134.578C177.994 137.306 179.71 139.462 182.086 140.672C182.328 140.232 182.79 139.638 183.164 139.308C180.392 138.076 178.456 135.414 177.488 132.136H182.922ZM190.336 134.05C189.192 135.612 187.388 137.24 185.628 138.296C186.068 138.516 186.728 139.066 187.058 139.374C188.708 138.208 190.644 136.382 191.964 134.622L190.336 134.05ZM201.468 132.246C202.084 132.972 202.634 133.676 203.008 134.226L204.306 133.434C203.404 132.114 201.534 130.09 199.818 128.594L198.586 129.232C199.158 129.782 199.774 130.376 200.346 131.014L190.754 131.63C194.032 130.046 197.376 128.022 200.588 125.58L199.334 124.524C198.234 125.426 197.024 126.306 195.836 127.098L190.512 127.362C192.074 126.24 193.68 124.81 195.132 123.314C197.97 123.028 200.676 122.61 202.766 122.104L201.6 120.762C198.08 121.642 191.722 122.214 186.42 122.5C186.596 122.874 186.794 123.512 186.838 123.93C188.752 123.842 190.82 123.71 192.844 123.534C191.436 125.03 189.808 126.328 189.236 126.68C188.598 127.186 188.07 127.516 187.63 127.56C187.806 127.978 188.048 128.726 188.114 129.034C188.532 128.858 189.236 128.77 193.702 128.506C191.81 129.65 190.204 130.53 189.456 130.882C188.092 131.564 187.124 131.982 186.398 132.07C186.596 132.51 186.838 133.258 186.904 133.588C187.52 133.346 188.378 133.214 194.384 132.774V138.494C194.384 138.758 194.318 138.846 193.944 138.868C193.592 138.868 192.404 138.868 191.084 138.824C191.348 139.286 191.634 139.946 191.7 140.43C193.306 140.43 194.406 140.43 195.11 140.144C195.836 139.88 196.034 139.44 196.034 138.516V132.642L201.468 132.246ZM197.97 134.776C199.796 136.184 202.04 138.186 203.118 139.418L204.504 138.428C203.338 137.196 201.072 135.26 199.268 133.94L197.97 134.776Z" fill="#FFFEFE"/>
<path d="M44.88 188.944C43.56 188.944 43.392 188.704 43.392 187.216V185.872H50.448C50.232 188.32 49.944 188.944 48.816 188.944H44.88ZM35.664 183.088V180.856H40.32V183.088H35.664ZM40.32 175.912V178.24H35.664V175.912H40.32ZM48.048 180.856V183.088H43.392V180.856H48.048ZM48.048 175.912V178.24H43.392V175.912H48.048ZM50.976 173.128H43.392V169.792H40.32V173.128H32.712V187.288H35.664V185.872H40.32V187.192C40.32 190.84 41.256 191.824 44.544 191.824H49.104C52.032 191.824 52.896 190.432 53.304 186.664C52.608 186.52 51.696 186.136 50.976 185.752V173.128ZM76.92 180.04H67.608V178.216C70.368 176.728 73.248 174.568 75.288 172.552L73.128 170.896L72.456 171.04H57.504V173.872H69.264C67.872 174.904 66.144 175.984 64.632 176.704V180.04H55.128V182.896H64.632V188.608C64.632 189.016 64.464 189.136 63.936 189.16C63.432 189.184 61.56 189.184 59.88 189.088C60.36 189.904 60.936 191.2 61.104 192.04C63.312 192.064 64.944 191.992 66.12 191.536C67.248 191.08 67.608 190.288 67.608 188.68V182.896H76.92V180.04ZM88.44 179.728H86.544V175.744H88.44V179.728ZM86.544 186.472V182.128H88.44V186.472H86.544ZM82.176 182.128H84.096V186.472H82.176V182.128ZM84.096 175.744V179.728H82.176V175.744H84.096ZM86.712 169.72H83.928V173.32H79.728V190.6H82.176V188.896H88.44V190.264H91.008V173.32H86.712V169.72ZM99.24 170.704L98.808 170.824H92.64V192.088H95.064V173.488H97.752C97.176 175.312 96.408 177.688 95.712 179.416C97.608 181.336 98.16 183.064 98.16 184.408C98.16 185.2 98.016 185.776 97.56 186.04C97.296 186.184 96.96 186.232 96.624 186.256C96.24 186.256 95.736 186.256 95.136 186.208C95.592 186.952 95.832 188.104 95.88 188.848C96.576 188.872 97.296 188.872 97.848 188.8C98.472 188.704 99.048 188.536 99.48 188.2C100.392 187.576 100.776 186.4 100.776 184.696C100.776 183.112 100.392 181.216 98.424 179.056C99.336 176.968 100.368 174.232 101.208 171.976L99.24 170.704ZM107.856 169.768C106.68 173.176 104.64 176.584 102.528 178.744C103.008 179.464 103.8 181 104.064 181.72C104.544 181.192 105.024 180.592 105.504 179.992V192.064H108.216V175.744C109.128 174.088 109.92 172.336 110.568 170.632L107.856 169.768ZM125.112 181.24H118.968V177.112H123.984V174.328H118.968V169.984H116.088V174.328H114.096C114.36 173.416 114.6 172.504 114.792 171.568L112.032 170.992C111.48 173.92 110.496 176.968 109.2 178.84C109.896 179.152 111.144 179.824 111.672 180.208C112.2 179.368 112.728 178.288 113.16 177.112H116.088V181.24H109.608V184.024H116.088V192.088H118.968V184.024H125.112V181.24ZM129.408 190.192C128.688 190.192 128.096 189.984 127.632 189.568C127.184 189.136 126.96 188.608 126.96 187.984C126.96 187.344 127.184 186.808 127.632 186.376C128.096 185.944 128.688 185.728 129.408 185.728C130.112 185.728 130.688 185.944 131.136 186.376C131.6 186.808 131.832 187.344 131.832 187.984C131.832 188.608 131.6 189.136 131.136 189.568C130.688 189.984 130.112 190.192 129.408 190.192ZM129.408 180.424C128.688 180.424 128.096 180.216 127.632 179.8C127.184 179.368 126.96 178.84 126.96 178.216C126.96 177.576 127.184 177.04 127.632 176.608C128.096 176.176 128.688 175.96 129.408 175.96C130.112 175.96 130.688 176.176 131.136 176.608C131.6 177.04 131.832 177.576 131.832 178.216C131.832 178.84 131.6 179.368 131.136 179.8C130.688 180.216 130.112 180.424 129.408 180.424ZM146.544 175.216C145.824 175.216 145.232 175.008 144.768 174.592C144.32 174.16 144.096 173.632 144.096 173.008C144.096 172.368 144.32 171.84 144.768 171.424C145.232 170.992 145.824 170.776 146.544 170.776C147.248 170.776 147.824 170.992 148.272 171.424C148.736 171.84 148.968 172.368 148.968 173.008C148.968 173.632 148.736 174.16 148.272 174.592C147.824 175.008 147.248 175.216 146.544 175.216ZM148.584 176.608V190H144.48V176.608H148.584ZM159.718 176.464C161.286 176.464 162.534 176.976 163.462 178C164.406 179.008 164.878 180.4 164.878 182.176V190H160.798V182.728C160.798 181.832 160.566 181.136 160.102 180.64C159.638 180.144 159.014 179.896 158.23 179.896C157.446 179.896 156.822 180.144 156.358 180.64C155.894 181.136 155.662 181.832 155.662 182.728V190H151.558V176.608H155.662V178.384C156.078 177.792 156.638 177.328 157.342 176.992C158.046 176.64 158.838 176.464 159.718 176.464ZM174.45 180.016H172.242V190H168.138V180.016H166.65V176.608H168.138V176.224C168.138 174.576 168.61 173.328 169.554 172.48C170.498 171.616 171.882 171.184 173.706 171.184C174.01 171.184 174.234 171.192 174.378 171.208V174.688C173.594 174.64 173.042 174.752 172.722 175.024C172.402 175.296 172.242 175.784 172.242 176.488V176.608H174.45V180.016ZM182.475 190.192C181.163 190.192 179.979 189.912 178.923 189.352C177.883 188.792 177.059 187.992 176.451 186.952C175.859 185.912 175.563 184.696 175.563 183.304C175.563 181.928 175.867 180.72 176.475 179.68C177.083 178.624 177.915 177.816 178.971 177.256C180.027 176.696 181.211 176.416 182.523 176.416C183.835 176.416 185.019 176.696 186.075 177.256C187.131 177.816 187.963 178.624 188.571 179.68C189.179 180.72 189.483 181.928 189.483 183.304C189.483 184.68 189.171 185.896 188.547 186.952C187.939 187.992 187.099 188.792 186.027 189.352C184.971 189.912 183.787 190.192 182.475 190.192ZM182.475 186.64C183.259 186.64 183.923 186.352 184.467 185.776C185.027 185.2 185.307 184.376 185.307 183.304C185.307 182.232 185.035 181.408 184.491 180.832C183.963 180.256 183.307 179.968 182.523 179.968C181.723 179.968 181.059 180.256 180.531 180.832C180.003 181.392 179.739 182.216 179.739 183.304C179.739 184.376 179.995 185.2 180.507 185.776C181.035 186.352 181.691 186.64 182.475 186.64ZM205.004 173.968C206.892 173.968 208.54 174.328 209.948 175.048C211.356 175.752 212.436 176.752 213.188 178.048C213.956 179.328 214.34 180.808 214.34 182.488C214.34 183.848 214.1 185.112 213.62 186.28C213.156 187.448 212.46 188.384 211.532 189.088C210.62 189.776 209.532 190.12 208.268 190.12C207.42 190.12 206.716 189.952 206.156 189.616C205.612 189.28 205.244 188.808 205.052 188.2C204.604 188.824 204.028 189.312 203.324 189.664C202.62 190 201.852 190.168 201.02 190.168C199.836 190.168 198.9 189.816 198.212 189.112C197.54 188.392 197.204 187.416 197.204 186.184C197.204 185.016 197.444 183.92 197.924 182.896C198.404 181.856 199.068 181.024 199.916 180.4C200.764 179.776 201.716 179.464 202.772 179.464C204.116 179.464 205.028 179.944 205.508 180.904L205.724 179.632H209.036L207.98 185.656C207.932 185.944 207.908 186.2 207.908 186.424C207.908 187.128 208.22 187.48 208.844 187.48C209.612 187.48 210.196 186.992 210.596 186.016C211.012 185.024 211.22 183.888 211.22 182.608C211.22 180.768 210.636 179.328 209.468 178.288C208.316 177.248 206.692 176.728 204.596 176.728C202.804 176.728 201.172 177.16 199.7 178.024C198.244 178.888 197.1 180.072 196.268 181.576C195.436 183.064 195.02 184.704 195.02 186.496C195.02 188.432 195.58 189.936 196.7 191.008C197.836 192.08 199.42 192.616 201.452 192.616C203.036 192.616 204.452 192.328 205.7 191.752L206.348 194.368C204.78 195.056 203.02 195.4 201.068 195.4C199.244 195.4 197.636 195.048 196.244 194.344C194.868 193.64 193.804 192.64 193.052 191.344C192.3 190.048 191.924 188.536 191.924 186.808C191.924 184.392 192.492 182.208 193.628 180.256C194.764 178.288 196.324 176.752 198.308 175.648C200.308 174.528 202.54 173.968 205.004 173.968ZM202.364 187.216C202.812 187.216 203.228 187.08 203.612 186.808C204.012 186.536 204.324 186.176 204.548 185.728C204.788 185.264 204.908 184.768 204.908 184.24C204.908 183.696 204.756 183.256 204.452 182.92C204.148 182.568 203.732 182.392 203.204 182.392C202.5 182.392 201.916 182.696 201.452 183.304C200.988 183.912 200.756 184.632 200.756 185.464C200.756 185.992 200.892 186.416 201.164 186.736C201.436 187.056 201.836 187.216 202.364 187.216ZM230.206 183.088C230.206 183.472 230.182 183.872 230.134 184.288H220.846C220.91 185.12 221.174 185.76 221.638 186.208C222.118 186.64 222.702 186.856 223.39 186.856C224.414 186.856 225.126 186.424 225.526 185.56H229.894C229.67 186.44 229.262 187.232 228.67 187.936C228.094 188.64 227.366 189.192 226.486 189.592C225.606 189.992 224.622 190.192 223.534 190.192C222.222 190.192 221.054 189.912 220.03 189.352C219.006 188.792 218.206 187.992 217.63 186.952C217.054 185.912 216.766 184.696 216.766 183.304C216.766 181.912 217.046 180.696 217.606 179.656C218.182 178.616 218.982 177.816 220.006 177.256C221.03 176.696 222.206 176.416 223.534 176.416C224.83 176.416 225.982 176.688 226.99 177.232C227.998 177.776 228.782 178.552 229.342 179.56C229.918 180.568 230.206 181.744 230.206 183.088ZM226.006 182.008C226.006 181.304 225.766 180.744 225.286 180.328C224.806 179.912 224.206 179.704 223.486 179.704C222.798 179.704 222.214 179.904 221.734 180.304C221.27 180.704 220.982 181.272 220.87 182.008H226.006ZM232.107 177.424C232.171 175.712 232.731 174.392 233.787 173.464C234.843 172.536 236.275 172.072 238.083 172.072C239.283 172.072 240.307 172.28 241.155 172.696C242.019 173.112 242.667 173.68 243.099 174.4C243.547 175.12 243.771 175.928 243.771 176.824C243.771 177.88 243.507 178.744 242.979 179.416C242.451 180.072 241.835 180.52 241.131 180.76V180.856C242.043 181.16 242.763 181.664 243.291 182.368C243.819 183.072 244.083 183.976 244.083 185.08C244.083 186.072 243.851 186.952 243.387 187.72C242.939 188.472 242.275 189.064 241.395 189.496C240.531 189.928 239.499 190.144 238.299 190.144C236.379 190.144 234.843 189.672 233.691 188.728C232.555 187.784 231.955 186.36 231.891 184.456H235.875C235.891 185.16 236.091 185.72 236.475 186.136C236.859 186.536 237.419 186.736 238.155 186.736C238.779 186.736 239.259 186.56 239.595 186.208C239.947 185.84 240.123 185.36 240.123 184.768C240.123 184 239.875 183.448 239.379 183.112C238.899 182.76 238.123 182.584 237.051 182.584H236.283V179.248H237.051C237.867 179.248 238.523 179.112 239.019 178.84C239.531 178.552 239.787 178.048 239.787 177.328C239.787 176.752 239.627 176.304 239.307 175.984C238.987 175.664 238.547 175.504 237.987 175.504C237.379 175.504 236.923 175.688 236.619 176.056C236.331 176.424 236.163 176.88 236.115 177.424H232.107ZM254.366 186.52V190H252.278C250.79 190 249.63 189.64 248.798 188.92C247.966 188.184 247.55 186.992 247.55 185.344V180.016H245.918V176.608H247.55V173.344H251.654V176.608H254.342V180.016H251.654V185.392C251.654 185.792 251.75 186.08 251.942 186.256C252.134 186.432 252.454 186.52 252.902 186.52H254.366ZM258.572 190.192C257.852 190.192 257.26 189.984 256.796 189.568C256.348 189.136 256.124 188.608 256.124 187.984C256.124 187.344 256.348 186.808 256.796 186.376C257.26 185.944 257.852 185.728 258.572 185.728C259.276 185.728 259.852 185.944 260.3 186.376C260.764 186.808 260.996 187.344 260.996 187.984C260.996 188.608 260.764 189.136 260.3 189.568C259.852 189.984 259.276 190.192 258.572 190.192ZM262.61 183.304C262.61 181.912 262.89 180.696 263.45 179.656C264.026 178.616 264.818 177.816 265.826 177.256C266.85 176.696 268.018 176.416 269.33 176.416C271.01 176.416 272.41 176.856 273.53 177.736C274.666 178.616 275.41 179.856 275.762 181.456H271.394C271.026 180.432 270.314 179.92 269.258 179.92C268.506 179.92 267.906 180.216 267.458 180.808C267.01 181.384 266.786 182.216 266.786 183.304C266.786 184.392 267.01 185.232 267.458 185.824C267.906 186.4 268.506 186.688 269.258 186.688C270.314 186.688 271.026 186.176 271.394 185.152H275.762C275.41 186.72 274.666 187.952 273.53 188.848C272.394 189.744 270.994 190.192 269.33 190.192C268.018 190.192 266.85 189.912 265.826 189.352C264.818 188.792 264.026 187.992 263.45 186.952C262.89 185.912 262.61 184.696 262.61 183.304ZM284.053 190.192C282.741 190.192 281.557 189.912 280.501 189.352C279.461 188.792 278.637 187.992 278.029 186.952C277.437 185.912 277.141 184.696 277.141 183.304C277.141 181.928 277.445 180.72 278.053 179.68C278.661 178.624 279.493 177.816 280.549 177.256C281.605 176.696 282.789 176.416 284.101 176.416C285.413 176.416 286.597 176.696 287.653 177.256C288.709 177.816 289.541 178.624 290.149 179.68C290.757 180.72 291.061 181.928 291.061 183.304C291.061 184.68 290.749 185.896 290.125 186.952C289.517 187.992 288.677 188.792 287.605 189.352C286.549 189.912 285.365 190.192 284.053 190.192ZM284.053 186.64C284.837 186.64 285.501 186.352 286.045 185.776C286.605 185.2 286.885 184.376 286.885 183.304C286.885 182.232 286.613 181.408 286.069 180.832C285.541 180.256 284.885 179.968 284.101 179.968C283.301 179.968 282.637 180.256 282.109 180.832C281.581 181.392 281.317 182.216 281.317 183.304C281.317 184.376 281.573 185.2 282.085 185.776C282.613 186.352 283.269 186.64 284.053 186.64Z" fill="white"/>
</g>
<defs>
<linearGradient id="paint0_linear" x1="263.149" y1="210.905" x2="25.2063" y2="-26.8578" gradientUnits="userSpaceOnUse">
<stop stop-color="#9AE8E0"/>
<stop offset="1" stop-color="#25FFF3"/>
</linearGradient>
<linearGradient id="paint1_linear" x1="262.266" y1="218.928" x2="20.3878" y2="-22.768" gradientUnits="userSpaceOnUse">
<stop offset="0.3281" stop-color="#DD45D3"/>
<stop offset="1" stop-color="#6A11EA"/>
</linearGradient>
<clipPath id="clip0">
<rect width="386" height="249" fill="white"/>
</clipPath>
</defs>
</svg>
