<svg width="578" height="906" viewBox="0 0 578 906" fill="none" xmlns="http://www.w3.org/2000/svg">
<g clip-path="url(#clip0)">
<path d="M567.9 241.8L570 238.5C570 238.5 569.4 236.1 569.4 233.1C569.4 231.8 569.8 228.2 570.4 227.9C570.9 227.6 571.2 230.9 571.4 230.8C571.6 230.7 573.3 224.2 574.3 224.3C574.8 224.3 573.1 230.6 573.1 230.6C573.1 230.6 574.8 223.8 575.5 224C576.3 224.2 574.4 230.7 574.4 230.7C574.4 230.7 576 224.5 576.6 224.7C577.2 224.9 575.6 230.9 575.6 230.9C575.6 230.9 577.2 225.6 577.5 225.9C578 226.4 577.4 230 575.9 235.2C575.6 236.1 574.3 239.1 574.3 239.3C574.2 239.5 572.8 244.9 572.8 244.9" fill="#FC8975"/>
<path d="M571.6 231.4C572.2 232.4 572.8 233.4 573.1 234.5C573.4 235.8 573.1 237 572.7 238.2C572.7 238.3 572.8 238.3 572.8 238.3C574 235.7 573.2 233.7 571.7 231.4C571.7 231.3 571.6 231.4 571.6 231.4Z" fill="#CC6658"/>
<path d="M494.5 643.701C494.5 643.701 507 648.301 507.1 651.901C507.1 654.001 489 654.001 487.9 652.601C486.1 650.401 489.2 644.201 489.2 644.201L494.5 643.701Z" fill="#352E72"/>
<path d="M494.2 633.4L494.5 644C494.5 644 494.1 645.7 492.3 646C490.5 646.2 489.2 644.2 489.2 644.2L488.7 630.9" fill="#FC8975"/>
<path d="M502.7 397.001C502.7 397.001 509.5 438.201 506.1 517.301C503.8 571.301 496.5 636.601 493.8 636.701C491.1 636.801 488.7 636.401 488.7 636.401C488.7 636.401 471.7 558.101 470.5 514.001C468.7 446.101 450.8 430.501 458.6 395.301" fill="url(#paint0_linear)"/>
<path d="M495.6 632.4L495.1 637.1L487.6 637.3L487.3 632.6L495.6 632.4Z" fill="#75A1E9"/>
<path d="M456 644.701C456 644.701 468.5 649.301 468.6 652.901C468.6 655.001 450.5 655.001 449.4 653.601C447.6 651.401 450.7 645.201 450.7 645.201L456 644.701Z" fill="#352E72"/>
<path d="M455.7 634.4L456 645C456 645 455.6 646.7 453.8 647C452 647.2 450.7 645.2 450.7 645.2L450.2 631.9" fill="#FC8975"/>
<path d="M480.7 397.6C480.7 397.6 477.5 450 473.5 510.6C471.9 534.5 458.2 634.5 456.2 637.8C453.5 637.9 449.4 638 449.4 638C449.4 638 439.1 551.4 438 507.3C436.2 439.4 428.9 431.2 436.7 395.9" fill="url(#paint1_linear)"/>
<path d="M457.3 633.4L456.8 638.1L449.3 638.3L449 633.7L457.3 633.4Z" fill="#75A1E9"/>
<path d="M479.1 424.1C479.1 424.1 476.5 491.1 471.6 530.3" stroke="#4A578E" stroke-width="0.5" stroke-miterlimit="10"/>
<path d="M487.9 257.9C483.6 250.4 472.1 251.5 465.5 255C456.1 259.9 453.9 273.8 445.2 279.7C441.3 282.3 436.7 283.9 433.6 287.4C429.9 291.6 429.1 297.8 431 303.1C432.8 308.3 436.8 312.5 441.5 315.4C446.2 318.2 451.4 319.8 456.7 321C465.1 322.9 474.1 324 482.3 321.1C490.5 318.3 497.6 310.6 497.6 301.8C497.6 294.3 492.7 287.3 493.5 279.9" fill="#081466"/>
<path d="M568.6 239.201C568.6 239.201 546.3 271.301 541.1 278.601C533.1 289.901 500.5 292.101 483 302.501L470.9 303.801C465.1 305.001 445.3 319.101 443.4 324.801C439.2 337.801 434.9 351.001 434.1 364.601C433.8 369.201 434 373.901 434.1 378.501C434.3 385.201 434.5 391.901 434.8 398.601C434.8 399.001 434.8 399.501 435.1 399.901C435.4 400.301 435.9 400.401 436.3 400.501C458.2 405.601 481.1 402.801 503.4 400.101C504.2 400.001 505 399.901 505.6 399.301C506.3 398.601 506.4 397.601 506.4 396.601C506.5 392.301 506.3 388.001 506.1 383.701C505.4 365.101 506 346.501 508.1 328.001C515 323.701 543.6 314.701 553.2 301.301C574.6 271.401 574.6 240.601 574.6 240.601L568.6 239.201Z" fill="url(#paint2_linear)"/>
<path d="M483 302.501L482.6 287.201L475.8 288.101L470.9 303.701C470.9 303.701 473.1 306.901 478.2 306.201C482.5 305.601 483 302.501 483 302.501Z" fill="#FC8975"/>
<path d="M468.5 280.9C468.2 274.9 469.9 268.4 473.1 264.9C476.3 261.4 482.2 260.9 486.6 261.5C488.1 261.7 489.6 262.2 490.8 263.2C495.1 266.8 494.8 275.1 494.5 280.1C494.2 284.4 493 288.7 490.3 292.1C489.5 293.2 488.4 294.1 487.2 294.6C483.1 296.3 477.2 295.4 473.7 292.6C470.2 289.7 468.8 285.2 468.5 280.9Z" fill="#FC8975"/>
<path d="M466.6 285.7C465 286.4 462.5 287 461.3 285.2C460.3 283.8 461.2 281.7 461.5 280.2C462.6 275.4 464 270.6 465.7 265.9C466.6 263.5 467.5 261.1 469 259C471.9 255 480.3 253.1 485.2 253.5C490.6 253.1 499.2 261.9 494.5 272.2C493.8 269.7 492.8 269.9 491 267.8C489.2 269.6 486.8 270.5 484.3 270.8C481 271.1 477.3 270.4 474.9 272.6C472.4 274.9 473 279.1 471.2 282C470.1 283.8 468.3 284.9 466.6 285.7Z" fill="#081466"/>
<path d="M472.2 281.901C472.4 280.501 471.5 279.601 470.6 279.501C468.1 279.201 467.4 283.101 468.3 284.901C469 286.201 470.8 287.301 471.8 285.701" fill="#FC8975"/>
<path d="M476.3 291C475.7 290.9 475.1 290.9 474.5 290.7C473.1 290.4 471.2 289.5 469.8 287.7C469.3 287 469.1 286.4 469.1 285.7C469.1 285.5 469.2 285.4 469.4 285.4C469.6 285.4 469.7 285.5 469.7 285.7C469.7 286.2 469.9 286.7 470.3 287.3C471.5 289 473.3 289.8 474.6 290.1C476.3 290.5 478.2 290.5 479.8 290.4C480 290.4 480.1 290.5 480.1 290.7C480.1 290.9 480 291 479.8 291C478.8 291.1 477.6 291.1 476.3 291Z" fill="#081466"/>
<path d="M481.1 290.001C480.6 289.701 480 289.701 479.5 289.901C477.7 290.501 479.6 292.801 481.3 291.601C481.4 291.501 481.6 291.401 481.6 291.201C481.9 290.901 481.6 290.301 481.1 290.001Z" fill="url(#paint3_linear)"/>
<path d="M464.4 271.801C464.8 267.801 466.3 263.201 468.7 260.101C471.8 256.101 476.1 252.801 480.1 252.801C483.5 252.801 485.2 253.601 485.2 253.601C481 254.601 477.5 256.601 474.2 260.101C470.9 263.601 469 268.401 468.9 273.201" fill="#75A1E9"/>
<path d="M474.6 278.402C475.1 282.902 472.1 286.902 468 287.402C463.9 287.802 460.2 284.502 459.8 280.002C459.3 275.502 462.3 271.502 466.4 271.002C470.5 270.602 474.2 273.902 474.6 278.402Z" fill="#75A1E9"/>
<path d="M471.1 279.201C471.4 282.301 469.5 285.001 466.8 285.301C464.1 285.601 461.7 283.301 461.4 280.201C461.1 277.101 463 274.401 465.7 274.101C468.4 273.801 470.8 276.101 471.1 279.201Z" fill="#2D4CBA"/>
</g>
<path d="M16.5 422.5L281 269L550.5 422.5V729.5L281 888.5L16.5 729.5V422.5Z" fill="black"/>
<path d="M554 735L554 417L281.871 258L10 417L10 735L281.871 894L554 735Z" stroke="url(#paint4_linear)" stroke-width="20" stroke-miterlimit="10"/>
<g clip-path="url(#clip1)">
<path d="M452.9 386.301C452.9 386.301 456.5 388.801 457.7 388.901C458.9 389.001 461.8 388.001 465.3 388.401C466.9 388.601 470.9 389.501 471.2 390.101C471.4 390.701 467.5 390.601 467.6 390.901C467.7 391.201 474.9 393.901 474.6 395.001C474.4 395.501 467.5 392.901 467.5 392.901C467.5 392.901 475.1 395.601 474.7 396.401C474.3 397.201 467 394.401 467 394.401C467 394.401 473.9 396.901 473.5 397.601C473.1 398.301 466.4 396.501 466.4 396.501C466.4 396.501 472.3 397.801 471.9 398.501C471.7 398.901 465.3 398.101 459.8 396.001C454.7 394.101 450.5 390.901 450.5 390.901" fill="#FC8975"/>
<path d="M455.4 334.701C449.1 344.401 434.4 355.501 426.3 362.401C431 368.701 457.3 388.401 457.3 388.401L454.9 394.301C454.9 394.301 404.7 385.301 403.1 360.501C402.1 345.701 420.9 323.801 435.5 313.501C449.1 303.801 465.1 302.201 473.5 305.601" fill="url(#paint5_linear)"/>
</g>
<path d="M376.112 31.3687L144.545 34.2084C102.07 34.7293 67.7304 69.9484 68.2516 112.456L68.7941 156.694C69.3154 199.201 104.509 233.568 146.983 233.047L287.78 231.321L413.665 271.031L374.066 230.184L378.549 230.129C421.024 229.608 455.364 194.389 454.843 151.882L454.3 107.643C453.78 65.2143 418.587 30.8478 376.112 31.3687Z" fill="url(#paint6_linear)"/>
<path d="M376.003 22.4737L144.436 25.3134C101.961 25.8343 67.6213 61.0534 68.1425 103.561L68.6841 147.721C69.2053 190.228 104.398 224.594 146.873 224.073L287.67 222.347L413.665 271.031L373.957 221.289L378.44 221.234C420.915 220.713 455.255 185.494 454.734 142.987L454.191 98.7477C453.67 56.2406 418.478 21.9529 376.003 22.4737Z" fill="url(#paint7_linear)"/>
<path d="M148.992 71.1277C148.684 74.1637 147.98 76.6497 147.012 78.6077C146.066 77.8377 145.098 77.1337 144.174 76.4737C144.614 74.9337 145.098 73.0637 145.538 71.1277H148.992ZM149.696 69.5437L149.41 69.6097H145.846C146.154 68.1137 146.44 66.6177 146.616 65.2537L145.01 65.1217C144.834 66.5077 144.592 68.0697 144.284 69.6097H141.292V71.1277H143.954C143.448 73.3717 142.898 75.5277 142.348 77.0897C143.558 77.9257 144.922 78.9597 146.154 79.9937C144.9 81.8637 143.272 83.1177 141.292 83.8657C141.644 84.2177 142.062 84.8117 142.304 85.2297C144.372 84.3057 146.066 82.9857 147.408 81.0937C148.288 81.9077 149.058 82.6777 149.608 83.3597L150.708 81.9957C150.136 81.2917 149.278 80.4997 148.288 79.6637C149.586 77.1997 150.4 73.9877 150.708 69.7417L149.696 69.5437ZM153.436 81.4457V69.0377H158.826V81.4457H153.436ZM151.896 67.4757V84.6357H153.436V83.0077H158.826V84.3277H160.432V67.4757H151.896ZM167.406 73.4377V71.1717H172.356V73.4377H167.406ZM167.406 67.5857H172.356V69.8297H167.406V67.5857ZM179.044 69.8297H174.05V67.5857H179.044V69.8297ZM179.044 73.4377H174.05V71.1717H179.044V73.4377ZM182.784 78.2117V76.6937H174.05V74.8457H180.782V66.1557H165.756V74.8457H172.356V76.6937H163.622V78.2117H170.992C169.056 80.3017 165.932 82.1937 163.072 83.1177C163.424 83.4477 163.952 84.0857 164.172 84.4597C167.032 83.3817 170.244 81.2917 172.356 78.8937V85.2077H174.05V78.7837C176.206 81.1157 179.44 83.2497 182.234 84.3717C182.476 83.9757 182.982 83.3377 183.356 83.0077C180.584 82.0837 177.438 80.2357 175.414 78.2117H182.784ZM202.782 68.5977C202.43 69.3897 202.034 70.2037 201.726 70.7537L203.112 71.0397C203.662 70.1597 204.322 68.6637 204.894 67.4097L203.772 67.1017L203.508 67.1677H195.28C195.544 66.6177 195.786 66.0677 196.006 65.5177L194.488 65.1437C193.762 67.2117 192.486 69.2137 190.99 70.5117C191.342 70.7537 191.958 71.2597 192.222 71.5457C193.036 70.7537 193.828 69.7417 194.51 68.5977H202.782ZM200.516 71.7217C201.594 73.0857 202.716 74.9557 203.2 76.1877L204.608 75.4617C204.102 74.2517 202.958 72.4257 201.836 71.1057L200.516 71.7217ZM197.766 80.8517C197.15 79.7737 195.764 78.1897 194.554 77.0677L193.3 77.7937C194.488 78.9597 195.852 80.5877 196.402 81.6437L197.766 80.8517ZM194.466 71.1497C193.872 72.6677 192.86 74.2077 191.716 75.2417C192.068 75.4617 192.662 75.9017 192.948 76.1657C194.092 75.0437 195.258 73.3057 195.962 71.5677L194.466 71.1497ZM199.306 69.3457H197.744V75.7697C197.744 76.0117 197.656 76.0777 197.392 76.0777C197.106 76.0997 196.204 76.0997 195.17 76.0777C195.368 76.4957 195.61 77.0677 195.698 77.5077C197.084 77.5077 197.964 77.5077 198.536 77.2437C199.152 77.0017 199.306 76.6057 199.306 75.7917V69.3457ZM186.854 84.3057C187.668 82.9637 188.438 80.8957 189.01 79.4657L187.536 78.8717C187.052 80.3017 186.194 82.3037 185.314 83.6017L186.854 84.3057ZM190.286 65.0557C189.032 67.4977 187.052 69.9177 185.028 71.4357C185.358 71.7437 185.886 72.4037 186.106 72.7117C186.81 72.1177 187.536 71.4137 188.218 70.6437V77.6177H189.802V68.6857C190.528 67.6737 191.21 66.6177 191.738 65.5397L190.286 65.0557ZM193.344 83.2717C191.892 83.2717 191.628 83.1617 191.628 82.5237V78.7397H190V82.5457C190 84.3277 190.682 84.7897 193.278 84.7897H198.514C200.692 84.7897 201.22 84.1077 201.44 81.3357C200.978 81.2477 200.296 81.0057 199.922 80.7197C199.812 82.9417 199.614 83.2717 198.404 83.2717H193.344ZM201.044 79.0257C202.034 80.5877 203.046 82.6997 203.354 84.0417L204.916 83.4037C204.542 82.0617 203.508 80.0377 202.474 78.4757L201.044 79.0257ZM222.626 75.7257H213.452V73.5037H222.626V75.7257ZM213.452 79.4437V77.1337H222.626V79.4437H213.452ZM226.806 69.4777V67.9377H215.608C215.938 67.1457 216.202 66.3097 216.466 65.4957L214.838 65.0997C214.574 66.0457 214.244 66.9917 213.87 67.9377H207.666V69.4777H213.188C211.78 72.3817 209.778 75.0217 207.138 76.8037C207.468 77.1117 207.974 77.7057 208.194 78.0577C209.58 77.0897 210.79 75.9017 211.846 74.6037V85.1857H213.452V80.8517H222.626V83.1397C222.626 83.4697 222.494 83.5797 222.12 83.6017C221.724 83.6017 220.404 83.6237 218.952 83.5577C219.172 84.0197 219.414 84.6797 219.48 85.1637C221.35 85.1637 222.582 85.1417 223.308 84.8777C224.012 84.6137 224.232 84.1297 224.232 83.1397V72.0297H213.628C214.112 71.2157 214.552 70.3357 214.97 69.4777H226.806ZM234.704 65.1217C233.362 68.5317 231.14 71.8977 228.742 74.0317C229.094 74.4277 229.6 75.2637 229.754 75.6597C230.656 74.8017 231.536 73.7897 232.35 72.6897V85.2077H233.956V70.2697C234.858 68.7737 235.628 67.2117 236.288 65.6057L234.704 65.1217ZM249.224 76.0337V74.4497H243.02V68.3557C245 67.9597 246.848 67.4977 248.344 67.0137L247.134 65.6497C244.45 66.6177 239.698 67.4977 235.628 68.0257C235.804 68.3997 236.068 69.0157 236.134 69.4117C237.806 69.2137 239.632 68.9497 241.392 68.6417V74.4497H234.902V76.0337H241.392V82.7877H235.738V84.3717H248.894V82.7877H243.02V76.0337H249.224ZM256.11 65.1217C254.988 68.3997 253.118 71.6557 251.116 73.7897C251.38 74.1417 251.864 74.9997 252.018 75.3737C252.722 74.6037 253.426 73.7237 254.064 72.7117V85.1637H255.67V70.0277C256.418 68.5977 257.078 67.0797 257.628 65.6057L256.11 65.1217ZM263.656 73.3497V77.9917H259.872V73.3497H263.656ZM265.174 79.4437V71.8977H258.31V80.9617H259.872V79.4437H265.174ZM271.29 67.2337H257.672V68.8177H268.078V82.9417C268.078 83.3817 267.924 83.4917 267.462 83.5137C266.978 83.5357 265.372 83.5577 263.612 83.4917C263.854 83.9537 264.14 84.7017 264.206 85.1637C266.34 85.1637 267.792 85.1197 268.606 84.8557C269.376 84.5917 269.684 84.1077 269.684 82.9417V68.8177H271.29V67.2337ZM280.288 72.2937C281.85 72.2937 282.29 71.7217 282.466 69.4337C282.048 69.3237 281.454 69.0817 281.124 68.8397C281.036 70.6657 280.904 70.9297 280.156 70.9297H276.944C276.02 70.9297 275.844 70.8197 275.844 70.2697V68.9717C277.868 68.4877 280.112 67.8277 281.718 67.1237L280.596 66.0237C279.452 66.5957 277.604 67.2337 275.844 67.7177V65.2317H274.348V70.2697C274.348 71.8537 274.854 72.2937 276.812 72.2937H280.288ZM282.4 79.2677V77.8817H278.858V77.5957V75.6157H281.894V74.2517H276.24C276.438 73.7457 276.614 73.2177 276.768 72.6897L275.316 72.3817C274.854 74.0757 274.106 75.8137 273.094 76.9797C273.468 77.1777 274.062 77.5517 274.348 77.7937C274.832 77.1997 275.272 76.4517 275.69 75.6157H277.384V77.5737V77.8817H273.38V79.2677H277.252C276.944 80.9177 276.02 82.8317 273.226 84.1957C273.6 84.4377 274.04 84.9217 274.26 85.2517C276.438 84.1077 277.604 82.6777 278.198 81.2257C279.21 82.1497 280.244 83.1837 280.794 83.9097L281.828 82.8537C281.146 82.0177 279.76 80.7637 278.66 79.7957C278.682 79.6197 278.726 79.4437 278.748 79.2677H282.4ZM290.628 83.5577C289.88 83.5577 289.11 83.4917 288.428 83.2937V79.2677H292.432V77.8597H288.428V74.1417H291.354C291.09 74.9997 290.738 75.8577 290.43 76.4517L291.64 76.8257C292.19 75.8577 292.74 74.3177 293.18 72.9757L292.19 72.6897L291.926 72.7557H289.594L290.584 71.6557C290.1 71.2597 289.44 70.7977 288.714 70.3577C290.21 69.3017 291.728 67.8277 292.718 66.4197L291.706 65.7597L291.398 65.8477H282.906V67.1677H290.254C289.484 68.0257 288.45 68.9277 287.416 69.5877C286.58 69.1477 285.744 68.7297 284.996 68.3997L284.05 69.4117C285.964 70.3137 288.362 71.7217 289.55 72.7557H282.62V74.1417H286.954V82.6337C286.074 81.9957 285.348 81.0057 284.842 79.4437C285.018 78.2777 285.128 77.0237 285.194 75.6377L283.698 75.5937C283.566 79.3997 283.082 82.4357 281.212 84.3717C281.586 84.5697 282.246 85.0537 282.488 85.2957C283.39 84.2177 284.006 82.9197 284.424 81.3797C285.788 84.2837 287.922 84.9437 290.54 84.9437H292.806C292.872 84.5477 293.07 83.8877 293.268 83.5577H290.628ZM296.304 85.2077H297.91V70.0497H296.304V85.2077ZM296.546 66.1777C297.646 67.3217 299.098 68.9057 299.802 69.8517L301.012 68.9497C300.308 68.0257 298.834 66.5077 297.734 65.4077L296.546 66.1777ZM307.392 73.2397V78.2997H302.794V73.2397H307.392ZM308.976 79.7957V71.7437H301.298V81.2037H302.794V79.7957H308.976ZM314.08 66.3537H302.024V67.8717H312.474V82.8977C312.474 83.2717 312.342 83.4037 311.946 83.4257C311.594 83.4257 310.274 83.4477 308.954 83.3817C309.174 83.8437 309.438 84.5697 309.504 85.0317C311.286 85.0537 312.452 85.0097 313.156 84.7457C313.838 84.4597 314.08 83.9757 314.08 82.9197V66.3537ZM319.646 85.8677C321.956 85.0537 323.452 83.2497 323.452 80.8737C323.452 79.3337 322.792 78.3437 321.582 78.3437C320.68 78.3437 319.91 78.8937 319.91 79.9277C319.91 80.9617 320.658 81.4897 321.56 81.4897C321.692 81.4897 321.802 81.4897 321.934 81.4677C321.824 82.9637 320.856 83.9977 319.162 84.7017L319.646 85.8677ZM146.99 100.84C146.308 99.9597 144.812 98.5957 143.668 97.6277L142.612 98.5957C143.756 99.6297 145.208 101.06 145.868 101.984L146.99 100.84ZM146.044 113.358V103.986H141.182V105.548H144.46V113.534C144.46 114.502 143.844 115.162 143.426 115.404C143.712 115.734 144.13 116.416 144.284 116.79C144.614 116.372 145.186 115.888 148.86 113.05C148.684 112.742 148.398 112.126 148.288 111.686L146.044 113.358ZM151.06 112.61V110.828H157.924V112.61H151.06ZM157.924 107.99V109.684H151.06V107.99H157.924ZM159.486 106.714H149.52V117.186H151.06V113.798H157.924V115.338C157.924 115.624 157.836 115.712 157.506 115.712C157.242 115.734 156.186 115.734 155.064 115.69C155.262 116.108 155.482 116.702 155.548 117.098C157.11 117.12 158.078 117.098 158.716 116.856C159.31 116.614 159.486 116.196 159.486 115.36V106.714ZM155.284 104.206V102.666H159.904V101.478H155.284V100.092H160.564V98.8377H155.284V97.1217H153.678V98.8377H148.618V100.092H153.678V101.478H149.146V102.666H153.678V104.206H147.958V105.46H161.202V104.206H155.284ZM180.76 104.162V105.988H176.69V104.162H180.76ZM176.69 109.09V107.176H180.76V109.09H176.69ZM175.282 113.974H176.69V110.3H180.76V112.478C180.76 112.676 180.672 112.742 180.474 112.764C180.254 112.764 179.616 112.764 178.912 112.742C179.088 113.116 179.242 113.622 179.308 113.996C180.408 113.996 181.156 113.996 181.618 113.754C182.102 113.534 182.234 113.182 182.234 112.478V102.886H176.448C176.778 102.292 177.086 101.654 177.328 100.994H183.136V99.5637H177.856C178.098 98.8597 178.274 98.1117 178.45 97.3637L176.998 97.0997C176.822 97.9577 176.602 98.7937 176.316 99.5637H173.148V100.994H175.788C174.974 102.754 173.962 104.25 172.62 105.35C172.95 105.592 173.5 106.142 173.72 106.428C174.27 105.9 174.82 105.35 175.282 104.69V113.974ZM172.818 102.38C172.378 101.456 171.388 100.048 170.508 99.0137L169.408 99.6077C170.288 100.664 171.234 102.138 171.652 103.062L172.818 102.38ZM168.572 97.9797L168.352 98.0457H163.996V117.208H165.448V99.5197H167.824C167.45 101.016 166.922 103.04 166.372 104.668C167.692 106.45 167.978 107.99 167.978 109.2C167.978 109.882 167.89 110.52 167.604 110.762C167.45 110.872 167.274 110.938 167.032 110.96C166.768 110.982 166.416 110.982 166.02 110.916C166.24 111.334 166.35 111.928 166.372 112.324C166.79 112.346 167.252 112.346 167.582 112.302C167.978 112.236 168.33 112.126 168.616 111.906C169.144 111.488 169.364 110.52 169.364 109.376C169.364 107.99 169.078 106.362 167.736 104.492C168.374 102.71 169.056 100.422 169.584 98.5737L168.572 97.9797ZM172.752 105.504H169.32V106.912H171.322V113.072C170.486 113.424 169.54 114.392 168.594 115.646L169.606 116.988C170.442 115.558 171.322 114.238 171.916 114.238C172.356 114.238 173.016 114.92 173.786 115.492C175.018 116.372 176.36 116.724 178.296 116.724C179.638 116.724 181.948 116.658 182.982 116.57C183.004 116.152 183.202 115.426 183.356 115.03C181.904 115.206 179.748 115.316 178.318 115.316C176.514 115.316 175.238 115.052 174.116 114.26C173.522 113.842 173.126 113.49 172.752 113.226V105.504ZM191.342 100.422V105.218H187.602V100.422H191.342ZM187.602 111.664V106.692H191.342V111.664H187.602ZM192.882 98.9477H186.062V114.898H187.602V113.16H192.882V98.9477ZM205.268 101.5H202.606V97.2317H200.978V101.5H193.872V103.106H200.978V114.766C200.978 115.206 200.802 115.338 200.362 115.36C199.878 115.382 198.25 115.382 196.556 115.338C196.82 115.778 197.062 116.526 197.15 116.966C199.35 116.988 200.736 116.966 201.506 116.68C202.276 116.438 202.606 115.932 202.606 114.766V103.106H205.268V101.5ZM199.394 110.102C198.668 108.782 197.128 106.538 195.962 104.866L194.62 105.57C195.786 107.264 197.26 109.596 197.964 110.938L199.394 110.102ZM221.13 110.256H207.534V111.84H221.13V110.256ZM211.956 105.636C212.242 104.448 212.528 103.084 212.836 101.698H225.376V100.136H213.144C213.32 99.3217 213.452 98.5077 213.606 97.7597L211.956 97.5837C211.428 100.598 210.548 104.734 209.866 107.154L211.23 107.176H223.902C223.396 112.214 222.846 114.48 222.01 115.118C221.768 115.36 221.438 115.382 220.888 115.382C220.25 115.382 218.556 115.382 216.84 115.228C217.17 115.668 217.412 116.35 217.456 116.834C218.996 116.944 220.58 116.966 221.372 116.922C222.296 116.878 222.868 116.724 223.418 116.152C224.408 115.206 225.024 112.698 225.64 106.428C225.684 106.208 225.706 105.636 225.706 105.636H211.956ZM248.388 101.346C247.684 100.312 246.144 98.7717 244.89 97.6937L243.636 98.5517C244.912 99.6737 246.408 101.258 247.068 102.292L248.388 101.346ZM246.43 106.142C245.682 107.55 244.714 108.892 243.548 110.146C243.174 108.694 242.866 107 242.646 105.13H248.938V103.568H242.47C242.294 101.61 242.206 99.4977 242.206 97.2977H240.534C240.556 99.4537 240.644 101.566 240.842 103.568H235.804V99.7397C237.146 99.4537 238.422 99.1017 239.478 98.7277L238.312 97.3857C236.244 98.1557 232.702 98.9037 229.622 99.3657C229.842 99.7617 230.062 100.334 230.15 100.73C231.448 100.554 232.834 100.334 234.198 100.07V103.568H229.49V105.13H234.198V108.98C232.284 109.376 230.502 109.75 229.182 109.97L229.644 111.62C230.964 111.334 232.548 110.96 234.198 110.608V115.074C234.198 115.47 234.066 115.58 233.67 115.58C233.296 115.602 231.998 115.624 230.59 115.558C230.832 116.02 231.118 116.768 231.206 117.208C232.988 117.208 234.176 117.164 234.858 116.9C235.54 116.636 235.804 116.152 235.804 115.096V110.212C237.146 109.904 238.51 109.596 239.852 109.266L239.742 107.792C238.444 108.078 237.102 108.364 235.804 108.65V105.13H240.974C241.26 107.506 241.678 109.684 242.206 111.51C240.644 112.962 238.84 114.172 236.992 115.074C237.41 115.426 237.872 115.976 238.114 116.372C239.764 115.514 241.326 114.414 242.756 113.138C243.768 115.712 245.088 117.252 246.826 117.252C248.476 117.252 249.048 116.196 249.356 112.566C248.894 112.412 248.322 112.038 247.97 111.686C247.838 114.502 247.574 115.624 246.98 115.624C245.88 115.624 244.89 114.216 244.054 111.906C245.594 110.344 246.892 108.606 247.882 106.736L246.43 106.142ZM255.208 97.2317C254.262 100.598 252.788 103.964 251.05 106.186C251.336 106.56 251.798 107.462 251.93 107.814C252.458 107.132 252.964 106.362 253.448 105.504V117.186H255.032V102.336C255.67 100.84 256.264 99.2337 256.704 97.6497L255.208 97.2317ZM257.672 117.208H259.256V101.522H257.672V117.208ZM258.574 97.8037C259.564 99.1457 260.664 100.994 261.126 102.094L262.468 101.324C261.962 100.224 260.818 98.4417 259.85 97.1217L258.574 97.8037ZM270.388 97.9137H262.842V99.4097H268.782V115.096C268.782 115.47 268.672 115.58 268.298 115.602C267.946 115.624 266.736 115.646 265.482 115.58C265.702 116.02 265.944 116.724 266.01 117.142C267.726 117.142 268.848 117.12 269.508 116.856C270.146 116.592 270.388 116.13 270.388 115.118V97.9137ZM286.404 100.796C286.008 99.8497 285.062 98.4637 284.182 97.4737L282.884 98.1117C283.742 99.1457 284.644 100.576 285.018 101.522L286.404 100.796ZM275.954 108.518H279.144V111.598C278.022 111.774 276.944 111.95 275.954 112.104V108.518ZM279.144 99.5417V102.622H275.954V99.5417H279.144ZM275.954 104.008H279.144V107.154H275.954V104.008ZM282.378 112.522L282.268 111.114L280.552 111.378V99.5417H281.52V98.0457H273.292V99.5417H274.502V112.346L273.094 112.522L273.446 114.062L279.144 113.094V117.208H280.552V112.83L282.378 112.522ZM293.114 108.65V107.154H287.746C287.79 106.67 287.79 106.252 287.79 105.812V103.172H292.3V101.654H289.33C290.078 100.576 290.914 99.2117 291.618 97.9577L289.968 97.4957C289.418 98.7497 288.428 100.51 287.592 101.654H282.158V103.172H286.162V105.79C286.162 106.23 286.162 106.67 286.118 107.154H281.63V108.65H285.964C285.59 111.136 284.402 113.952 280.86 116.24C281.256 116.526 281.806 117.032 282.048 117.406C284.842 115.492 286.316 113.248 287.042 111.092C288.186 113.82 289.902 115.976 292.278 117.186C292.52 116.746 292.982 116.152 293.356 115.822C290.584 114.59 288.648 111.928 287.68 108.65H293.114ZM300.528 110.564C299.384 112.126 297.58 113.754 295.82 114.81C296.26 115.03 296.92 115.58 297.25 115.888C298.9 114.722 300.836 112.896 302.156 111.136L300.528 110.564ZM311.66 108.76C312.276 109.486 312.826 110.19 313.2 110.74L314.498 109.948C313.596 108.628 311.726 106.604 310.01 105.108L308.778 105.746C309.35 106.296 309.966 106.89 310.538 107.528L300.946 108.144C304.224 106.56 307.568 104.536 310.78 102.094L309.526 101.038C308.426 101.94 307.216 102.82 306.028 103.612L300.704 103.876C302.266 102.754 303.872 101.324 305.324 99.8277C308.162 99.5417 310.868 99.1237 312.958 98.6177L311.792 97.2757C308.272 98.1557 301.914 98.7277 296.612 99.0137C296.788 99.3877 296.986 100.026 297.03 100.444C298.944 100.356 301.012 100.224 303.036 100.048C301.628 101.544 300 102.842 299.428 103.194C298.79 103.7 298.262 104.03 297.822 104.074C297.998 104.492 298.24 105.24 298.306 105.548C298.724 105.372 299.428 105.284 303.894 105.02C302.002 106.164 300.396 107.044 299.648 107.396C298.284 108.078 297.316 108.496 296.59 108.584C296.788 109.024 297.03 109.772 297.096 110.102C297.712 109.86 298.57 109.728 304.576 109.288V115.008C304.576 115.272 304.51 115.36 304.136 115.382C303.784 115.382 302.596 115.382 301.276 115.338C301.54 115.8 301.826 116.46 301.892 116.944C303.498 116.944 304.598 116.944 305.302 116.658C306.028 116.394 306.226 115.954 306.226 115.03V109.156L311.66 108.76ZM308.162 111.29C309.988 112.698 312.232 114.7 313.31 115.932L314.696 114.942C313.53 113.71 311.264 111.774 309.46 110.454L308.162 111.29Z" fill="#FFFEFE"/>
<path d="M155.072 165.458C153.752 165.458 153.584 165.218 153.584 163.73V162.386H160.64C160.424 164.834 160.136 165.458 159.008 165.458H155.072ZM145.856 159.602V157.37H150.512V159.602H145.856ZM150.512 152.426V154.754H145.856V152.426H150.512ZM158.24 157.37V159.602H153.584V157.37H158.24ZM158.24 152.426V154.754H153.584V152.426H158.24ZM161.168 149.642H153.584V146.306H150.512V149.642H142.904V163.802H145.856V162.386H150.512V163.706C150.512 167.354 151.448 168.338 154.736 168.338H159.296C162.224 168.338 163.088 166.946 163.496 163.178C162.8 163.034 161.888 162.65 161.168 162.266V149.642ZM187.112 156.554H177.8V154.73C180.56 153.242 183.44 151.082 185.48 149.066L183.32 147.41L182.648 147.554H167.696V150.386H179.456C178.064 151.418 176.336 152.498 174.824 153.218V156.554H165.32V159.41H174.824V165.122C174.824 165.53 174.656 165.65 174.128 165.674C173.624 165.698 171.752 165.698 170.072 165.602C170.552 166.418 171.128 167.714 171.296 168.554C173.504 168.578 175.136 168.506 176.312 168.05C177.44 167.594 177.8 166.802 177.8 165.194V159.41H187.112V156.554ZM198.632 156.242H196.736V152.258H198.632V156.242ZM196.736 162.986V158.642H198.632V162.986H196.736ZM192.368 158.642H194.288V162.986H192.368V158.642ZM194.288 152.258V156.242H192.368V152.258H194.288ZM196.904 146.234H194.12V149.834H189.92V167.114H192.368V165.41H198.632V166.778H201.2V149.834H196.904V146.234ZM209.432 147.218L209 147.338H202.832V168.602H205.256V150.002H207.944C207.368 151.826 206.6 154.202 205.904 155.93C207.8 157.85 208.352 159.578 208.352 160.922C208.352 161.714 208.208 162.29 207.752 162.554C207.488 162.698 207.152 162.746 206.816 162.77C206.432 162.77 205.928 162.77 205.328 162.722C205.784 163.466 206.024 164.618 206.072 165.362C206.768 165.386 207.488 165.386 208.04 165.314C208.664 165.218 209.24 165.05 209.672 164.714C210.584 164.09 210.968 162.914 210.968 161.21C210.968 159.626 210.584 157.73 208.616 155.57C209.528 153.482 210.56 150.746 211.4 148.49L209.432 147.218ZM218.048 146.282C216.872 149.69 214.832 153.098 212.72 155.258C213.2 155.978 213.992 157.514 214.256 158.234C214.736 157.706 215.216 157.106 215.696 156.506V168.578H218.408V152.258C219.32 150.602 220.112 148.85 220.76 147.146L218.048 146.282ZM235.304 157.754H229.16V153.626H234.176V150.842H229.16V146.498H226.28V150.842H224.288C224.552 149.93 224.792 149.018 224.984 148.082L222.224 147.506C221.672 150.434 220.688 153.482 219.392 155.354C220.088 155.666 221.336 156.338 221.864 156.722C222.392 155.882 222.92 154.802 223.352 153.626H226.28V157.754H219.8V160.538H226.28V168.602H229.16V160.538H235.304V157.754ZM239.6 166.706C238.88 166.706 238.288 166.498 237.824 166.082C237.376 165.65 237.152 165.122 237.152 164.498C237.152 163.858 237.376 163.322 237.824 162.89C238.288 162.458 238.88 162.242 239.6 162.242C240.304 162.242 240.88 162.458 241.328 162.89C241.792 163.322 242.024 163.858 242.024 164.498C242.024 165.122 241.792 165.65 241.328 166.082C240.88 166.498 240.304 166.706 239.6 166.706ZM239.6 156.938C238.88 156.938 238.288 156.73 237.824 156.314C237.376 155.882 237.152 155.354 237.152 154.73C237.152 154.09 237.376 153.554 237.824 153.122C238.288 152.69 238.88 152.474 239.6 152.474C240.304 152.474 240.88 152.69 241.328 153.122C241.792 153.554 242.024 154.09 242.024 154.73C242.024 155.354 241.792 155.882 241.328 156.314C240.88 156.73 240.304 156.938 239.6 156.938ZM256.736 151.73C256.016 151.73 255.424 151.522 254.96 151.106C254.512 150.674 254.288 150.146 254.288 149.522C254.288 148.882 254.512 148.354 254.96 147.938C255.424 147.506 256.016 147.29 256.736 147.29C257.44 147.29 258.016 147.506 258.464 147.938C258.928 148.354 259.16 148.882 259.16 149.522C259.16 150.146 258.928 150.674 258.464 151.106C258.016 151.522 257.44 151.73 256.736 151.73ZM258.776 153.122V166.514H254.672V153.122H258.776ZM269.91 152.978C271.478 152.978 272.726 153.49 273.654 154.514C274.598 155.522 275.07 156.914 275.07 158.69V166.514H270.99V159.242C270.99 158.346 270.758 157.65 270.294 157.154C269.83 156.658 269.206 156.41 268.422 156.41C267.638 156.41 267.014 156.658 266.55 157.154C266.086 157.65 265.854 158.346 265.854 159.242V166.514H261.75V153.122H265.854V154.898C266.27 154.306 266.83 153.842 267.534 153.506C268.238 153.154 269.03 152.978 269.91 152.978ZM284.642 156.53H282.434V166.514H278.33V156.53H276.842V153.122H278.33V152.738C278.33 151.09 278.802 149.842 279.746 148.994C280.69 148.13 282.074 147.698 283.898 147.698C284.202 147.698 284.426 147.706 284.57 147.722V151.202C283.786 151.154 283.234 151.266 282.914 151.538C282.594 151.81 282.434 152.298 282.434 153.002V153.122H284.642V156.53ZM292.667 166.706C291.355 166.706 290.171 166.426 289.115 165.866C288.075 165.306 287.251 164.506 286.643 163.466C286.051 162.426 285.755 161.21 285.755 159.818C285.755 158.442 286.059 157.234 286.667 156.194C287.275 155.138 288.107 154.33 289.163 153.77C290.219 153.21 291.403 152.93 292.715 152.93C294.027 152.93 295.211 153.21 296.267 153.77C297.323 154.33 298.155 155.138 298.763 156.194C299.371 157.234 299.675 158.442 299.675 159.818C299.675 161.194 299.363 162.41 298.739 163.466C298.131 164.506 297.291 165.306 296.219 165.866C295.163 166.426 293.979 166.706 292.667 166.706ZM292.667 163.154C293.451 163.154 294.115 162.866 294.659 162.29C295.219 161.714 295.499 160.89 295.499 159.818C295.499 158.746 295.227 157.922 294.683 157.346C294.155 156.77 293.499 156.482 292.715 156.482C291.915 156.482 291.251 156.77 290.723 157.346C290.195 157.906 289.931 158.73 289.931 159.818C289.931 160.89 290.187 161.714 290.699 162.29C291.227 162.866 291.883 163.154 292.667 163.154ZM315.196 150.482C317.084 150.482 318.732 150.842 320.14 151.562C321.548 152.266 322.628 153.266 323.38 154.562C324.148 155.842 324.532 157.322 324.532 159.002C324.532 160.362 324.292 161.626 323.812 162.794C323.348 163.962 322.652 164.898 321.724 165.602C320.812 166.29 319.724 166.634 318.46 166.634C317.612 166.634 316.908 166.466 316.348 166.13C315.804 165.794 315.436 165.322 315.244 164.714C314.796 165.338 314.22 165.826 313.516 166.178C312.812 166.514 312.044 166.682 311.212 166.682C310.028 166.682 309.092 166.33 308.404 165.626C307.732 164.906 307.396 163.93 307.396 162.698C307.396 161.53 307.636 160.434 308.116 159.41C308.596 158.37 309.26 157.538 310.108 156.914C310.956 156.29 311.908 155.978 312.964 155.978C314.308 155.978 315.22 156.458 315.7 157.418L315.916 156.146H319.228L318.172 162.17C318.124 162.458 318.1 162.714 318.1 162.938C318.1 163.642 318.412 163.994 319.036 163.994C319.804 163.994 320.388 163.506 320.788 162.53C321.204 161.538 321.412 160.402 321.412 159.122C321.412 157.282 320.828 155.842 319.66 154.802C318.508 153.762 316.884 153.242 314.788 153.242C312.996 153.242 311.364 153.674 309.892 154.538C308.436 155.402 307.292 156.586 306.46 158.09C305.628 159.578 305.212 161.218 305.212 163.01C305.212 164.946 305.772 166.45 306.892 167.522C308.028 168.594 309.612 169.13 311.644 169.13C313.228 169.13 314.644 168.842 315.892 168.266L316.54 170.882C314.972 171.57 313.212 171.914 311.26 171.914C309.436 171.914 307.828 171.562 306.436 170.858C305.06 170.154 303.996 169.154 303.244 167.858C302.492 166.562 302.116 165.05 302.116 163.322C302.116 160.906 302.684 158.722 303.82 156.77C304.956 154.802 306.516 153.266 308.5 152.162C310.5 151.042 312.732 150.482 315.196 150.482ZM312.556 163.73C313.004 163.73 313.42 163.594 313.804 163.322C314.204 163.05 314.516 162.69 314.74 162.242C314.98 161.778 315.1 161.282 315.1 160.754C315.1 160.21 314.948 159.77 314.644 159.434C314.34 159.082 313.924 158.906 313.396 158.906C312.692 158.906 312.108 159.21 311.644 159.818C311.18 160.426 310.948 161.146 310.948 161.978C310.948 162.506 311.084 162.93 311.356 163.25C311.628 163.57 312.028 163.73 312.556 163.73ZM340.398 159.602C340.398 159.986 340.374 160.386 340.326 160.802H331.038C331.102 161.634 331.366 162.274 331.83 162.722C332.31 163.154 332.894 163.37 333.582 163.37C334.606 163.37 335.318 162.938 335.718 162.074H340.086C339.862 162.954 339.454 163.746 338.862 164.45C338.286 165.154 337.558 165.706 336.678 166.106C335.798 166.506 334.814 166.706 333.726 166.706C332.414 166.706 331.246 166.426 330.222 165.866C329.198 165.306 328.398 164.506 327.822 163.466C327.246 162.426 326.958 161.21 326.958 159.818C326.958 158.426 327.238 157.21 327.798 156.17C328.374 155.13 329.174 154.33 330.198 153.77C331.222 153.21 332.398 152.93 333.726 152.93C335.022 152.93 336.174 153.202 337.182 153.746C338.19 154.29 338.974 155.066 339.534 156.074C340.11 157.082 340.398 158.258 340.398 159.602ZM336.198 158.522C336.198 157.818 335.958 157.258 335.478 156.842C334.998 156.426 334.398 156.218 333.678 156.218C332.99 156.218 332.406 156.418 331.926 156.818C331.462 157.218 331.174 157.786 331.062 158.522H336.198ZM342.299 153.938C342.363 152.226 342.923 150.906 343.979 149.978C345.035 149.05 346.467 148.586 348.275 148.586C349.475 148.586 350.499 148.794 351.347 149.21C352.211 149.626 352.859 150.194 353.291 150.914C353.739 151.634 353.963 152.442 353.963 153.338C353.963 154.394 353.699 155.258 353.171 155.93C352.643 156.586 352.027 157.034 351.323 157.274V157.37C352.235 157.674 352.955 158.178 353.483 158.882C354.011 159.586 354.275 160.49 354.275 161.594C354.275 162.586 354.043 163.466 353.579 164.234C353.131 164.986 352.467 165.578 351.587 166.01C350.723 166.442 349.691 166.658 348.491 166.658C346.571 166.658 345.035 166.186 343.883 165.242C342.747 164.298 342.147 162.874 342.083 160.97H346.067C346.083 161.674 346.283 162.234 346.667 162.65C347.051 163.05 347.611 163.25 348.347 163.25C348.971 163.25 349.451 163.074 349.787 162.722C350.139 162.354 350.315 161.874 350.315 161.282C350.315 160.514 350.067 159.962 349.571 159.626C349.091 159.274 348.315 159.098 347.243 159.098H346.475V155.762H347.243C348.059 155.762 348.715 155.626 349.211 155.354C349.723 155.066 349.979 154.562 349.979 153.842C349.979 153.266 349.819 152.818 349.499 152.498C349.179 152.178 348.739 152.018 348.179 152.018C347.571 152.018 347.115 152.202 346.811 152.57C346.523 152.938 346.355 153.394 346.307 153.938H342.299ZM364.558 163.034V166.514H362.47C360.982 166.514 359.822 166.154 358.99 165.434C358.158 164.698 357.742 163.506 357.742 161.858V156.53H356.11V153.122H357.742V149.858H361.846V153.122H364.534V156.53H361.846V161.906C361.846 162.306 361.942 162.594 362.134 162.77C362.326 162.946 362.646 163.034 363.094 163.034H364.558ZM368.764 166.706C368.044 166.706 367.452 166.498 366.988 166.082C366.54 165.65 366.316 165.122 366.316 164.498C366.316 163.858 366.54 163.322 366.988 162.89C367.452 162.458 368.044 162.242 368.764 162.242C369.468 162.242 370.044 162.458 370.492 162.89C370.956 163.322 371.188 163.858 371.188 164.498C371.188 165.122 370.956 165.65 370.492 166.082C370.044 166.498 369.468 166.706 368.764 166.706ZM372.802 159.818C372.802 158.426 373.082 157.21 373.642 156.17C374.218 155.13 375.01 154.33 376.018 153.77C377.042 153.21 378.21 152.93 379.522 152.93C381.202 152.93 382.602 153.37 383.722 154.25C384.858 155.13 385.602 156.37 385.954 157.97H381.586C381.218 156.946 380.506 156.434 379.45 156.434C378.698 156.434 378.098 156.73 377.65 157.322C377.202 157.898 376.978 158.73 376.978 159.818C376.978 160.906 377.202 161.746 377.65 162.338C378.098 162.914 378.698 163.202 379.45 163.202C380.506 163.202 381.218 162.69 381.586 161.666H385.954C385.602 163.234 384.858 164.466 383.722 165.362C382.586 166.258 381.186 166.706 379.522 166.706C378.21 166.706 377.042 166.426 376.018 165.866C375.01 165.306 374.218 164.506 373.642 163.466C373.082 162.426 372.802 161.21 372.802 159.818ZM394.245 166.706C392.933 166.706 391.749 166.426 390.693 165.866C389.653 165.306 388.829 164.506 388.221 163.466C387.629 162.426 387.333 161.21 387.333 159.818C387.333 158.442 387.637 157.234 388.245 156.194C388.853 155.138 389.685 154.33 390.741 153.77C391.797 153.21 392.981 152.93 394.293 152.93C395.605 152.93 396.789 153.21 397.845 153.77C398.901 154.33 399.733 155.138 400.341 156.194C400.949 157.234 401.253 158.442 401.253 159.818C401.253 161.194 400.941 162.41 400.317 163.466C399.709 164.506 398.869 165.306 397.797 165.866C396.741 166.426 395.557 166.706 394.245 166.706ZM394.245 163.154C395.029 163.154 395.693 162.866 396.237 162.29C396.797 161.714 397.077 160.89 397.077 159.818C397.077 158.746 396.805 157.922 396.261 157.346C395.733 156.77 395.077 156.482 394.293 156.482C393.493 156.482 392.829 156.77 392.301 157.346C391.773 157.906 391.509 158.73 391.509 159.818C391.509 160.89 391.765 161.714 392.277 162.29C392.805 162.866 393.461 163.154 394.245 163.154Z" fill="white"/>
<defs>
<linearGradient id="paint0_linear" x1="487.239" y1="636.88" x2="480.739" y2="394.728" gradientUnits="userSpaceOnUse">
<stop stop-color="#29225E"/>
<stop offset="1" stop-color="#3F368C"/>
</linearGradient>
<linearGradient id="paint1_linear" x1="462.991" y1="637.558" x2="456.491" y2="395.393" gradientUnits="userSpaceOnUse">
<stop stop-color="#29225E"/>
<stop offset="1" stop-color="#3F368C"/>
</linearGradient>
<linearGradient id="paint2_linear" x1="498.626" y1="337.759" x2="609.284" y2="284.929" gradientUnits="userSpaceOnUse">
<stop stop-color="#9AE8E0"/>
<stop offset="1" stop-color="#25FFF3"/>
</linearGradient>
<linearGradient id="paint3_linear" x1="478.827" y1="290.907" x2="481.718" y2="290.907" gradientUnits="userSpaceOnUse">
<stop stop-color="#9AE8E0"/>
<stop offset="1" stop-color="#25FFF3"/>
</linearGradient>
<linearGradient id="paint4_linear" x1="281.999" y1="227.941" x2="281.999" y2="924.108" gradientUnits="userSpaceOnUse">
<stop offset="0.3281" stop-color="#DD45D3"/>
<stop offset="1" stop-color="#6A11EA"/>
</linearGradient>
<linearGradient id="paint5_linear" x1="467.865" y1="331.785" x2="394.923" y2="400.674" gradientUnits="userSpaceOnUse">
<stop stop-color="#9AE8E0"/>
<stop offset="1" stop-color="#25FFF3"/>
</linearGradient>
<linearGradient id="paint6_linear" x1="190.582" y1="62.8456" x2="431.422" y2="297.673" gradientUnits="userSpaceOnUse">
<stop stop-color="#9AE8E0"/>
<stop offset="1" stop-color="#25FFF3"/>
</linearGradient>
<linearGradient id="paint7_linear" x1="191.366" y1="54.8126" x2="436.19" y2="293.524" gradientUnits="userSpaceOnUse">
<stop offset="0.3281" stop-color="#DD45D3"/>
<stop offset="1" stop-color="#6A11EA"/>
</linearGradient>
<clipPath id="clip0">
<rect width="147.8" height="430.6" fill="white" transform="translate(430 224)"/>
</clipPath>
<clipPath id="clip1">
<rect width="71.7" height="94.6" fill="white" transform="translate(403 304)"/>
</clipPath>
</defs>
</svg>
