<svg width="268" height="232" viewBox="0 0 268 232" fill="none" xmlns="http://www.w3.org/2000/svg">
<path d="M89.8 128H101.952V125.788H92.404V118.312H100.188V116.1H92.404V109.66H101.644V107.448H89.8V128ZM110.853 128.364C114.493 128.364 117.433 126.236 117.433 122.68C117.433 119.936 115.501 118.172 113.093 117.584V117.472C115.249 116.688 116.733 115.148 116.733 112.74C116.733 109.492 114.213 107.672 110.769 107.672C108.389 107.672 106.569 108.708 105.029 110.164L106.401 111.76C107.549 110.584 109.005 109.744 110.657 109.744C112.785 109.744 114.129 110.976 114.129 112.908C114.129 115.008 112.673 116.66 108.445 116.66V118.62C113.177 118.62 114.829 120.188 114.829 122.568C114.829 124.808 113.093 126.236 110.657 126.236C108.333 126.236 106.765 125.144 105.561 123.884L104.273 125.564C105.617 127.02 107.633 128.364 110.853 128.364ZM150.034 107.476C149.166 106.748 147.374 105.684 146.002 105.096L144.826 106.244C146.198 106.944 147.962 108.008 148.83 108.764L150.034 107.476ZM136.482 109.716V107.728H131.218C131.638 106.916 132.002 106.048 132.282 105.208L130.434 104.648C129.538 107.252 128.026 109.744 126.346 111.368C126.682 111.844 127.242 112.88 127.41 113.328C128.39 112.32 129.314 111.088 130.182 109.716H136.482ZM133.066 126.096V120.272H136.874V118.368H133.066V114.588H136.09V112.712H128.446V114.588H131.162V118.368H127.102V120.272H131.162V125.984C131.162 127.272 130.238 128.084 129.734 128.448C130.07 128.784 130.574 129.484 130.77 129.932C131.246 129.4 132.03 128.924 137.21 125.76C137.042 125.34 136.79 124.556 136.706 123.996L133.066 126.096ZM150.034 118.228C148.914 120.02 147.43 121.7 145.694 123.156C145.218 121.644 144.854 119.796 144.574 117.752L151.602 116.436L151.266 114.616L144.322 115.904C144.182 114.756 144.07 113.524 143.986 112.208L150.846 111.2L150.482 109.38L143.874 110.36C143.79 108.512 143.734 106.552 143.762 104.536H141.746C141.774 106.636 141.83 108.708 141.942 110.64L137.714 111.256L138.05 113.104L142.054 112.488C142.138 113.776 142.25 115.064 142.39 116.268L137.154 117.248L137.518 119.068L142.642 118.116C143.006 120.468 143.426 122.624 144.042 124.36C141.858 125.872 139.394 127.132 136.818 128C137.294 128.448 137.798 129.148 138.106 129.652C140.458 128.784 142.726 127.608 144.742 126.208C145.862 128.616 147.318 130.044 149.166 130.044C151.042 130.044 151.658 129.092 152.05 126.012C151.574 125.844 150.93 125.396 150.51 124.948C150.398 127.384 150.118 128.084 149.39 128.084C148.214 128.084 147.206 126.964 146.366 125.004C148.55 123.268 150.398 121.252 151.742 118.984L150.034 118.228ZM175.486 110.304C175.262 118.06 174.954 120.888 174.422 121.56C174.17 121.896 173.918 121.952 173.498 121.924C173.022 121.952 171.902 121.924 170.698 121.812C170.978 122.372 171.202 123.212 171.23 123.8C172.546 123.884 173.75 123.884 174.478 123.8C175.234 123.716 175.766 123.492 176.242 122.848C177.026 121.84 177.306 118.592 177.614 109.296V108.316H162.158C162.774 107.28 163.362 106.188 163.866 105.04L161.766 104.424C160.142 108.232 157.398 111.844 154.318 114.112C154.85 114.448 155.662 115.232 156.054 115.624C157.762 114.224 159.414 112.404 160.898 110.304H175.486ZM168.122 115.064V119.572H160.842V115.064H168.122ZM164.342 127.58C161.374 127.58 160.842 127.188 160.842 125.676V121.448H170.166V113.188H158.798V125.676C158.798 128.784 160.086 129.54 164.454 129.54H175.01C178.79 129.54 179.63 128.504 180.05 124.836C179.462 124.724 178.566 124.416 178.062 124.08C177.754 126.964 177.362 127.58 174.982 127.58H164.342Z" fill="white"/>
<path d="M195 10H73L12 115.7L73 221.3H195L256 115.7L195 10Z" stroke="url(#paint0_linear)" stroke-width="20" stroke-miterlimit="10"/>
<defs>
<linearGradient id="paint0_linear" x1="0.467802" y1="115.65" x2="267.551" y2="115.65" gradientUnits="userSpaceOnUse">
<stop offset="0.3281" stop-color="#DD45D3"/>
<stop offset="1" stop-color="#6A11EA"/>
</linearGradient>
</defs>
</svg>
