<svg width="268" height="232" viewBox="0 0 268 232" fill="none" xmlns="http://www.w3.org/2000/svg">
<path d="M104.236 108.792H93.764L94.744 108.54C94.492 107.476 93.848 105.824 93.232 104.536L91.132 104.984C91.636 106.16 92.196 107.7 92.476 108.792H82.06V116.8C82.06 120.524 81.808 125.452 79.176 128.952C79.68 129.232 80.52 130.016 80.884 130.464C83.768 126.656 84.244 120.916 84.244 116.8V110.836H104.236V108.792ZM129.968 104.928C126.888 106.216 121.064 107.14 116.052 107.672C116.304 108.12 116.612 108.932 116.696 109.436C121.848 108.932 127.896 108.008 131.704 106.58L129.968 104.928ZM125.068 113.16C124.648 112.18 123.752 110.556 123.052 109.352L121.372 109.996C122.072 111.228 122.884 112.936 123.304 113.916L125.068 113.16ZM115.128 108.036C113.98 107.224 111.684 105.88 110.004 105.012L108.772 106.412C110.48 107.364 112.72 108.792 113.84 109.66L115.128 108.036ZM113.56 115.372C112.356 114.588 110.032 113.356 108.408 112.544L107.26 114.056C108.968 114.952 111.264 116.296 112.412 117.08L113.56 115.372ZM113.476 119.432C111.908 122.568 109.696 126.264 108.184 128.364L109.948 129.764C111.6 127.16 113.532 123.716 114.988 120.804L113.476 119.432ZM130.248 114.028L129.828 114.14H115.772V116.1H128.4C126.328 119.04 122.884 122.344 119.552 124.416C119.3 124.276 119.048 124.192 118.768 124.192C117.62 124.192 116.248 125.76 114.764 128L116.22 129.904C117.144 127.916 118.096 126.068 118.768 126.068C119.3 126.068 120.112 126.992 121.092 127.832C122.604 129.064 124.228 129.568 126.776 129.568C128.176 129.568 131.2 129.456 132.488 129.372C132.516 128.784 132.796 127.748 132.992 127.188C131.228 127.384 128.596 127.524 126.804 127.524C124.48 127.524 122.94 127.16 121.568 126.096C121.372 125.928 121.204 125.76 121.008 125.62C125.096 123.044 129.296 118.844 131.676 114.952L130.248 114.028ZM160.404 116.548C159.396 114.924 157.268 112.348 155.504 110.528L153.936 111.452C154.608 112.208 155.392 113.076 156.092 113.944L147.328 114.476C148.392 113.216 149.708 111.48 150.772 110.08H160.376V108.204H152.984C152.704 107.14 152.088 105.712 151.5 104.592L149.624 105.04C150.072 106.02 150.548 107.224 150.884 108.204H142.932V110.08H148.42C147.272 111.592 145.676 113.552 145.144 114.056C144.584 114.56 143.8 114.728 143.268 114.868C143.436 115.288 143.744 116.324 143.828 116.828C144.64 116.492 145.928 116.408 157.408 115.652C157.94 116.38 158.416 117.08 158.752 117.668L160.404 116.548ZM142.428 108.344C141.448 107.308 139.32 105.88 137.668 104.928L136.464 106.384C138.144 107.392 140.216 108.932 141.196 109.996L142.428 108.344ZM141.448 115.4C140.328 114.476 138.088 113.272 136.324 112.516L135.232 114.056C137.024 114.868 139.208 116.184 140.3 117.136L141.448 115.4ZM141.224 119.404C139.6 122.568 137.416 126.236 135.932 128.364L137.668 129.764C139.292 127.188 141.252 123.716 142.736 120.776L141.224 119.404ZM145.2 120.72C145.2 123.268 144.836 126.348 141.448 128.7C141.896 128.98 142.596 129.652 142.904 130.072C146.656 127.384 147.104 123.828 147.104 120.748V117.864H145.2V120.72ZM150.128 128.924H152.004V117.892H150.128V128.924ZM157.632 128C157.492 128 157.296 127.944 157.184 127.86C157.044 127.748 157.044 127.44 157.044 126.908V117.864H155.112V126.684C155.112 128.392 155.252 128.84 155.644 129.176C156.036 129.512 156.652 129.652 157.184 129.652H158.556C159.004 129.652 159.564 129.568 159.872 129.372C160.236 129.148 160.488 128.812 160.628 128.28C160.768 127.776 160.852 126.32 160.88 125.088C160.376 124.92 159.788 124.612 159.424 124.304C159.396 125.648 159.368 126.656 159.34 127.132C159.256 127.524 159.172 127.776 159.032 127.86C158.892 127.972 158.696 128 158.444 128H157.632ZM178.856 113.16V115.624H174.18V113.16H178.856ZM185.604 113.16V115.624H180.732V113.16H185.604ZM180.732 119.712V117.164H185.604V119.712H180.732ZM174.18 119.712V117.164H178.856V119.712H174.18ZM174.18 121.308H178.856V125.872H180.732V121.308H185.604V123.856C185.604 124.22 185.492 124.332 185.128 124.332C184.792 124.332 183.616 124.36 182.3 124.304C182.552 124.808 182.776 125.508 182.86 126.04C184.736 126.04 185.912 126.012 186.64 125.704C187.368 125.396 187.592 124.92 187.592 123.884V111.564H183.924C183.364 111.228 182.636 110.836 181.852 110.472C183.924 109.38 186.052 107.924 187.564 106.468L186.304 105.488L185.884 105.6H172.22V107.252H184.008C182.86 108.092 181.432 108.988 180.06 109.632C178.688 109.044 177.232 108.456 176 108.008L174.684 109.184C176.392 109.828 178.436 110.724 180.144 111.564H172.192V125.956H174.18V121.308ZM170.148 110.276C169.14 109.016 166.984 107.056 165.332 105.684L163.876 106.86C165.556 108.316 167.656 110.36 168.636 111.648L170.148 110.276ZM169.224 115.008H163.288V116.968H167.208V124.864C166.004 125.368 164.604 126.628 163.176 128.14L164.492 129.848C165.892 127.972 167.264 126.376 168.216 126.376C168.86 126.376 169.84 127.3 170.932 127.972C172.92 129.176 175.216 129.512 178.66 129.512C181.656 129.512 186.528 129.344 188.46 129.232C188.516 128.644 188.796 127.72 189.02 127.188C186.164 127.468 181.964 127.72 178.716 127.72C175.608 127.72 173.228 127.496 171.38 126.348C170.372 125.76 169.784 125.228 169.224 124.92V115.008Z" fill="white"/>
<path d="M195 10H73L12 115.7L73 221.3H195L256 115.7L195 10Z" stroke="url(#paint0_linear)" stroke-width="20" stroke-miterlimit="10"/>
<defs>
<linearGradient id="paint0_linear" x1="0.467802" y1="115.65" x2="267.551" y2="115.65" gradientUnits="userSpaceOnUse">
<stop offset="0.3281" stop-color="#DD45D3"/>
<stop offset="1" stop-color="#6A11EA"/>
</linearGradient>
</defs>
</svg>
