<svg width="268" height="232" viewBox="0 0 268 232" fill="none" xmlns="http://www.w3.org/2000/svg">
<path d="M130.024 108.932C129.24 107.924 127.616 106.188 126.412 104.956L124.816 105.964C126.02 107.252 127.588 109.016 128.344 110.08L130.024 108.932ZM126.748 117.892C125.74 120.16 124.256 122.092 122.464 123.66C120.56 122.064 119.048 120.104 117.984 117.892H126.748ZM128.148 115.764L127.756 115.876H118.376C118.712 114.924 119.048 113.916 119.356 112.908H131.956L131.984 110.892H119.916C120.364 108.988 120.728 106.972 121.036 104.816L118.712 104.48C118.46 106.748 118.068 108.876 117.536 110.892H112.496C113.224 109.436 114.036 107.56 114.512 105.768L112.328 105.348C111.824 107.476 110.788 109.744 110.452 110.304C110.144 110.92 109.836 111.312 109.444 111.424C109.668 111.9 110.004 112.936 110.144 113.384C110.396 113.076 111.348 112.908 113.112 112.908H117.004C115.156 118.704 112.076 123.268 106.98 126.376C107.484 126.74 108.212 127.496 108.52 127.972C112.132 125.732 114.764 122.876 116.696 119.432C117.816 121.532 119.216 123.352 120.868 124.892C118.488 126.572 115.688 127.748 112.804 128.42C113.168 128.868 113.672 129.68 113.896 130.212C117.004 129.372 119.944 128.084 122.52 126.236C125.012 128.112 128.064 129.456 131.62 130.24C131.9 129.652 132.46 128.812 132.908 128.392C129.492 127.748 126.552 126.572 124.116 124.92C126.524 122.764 128.4 119.992 129.548 116.464L128.148 115.764ZM156.764 107.728V110.584H140.104V107.728H156.764ZM158.836 112.404V105.908H138.032V114.056C138.032 118.536 137.808 124.724 135.008 129.12C135.512 129.288 136.436 129.848 136.828 130.184C139.684 125.62 140.104 118.816 140.104 114.056V112.404H158.836ZM147.16 116.996H152.732V119.936H147.16V116.996ZM157.464 121.924C156.428 122.764 154.692 123.884 153.292 124.724C152.368 123.856 151.64 122.848 151.052 121.756H160.516V119.936H154.692V116.996H159.396V115.204H154.692V112.684H152.732V115.204H147.16V112.684H145.2V115.204H141.028V116.996H145.2V119.936H140.272V121.756H143.296V126.292C143.296 127.524 142.456 128.14 141.952 128.42C142.26 128.84 142.68 129.68 142.764 130.184C143.324 129.82 144.192 129.568 151.192 127.86C151.136 127.44 151.192 126.628 151.276 126.124L145.256 127.468V121.756H149.12C151.024 126.068 154.58 128.924 159.536 130.184C159.816 129.624 160.348 128.868 160.824 128.448C158.36 127.944 156.288 127.076 154.58 125.816C156.008 125.06 157.716 123.996 159.032 122.988L157.464 121.924Z" fill="white"/>
<path d="M195 10H73L12 115.7L73 221.3H195L256 115.7L195 10Z" stroke="url(#paint0_linear)" stroke-width="20" stroke-miterlimit="10"/>
<defs>
<linearGradient id="paint0_linear" x1="0.467802" y1="115.65" x2="267.551" y2="115.65" gradientUnits="userSpaceOnUse">
<stop offset="0.3281" stop-color="#DD45D3"/>
<stop offset="1" stop-color="#6A11EA"/>
</linearGradient>
</defs>
</svg>
