<svg width="268" height="232" viewBox="0 0 268 232" fill="none" xmlns="http://www.w3.org/2000/svg">
<path d="M90.824 104.676C90.74 108.932 90.908 122.54 79.288 128.42C79.932 128.84 80.604 129.484 80.968 130.044C87.8 126.404 90.768 120.132 92.056 114.532C93.4 119.74 96.396 126.656 103.396 129.932C103.704 129.344 104.32 128.644 104.908 128.168C95.024 123.772 93.344 112.068 92.924 108.736C93.064 107.084 93.092 105.684 93.12 104.676H90.824ZM132.152 110.248H124.676V104.564H122.464V110.248H107.988V112.348H120.42C117.312 117.332 112.104 122.4 107.092 124.948C107.68 125.424 108.324 126.208 108.688 126.796C113.84 123.856 119.216 118.368 122.464 113.048V126.908C122.464 127.468 122.24 127.636 121.68 127.664C121.148 127.692 119.216 127.692 117.228 127.608C117.536 128.224 117.872 129.176 117.984 129.764C120.728 129.792 122.38 129.736 123.332 129.372C124.284 129.036 124.676 128.392 124.676 126.908V112.348H132.152V110.248ZM160.516 110.696V108.652H149.4L149.764 108.512C149.372 107.42 148.42 105.656 147.58 104.368L145.592 104.984C146.236 106.104 146.992 107.56 147.44 108.652H135.512V110.696H146.852V114.476H138.228V126.908H140.3V116.52H146.852V130.1H148.952V116.52H155.924V124.248C155.924 124.64 155.784 124.752 155.28 124.808C154.804 124.808 153.124 124.808 151.22 124.752C151.5 125.34 151.864 126.18 151.948 126.824C154.328 126.824 155.896 126.796 156.848 126.46C157.744 126.096 158.024 125.48 158.024 124.276V114.476H148.952V110.696H160.516ZM177.036 113.58C179.78 111.816 182.72 109.576 185.688 106.888L184.12 105.712L183.728 105.88H172.5V107.868H181.488C179.08 110.08 176.364 111.956 175.44 112.544C174.348 113.244 173.34 113.804 172.64 113.916C172.92 114.42 173.368 115.428 173.508 115.876C173.732 115.652 174.656 115.54 175.944 115.54H177.904C176.756 118.592 174.74 121.14 172.22 122.792L171.856 121.196L168.86 122.316V113.328H171.912V111.368H168.86V104.9H166.9V111.368H163.512V113.328H166.9V123.016C165.444 123.548 164.128 123.996 163.092 124.332L163.764 126.432C166.2 125.508 169.336 124.248 172.276 123.072L172.22 122.848C172.668 123.156 173.424 123.688 173.676 123.996C176.364 122.064 178.632 119.124 179.892 115.54H182.244C180.508 121.504 177.344 126.124 172.612 128.924C173.088 129.176 173.872 129.792 174.208 130.128C178.94 126.964 182.272 122.092 184.176 115.54H186.08C185.548 123.688 184.988 126.88 184.232 127.636C183.98 128 183.728 128.056 183.28 128.056C182.776 128.056 181.768 128.028 180.62 127.916C180.928 128.476 181.124 129.316 181.152 129.904C182.356 129.96 183.476 129.96 184.148 129.876C184.96 129.82 185.492 129.596 186.024 128.952C187.004 127.776 187.592 124.36 188.152 114.56C188.208 114.308 188.236 113.58 188.236 113.58H177.036Z" fill="white"/>
<path d="M195 10H73L12 115.7L73 221.3H195L256 115.7L195 10Z" stroke="url(#paint0_linear)" stroke-width="20" stroke-miterlimit="10"/>
<defs>
<linearGradient id="paint0_linear" x1="0.467802" y1="115.65" x2="267.551" y2="115.65" gradientUnits="userSpaceOnUse">
<stop offset="0.3281" stop-color="#DD45D3"/>
<stop offset="1" stop-color="#6A11EA"/>
</linearGradient>
</defs>
</svg>
