<svg width="1080" height="521" viewBox="0 0 1080 521" fill="none" xmlns="http://www.w3.org/2000/svg">
<g clip-path="url(#clip0)">
<path d="M628.59 145.511H451.23L362.521 299.12L451.23 452.669H628.59L717.3 299.12L628.59 145.511Z" fill="#7617E8"/>
<path d="M717.18 299.598L626.196 145.809V145.211L606.443 240.955L639.963 342.683L472.36 265.489L513.064 366.021L639.963 342.683L717.18 299L626.196 452.789L639.963 342.683L446.023 452.789L513.064 366.021L362.521 299.299L472.66 265.789L606.742 241.254L446.322 155.683" stroke="#87ECE3" stroke-width="7" stroke-miterlimit="10"/>
<path d="M446.322 189.194C464.835 189.194 479.843 174.191 479.843 155.683C479.843 137.176 464.835 122.173 446.322 122.173C427.809 122.173 412.801 137.176 412.801 155.683C412.801 174.191 427.809 189.194 446.322 189.194Z" fill="url(#paint0_linear)"/>
<path d="M362.521 332.81C381.033 332.81 396.041 317.807 396.041 299.299C396.041 280.792 381.033 265.789 362.521 265.789C344.008 265.789 329 280.792 329 299.299C329 317.807 344.008 332.81 362.521 332.81Z" fill="url(#paint1_linear)"/>
<path d="M717.479 332.81C735.992 332.81 751 317.807 751 299.299C751 280.792 735.992 265.789 717.479 265.789C698.967 265.789 683.959 280.792 683.959 299.299C683.959 317.807 698.967 332.81 717.479 332.81Z" fill="url(#paint2_linear)"/>
<path d="M446.322 486C464.835 486 479.843 470.997 479.843 452.49C479.843 433.983 464.835 418.979 446.322 418.979C427.809 418.979 412.801 433.983 412.801 452.49C412.801 470.997 427.809 486 446.322 486Z" fill="url(#paint3_linear)"/>
<path d="M626.495 486C645.008 486 660.016 470.997 660.016 452.49C660.016 433.983 645.008 418.979 626.495 418.979C607.982 418.979 592.974 433.983 592.974 452.49C592.974 470.997 607.982 486 626.495 486Z" fill="url(#paint4_linear)"/>
<path d="M640.262 376.492C658.775 376.492 673.783 361.489 673.783 342.982C673.783 324.475 658.775 309.472 640.262 309.472C621.75 309.472 606.742 324.475 606.742 342.982C606.742 361.489 621.75 376.492 640.262 376.492Z" fill="url(#paint5_linear)"/>
<path d="M472.66 299.299C491.172 299.299 506.18 284.296 506.18 265.789C506.18 247.281 491.172 232.278 472.66 232.278C454.147 232.278 439.139 247.281 439.139 265.789C439.139 284.296 454.147 299.299 472.66 299.299Z" fill="url(#paint6_linear)"/>
<path d="M606.742 274.765C625.255 274.765 640.262 259.762 640.262 241.255C640.262 222.747 625.255 207.744 606.742 207.744C588.229 207.744 573.221 222.747 573.221 241.255C573.221 259.762 588.229 274.765 606.742 274.765Z" fill="url(#paint7_linear)"/>
<path d="M513.363 399.83C531.876 399.83 546.884 384.827 546.884 366.32C546.884 347.813 531.876 332.81 513.363 332.81C494.85 332.81 479.843 347.813 479.843 366.32C479.843 384.827 494.85 399.83 513.363 399.83Z" fill="url(#paint8_linear)"/>
<path d="M626.495 179.021C645.008 179.021 660.016 164.018 660.016 145.51C660.016 127.003 645.008 112 626.495 112C607.982 112 592.974 127.003 592.974 145.51C592.974 164.018 607.982 179.021 626.495 179.021Z" fill="url(#paint9_linear)"/>
</g>
<path d="M500.352 11.716H526.2V7.648H514.572C514.068 6.208 513.348 4.48 512.7 3.076L508.38 4.084C508.848 5.164 509.352 6.424 509.748 7.648H495.996V17.332C495.996 22.516 495.78 29.932 493.08 35.008C494.124 35.44 496.068 36.736 496.86 37.492C499.848 31.912 500.352 23.092 500.352 17.332V11.716ZM515.508 25.396C514.932 21.976 513.6 17.116 512.376 13.156L508.488 14.164C509.604 18.052 510.936 23.2 511.368 26.512L515.508 25.396ZM501.36 16.396C502.8 20.284 504.492 25.468 505.176 28.816L509.208 27.124C508.38 23.776 506.688 18.844 505.14 14.92L501.36 16.396ZM517.668 31.696C520.836 26.44 523.464 20.248 525.156 14.524L520.548 13.012C519.252 19.096 516.624 26.332 513.132 31.696H499.812V35.728H526.596V31.696H517.668ZM548.52 22.588V18.16H556.116V22.588H548.52ZM537.324 22.588C537.396 21.256 537.432 19.96 537.432 18.808V18.16H544.2V22.588H537.324ZM544.2 9.988V14.164H537.432V9.988H544.2ZM556.116 14.164H548.52V9.988H556.116V14.164ZM560.364 5.92H533.184V18.772C533.184 23.812 532.86 30.22 528.936 34.54C529.908 35.044 531.636 36.52 532.32 37.312C534.912 34.504 536.208 30.544 536.856 26.62H544.2V36.664H548.52V26.62H556.116V32.02C556.116 32.668 555.864 32.884 555.18 32.884C554.532 32.884 552.156 32.92 550.14 32.812C550.68 33.928 551.364 35.764 551.508 36.916C554.748 36.952 556.944 36.88 558.42 36.16C559.86 35.512 560.364 34.36 560.364 32.056V5.92ZM592.044 8.656V11.644H572.532V8.656H592.044ZM596.4 15.28V5.02H568.176V15.604C568.176 21.292 567.924 29.356 564.864 34.9C565.944 35.26 567.852 36.34 568.716 37.024C572.028 31.084 572.532 21.832 572.532 15.604V15.28H596.4ZM595.536 21.22V17.512H575.16V21.22H595.536ZM597.948 23.812H573.216V27.52H578.364C577.356 29.464 576.168 31.156 575.664 31.732C574.98 32.56 574.332 33.1 573.72 33.244C574.188 34.324 574.944 36.232 575.232 36.988C576.636 36.484 578.58 36.34 592.08 35.26C592.512 36.124 592.908 36.88 593.196 37.528L597.228 35.692C596.184 33.568 593.916 30.04 592.26 27.52L588.48 29.068C589.02 29.896 589.632 30.904 590.208 31.912L579.984 32.56C581.244 31.012 582.54 29.284 583.62 27.52H597.948V23.812Z" fill="white"/>
<path d="M844.04 264.86C844.616 264.176 845.192 263.384 845.696 262.52H847.496V264.068C847.496 264.32 847.496 264.572 847.46 264.86H844.04ZM857.18 271.664C856.244 271.052 852.644 269 851.132 268.208H857.072V264.86H851.528C851.564 264.608 851.564 264.392 851.564 264.14V262.52H856.244V259.208H847.316C847.604 258.488 847.82 257.768 848.036 257.084L844.256 256.292C843.536 258.956 842.132 261.584 840.296 263.312C841.016 263.672 842.168 264.32 843.032 264.86H840.62V268.208H846.596C845.696 270.008 843.86 271.772 840.188 273.212C841.124 273.896 842.312 275.228 842.888 276.092C846.128 274.58 848.216 272.744 849.512 270.908C851.132 272.024 853.148 273.5 854.156 274.4L857.18 271.664ZM864.488 278.288V280.304H849.62V278.288H864.488ZM849.62 285.524V283.4H864.488V285.524H849.62ZM845.408 290.132H849.62V288.944H864.488V290.096H868.88V274.94H845.408V290.132ZM867.728 269H862.256V262.916H867.728V269ZM858.296 259.136V272.78H871.976V259.136H858.296ZM882.272 280.124V278.036H887.636V280.124H882.272ZM887.636 272.96V274.868H882.272V272.96H887.636ZM891.884 269.432H878.312V290.096H882.272V283.292H887.636V285.704C887.636 286.136 887.492 286.244 887.06 286.244C886.592 286.28 885.188 286.316 883.892 286.244C884.468 287.252 885.08 288.908 885.296 290.024C887.42 290.024 889.112 289.988 890.3 289.304C891.524 288.692 891.884 287.648 891.884 285.776V269.432ZM885.944 260.036C886.556 261.008 887.204 262.088 887.744 263.168L882.452 263.492C883.856 261.764 885.296 259.64 886.304 257.588L881.768 256.4C880.76 259.064 879.032 261.584 878.528 262.304C877.916 263.096 877.34 263.564 876.764 263.708C877.268 264.824 877.988 266.84 878.204 267.704C879.104 267.344 880.544 267.092 889.22 266.372C889.472 267.02 889.688 267.632 889.796 268.172L893.684 266.624C893.108 264.356 891.272 261.152 889.616 258.704L885.944 260.036ZM904.808 272.6C908.084 272.6 909.236 271.304 909.704 266.696C908.516 266.444 906.824 265.796 905.96 265.148C905.78 268.28 905.564 268.82 904.376 268.82H900.488C899.12 268.82 898.904 268.676 898.904 267.38V265.256C902.036 264.32 905.456 263.204 908.156 261.872L905.42 258.776C903.764 259.748 901.352 260.828 898.904 261.8V256.616H894.656V267.452C894.656 271.376 895.7 272.6 899.876 272.6H904.808ZM900.596 286.136C899.192 286.136 898.94 285.956 898.94 284.696V281.852C902.216 280.808 905.744 279.512 908.516 278.036L905.708 274.904C903.98 276.056 901.496 277.244 898.94 278.252V273.392H894.692V284.696C894.692 288.62 895.772 289.88 899.984 289.88H905.024C908.444 289.88 909.596 288.44 910.064 283.4C908.876 283.112 907.184 282.464 906.284 281.852C906.104 285.452 905.888 286.136 904.628 286.136H900.596ZM936.38 278.864V284.552H922.124V278.864H936.38ZM917.732 290.096H922.124V288.512H936.38V289.952H940.952V275.084H917.732V290.096ZM923.384 268.064C925.508 266.516 927.488 264.824 929.324 262.916C931.448 265.004 933.536 266.66 935.588 268.064H923.384ZM929.324 256.328C925.544 261.944 918.74 266.3 912.116 268.928C913.304 270.008 914.564 271.628 915.248 272.852C916.868 272.096 918.488 271.196 920.072 270.224V271.988H938.072V269.648C939.764 270.62 941.528 271.484 943.256 272.312C943.832 270.98 945.092 269.396 946.208 268.388C941.348 266.624 936.56 264.176 931.952 259.892C932.348 259.388 932.744 258.848 933.14 258.308L929.324 256.328ZM955.1 275.696C957.62 272.78 960.104 269.396 962.048 266.048L958.592 263.888C957.944 265.148 957.188 266.444 956.468 267.704L953.3 267.92C955.388 265.04 957.404 261.584 958.916 258.236L954.848 256.58C953.408 260.72 950.924 265.004 950.096 266.12C949.34 267.308 948.656 268.028 947.9 268.244C948.368 269.324 949.052 271.304 949.268 272.132C949.808 271.88 950.708 271.664 954.02 271.268C952.796 272.996 951.716 274.292 951.176 274.868C950.024 276.164 949.196 276.92 948.296 277.136C948.728 278.18 949.376 280.088 949.592 280.844C950.6 280.304 952.148 279.98 961.94 278.324C961.796 277.46 961.724 275.876 961.796 274.724L955.1 275.696ZM948.764 288.368C952.652 287.648 957.764 286.748 962.66 285.812L962.372 282.068C957.188 282.968 951.752 283.832 948.116 284.3L948.764 288.368ZM974 277.964C972.668 275.804 969.608 272.852 967.088 270.764L964.136 273.176C966.692 275.408 969.644 278.54 970.904 280.7L974 277.964ZM968.996 262.88C969.644 261.08 970.184 259.208 970.652 257.372L966.548 256.544C965.504 261.368 963.632 266.336 961.184 269.36C962.156 269.9 963.92 271.088 964.712 271.7C965.684 270.368 966.62 268.712 967.448 266.876H976.412C976.088 279.188 975.692 284.372 974.684 285.452C974.288 285.92 973.892 286.064 973.208 286.064C972.272 286.064 970.328 286.064 968.096 285.884C968.852 287 969.428 288.764 969.5 289.916C971.516 289.988 973.712 290.024 975.008 289.844C976.448 289.592 977.42 289.196 978.392 287.864C979.76 286.028 980.156 280.52 980.588 264.86C980.588 264.356 980.624 262.88 980.624 262.88H968.996ZM1011.04 261.656V264.644H991.532V261.656H1011.04ZM1015.4 268.28V258.02H987.176V268.604C987.176 274.292 986.924 282.356 983.864 287.9C984.944 288.26 986.852 289.34 987.716 290.024C991.028 284.084 991.532 274.832 991.532 268.604V268.28H1015.4ZM1014.54 274.22V270.512H994.16V274.22H1014.54ZM1016.95 276.812H992.216V280.52H997.364C996.356 282.464 995.168 284.156 994.664 284.732C993.98 285.56 993.332 286.1 992.72 286.244C993.188 287.324 993.944 289.232 994.232 289.988C995.636 289.484 997.58 289.34 1011.08 288.26C1011.51 289.124 1011.91 289.88 1012.2 290.528L1016.23 288.692C1015.18 286.568 1012.92 283.04 1011.26 280.52L1007.48 282.068C1008.02 282.896 1008.63 283.904 1009.21 284.912L998.984 285.56C1000.24 284.012 1001.54 282.284 1002.62 280.52H1016.95V276.812Z" fill="white"/>
<path d="M95.98 288.016C94.072 290.428 90.256 293.38 86.872 295.18C87.88 295.864 89.464 297.232 90.4 298.168C93.856 296.116 97.816 292.876 100.516 289.78L95.98 288.016ZM105.484 290.032C108.688 292.48 112.972 295.972 114.952 298.168L119.2 295.648C116.932 293.452 112.468 290.104 109.408 287.908L105.484 290.032ZM98.86 275.56H107.14V282.472H98.86V275.56ZM111.604 282.472V275.56H118.336V271.42H111.604V264.76H107.14V271.42H98.86V264.76H94.396V271.42H87.916V275.56H94.396V282.472H86.656V286.648H119.452V282.472H111.604ZM149.116 279.772H140.764V270.88H149.116V279.772ZM153.616 266.812H136.48V283.876H153.616V266.812ZM132.628 270.484C131.368 268.936 128.74 266.668 126.76 265.048L124.024 267.676C125.932 269.404 128.524 271.852 129.676 273.436L132.628 270.484ZM130.9 288.736V275.56H122.512V279.664H126.724V290.032C126.724 292.228 125.392 293.956 124.528 294.748C125.212 295.324 126.616 296.692 127.084 297.52C127.768 296.62 128.956 295.612 135.76 289.816C135.22 288.988 134.428 287.296 134.068 286.072L130.9 288.736ZM138.712 286.792C137.704 290.176 135.868 293.524 133.528 295.648C134.608 296.188 136.48 297.412 137.308 298.096C139.684 295.648 141.844 291.76 143.14 287.764L138.712 286.792ZM146.812 288.016C148.684 291.184 150.628 295.36 151.312 297.952L155.632 296.296C154.876 293.668 152.752 289.636 150.772 286.612L146.812 288.016ZM185.044 269.656V272.644H165.532V269.656H185.044ZM189.4 276.28V266.02H161.176V276.604C161.176 282.292 160.924 290.356 157.864 295.9C158.944 296.26 160.852 297.34 161.716 298.024C165.028 292.084 165.532 282.832 165.532 276.604V276.28H189.4ZM188.536 282.22V278.512H168.16V282.22H188.536ZM190.948 284.812H166.216V288.52H171.364C170.356 290.464 169.168 292.156 168.664 292.732C167.98 293.56 167.332 294.1 166.72 294.244C167.188 295.324 167.944 297.232 168.232 297.988C169.636 297.484 171.58 297.34 185.08 296.26C185.512 297.124 185.908 297.88 186.196 298.528L190.228 296.692C189.184 294.568 186.916 291.04 185.26 288.52L181.48 290.068C182.02 290.896 182.632 291.904 183.208 292.912L172.984 293.56C174.244 292.012 175.54 290.284 176.62 288.52H190.948V284.812Z" fill="white"/>
<path d="M174.3 440.976C173.724 442.308 172.752 444.252 171.924 445.512L174.66 446.736C175.596 445.62 176.712 444 177.9 442.38L174.3 440.976ZM167.46 456.672H171.42V452.748C172.788 453.828 174.192 455.016 174.984 455.772L177.216 452.784C176.604 452.352 174.588 451.164 172.968 450.228H178.224V446.844H171.42V440.508H167.46V446.844H163.824L166.74 445.548C166.452 444.324 165.552 442.452 164.58 441.12L161.556 442.38C162.348 443.784 163.176 445.62 163.464 446.844H160.656V450.228H165.984C164.292 451.992 162.024 453.576 159.9 454.44C160.692 455.232 161.628 456.636 162.096 457.572C163.896 456.6 165.804 455.088 167.46 453.432V456.672ZM172.536 462.396C171.888 463.656 171.024 464.772 170.016 465.78C169.08 465.276 168.072 464.772 167.1 464.304C167.46 463.728 167.82 463.08 168.18 462.396H172.536ZM175.776 469.128C175.056 468.624 174.192 468.084 173.22 467.544C175.056 465.456 176.496 462.864 177.36 459.696L175.056 458.832L174.408 458.94H169.836C170.052 458.472 170.268 458.004 170.448 457.536L166.668 456.852C166.416 457.536 166.128 458.22 165.804 458.94H161.304V462.396H164.04C163.32 463.62 162.636 464.736 161.988 465.672C163.608 466.356 165.408 467.184 167.1 468.084C165.048 469.344 162.636 470.28 160.044 470.856C160.764 471.576 161.592 473.088 161.988 474.06C165.228 473.16 168.108 471.864 170.52 470.028C171.6 470.676 172.536 471.324 173.256 471.864L175.776 469.128ZM187.188 451.092C186.828 454.152 186.252 456.852 185.424 459.3C184.488 456.744 183.768 453.972 183.228 451.092H187.188ZM193.416 451.092V447.132H183.84C184.272 445.224 184.632 443.208 184.92 441.192L181.032 440.616C180.204 447.024 178.62 453.144 175.74 456.888C176.604 457.5 178.224 458.904 178.8 459.624C179.484 458.652 180.132 457.572 180.708 456.42C181.428 459.156 182.22 461.676 183.264 463.944C181.428 466.932 178.764 469.2 175.128 470.82C175.884 471.648 177 473.448 177.396 474.312C180.744 472.62 183.336 470.46 185.388 467.724C187.008 470.244 188.988 472.296 191.472 473.844C192.048 472.764 193.308 471.216 194.244 470.46C191.544 468.984 189.348 466.716 187.692 463.872C189.384 460.344 190.464 456.132 191.148 451.092H193.416ZM207.276 455.736L204.108 456.6V451.272H207.708V447.312H204.108V440.508H200.22V447.312H196.44V451.272H200.22V457.608C198.564 458.04 197.124 458.4 195.864 458.688L196.836 462.828L200.22 461.856V469.128C200.22 469.596 200.04 469.74 199.608 469.74C199.176 469.776 197.952 469.776 196.656 469.74C197.16 470.856 197.628 472.62 197.736 473.664C200.04 473.7 201.624 473.556 202.704 472.836C203.784 472.188 204.108 471.144 204.108 469.164V460.704C205.332 460.344 206.592 459.948 207.78 459.588L207.276 455.736ZM212.892 455.52C212.928 454.584 212.928 453.756 212.928 452.928V452.352H218.22V455.52H212.892ZM224.484 445.584V448.68H212.928V445.584H224.484ZM224.844 469.704H216.132V466.104H224.844V469.704ZM229.524 459.12V455.52H222.216V452.352H228.516V441.948H208.752V452.928C208.752 458.544 208.464 466.428 204.936 471.72C205.836 472.188 207.636 473.484 208.392 474.24C211.128 470.172 212.28 464.376 212.676 459.12H218.22V462.576H212.46V474.132H216.132V473.088H224.844V474.096H228.696V462.576H222.216V459.12H229.524ZM259.044 445.656V448.644H239.532V445.656H259.044ZM263.4 452.28V442.02H235.176V452.604C235.176 458.292 234.924 466.356 231.864 471.9C232.944 472.26 234.852 473.34 235.716 474.024C239.028 468.084 239.532 458.832 239.532 452.604V452.28H263.4ZM262.536 458.22V454.512H242.16V458.22H262.536ZM264.948 460.812H240.216V464.52H245.364C244.356 466.464 243.168 468.156 242.664 468.732C241.98 469.56 241.332 470.1 240.72 470.244C241.188 471.324 241.944 473.232 242.232 473.988C243.636 473.484 245.58 473.34 259.08 472.26C259.512 473.124 259.908 473.88 260.196 474.528L264.228 472.692C263.184 470.568 260.916 467.04 259.26 464.52L255.48 466.068C256.02 466.896 256.632 467.904 257.208 468.912L246.984 469.56C248.244 468.012 249.54 466.284 250.62 464.52H264.948V460.812Z" fill="white"/>
<path d="M833.872 457.44C833.116 455.82 831.928 453.876 830.524 451.932C831.316 449.016 831.892 445.884 832.288 442.536L828.508 442.176C828.292 444.228 827.968 446.208 827.572 448.116C826.564 446.892 825.52 445.74 824.512 444.696L821.92 447.036C823.468 448.692 825.016 450.6 826.42 452.508C825.16 456.396 823.432 459.6 820.948 461.94C821.812 462.408 823.54 463.596 824.26 464.208C826.204 462.12 827.788 459.456 829.012 456.396C829.84 457.764 830.56 459.024 831.064 460.14L833.872 457.44ZM812.128 447.396C813.568 448.98 815.08 450.852 816.556 452.652C815.476 455.892 814.036 458.7 812.128 460.788V447.396ZM838.228 436.488H807.844V468.06H812.128V462.084C813.064 462.624 814.144 463.416 814.648 463.884C816.556 461.832 818.032 459.204 819.22 456.18C820.048 457.332 820.768 458.376 821.272 459.24L823.864 456.252C823.036 455.064 821.92 453.516 820.66 451.932C821.416 449.052 822.028 445.884 822.46 442.5L818.644 442.104C818.392 444.264 818.104 446.388 817.672 448.368C816.52 447.036 815.332 445.704 814.216 444.516L812.128 446.748V440.556H833.944V462.876C833.944 463.56 833.656 463.812 832.9 463.848C832.18 463.848 829.552 463.884 827.284 463.704C827.932 464.856 828.652 466.836 828.868 468.024C832.288 468.06 834.592 467.952 836.104 467.232C837.688 466.548 838.228 465.36 838.228 462.948V436.488ZM843.16 466.8C846.652 465.432 851.044 463.812 855.184 462.192L854.428 458.52C849.928 460.104 845.248 461.652 842.188 462.516L843.16 466.8ZM858.496 454.236C860.8 453.3 862.996 452.148 865.084 450.744C867.064 452.148 869.404 453.3 871.852 454.236H858.496ZM860.944 462.228V457.98H869.008V462.228H860.944ZM849.568 453.012C851.584 450.672 853.492 448.044 855.148 445.38C855.688 446.172 856.192 446.964 856.48 447.468C857.38 446.676 858.244 445.812 859.036 444.84C859.864 445.992 860.8 447.072 861.844 448.08C859.432 449.484 856.696 450.528 853.852 451.248C853.996 451.464 854.14 451.752 854.284 452.076L849.568 453.012ZM868.864 441.672C867.82 443.256 866.524 444.66 864.976 445.92C863.536 444.66 862.348 443.22 861.412 441.672H868.864ZM872.032 437.676L871.312 437.82H863.572C864.004 436.92 864.4 436.02 864.76 435.156L860.944 434.04C859.54 437.712 857.092 441.276 854.392 443.58L852.052 442.14C851.512 443.22 850.864 444.372 850.216 445.452L847.264 445.704C849.28 442.932 851.26 439.62 852.664 436.416L848.56 434.472C847.228 438.576 844.78 442.932 843.952 443.976C843.16 445.128 842.512 445.884 841.684 446.1C842.224 447.216 842.908 449.304 843.124 450.096C843.7 449.844 844.6 449.592 847.696 449.268C846.472 450.888 845.428 452.184 844.924 452.688C843.772 453.984 842.98 454.74 842.044 454.956C842.512 456.072 843.196 458.052 843.412 458.88C844.348 458.268 845.86 457.8 854.536 455.784C854.428 454.992 854.392 453.624 854.5 452.508C854.896 453.444 855.256 454.56 855.436 455.316C855.94 455.136 856.48 454.992 857.02 454.776V467.844H860.944V465.972H869.008V467.772H873.112V454.668C873.544 454.812 873.976 454.956 874.408 455.064C874.66 453.912 875.236 452.076 875.848 451.032C873.04 450.42 870.484 449.484 868.252 448.188C870.916 445.74 873.076 442.752 874.516 439.224L872.032 437.676ZM905.044 439.656V442.644H885.532V439.656H905.044ZM909.4 446.28V436.02H881.176V446.604C881.176 452.292 880.924 460.356 877.864 465.9C878.944 466.26 880.852 467.34 881.716 468.024C885.028 462.084 885.532 452.832 885.532 446.604V446.28H909.4ZM908.536 452.22V448.512H888.16V452.22H908.536ZM910.948 454.812H886.216V458.52H891.364C890.356 460.464 889.168 462.156 888.664 462.732C887.98 463.56 887.332 464.1 886.72 464.244C887.188 465.324 887.944 467.232 888.232 467.988C889.636 467.484 891.58 467.34 905.08 466.26C905.512 467.124 905.908 467.88 906.196 468.528L910.228 466.692C909.184 464.568 906.916 461.04 905.26 458.52L901.48 460.068C902.02 460.896 902.632 461.904 903.208 462.912L892.984 463.56C894.244 462.012 895.54 460.284 896.62 458.52H910.948V454.812Z" fill="white"/>
<path d="M462.736 76.728L464.104 76.08C462.016 72.672 461.032 68.616 461.032 64.536C461.032 60.456 462.016 56.424 464.104 52.992L462.736 52.368C460.528 55.944 459.208 59.832 459.208 64.536C459.208 69.264 460.528 73.128 462.736 76.728ZM467.509 72H477.925V70.104H469.741V63.696H476.413V61.8H469.741V56.28H477.661V54.384H467.509V72ZM485.555 72.312C488.675 72.312 491.195 70.488 491.195 67.44C491.195 65.088 489.539 63.576 487.475 63.072V62.976C489.323 62.304 490.595 60.984 490.595 58.92C490.595 56.136 488.435 54.576 485.483 54.576C483.443 54.576 481.883 55.464 480.563 56.712L481.739 58.08C482.723 57.072 483.971 56.352 485.387 56.352C487.211 56.352 488.363 57.408 488.363 59.064C488.363 60.864 487.115 62.28 483.491 62.28V63.96C487.547 63.96 488.963 65.304 488.963 67.344C488.963 69.264 487.475 70.488 485.387 70.488C483.395 70.488 482.051 69.552 481.019 68.472L479.915 69.912C481.067 71.16 482.795 72.312 485.555 72.312ZM498.603 72H500.835V56.28H506.163V54.384H493.275V56.28H498.603V72ZM518.754 60.624V66.096H512.49V60.624H518.754ZM520.506 67.8V58.896H510.762V69.72H512.49V67.8H520.506ZM529.554 53.616H508.314V55.392H524.778V71.256C524.778 71.76 524.61 71.928 524.082 71.952C523.53 71.976 521.562 72 519.642 71.904C519.93 72.408 520.29 73.296 520.41 73.8C522.762 73.8 524.418 73.8 525.378 73.464C526.29 73.2 526.602 72.552 526.602 71.28V55.392H529.554V53.616ZM534.978 65.208C536.658 63.024 538.314 60.36 539.634 57.744L538.194 56.904C537.786 57.84 537.282 58.776 536.802 59.64L534.162 59.928C535.506 57.84 536.826 55.152 537.81 52.536L536.106 51.912C535.266 54.84 533.634 57.96 533.154 58.752C532.674 59.568 532.29 60.168 531.882 60.264C532.074 60.696 532.362 61.536 532.458 61.872C532.77 61.704 533.322 61.584 535.89 61.224C534.954 62.76 534.114 63.96 533.73 64.416C533.058 65.304 532.53 65.928 532.074 66.024C532.266 66.456 532.506 67.248 532.578 67.584C533.034 67.32 533.778 67.056 539.058 65.832C538.986 65.496 538.938 64.872 538.938 64.392L534.978 65.208ZM538.914 68.04C536.298 69.048 533.682 70.056 531.954 70.632L532.386 72.288C534.33 71.496 536.826 70.464 539.226 69.48L538.914 68.04ZM551.25 56.016V58.584H542.49V56.016H551.25ZM552.906 60.096V54.504H548.322C548.082 53.712 547.578 52.608 547.074 51.768L545.394 52.272C545.778 52.944 546.162 53.784 546.426 54.504H540.858V59.688C540.858 63.336 540.642 68.616 538.482 72.432C538.866 72.624 539.562 73.128 539.85 73.44C542.058 69.576 542.466 63.984 542.49 60.096H552.906ZM549.954 67.104V63.6H551.73V67.104H549.954ZM547.026 67.104V63.6H548.754V67.104H547.026ZM543.858 67.104V63.6H545.826V67.104H543.858ZM551.73 62.112V62.136H542.442V73.632H543.858V68.544H545.826V73.056H547.026V68.544H548.754V73.032H549.954V68.544H551.73V72.096C551.73 72.288 551.658 72.336 551.49 72.336H550.362C550.53 72.696 550.722 73.272 550.794 73.656C551.61 73.656 552.186 73.632 552.594 73.392C553.026 73.152 553.122 72.768 553.122 72.12V62.112H551.73ZM574.842 58.872H567.642V54.48H574.842V58.872ZM576.594 52.92H566.01V60.408H576.594V52.92ZM565.05 65.064C564.57 64.512 562.53 62.4 561.786 61.776V60.312H564.786V58.632H561.786V54.576C562.914 54.312 563.97 53.976 564.834 53.616L563.586 52.272C561.834 53.064 558.69 53.76 556.002 54.192C556.218 54.6 556.458 55.176 556.554 55.584C557.658 55.416 558.882 55.224 560.058 54.984V58.632H556.146V60.312H559.818C558.858 63.048 557.202 66.144 555.69 67.824C555.978 68.256 556.41 68.952 556.578 69.456C557.802 67.992 559.074 65.592 560.058 63.168V73.776H561.786V63.504C562.602 64.488 563.586 65.808 563.97 66.48L565.05 65.064ZM572.106 71.592V68.496H576.882V66.936H572.106V64.08H577.41V62.496H565.122V64.08H570.33V66.936H565.674V68.496H570.33V71.592H564.042V73.2H577.938V71.592H572.106ZM593.346 59.28V61.392H589.338V59.28H593.346ZM599.13 59.28V61.392H594.954V59.28H599.13ZM594.954 64.896V62.712H599.13V64.896H594.954ZM589.338 64.896V62.712H593.346V64.896H589.338ZM589.338 66.264H593.346V70.176H594.954V66.264H599.13V68.448C599.13 68.76 599.034 68.856 598.722 68.856C598.434 68.856 597.426 68.88 596.298 68.832C596.514 69.264 596.706 69.864 596.778 70.32C598.386 70.32 599.394 70.296 600.018 70.032C600.642 69.768 600.834 69.36 600.834 68.472V57.912H597.69C597.21 57.624 596.586 57.288 595.914 56.976C597.69 56.04 599.514 54.792 600.81 53.544L599.73 52.704L599.37 52.8H587.658V54.216H597.762C596.778 54.936 595.554 55.704 594.378 56.256C593.202 55.752 591.954 55.248 590.898 54.864L589.77 55.872C591.234 56.424 592.986 57.192 594.45 57.912H587.634V70.248H589.338V66.264ZM585.882 56.808C585.018 55.728 583.17 54.048 581.754 52.872L580.506 53.88C581.946 55.128 583.746 56.88 584.586 57.984L585.882 56.808ZM585.09 60.864H580.002V62.544H583.362V69.312C582.33 69.744 581.13 70.824 579.906 72.12L581.034 73.584C582.234 71.976 583.41 70.608 584.226 70.608C584.778 70.608 585.618 71.4 586.554 71.976C588.258 73.008 590.226 73.296 593.178 73.296C595.746 73.296 599.922 73.152 601.578 73.056C601.626 72.552 601.866 71.76 602.058 71.304C599.61 71.544 596.01 71.76 593.226 71.76C590.562 71.76 588.522 71.568 586.938 70.584C586.074 70.08 585.57 69.624 585.09 69.36V60.864ZM610.338 56.064C609.57 55.08 607.89 53.592 606.594 52.56L605.418 53.64C606.714 54.72 608.346 56.28 609.114 57.288L610.338 56.064ZM609.258 69.312V59.424H604.17V61.128H607.53V69.408C607.53 70.656 606.666 71.568 606.186 71.976C606.522 72.216 607.074 72.84 607.314 73.176C607.65 72.696 608.298 72.168 612.402 69C612.186 68.64 611.85 67.944 611.682 67.464L609.258 69.312ZM620.202 71.232V63.36H624.93V61.68H620.202V55.44H625.386V53.76H612.21V55.44H618.402V71.232H615.186V59.736H613.434V71.232H611.37V72.912H625.866V71.232H620.202ZM629.274 76.728C631.506 73.128 632.826 69.264 632.826 64.536C632.826 59.832 631.506 55.944 629.274 52.368L627.93 52.992C629.994 56.424 631.002 60.456 631.002 64.536C631.002 68.616 629.994 72.672 627.93 76.08L629.274 76.728Z" fill="white"/>
<path d="M5.736 343.728L7.104 343.08C5.016 339.672 4.032 335.616 4.032 331.536C4.032 327.456 5.016 323.424 7.104 319.992L5.736 319.368C3.528 322.944 2.208 326.832 2.208 331.536C2.208 336.264 3.528 340.128 5.736 343.728ZM19.0534 331.152C18.4774 330.456 15.8134 327.408 15.0214 326.64V325.656H18.2134V323.976H15.0214V318.912H13.2694V323.976H9.30938V325.656H12.8134C11.9734 328.968 10.3174 332.76 8.66138 334.752C8.99738 335.208 9.47738 335.976 9.69337 336.504C11.0374 334.752 12.3334 331.824 13.2694 328.824V340.824H15.0214V328.656C16.0534 330 17.4214 331.872 17.9494 332.76L19.0534 331.152ZM28.5334 322.848C27.7654 327.024 26.3254 330.48 24.4294 333.192C22.6534 330.432 21.5494 327.12 20.7814 322.848H28.5334ZM29.3734 321.048L29.0614 321.12H18.2854V322.848H19.1254C19.9894 327.768 21.2134 331.536 23.3014 334.656C21.4774 336.816 19.2934 338.376 16.9414 339.336C17.3254 339.672 17.8294 340.368 18.0454 340.824C20.3974 339.744 22.5574 338.184 24.3814 336.096C25.8454 337.896 27.6694 339.48 29.9734 340.968C30.2374 340.44 30.7894 339.84 31.2454 339.504C28.8454 338.04 26.9974 336.504 25.5334 334.68C27.9334 331.416 29.6854 327.048 30.4774 321.408L29.3734 321.048ZM54.1414 321.168C53.4214 320.472 51.9334 319.512 50.7334 318.912L49.7494 319.92C50.9494 320.592 52.4134 321.6 53.1094 322.296L54.1414 321.168ZM44.4214 331.44C43.9654 332.736 43.3174 333.864 42.4774 334.8C41.6614 334.368 40.7734 333.984 39.9334 333.624C40.2934 332.976 40.6774 332.208 41.0614 331.44H44.4214ZM46.3174 336.984C45.6454 336.528 44.7814 336.024 43.8454 335.496C44.9254 334.128 45.7894 332.424 46.2934 330.336L45.3574 329.976L45.0694 330.048H41.6854C42.0934 329.16 42.4294 328.248 42.7414 327.408H46.3174V325.944H37.7734V327.408H41.1334C40.8214 328.248 40.4614 329.16 40.0774 330.048H37.4854V331.44H39.4054C38.9014 332.496 38.3494 333.48 37.8694 334.248C39.0214 334.68 40.2454 335.28 41.4214 335.88C40.1734 337.008 38.6134 337.8 37.0054 338.28C37.2694 338.616 37.6774 339.168 37.8694 339.576C39.7174 338.928 41.3974 337.968 42.8134 336.624C43.7734 337.176 44.6374 337.704 45.3094 338.184L46.3174 336.984ZM52.3414 326.256C51.7894 329.064 50.9734 331.512 49.8454 333.6C49.3174 331.032 48.9574 327.768 48.7894 324.024H54.7894V322.392H48.7414C48.7174 321.288 48.7174 320.136 48.7174 318.96H46.9654C46.9654 320.112 46.9894 321.264 47.0374 322.392H34.9654V329.232C34.9654 332.4 34.7974 336.696 32.9494 339.792C33.3094 339.96 34.0294 340.512 34.3174 340.848C36.3094 337.56 36.6454 332.664 36.6454 329.232V324.024H47.0854C47.2774 328.536 47.7574 332.616 48.5494 335.592C47.3494 337.248 45.8374 338.592 44.0614 339.648C44.4214 339.936 45.0454 340.584 45.3094 340.92C46.7734 339.96 48.0694 338.808 49.1734 337.488C50.0374 339.624 51.1654 340.896 52.6774 340.896C54.3814 340.896 54.9334 339.744 55.2214 335.832C54.7654 335.64 54.1894 335.28 53.8054 334.896C53.6854 337.92 53.4214 339.168 52.8694 339.168C51.9094 339.168 51.0694 337.944 50.3974 335.808C52.0534 333.288 53.2054 330.216 53.9974 326.52L52.3414 326.256ZM63.5494 323.064C62.7814 322.08 61.1014 320.592 59.8054 319.56L58.6294 320.64C59.9254 321.72 61.5574 323.28 62.3254 324.288L63.5494 323.064ZM62.4694 336.312V326.424H57.3814V328.128H60.7414V336.408C60.7414 337.656 59.8774 338.568 59.3974 338.976C59.7334 339.216 60.2854 339.84 60.5254 340.176C60.8614 339.696 61.5094 339.168 65.6134 336C65.3974 335.64 65.0614 334.944 64.8934 334.464L62.4694 336.312ZM73.4134 338.232V330.36H78.1414V328.68H73.4134V322.44H78.5974V320.76H65.4214V322.44H71.6134V338.232H68.3974V326.736H66.6454V338.232H64.5814V339.912H79.0774V338.232H73.4134ZM88.2694 322.008V326.544H83.7814V322.008H88.2694ZM83.7814 332.952V328.176H88.2694V332.952H83.7814ZM89.9254 334.608V320.4H82.1014V336.816H83.7814V334.608H89.9254ZM93.7174 331.56C93.8374 330.48 93.8614 329.424 93.8614 328.44V327.36H100.557V331.56H93.7174ZM100.557 321.624V325.728H93.8614V321.624H100.557ZM102.285 319.944H92.1334V328.44C92.1334 332.16 91.7254 336.672 87.6934 339.768C88.0534 340.008 88.7254 340.608 89.0134 340.992C91.7254 338.904 92.9494 336.048 93.4774 333.192H100.557V338.472C100.557 338.904 100.389 339.048 99.9334 339.072C99.5494 339.072 98.0374 339.096 96.4774 339.048C96.7654 339.504 97.0534 340.296 97.1494 340.776C99.1894 340.776 100.509 340.728 101.277 340.464C102.045 340.152 102.285 339.6 102.285 338.472V319.944ZM110.581 333.12H116.725V331.44H110.581V333.12ZM137.372 326.736C136.652 325.176 135.092 322.872 133.676 321.168L132.164 321.96C133.556 323.712 135.092 326.136 135.764 327.672L137.372 326.736ZM128.972 335.016V320.784H127.076V334.824C127.076 335.928 126.14 336.696 125.636 336.984C125.948 337.32 126.476 338.04 126.62 338.448C127.22 337.92 128.084 337.416 134.996 334.104C134.852 333.696 134.612 332.952 134.54 332.424L128.972 335.016ZM146.252 339.624C145.1 337.944 142.772 335.448 140.708 333.48C142.292 330.072 142.94 325.656 143.276 319.968L141.404 319.872C140.852 330.48 139.196 336.408 131.516 339.456C131.924 339.816 132.596 340.608 132.836 340.992C136.076 339.504 138.308 337.608 139.868 335.064C141.788 336.96 143.756 339.24 144.716 340.776L146.252 339.624ZM169.724 327.072V325.272H159.788C160.052 322.992 160.076 320.808 160.1 318.936H158.18C158.18 320.76 158.204 322.968 157.94 325.272H148.7V327.072H157.652C156.788 331.824 154.46 336.696 148.148 339.36C148.652 339.72 149.204 340.368 149.468 340.824C152.276 339.576 154.316 337.92 155.828 336C157.436 337.392 159.332 339.312 160.22 340.56L161.732 339.384C160.748 338.088 158.708 336.144 157.052 334.8L156.356 335.28C157.916 333.096 158.804 330.672 159.332 328.224C161.156 334.032 164.228 338.568 169.004 340.872C169.316 340.368 169.892 339.624 170.348 339.24C165.572 337.2 162.428 332.64 160.796 327.072H169.724ZM188.636 322.368C188.396 321.48 187.868 319.968 187.412 318.84L185.756 319.2C186.188 320.376 186.668 321.936 186.884 322.848L188.636 322.368ZM180.404 332.544C179.348 332.928 178.292 333.312 177.284 333.672V326.616H180.14V324.912H177.284V319.248H175.556V324.912H172.508V326.616H175.556V334.272C174.236 334.752 173.06 335.16 172.1 335.472L172.556 337.32C174.836 336.432 177.884 335.28 180.716 334.176L180.404 332.544ZM185.804 324.84H194.108V323.112H180.068V324.84H184.052V328.08C184.052 331.56 183.428 336.168 178.292 339.648C178.748 339.936 179.324 340.464 179.636 340.848C184.148 337.8 185.396 333.84 185.708 330.264H191.012C190.748 335.976 190.436 338.16 189.956 338.688C189.716 338.952 189.476 338.976 189.02 338.976C188.54 338.976 187.22 338.952 185.852 338.856C186.164 339.336 186.38 340.056 186.428 340.608C187.748 340.68 189.068 340.68 189.764 340.632C190.532 340.56 191.036 340.392 191.468 339.816C192.212 338.976 192.476 336.408 192.788 329.424C192.812 329.184 192.812 328.584 192.812 328.584H185.804V328.104V324.84ZM200.084 326.328H204.788V327.624C203.156 327.792 201.548 327.936 200.084 328.08V326.328ZM204.788 321.264V322.632H200.084V321.264H204.788ZM200.084 323.784H204.788V325.2H200.084V323.784ZM196.196 328.44L196.412 329.808C198.692 329.544 201.716 329.208 204.788 328.896V330.072H206.396V328.704L207.428 328.584C207.74 328.92 208.076 329.376 208.268 329.736C209.948 329.136 211.604 328.224 213.068 327.024C214.436 327.912 215.66 328.8 216.5 329.52L217.628 328.296C216.788 327.6 215.588 326.76 214.268 325.944C215.492 324.648 216.548 323.088 217.196 321.264L216.116 320.784L215.828 320.832H208.172V322.296H215.012C214.46 323.328 213.716 324.288 212.876 325.128C211.556 324.36 210.188 323.664 208.964 323.088L207.908 324.144C209.108 324.696 210.404 325.416 211.676 326.16C210.5 327.048 209.18 327.768 207.836 328.248V327.288L206.396 327.456V321.264H207.932V319.92H196.628V321.264H198.452V328.224L196.196 328.44ZM204.548 332.952C202.364 333.72 199.172 334.44 196.316 334.896C196.724 335.184 197.372 335.832 197.684 336.144C200.348 335.616 203.66 334.704 206.084 333.792L204.548 332.952ZM215.468 331.968C214.1 332.904 211.844 334.152 209.996 334.944C209.228 334.344 208.604 333.672 208.076 332.976V331.704C210.812 331.44 213.404 331.08 215.468 330.648L214.22 329.52C210.188 330.264 203.18 330.816 197.876 330.864C198.188 331.224 198.62 332.016 198.788 332.424C201.068 332.304 203.708 332.136 206.324 331.872V336.384L205.028 335.688C202.772 336.912 199.22 338.016 196.052 338.688C196.508 339 197.204 339.672 197.54 340.032C200.372 339.288 203.828 338.064 206.324 336.768V341.088H208.076V335.16C210.356 337.488 213.74 339.096 217.388 339.888C217.628 339.408 218.084 338.784 218.444 338.4C215.78 337.944 213.26 337.056 211.244 335.808C213.068 335.04 215.228 333.96 216.884 332.904L215.468 331.968ZM237.02 319.368C236.444 320.376 235.412 321.792 234.62 322.728L236.06 323.28C236.9 322.44 237.98 321.168 238.868 319.944L237.02 319.368ZM227.684 322.656C227.228 321.744 226.1 320.376 225.068 319.44L223.58 320.16C224.588 321.12 225.668 322.536 226.124 323.448L227.684 322.656ZM230.228 329.904H231.98V326.328C235.004 327.84 238.58 329.76 240.5 331.008L241.364 329.568C239.492 328.392 236.036 326.64 233.084 325.224H241.46V323.568H231.98V318.936H230.228V323.568H220.964V325.224H228.788C226.844 327.24 223.652 328.896 220.508 329.64C220.916 330 221.42 330.648 221.66 331.08C224.924 330.144 228.14 328.248 230.228 325.872V329.904ZM241.556 334.68V333H231.692C231.884 332.208 232.028 331.368 232.148 330.456H230.3C230.18 331.344 230.036 332.232 229.82 333H220.844V334.68H229.172C227.972 336.888 225.572 338.4 220.34 339.216C220.7 339.6 221.132 340.368 221.276 340.848C227.228 339.792 229.844 337.8 231.116 334.824C232.964 338.184 236.252 340.08 241.052 340.848C241.292 340.32 241.772 339.576 242.18 339.168C237.836 338.688 234.668 337.2 232.916 334.68H241.556ZM249.668 328.032C248.684 327.264 246.716 326.232 245.204 325.632L244.244 326.928C245.804 327.624 247.7 328.704 248.684 329.52L249.668 328.032ZM246.548 340.512C247.964 338.304 249.644 335.328 250.892 332.808L249.596 331.632C248.228 334.344 246.332 337.488 245.06 339.312L246.548 340.512ZM245.54 320.472C247.124 321.192 249.068 322.344 250.028 323.16L251.06 321.672C250.052 320.904 248.084 319.824 246.5 319.176L245.54 320.472ZM265.676 340.008C264.932 338.16 263.132 335.304 261.428 333.216L260.012 333.888C260.756 334.824 261.476 335.904 262.148 336.984L254.564 337.824C256.052 335.808 257.54 333.264 258.788 330.72H265.58V329.016H259.268V324.744H264.572V323.04H259.268V318.912H257.492V323.04H252.38V324.744H257.492V329.016H251.324V330.72H256.676C255.476 333.408 253.892 335.952 253.364 336.672C252.764 337.536 252.284 338.112 251.828 338.232C252.044 338.712 252.332 339.6 252.428 340.008C253.076 339.696 254.084 339.528 262.988 338.424C263.444 339.312 263.852 340.128 264.092 340.8L265.676 340.008ZM269.54 343.728C271.772 340.128 273.092 336.264 273.092 331.536C273.092 326.832 271.772 322.944 269.54 319.368L268.196 319.992C270.26 323.424 271.268 327.456 271.268 331.536C271.268 335.616 270.26 339.672 268.196 343.08L269.54 343.728Z" fill="white"/>
<path d="M882.464 335.464C880.928 333.96 879.728 332.048 878.864 329.728C878.016 327.408 877.592 324.904 877.592 322.216C877.592 319.464 878.04 316.896 878.936 314.512C879.848 312.112 881.144 310.136 882.824 308.584H885.104V308.8C883.312 310.48 881.96 312.504 881.048 314.872C880.152 317.224 879.704 319.672 879.704 322.216C879.704 324.696 880.128 327.064 880.976 329.32C881.84 331.576 883.096 333.552 884.744 335.248V335.464H882.464ZM893.05 331.168C891.946 331.168 890.954 330.976 890.074 330.592C889.21 330.192 888.53 329.648 888.034 328.96C887.538 328.256 887.282 327.448 887.266 326.536H889.594C889.674 327.32 889.994 327.984 890.554 328.528C891.13 329.056 891.962 329.32 893.05 329.32C894.09 329.32 894.906 329.064 895.498 328.552C896.106 328.024 896.41 327.352 896.41 326.536C896.41 325.896 896.234 325.376 895.882 324.976C895.53 324.576 895.09 324.272 894.562 324.064C894.034 323.856 893.322 323.632 892.426 323.392C891.322 323.104 890.434 322.816 889.762 322.528C889.106 322.24 888.538 321.792 888.058 321.184C887.594 320.56 887.362 319.728 887.362 318.688C887.362 317.776 887.594 316.968 888.058 316.264C888.522 315.56 889.17 315.016 890.002 314.632C890.85 314.248 891.818 314.056 892.906 314.056C894.474 314.056 895.754 314.448 896.746 315.232C897.754 316.016 898.322 317.056 898.45 318.352H896.05C895.97 317.712 895.634 317.152 895.042 316.672C894.45 316.176 893.666 315.928 892.69 315.928C891.778 315.928 891.034 316.168 890.458 316.648C889.882 317.112 889.594 317.768 889.594 318.616C889.594 319.224 889.762 319.72 890.098 320.104C890.45 320.488 890.874 320.784 891.37 320.992C891.882 321.184 892.594 321.408 893.506 321.664C894.61 321.968 895.498 322.272 896.17 322.576C896.842 322.864 897.418 323.32 897.898 323.944C898.378 324.552 898.618 325.384 898.618 326.44C898.618 327.256 898.402 328.024 897.97 328.744C897.538 329.464 896.898 330.048 896.05 330.496C895.202 330.944 894.202 331.168 893.05 331.168ZM907.568 331.216C906.336 331.216 905.216 330.936 904.208 330.376C903.216 329.816 902.432 329.024 901.856 328C901.296 326.96 901.016 325.76 901.016 324.4C901.016 323.056 901.304 321.872 901.88 320.848C902.472 319.808 903.272 319.016 904.28 318.472C905.288 317.912 906.416 317.632 907.664 317.632C908.912 317.632 910.04 317.912 911.048 318.472C912.056 319.016 912.848 319.8 913.424 320.824C914.016 321.848 914.312 323.04 914.312 324.4C914.312 325.76 914.008 326.96 913.4 328C912.808 329.024 912 329.816 910.976 330.376C909.952 330.936 908.816 331.216 907.568 331.216ZM907.568 329.296C908.352 329.296 909.088 329.112 909.776 328.744C910.464 328.376 911.016 327.824 911.432 327.088C911.864 326.352 912.08 325.456 912.08 324.4C912.08 323.344 911.872 322.448 911.456 321.712C911.04 320.976 910.496 320.432 909.824 320.08C909.152 319.712 908.424 319.528 907.64 319.528C906.84 319.528 906.104 319.712 905.432 320.08C904.776 320.432 904.248 320.976 903.848 321.712C903.448 322.448 903.248 323.344 903.248 324.4C903.248 325.472 903.44 326.376 903.824 327.112C904.224 327.848 904.752 328.4 905.408 328.768C906.064 329.12 906.784 329.296 907.568 329.296ZM919.368 313.24V331H917.184V313.24H919.368ZM924.218 315.712C923.802 315.712 923.45 315.568 923.162 315.28C922.874 314.992 922.73 314.64 922.73 314.224C922.73 313.808 922.874 313.456 923.162 313.168C923.45 312.88 923.802 312.736 924.218 312.736C924.618 312.736 924.954 312.88 925.226 313.168C925.514 313.456 925.658 313.808 925.658 314.224C925.658 314.64 925.514 314.992 925.226 315.28C924.954 315.568 924.618 315.712 924.218 315.712ZM925.274 317.848V331H923.09V317.848H925.274ZM928.18 324.376C928.18 323.032 928.452 321.856 928.996 320.848C929.54 319.824 930.284 319.032 931.228 318.472C932.188 317.912 933.26 317.632 934.444 317.632C935.468 317.632 936.42 317.872 937.3 318.352C938.18 318.816 938.852 319.432 939.316 320.2V313.24H941.524V331H939.316V328.528C938.884 329.312 938.244 329.96 937.396 330.472C936.548 330.968 935.556 331.216 934.42 331.216C933.252 331.216 932.188 330.928 931.228 330.352C930.284 329.776 929.54 328.968 928.996 327.928C928.452 326.888 928.18 325.704 928.18 324.376ZM939.316 324.4C939.316 323.408 939.116 322.544 938.716 321.808C938.316 321.072 937.772 320.512 937.084 320.128C936.412 319.728 935.668 319.528 934.852 319.528C934.036 319.528 933.292 319.72 932.62 320.104C931.948 320.488 931.412 321.048 931.012 321.784C930.612 322.52 930.412 323.384 930.412 324.376C930.412 325.384 930.612 326.264 931.012 327.016C931.412 327.752 931.948 328.32 932.62 328.72C933.292 329.104 934.036 329.296 934.852 329.296C935.668 329.296 936.412 329.104 937.084 328.72C937.772 328.32 938.316 327.752 938.716 327.016C939.116 326.264 939.316 325.392 939.316 324.4ZM946.343 315.712C945.927 315.712 945.575 315.568 945.287 315.28C944.999 314.992 944.855 314.64 944.855 314.224C944.855 313.808 944.999 313.456 945.287 313.168C945.575 312.88 945.927 312.736 946.343 312.736C946.743 312.736 947.079 312.88 947.351 313.168C947.639 313.456 947.783 313.808 947.783 314.224C947.783 314.64 947.639 314.992 947.351 315.28C947.079 315.568 946.743 315.712 946.343 315.712ZM947.399 317.848V331H945.215V317.848H947.399ZM953.785 319.648V327.4C953.785 328.04 953.921 328.496 954.193 328.768C954.465 329.024 954.937 329.152 955.609 329.152H957.217V331H955.249C954.033 331 953.121 330.72 952.513 330.16C951.905 329.6 951.601 328.68 951.601 327.4V319.648H949.897V317.848H951.601V314.536H953.785V317.848H957.217V319.648H953.785ZM971.192 317.848L963.272 337.192H961.016L963.608 330.856L958.304 317.848H960.728L964.856 328.504L968.936 317.848H971.192ZM972.691 335.464V335.248C974.339 333.552 975.587 331.576 976.435 329.32C977.299 327.064 977.731 324.696 977.731 322.216C977.731 319.672 977.275 317.224 976.363 314.872C975.467 312.504 974.123 310.48 972.331 308.8V308.584H974.611C976.291 310.136 977.579 312.112 978.475 314.512C979.387 316.896 979.843 319.464 979.843 322.216C979.843 324.904 979.411 327.408 978.547 329.728C977.699 332.048 976.507 333.96 974.971 335.464H972.691Z" fill="white"/>
<path d="M700.736 518.728L702.104 518.08C700.016 514.672 699.032 510.616 699.032 506.536C699.032 502.456 700.016 498.424 702.104 494.992L700.736 494.368C698.528 497.944 697.208 501.832 697.208 506.536C697.208 511.264 698.528 515.128 700.736 518.728ZM713.021 497.032L712.685 497.104H704.861V498.808H712.229C711.869 501.376 711.293 503.704 710.501 505.768C709.253 504.424 707.909 503.128 706.637 502.024L705.389 503.128C706.829 504.424 708.389 506.008 709.757 507.568C708.317 510.616 706.445 512.944 704.285 514.36C704.693 514.672 705.269 515.344 705.533 515.776C707.717 514.216 709.589 512.008 711.053 509.08C712.109 510.424 713.021 511.696 713.597 512.776L714.989 511.456C714.317 510.208 713.189 508.768 711.869 507.256C712.949 504.496 713.765 501.232 714.149 497.368L713.021 497.032ZM726.029 499.672H723.173V493.912H721.421V499.672H714.701V501.376H721.421V513.4C721.421 513.832 721.253 513.952 720.845 513.976C720.461 514 719.117 514 717.605 513.952C717.869 514.48 718.133 515.32 718.205 515.8C720.245 515.8 721.445 515.752 722.165 515.44C722.885 515.128 723.173 514.6 723.173 513.4V501.376H726.029V499.672ZM719.285 509.152C718.901 507.688 717.773 505.504 716.621 503.896L715.157 504.544C716.285 506.224 717.365 508.504 717.749 509.944L719.285 509.152ZM732.725 497.44C733.157 498.352 733.589 499.432 733.757 500.152L735.317 499.576C735.197 499.024 734.861 498.184 734.477 497.44H738.821V495.928H732.581C732.869 495.376 733.109 494.824 733.325 494.248L731.645 493.816C730.829 495.904 729.485 498.016 727.997 499.384C728.405 499.624 729.149 500.128 729.461 500.416C730.277 499.6 731.045 498.568 731.717 497.44H732.725ZM732.533 510.928C734.069 511.96 735.797 513.496 736.565 514.6L737.933 513.472C737.141 512.368 735.341 510.88 733.829 509.92L732.533 510.928ZM749.957 506.224V504.664H739.973V502.528H747.701V501.016H739.973V499.36H739.589C740.117 498.808 740.621 498.136 741.077 497.44H742.709C743.429 498.352 744.125 499.504 744.389 500.296L745.925 499.624C745.661 499.024 745.157 498.184 744.605 497.44H749.717V495.928H741.941C742.229 495.352 742.445 494.8 742.661 494.2L740.957 493.816C740.285 495.808 738.989 497.752 737.525 499C737.669 499.096 737.933 499.24 738.173 499.408V501.016H730.685V502.528H738.173V504.664H728.333V506.224H743.045V508.336H729.101V509.896H743.045V513.712C743.045 514.048 742.949 514.144 742.517 514.144C742.085 514.192 740.669 514.192 739.037 514.144C739.301 514.624 739.589 515.296 739.685 515.824C741.677 515.824 742.997 515.8 743.789 515.536C744.605 515.248 744.845 514.792 744.845 513.736V509.896H749.333V508.336H744.845V506.224H749.957ZM763.253 509.032C762.677 508 761.837 506.704 760.901 505.36C761.549 503.392 762.053 501.208 762.437 498.88L760.805 498.712C760.517 500.488 760.181 502.144 759.725 503.728C758.813 502.504 757.853 501.256 756.917 500.176L755.813 501.16C756.893 502.48 758.069 504.04 759.125 505.552C758.213 508.096 756.941 510.232 755.285 511.84C755.669 512.08 756.413 512.584 756.677 512.824C758.117 511.288 759.293 509.392 760.253 507.136C760.973 508.264 761.621 509.32 762.077 510.184L763.253 509.032ZM770.237 509.872C769.661 508.6 768.749 507.016 767.693 505.408C768.341 503.44 768.821 501.28 769.181 498.928L767.573 498.76C767.309 500.512 766.997 502.168 766.541 503.728C765.677 502.528 764.765 501.328 763.853 500.272L762.701 501.16C763.781 502.504 764.933 504.064 765.965 505.576C765.005 508.216 763.733 510.424 761.957 512.032C762.365 512.248 763.061 512.752 763.373 513.016C764.885 511.456 766.061 509.536 767.021 507.256C767.837 508.6 768.509 509.872 768.989 510.904L770.237 509.872ZM772.973 495.376H753.317V515.8H755.093V497.056H771.221V513.472C771.221 513.88 771.029 514.024 770.597 514.048C770.141 514.048 768.581 514.072 766.997 514C767.237 514.504 767.573 515.272 767.669 515.776C769.829 515.8 771.125 515.752 771.893 515.464C772.661 515.152 772.973 514.6 772.973 513.472V495.376ZM776.573 514.528C778.781 513.808 781.709 512.92 784.517 512.08L784.229 510.52C781.229 511.384 778.181 512.272 776.189 512.752L776.573 514.528ZM794.717 508.48V512.848H787.949V508.48H794.717ZM786.293 515.608H787.949V514.432H794.717V515.584H796.445V506.872H786.293V515.608ZM788.525 497.824H794.813C793.949 499.36 792.725 500.656 791.309 501.784C790.061 500.728 789.053 499.504 788.357 498.112L788.525 497.824ZM796.133 496.144L795.797 496.192H789.437C789.773 495.52 790.109 494.776 790.397 494.08L788.789 493.6C787.805 496.216 786.125 498.712 784.277 500.392L784.541 499.984L782.957 499.048C782.525 499.864 782.045 500.704 781.517 501.52L778.493 501.832C779.885 499.84 781.301 497.272 782.357 494.824L780.677 494.008C779.693 496.864 777.941 499.888 777.389 500.68C776.861 501.496 776.429 502.024 776.021 502.144C776.237 502.624 776.501 503.488 776.597 503.872C776.933 503.704 777.533 503.56 780.437 503.152C779.405 504.664 778.445 505.888 777.989 506.32C777.269 507.208 776.693 507.784 776.189 507.88C776.381 508.36 776.669 509.224 776.765 509.584C777.269 509.272 778.085 509.032 783.965 507.592C783.893 507.208 783.869 506.488 783.917 506.032L779.525 506.992C781.133 505.144 782.741 502.912 784.133 500.632C784.493 500.968 784.997 501.664 785.213 501.976C785.957 501.28 786.701 500.464 787.373 499.528C788.093 500.68 788.981 501.784 790.037 502.744C788.237 503.92 786.197 504.832 784.109 505.432C784.373 505.816 784.733 506.608 784.877 507.088C787.133 506.32 789.389 505.24 791.357 503.824C793.109 505.168 795.221 506.224 797.453 506.944C797.573 506.464 797.861 505.744 798.173 505.312C796.133 504.784 794.237 503.92 792.653 502.84C794.549 501.184 796.157 499.192 797.165 496.816L796.133 496.144ZM804.845 518.728L806.213 518.08C804.125 514.672 803.141 510.616 803.141 506.536C803.141 502.456 804.125 498.424 806.213 494.992L804.845 494.368C802.637 497.944 801.317 501.832 801.317 506.536C801.317 511.264 802.637 515.128 804.845 518.728ZM809.619 514H811.851V507.016H814.755C818.619 507.016 821.235 505.288 821.235 501.568C821.235 497.728 818.595 496.384 814.659 496.384H809.619V514ZM811.851 505.216V498.208H814.371C817.467 498.208 819.027 499.024 819.027 501.568C819.027 504.088 817.563 505.216 814.467 505.216H811.851ZM823.439 514H834.503V512.104H829.631C828.743 512.104 827.663 512.2 826.751 512.272C830.879 508.36 833.639 504.784 833.639 501.28C833.639 498.136 831.671 496.072 828.527 496.072C826.295 496.072 824.783 497.104 823.343 498.664L824.615 499.912C825.575 498.76 826.823 497.872 828.263 497.872C830.447 497.872 831.503 499.336 831.503 501.352C831.503 504.376 828.959 507.88 823.439 512.704V514ZM838.095 514H840.327V507.016H843.231C847.095 507.016 849.711 505.288 849.711 501.568C849.711 497.728 847.071 496.384 843.135 496.384H838.095V514ZM840.327 505.216V498.208H842.847C845.943 498.208 847.503 499.024 847.503 501.568C847.503 504.088 846.039 505.216 842.943 505.216H840.327ZM853.235 518.728C855.467 515.128 856.787 511.264 856.787 506.536C856.787 501.832 855.467 497.944 853.235 494.368L851.891 494.992C853.955 498.424 854.963 502.456 854.963 506.536C854.963 510.616 853.955 514.672 851.891 518.08L853.235 518.728ZM860.769 518.56C862.929 517.648 864.273 515.848 864.273 513.544C864.273 511.936 863.577 510.952 862.425 510.952C861.537 510.952 860.769 511.552 860.769 512.488C860.769 513.496 861.537 514.024 862.377 514.024C862.473 514.024 862.545 514.024 862.641 514C862.641 515.416 861.753 516.592 860.241 517.264L860.769 518.56ZM873.112 494.872L872.848 494.944H867.712V515.848H869.296V496.552H872.224C871.768 498.208 871.12 500.416 870.496 502.192C872.056 504.136 872.416 505.84 872.416 507.184C872.416 507.952 872.296 508.648 871.96 508.912C871.792 509.032 871.552 509.104 871.288 509.128C870.928 509.152 870.52 509.152 870.016 509.08C870.28 509.56 870.424 510.208 870.448 510.688C870.928 510.712 871.504 510.712 871.936 510.64C872.392 510.592 872.824 510.448 873.136 510.184C873.76 509.728 874.024 508.672 874.024 507.352C874.024 505.84 873.64 504.04 872.032 502C872.8 500.008 873.616 497.584 874.264 495.544L873.112 494.872ZM878.032 493.936C877 497.416 875.296 500.824 873.28 503.056C873.64 503.416 874.216 504.16 874.432 504.52C875.008 503.848 875.608 503.032 876.136 502.168V515.704H877.744V499.264C878.488 497.728 879.16 496.048 879.664 494.368L878.032 493.936ZM888.688 499.408H886.576V494.224H884.848V499.408H878.896V501.064H884.848V513.544C884.848 513.928 884.704 514.048 884.344 514.072C884.008 514.072 882.88 514.072 881.584 514.048C881.848 514.552 882.088 515.32 882.16 515.8C883.936 515.824 884.992 515.752 885.664 515.44C886.312 515.128 886.576 514.624 886.576 513.544V501.064H888.688V499.408ZM883.312 508.816C882.832 507.376 881.728 505.168 880.768 503.464L879.424 504.064C880.288 505.792 881.368 508.072 881.872 509.536L883.312 508.816ZM901.792 512.92V503.416H910.72V501.64H901.792V494.296H899.92V512.92H890.968V514.696H912.352V512.92H901.792ZM920.824 508.84C918.472 509.44 916.144 510.064 914.512 510.424L914.848 511.912C916.648 511.432 918.832 510.808 920.992 510.208L920.824 508.84ZM921.712 505.072C922.024 502.48 922.36 498.208 922.6 494.992H915.28V496.552H920.968C920.776 499.432 920.464 502.792 920.176 505.072H917.224C917.464 503.08 917.68 500.488 917.824 498.4L916.288 498.328C916.144 500.872 915.832 504.448 915.544 506.536H921.928C921.616 511.432 921.256 513.376 920.752 513.88C920.536 514.144 920.296 514.168 919.912 514.168C919.456 514.168 918.352 514.144 917.176 514.024C917.464 514.456 917.632 515.056 917.68 515.536C918.808 515.584 919.936 515.608 920.512 515.56C921.232 515.512 921.664 515.344 922.096 514.864C922.816 514.096 923.176 511.84 923.56 505.816C923.584 505.6 923.584 505.072 923.584 505.072H921.712ZM929.608 493.744C928.168 497.104 925.528 500.032 922.696 501.856C922.984 502.192 923.536 502.936 923.752 503.272C926.008 501.688 928.168 499.456 929.776 496.84C931.456 499.168 933.904 501.64 936.04 503.224C936.208 502.72 936.616 501.976 936.928 501.568C934.744 500.128 932.152 497.608 930.64 495.352C930.808 494.992 931 494.656 931.168 494.272L929.608 493.744ZM933.544 501.328H926.44V502.864H933.544V501.328ZM931.504 510.208C931.36 508.648 930.928 506.344 930.472 504.52L929.056 504.712C929.488 506.536 929.92 508.888 930.016 510.424L931.504 510.208ZM924.88 505.312C925.552 507.136 926.224 509.488 926.392 511.048L927.856 510.64C927.616 509.128 926.968 506.776 926.272 504.976L924.88 505.312ZM934.456 504.832C933.664 507.352 932.224 510.904 931.048 513.112H924.112V514.672H936.256V513.112H932.584C933.76 510.928 935.08 507.784 936.088 505.264L934.456 504.832ZM945.088 498.064C944.32 497.08 942.64 495.592 941.344 494.56L940.168 495.64C941.464 496.72 943.096 498.28 943.864 499.288L945.088 498.064ZM944.008 511.312V501.424H938.92V503.128H942.28V511.408C942.28 512.656 941.416 513.568 940.936 513.976C941.272 514.216 941.824 514.84 942.064 515.176C942.4 514.696 943.048 514.168 947.152 511C946.936 510.64 946.6 509.944 946.432 509.464L944.008 511.312ZM954.952 513.232V505.36H959.68V503.68H954.952V497.44H960.136V495.76H946.96V497.44H953.152V513.232H949.936V501.736H948.184V513.232H946.12V514.912H960.616V513.232H954.952ZM980.872 499.912H976.552V496.528H980.872V499.912ZM982.552 494.992H974.92V501.448H982.552V494.992ZM976.576 513.568V510.016H980.872V513.568H976.576ZM970.432 513.568H966.448V510.016H970.432V513.568ZM970.456 499.912H966.4V496.528H970.456V499.912ZM984.352 505.504V503.92H980.176L980.8 503.248C980.032 502.648 978.496 501.88 977.272 501.472L976.36 502.408C977.368 502.768 978.544 503.368 979.36 503.92H972.496C973.048 503.152 973.528 502.384 973.912 501.592L972.136 501.256V494.992H964.816V501.448H971.992C971.608 502.264 971.08 503.104 970.384 503.92H962.968V505.504H968.848C967.24 506.944 965.104 508.264 962.464 509.224C962.8 509.536 963.28 510.16 963.472 510.592C963.928 510.4 964.384 510.208 964.816 510.016V515.824H966.448V515.128H970.432V515.68H972.136V508.48H967.6C969.016 507.568 970.192 506.56 971.2 505.504H975.616C976.6 506.608 977.92 507.64 979.36 508.48H974.944V515.824H976.576V515.128H980.872V515.68H982.552V510.016C982.936 510.16 983.344 510.28 983.728 510.4C983.992 509.944 984.472 509.32 984.856 508.96C982.288 508.336 979.6 507.04 977.776 505.504H984.352ZM1005.95 502.336H988.072V504.064H994.336V515.776H996.184V504.064H1004.13V510.256C1004.13 510.64 1004.01 510.736 1003.55 510.736C1003.05 510.784 1001.44 510.784 999.688 510.712C999.928 511.24 1000.19 512.032 1000.24 512.56C1002.5 512.56 1003.98 512.56 1004.85 512.272C1005.74 511.984 1005.95 511.384 1005.95 510.304V502.336ZM1002.69 496.648V493.936H1000.84V496.648H994.432V493.936H992.632V496.648H987.064V498.352H992.632V501.064H994.432V498.352H1000.84V501.064H1002.69V498.352H1008.26V496.648H1002.69ZM1027.84 507.136H1015.38V502.864H1027.84V507.136ZM1029.64 501.184H1022.34V498.16H1031.42V496.48H1022.34V493.936H1020.57V501.184H1013.68V508.816H1029.64V501.184ZM1012.36 515.824C1013.66 514.576 1014.88 512.56 1015.67 510.688L1013.99 510.256C1013.22 512.032 1012 513.952 1010.73 515.032L1012.36 515.824ZM1017.83 510.904C1018.14 512.44 1018.36 514.432 1018.36 515.632L1020.14 515.392C1020.11 514.24 1019.85 512.272 1019.54 510.76L1017.83 510.904ZM1022.75 510.928C1023.47 512.392 1024.19 514.384 1024.43 515.56L1026.16 515.152C1025.87 513.952 1025.1 512.008 1024.36 510.568L1022.75 510.928ZM1027.62 510.712C1028.82 512.248 1030.14 514.312 1030.7 515.632L1032.38 514.96C1031.78 513.616 1030.41 511.624 1029.18 510.112L1027.62 510.712ZM1036.02 518.728C1038.26 515.128 1039.58 511.264 1039.58 506.536C1039.58 501.832 1038.26 497.944 1036.02 494.368L1034.68 494.992C1036.74 498.424 1037.75 502.456 1037.75 506.536C1037.75 510.616 1036.74 514.672 1034.68 518.08L1036.02 518.728Z" fill="white"/>
<path d="M175.736 518.728L177.104 518.08C175.016 514.672 174.032 510.616 174.032 506.536C174.032 502.456 175.016 498.424 177.104 494.992L175.736 494.368C173.528 497.944 172.208 501.832 172.208 506.536C172.208 511.264 173.528 515.128 175.736 518.728ZM182.261 513.424V496.936H200.261V495.232H180.509V515.128H200.861V513.424H182.261ZM198.005 510.472C196.733 508.936 194.789 507.016 192.653 505.048C194.381 503.104 195.941 500.992 197.261 498.76L195.605 498.088C194.453 500.104 193.013 502.096 191.381 503.896C189.461 502.168 187.421 500.416 185.597 498.952L184.349 500.008C186.221 501.544 188.261 503.344 190.205 505.144C188.189 507.208 185.909 509.032 183.581 510.424C184.013 510.712 184.685 511.408 184.997 511.744C187.229 510.304 189.437 508.432 191.453 506.344C193.541 508.312 195.389 510.256 196.589 511.744L198.005 510.472ZM210.629 506.992L207.989 508.096V501.352H210.605V499.648H207.989V494.2H206.309V499.648H203.453V501.352H206.309V508.792C205.061 509.296 203.933 509.752 203.045 510.088L203.741 511.864C205.805 510.928 208.517 509.728 211.013 508.552L210.629 506.992ZM217.805 499.648H221.501V504.904H217.709C217.781 504.04 217.805 503.176 217.805 502.288V499.648ZM224.861 506.608V504.904H223.181V497.968H217.805V494.176H216.101V497.968H211.757V499.648H216.101V502.288C216.101 503.176 216.077 504.04 215.981 504.904H211.037V506.608H215.741C215.093 509.632 213.389 512.44 209.093 514.528C209.501 514.84 210.053 515.464 210.293 515.896C214.781 513.64 216.629 510.64 217.349 507.328C218.597 511.312 220.757 514.312 224.021 515.896C224.309 515.416 224.861 514.696 225.269 514.312C222.053 513.016 219.917 510.208 218.789 506.608H224.861ZM243.173 503.824V507.016H238.565V508.576H243.173V512.656H244.781V508.576H248.813V507.016H244.781V503.824H248.285L248.309 502.312H244.781V499.456H243.173V502.312H240.653C241.277 501.136 241.877 499.744 242.429 498.304H248.909V496.768H242.957C243.245 495.928 243.509 495.064 243.749 494.224L242.045 493.864C241.853 494.848 241.589 495.832 241.325 496.768H238.349V498.304H240.821C240.389 499.6 239.933 500.632 239.741 501.04C239.357 501.904 238.997 502.528 238.613 502.648C238.829 503.056 239.069 503.824 239.165 504.16C239.381 503.968 240.077 503.824 240.989 503.824H243.173ZM237.965 499.024C237.581 497.896 236.765 496.168 235.997 494.872L234.557 495.376C235.277 496.672 236.069 498.472 236.429 499.624L237.965 499.024ZM234.221 498.232V496.672H230.285C230.573 495.928 230.837 495.136 231.005 494.368L229.469 493.96C228.941 496.216 228.029 498.448 226.877 499.912C227.141 500.296 227.621 501.112 227.765 501.496C228.461 500.608 229.109 499.48 229.661 498.232H234.221ZM231.677 512.2V507.592H234.317V506.032H231.677V502.648H233.789V501.112H228.173V502.648H230.021V506.032H227.333V507.592H230.021V512.032C230.021 513.16 229.301 513.976 228.869 514.312C229.157 514.576 229.613 515.2 229.805 515.56C230.141 515.128 230.717 514.672 234.293 512.176C234.101 511.864 233.885 511.24 233.765 510.832L231.677 512.2ZM237.797 502.408H233.885V504.064H236.165V511.72C235.301 512.128 234.317 512.968 233.381 513.976L234.533 515.608C235.445 514.312 236.453 513.064 237.125 513.064C237.605 513.064 238.277 513.64 239.093 514.216C240.365 515.008 241.781 515.344 243.797 515.344C245.237 515.344 247.661 515.272 248.909 515.2C248.909 514.696 249.149 513.832 249.341 513.328C247.733 513.544 245.333 513.64 243.845 513.64C241.949 513.64 240.557 513.424 239.405 512.68C238.709 512.248 238.253 511.84 237.797 511.648V502.408ZM252.485 518.728C254.717 515.128 256.037 511.264 256.037 506.536C256.037 501.832 254.717 497.944 252.485 494.368L251.141 494.992C253.205 498.424 254.213 502.456 254.213 506.536C254.213 510.616 253.205 514.672 251.141 518.08L252.485 518.728Z" fill="white"/>
<defs>
<linearGradient id="paint0_linear" x1="412.801" y1="155.683" x2="479.843" y2="155.683" gradientUnits="userSpaceOnUse">
<stop stop-color="#DD45D3"/>
<stop offset="0.2029" stop-color="#D943D4"/>
<stop offset="0.4063" stop-color="#CD3ED6"/>
<stop offset="0.6101" stop-color="#B935DA"/>
<stop offset="0.8129" stop-color="#9D28E0"/>
<stop offset="1" stop-color="#7C19E6"/>
</linearGradient>
<linearGradient id="paint1_linear" x1="329" y1="299.299" x2="396.041" y2="299.299" gradientUnits="userSpaceOnUse">
<stop stop-color="#DD45D3"/>
<stop offset="0.2029" stop-color="#D943D4"/>
<stop offset="0.4063" stop-color="#CD3ED6"/>
<stop offset="0.6101" stop-color="#B935DA"/>
<stop offset="0.8129" stop-color="#9D28E0"/>
<stop offset="1" stop-color="#7C19E6"/>
</linearGradient>
<linearGradient id="paint2_linear" x1="683.959" y1="299.299" x2="751" y2="299.299" gradientUnits="userSpaceOnUse">
<stop stop-color="#DD45D3"/>
<stop offset="0.2029" stop-color="#D943D4"/>
<stop offset="0.4063" stop-color="#CD3ED6"/>
<stop offset="0.6101" stop-color="#B935DA"/>
<stop offset="0.8129" stop-color="#9D28E0"/>
<stop offset="1" stop-color="#7C19E6"/>
</linearGradient>
<linearGradient id="paint3_linear" x1="412.801" y1="452.49" x2="479.843" y2="452.49" gradientUnits="userSpaceOnUse">
<stop stop-color="#DD45D3"/>
<stop offset="0.2029" stop-color="#D943D4"/>
<stop offset="0.4063" stop-color="#CD3ED6"/>
<stop offset="0.6101" stop-color="#B935DA"/>
<stop offset="0.8129" stop-color="#9D28E0"/>
<stop offset="1" stop-color="#7C19E6"/>
</linearGradient>
<linearGradient id="paint4_linear" x1="592.974" y1="452.49" x2="660.016" y2="452.49" gradientUnits="userSpaceOnUse">
<stop stop-color="#DD45D3"/>
<stop offset="0.2029" stop-color="#D943D4"/>
<stop offset="0.4063" stop-color="#CD3ED6"/>
<stop offset="0.6101" stop-color="#B935DA"/>
<stop offset="0.8129" stop-color="#9D28E0"/>
<stop offset="1" stop-color="#7C19E6"/>
</linearGradient>
<linearGradient id="paint5_linear" x1="606.742" y1="342.982" x2="673.783" y2="342.982" gradientUnits="userSpaceOnUse">
<stop stop-color="#DD45D3"/>
<stop offset="0.2029" stop-color="#D943D4"/>
<stop offset="0.4063" stop-color="#CD3ED6"/>
<stop offset="0.6101" stop-color="#B935DA"/>
<stop offset="0.8129" stop-color="#9D28E0"/>
<stop offset="1" stop-color="#7C19E6"/>
</linearGradient>
<linearGradient id="paint6_linear" x1="439.139" y1="265.789" x2="506.18" y2="265.789" gradientUnits="userSpaceOnUse">
<stop stop-color="#DD45D3"/>
<stop offset="0.2029" stop-color="#D943D4"/>
<stop offset="0.4063" stop-color="#CD3ED6"/>
<stop offset="0.6101" stop-color="#B935DA"/>
<stop offset="0.8129" stop-color="#9D28E0"/>
<stop offset="1" stop-color="#7C19E6"/>
</linearGradient>
<linearGradient id="paint7_linear" x1="573.221" y1="241.255" x2="640.262" y2="241.255" gradientUnits="userSpaceOnUse">
<stop stop-color="#DD45D3"/>
<stop offset="0.2029" stop-color="#D943D4"/>
<stop offset="0.4063" stop-color="#CD3ED6"/>
<stop offset="0.6101" stop-color="#B935DA"/>
<stop offset="0.8129" stop-color="#9D28E0"/>
<stop offset="1" stop-color="#7C19E6"/>
</linearGradient>
<linearGradient id="paint8_linear" x1="479.843" y1="366.32" x2="546.884" y2="366.32" gradientUnits="userSpaceOnUse">
<stop stop-color="#DD45D3"/>
<stop offset="0.2029" stop-color="#D943D4"/>
<stop offset="0.4063" stop-color="#CD3ED6"/>
<stop offset="0.6101" stop-color="#B935DA"/>
<stop offset="0.8129" stop-color="#9D28E0"/>
<stop offset="1" stop-color="#7C19E6"/>
</linearGradient>
<linearGradient id="paint9_linear" x1="592.974" y1="145.51" x2="660.016" y2="145.51" gradientUnits="userSpaceOnUse">
<stop stop-color="#DD45D3"/>
<stop offset="0.2029" stop-color="#D943D4"/>
<stop offset="0.4063" stop-color="#CD3ED6"/>
<stop offset="0.6101" stop-color="#B935DA"/>
<stop offset="0.8129" stop-color="#9D28E0"/>
<stop offset="1" stop-color="#7C19E6"/>
</linearGradient>
<clipPath id="clip0">
<rect width="422" height="374" fill="white" transform="translate(329 112)"/>
</clipPath>
</defs>
</svg>
