<svg width="1241" height="286" viewBox="0 0 1241 286" fill="none" xmlns="http://www.w3.org/2000/svg">
<path d="M117 5H43L6 69.5305L43 134H117L154 69.5305L117 5Z" stroke="url(#paint0_linear)" stroke-width="10" stroke-miterlimit="10"/>
<path d="M117 152H43L6 216.531L43 281H117L154 216.531L117 152Z" stroke="url(#paint1_linear)" stroke-width="10" stroke-miterlimit="10"/>
<path d="M250 75H176L139 139.531L176 204H250L287 139.531L250 75Z" stroke="url(#paint2_linear)" stroke-width="10" stroke-miterlimit="10"/>
<path d="M380.75 5H306.25L269 69.5305L306.25 134H380.75L418 69.5305L380.75 5Z" stroke="url(#paint3_linear)" stroke-width="10" stroke-miterlimit="10"/>
<path d="M519 75H445L408 139.531L445 204H519L556 139.531L519 75Z" stroke="url(#paint4_linear)" stroke-width="10" stroke-miterlimit="10"/>
<path d="M649 5H575L538 69.5305L575 134H649L686 69.5305L649 5Z" stroke="url(#paint5_linear)" stroke-width="10" stroke-miterlimit="10"/>
<path d="M782.75 75H708.25L671 139.531L708.25 204H782.75L820 139.531L782.75 75Z" stroke="url(#paint6_linear)" stroke-width="10" stroke-miterlimit="10"/>
<path d="M912.75 5H838.25L801 69.5305L838.25 134H912.75L950 69.5305L912.75 5Z" stroke="url(#paint7_linear)" stroke-width="10" stroke-miterlimit="10"/>
<path d="M912.75 152H838.25L801 216.531L838.25 281H912.75L950 216.531L912.75 152Z" stroke="url(#paint8_linear)" stroke-width="10" stroke-miterlimit="10"/>
<path d="M1046 75H972L935 139.531L972 204H1046L1083 139.531L1046 75Z" stroke="url(#paint9_linear)" stroke-width="10" stroke-miterlimit="10"/>
<path d="M1171 152H1097L1060 216.531L1097 281H1171L1208 216.531L1171 152Z" stroke="url(#paint10_linear)" stroke-width="10" stroke-miterlimit="10"/>
<path d="M1176 5H1102L1065 69.5305L1102 134H1176L1213 69.5305L1176 5Z" stroke="url(#paint11_linear)" stroke-width="10" stroke-miterlimit="10"/>
<path d="M649 152H575L538 216.531L575 281H649L686 216.531L649 152Z" stroke="url(#paint12_linear)" stroke-width="10" stroke-miterlimit="10"/>
<path d="M380.75 152H306.25L269 216.531L306.25 281H380.75L418 216.531L380.75 152Z" stroke="url(#paint13_linear)" stroke-width="10" stroke-miterlimit="10"/>
<path d="M53.94 51.06H55.88V48.8H53.94V44.34H51.82V48.8H49.78V51.06H51.82V57.2C50.98 57.5 50.22 57.76 49.58 57.96L50.32 60.4C52.08 59.68 54.28 58.74 56.36 57.86L55.92 55.68C55.26 55.94 54.6 56.18 53.94 56.42V51.06ZM64.5 57.22V59.96H59.54V57.22H64.5ZM57.4 62.74H59.54V62.04H64.5V62.66H66.78V55.14H57.4V62.74ZM64.22 48.36C64 49.38 63.54 50.76 63.12 51.74H58.96L60.68 51.18C60.56 50.42 60.18 49.26 59.76 48.36H64.22ZM65.26 51.74C65.64 50.88 66.04 49.8 66.42 48.78L64.66 48.36H67.64V46.26H63.28C63.16 45.58 62.92 44.68 62.66 43.98L60.54 44.32C60.72 44.92 60.88 45.64 60.98 46.26H56.58V48.36H59.54L57.82 48.88C58.16 49.74 58.52 50.92 58.64 51.74H55.84V53.86H68.32V51.74H65.26ZM75.66 47.28C74.86 46.42 73.16 45.16 71.96 44.26L70.5 45.84C71.72 46.8 73.34 48.2 74.08 49.08L75.66 47.28ZM77.24 51.62C77.24 53.9 77.16 56.18 76.54 58.28C76.26 57.8 75.9 57 75.72 56.42L74.28 57.66V50.2H69.68V52.48H72V58.78C72 59.86 71.46 60.6 71.02 60.96C71.4 61.3 72.02 62.14 72.24 62.62C72.58 62.12 73.16 61.5 76.44 58.62C76.12 59.58 75.72 60.52 75.12 61.4C75.8 61.64 76.9 62.28 77.46 62.7C79.4 59.48 79.62 55.46 79.62 51.62V44.7H77.24V51.62ZM81.34 60.06H83.54V45.72H81.34V60.06ZM85.32 44.56V62.5H87.7V44.56H85.32ZM95.9 52.2H98.8V50H95.9V46.94C96.96 46.7 98 46.42 98.88 46.1L97.34 44.24C95.52 44.96 92.6 45.6 90 45.96C90.26 46.48 90.54 47.28 90.64 47.82C91.56 47.7 92.52 47.56 93.5 47.4V50H89.94V52.2H92.92C92.14 54.4 90.86 56.7 89.5 58.14C89.9 58.74 90.48 59.68 90.7 60.38C91.76 59.2 92.7 57.48 93.5 55.6V62.72H95.9V55.34C96.56 56.28 97.2 57.28 97.58 57.96L98.94 55.98C98.5 55.44 96.7 53.34 95.9 52.54V52.2ZM101.66 57.92V48.22H104.86V57.92H101.66ZM99.32 45.94V61.78H101.66V60.2H104.86V61.64H107.32V45.94H99.32ZM60.3 87.96V77.62H67.02V75.14H51.04V77.62H57.58V87.96H49.96V90.36H68.14V87.96H60.3ZM74.04 73.14C73.04 75.98 71.3 78.82 69.48 80.62C69.9 81.22 70.58 82.58 70.8 83.16C71.2 82.72 71.62 82.22 72.04 81.72V91.72H74.44V78.02C75.18 76.68 75.84 75.26 76.36 73.86L74.04 73.14ZM88.38 78.58V76.32H80.62C81 75.5 81.32 74.68 81.6 73.84L79.3 73.26C78.4 76.12 76.82 79 75.06 80.8C75.56 81.18 76.5 82.02 76.88 82.46C77.78 81.42 78.7 80.06 79.5 78.58H80.26V91.74H82.7V87.3H88.14V85.1H82.7V82.84H87.88V80.68H82.7V78.58H88.38ZM108.3 78.68V76.4H101.98L104.04 75.84C103.84 75.08 103.4 73.8 103.04 72.86L100.8 73.4C101.12 74.34 101.5 75.6 101.66 76.4H96.32V77.86H94.46V73.44H92.14V77.86H89.94V80.1H92.14V85.6C91.16 85.94 90.28 86.22 89.56 86.42L90.1 88.92C92.1 88.16 94.62 87.22 96.98 86.28L96.52 84.08C95.84 84.3 95.16 84.56 94.46 84.8V80.1H96.38V78.68H99.28V81.22C99.28 83.86 98.72 87.4 94.48 90.1C95.1 90.52 95.88 91.22 96.3 91.74C100.04 89.4 101.22 86.2 101.56 83.3H104.9C104.74 87.06 104.52 88.62 104.14 89.02C103.94 89.24 103.74 89.3 103.38 89.3C102.94 89.3 102 89.28 100.98 89.2C101.4 89.86 101.72 90.84 101.76 91.54C102.82 91.58 103.9 91.58 104.5 91.48C105.24 91.4 105.74 91.2 106.2 90.58C106.86 89.82 107.1 87.6 107.34 82.1C107.36 81.8 107.38 81.1 107.38 81.1H101.66V78.68H108.3Z" fill="white"/>
<path d="M314.54 71.36C315.12 71.9 315.7 72.52 316.26 73.14L309.3 73.54C310.42 72.54 311.52 71.38 312.44 70.24H320.84V67.94H304.3V70.24H309.14C308.06 71.56 306.98 72.64 306.5 73C305.88 73.54 305.44 73.88 304.92 73.98C305.2 74.66 305.6 75.88 305.72 76.38C306.7 76.02 308.08 75.94 317.94 75.22C318.34 75.76 318.68 76.28 318.92 76.74L321.04 75.44C320.16 73.94 318.32 71.84 316.58 70.32L314.54 71.36ZM309.2 64.08C310.4 63.24 311.54 62.34 312.54 61.34C313.52 62.26 314.76 63.2 316.08 64.08H309.2ZM312.42 57.96C310.52 60.52 306.9 62.96 303.1 64.4C303.66 64.88 304.46 65.92 304.8 66.52C305.88 66.04 306.88 65.5 307.86 64.94V66.26H317.2V64.78C318.2 65.38 319.26 65.9 320.3 66.32C320.68 65.68 321.44 64.72 321.98 64.22C319.02 63.28 315.86 61.48 313.92 59.84C314.16 59.56 314.38 59.28 314.6 59L312.42 57.96ZM328.6 60.88H336.44V62.42H328.6V60.88ZM326.1 58.86V64.44H339.1V58.86H326.1ZM331.08 68.84V70.56C331.08 71.88 330.48 73.74 323.62 74.98C324.22 75.48 324.96 76.4 325.26 76.92C332.48 75.3 333.68 72.74 333.68 70.62V68.84H331.08ZM333.22 74.1C335.5 74.84 338.7 76.1 340.26 76.88L341.48 74.84C339.8 74.1 336.52 72.96 334.38 72.34L333.22 74.1ZM325.26 65.72V73.04H327.74V67.9H337.4V72.78H340V65.72H325.26ZM347.84 58.16C346.78 61.1 344.96 63.98 343.06 65.8C343.48 66.38 344.2 67.7 344.46 68.28C344.92 67.8 345.4 67.26 345.86 66.68V76.7H348.3V62.96C349.04 61.62 349.66 60.26 350.2 58.92L347.84 58.16ZM361.82 62.36H359.62V58.28H357.14V62.36H349.52V64.76H357.14V73.84C357.14 74.28 356.96 74.44 356.46 74.44C356 74.46 354.24 74.46 352.7 74.4C353.06 75.02 353.48 76.08 353.62 76.76C355.82 76.78 357.32 76.74 358.3 76.36C359.26 76 359.62 75.38 359.62 73.84V64.76H361.82V62.36ZM355.28 70.82C354.68 69.62 353.44 67.66 352.54 66.2L350.42 67.18C351.32 68.7 352.5 70.76 353.02 71.98L355.28 70.82ZM372.18 65.48H364.04V67.4H372.18L372.2 66.58C372.72 66.94 373.38 67.46 373.7 67.74C374.34 66.68 374.9 65.34 375.36 63.82H379.24C379.02 65.04 378.74 66.24 378.48 67.1L380.4 67.68C380.92 66.22 381.48 63.98 381.88 62.02L380.22 61.56L379.88 61.66H375.92C376.14 60.62 376.32 59.52 376.46 58.42L374.16 58.1C373.86 60.9 373.24 63.66 372.2 65.6L372.18 65.48ZM367 62.62H363.92V64.54H372.3V62.62H369.22V61.6H372.74V59.66H369.22V58.2H367V59.66H363.42V61.6H367V62.62ZM364.42 70.68C364.06 72.02 363.54 73.54 362.94 74.58C363.44 74.74 364.32 75.12 364.76 75.36C365.32 74.3 365.98 72.6 366.36 71.14L364.42 70.68ZM372.98 70.3V68.34H363.16V70.3H367.02V74.44C367.02 74.64 366.96 74.7 366.76 74.7C366.54 74.7 365.9 74.7 365.28 74.68C365.54 75.26 365.84 76.1 365.92 76.74C367 76.74 367.82 76.7 368.44 76.36C369.1 76.04 369.24 75.48 369.24 74.5V70.3H372.98ZM369.8 71.32C370.26 72.34 370.78 73.68 371 74.48L372.86 73.7C372.62 72.88 372.06 71.6 371.56 70.64L369.8 71.32ZM377.86 65.14H375.6V66.06C375.6 68.54 375.3 72.34 372 75.18C372.58 75.54 373.4 76.28 373.8 76.8C375.38 75.38 376.36 73.74 376.94 72.1C377.74 74.08 378.86 75.7 380.46 76.7C380.8 76.06 381.52 75.14 382.04 74.68C379.78 73.5 378.46 70.96 377.8 67.98C377.84 67.32 377.86 66.7 377.86 66.12V65.14Z" fill="white"/>
<path d="M463.94 130.14L462.34 130.38V128.48H463.78V126.42H462.34V123.5H460.22V126.42H458.88C459.36 125.22 459.86 123.84 460.3 122.4H463.7V120.24H460.9C461.06 119.64 461.18 119.06 461.28 118.48L459 118.06C458.9 118.78 458.78 119.52 458.62 120.24H456.26V122.4H458.12C457.76 123.72 457.42 124.78 457.24 125.2C456.9 126.08 456.62 126.64 456.2 126.76C456.46 127.32 456.8 128.36 456.92 128.78C457.1 128.6 457.82 128.48 458.48 128.48H460.22V130.7C458.64 130.94 457.18 131.14 456.04 131.28L456.5 133.56C457.6 133.38 458.9 133.14 460.22 132.9V136.64H462.34V132.52C462.92 132.4 463.48 132.3 464.06 132.18L463.94 130.14ZM472.12 127.1H470.46V125.74H472.12V127.1ZM470.46 130.46V129.02H472.12V130.46H470.46ZM466.78 130.46V129.02H468.5V130.46H466.78ZM468.5 125.74V127.1H466.78V125.74H468.5ZM474.74 122.5V120.5H473.46L474.42 119.74C473.92 119.26 473 118.48 472.32 117.96L470.88 119.04C471.4 119.48 472.06 120.02 472.52 120.5H470.6V118.06H468.36V120.5H464.26V122.5H468.36V123.74H464.74V136.68H466.78V132.4H468.5V136.58H470.46V132.4H472.12V134.42C472.12 134.6 472.06 134.66 471.9 134.66C471.74 134.66 471.3 134.66 470.86 134.64C471.12 135.2 471.38 136.08 471.44 136.66C472.36 136.66 473.04 136.62 473.56 136.28C474.08 135.92 474.2 135.36 474.2 134.46V123.74H470.6V122.5H474.74ZM489.68 120.62V121.94H480.48V120.62H489.68ZM490.06 127.22C492.92 127.22 493.8 126.76 494.14 124.74C493.44 124.64 492.48 124.4 491.9 124.08C491.72 125.12 491.38 125.3 489.84 125.3H483.04C480.88 125.3 480.48 125.16 480.48 124.34V123.98H492.02V118.58H477.98V124.38C477.98 126.66 479.2 127.22 483.08 127.22H490.06ZM494.4 128.78H490.3V127.66H487.84V128.78H476.68V131H480.28L479.32 131.88C480.62 132.8 482.12 134.18 482.76 135.16L484.48 133.54C483.92 132.76 482.84 131.8 481.76 131H487.84V134.22C487.84 134.52 487.7 134.62 487.3 134.64C486.92 134.64 485.34 134.64 484.12 134.58C484.44 135.18 484.8 136.08 484.92 136.72C486.76 136.72 488.1 136.7 489.06 136.4C490 136.1 490.3 135.52 490.3 134.3V131H494.4V128.78ZM502.4 126.2H505.3V124H502.4V120.94C503.46 120.7 504.5 120.42 505.38 120.1L503.84 118.24C502.02 118.96 499.1 119.6 496.5 119.96C496.76 120.48 497.04 121.28 497.14 121.82C498.06 121.7 499.02 121.56 500 121.4V124H496.44V126.2H499.42C498.64 128.4 497.36 130.7 496 132.14C496.4 132.74 496.98 133.68 497.2 134.38C498.26 133.2 499.2 131.48 500 129.6V136.72H502.4V129.34C503.06 130.28 503.7 131.28 504.08 131.96L505.44 129.98C505 129.44 503.2 127.34 502.4 126.54V126.2ZM508.16 131.92V122.22H511.36V131.92H508.16ZM505.82 119.94V135.78H508.16V134.2H511.36V135.64H513.82V119.94H505.82ZM473.18 155.48C472.5 155.66 471.8 155.84 471.1 156.02V153.02H473.14V150.82H471.1V147.08H468.76V150.82H466.28V153.02H468.76V156.58C467.74 156.82 466.78 157.04 465.98 157.2L466.54 159.48L468.76 158.9V163.18C468.76 163.46 468.66 163.54 468.38 163.56C468.12 163.56 467.32 163.56 466.54 163.52C466.82 164.14 467.14 165.1 467.2 165.7C468.6 165.7 469.56 165.64 470.22 165.28C470.9 164.9 471.1 164.34 471.1 163.16V158.3C471.9 158.08 472.68 157.86 473.46 157.64L473.18 155.48ZM481.5 158.58V159.8H476.4V158.58H481.5ZM476.4 162.98V161.66H481.5V162.98H476.4ZM474.14 165.74H476.4V164.88H481.5V165.66H483.86V156.62H474.14V165.74ZM477.92 153.34C476.76 153.34 476.56 153.24 476.56 152.48V151.64C478.94 151.16 481.6 150.48 483.64 149.66L481.88 147.94C480.56 148.56 478.56 149.2 476.56 149.7V147.08H474.18V152.5C474.18 154.8 474.9 155.48 477.68 155.48H481.56C483.84 155.48 484.54 154.72 484.84 151.9C484.18 151.78 483.18 151.4 482.68 151.04C482.54 153.02 482.38 153.34 481.38 153.34H477.92ZM499.68 149.62V150.94H490.48V149.62H499.68ZM500.06 156.22C502.92 156.22 503.8 155.76 504.14 153.74C503.44 153.64 502.48 153.4 501.9 153.08C501.72 154.12 501.38 154.3 499.84 154.3H493.04C490.88 154.3 490.48 154.16 490.48 153.34V152.98H502.02V147.58H487.98V153.38C487.98 155.66 489.2 156.22 493.08 156.22H500.06ZM504.4 157.78H500.3V156.66H497.84V157.78H486.68V160H490.28L489.32 160.88C490.62 161.8 492.12 163.18 492.76 164.16L494.48 162.54C493.92 161.76 492.84 160.8 491.76 160H497.84V163.22C497.84 163.52 497.7 163.62 497.3 163.64C496.92 163.64 495.34 163.64 494.12 163.58C494.44 164.18 494.8 165.08 494.92 165.72C496.76 165.72 498.1 165.7 499.06 165.4C500 165.1 500.3 164.52 500.3 163.3V160H504.4V157.78Z" fill="white"/>
<path d="M580.84 52.56L579 53.02V50.06H580.96V47.86H579V44.08H576.64V47.86H574.34V50.06H576.64V53.6C575.68 53.84 574.82 54.02 574.08 54.18L574.7 56.44L576.64 55.96V60.08C576.64 60.38 576.54 60.48 576.26 60.48C576 60.48 575.18 60.48 574.4 60.46C574.68 61.08 574.98 62.02 575.06 62.62C576.48 62.62 577.44 62.56 578.1 62.2C578.78 61.82 579 61.26 579 60.1V55.32C579.72 55.14 580.44 54.94 581.14 54.74L580.84 52.56ZM589.22 53.64C588.62 55 587.74 56.2 586.7 57.18C585.7 56.16 584.9 54.96 584.34 53.64H589.22ZM590.7 51.4L590.28 51.5H587.88V49.1H592.36V46.9H587.88V44.04H585.52V46.9H581.22V49.1H585.52V51.5H581.58V53.64H582.62L582.02 53.82C582.76 55.66 583.7 57.24 584.86 58.58C583.46 59.48 581.84 60.12 580.08 60.54C580.52 61.06 581.08 62.06 581.34 62.7C583.3 62.12 585.06 61.32 586.62 60.24C588.02 61.34 589.66 62.18 591.6 62.76C591.94 62.14 592.62 61.18 593.12 60.7C591.34 60.26 589.8 59.6 588.48 58.68C590.18 57 591.46 54.8 592.22 52.04L590.7 51.4ZM610.74 47.06C609.98 46.26 608.42 45.06 607.36 44.24L605.6 45.7C606.7 46.58 608.18 47.88 608.9 48.68L610.74 47.06ZM612.16 51.3V48.96H604.86V44.08H602.24V48.96H594.76V51.3H601.56C599.92 54.28 597.04 57.12 593.98 58.64C594.56 59.14 595.36 60.12 595.78 60.74C598.24 59.32 600.48 57.12 602.24 54.56V62.74H604.86V53.68C606.64 56.38 608.9 58.94 611.1 60.58C611.54 59.92 612.4 58.94 613.02 58.44C610.42 56.82 607.6 54.02 605.86 51.3H612.16ZM621.42 52.34V51.76V47.46H626V52.34H621.42ZM632.6 52.34H628.5V47.46H632V45.22H615.12V47.46H618.98V51.74V52.34H614.46V54.62H618.78C618.4 56.98 617.32 59.28 614.4 61.04C615 61.44 615.92 62.28 616.32 62.82C619.8 60.64 620.92 57.6 621.28 54.62H626V62.76H628.5V54.62H632.6V52.34ZM651.08 46.88C650.54 46.14 649.46 44.98 648.68 44.14L646.84 45.24C647.62 46.14 648.66 47.38 649.16 48.12L651.08 46.88ZM647.74 54.5C647.12 55.6 646.32 56.58 645.34 57.42C644.34 56.58 643.5 55.6 642.82 54.5H647.74ZM649.46 52.1L649.02 52.2H643.18C643.38 51.66 643.56 51.14 643.74 50.56H652.34V48.28H644.32C644.58 47.04 644.8 45.72 644.98 44.36L642.32 43.92C642.14 45.46 641.88 46.92 641.56 48.28H638.8C639.34 47.26 639.86 46.04 640.2 44.9L637.68 44.5C637.3 46.06 636.56 47.62 636.3 48.04C636.04 48.48 635.74 48.76 635.44 48.86C635.7 49.44 636.08 50.52 636.22 51.02C636.4 50.72 637.24 50.56 638.32 50.56H640.92C639.62 54.42 637.48 57.4 633.94 59.3C634.52 59.72 635.36 60.7 635.68 61.22C638.1 59.86 639.92 58.14 641.28 56.04C641.9 57.06 642.6 57.96 643.44 58.76C641.9 59.64 640.16 60.28 638.28 60.68C638.72 61.22 639.26 62.14 639.52 62.78C641.68 62.22 643.66 61.44 645.38 60.34C647.08 61.46 649.1 62.28 651.54 62.78C651.86 62.12 652.5 61.14 653.02 60.62C650.84 60.26 648.98 59.64 647.4 58.8C649.04 57.3 650.32 55.36 651.12 52.88L649.46 52.1ZM597.48 82.9C597.5 82.24 597.5 81.62 597.5 81.02V80.48H599.46V82.9H597.48ZM599.46 75.96V78.28H597.5V75.96H599.46ZM601.66 73.76H595.36V81.02C595.36 83.94 595.28 87.96 594.04 90.68C594.56 90.86 595.54 91.42 595.96 91.76C596.78 89.94 597.18 87.48 597.36 85.14H599.46V89.1C599.46 89.38 599.36 89.46 599.12 89.46C598.88 89.46 598.14 89.48 597.42 89.44C597.72 90.04 598 91.12 598.06 91.74C599.36 91.74 600.22 91.68 600.84 91.3C601.5 90.88 601.66 90.24 601.66 89.14V73.76ZM605.02 82.86H605.14C605.74 84.68 606.48 86.36 607.46 87.82C606.72 88.66 605.92 89.36 605.02 89.86V82.86ZM610 82.86C609.68 83.98 609.24 85.04 608.7 85.98C608.08 85.02 607.56 83.96 607.16 82.86H610ZM611.16 80.64L610.8 80.72H605.02V75.98H609.68V77.58C609.68 77.82 609.58 77.88 609.26 77.9C608.94 77.92 607.76 77.92 606.76 77.86C607.04 78.44 607.36 79.24 607.46 79.86C608.98 79.86 610.12 79.86 610.9 79.56C611.74 79.24 611.96 78.68 611.96 77.64V73.78H602.76V91.76H605.02V90.12C605.46 90.56 605.96 91.26 606.2 91.72C607.18 91.14 608.06 90.42 608.82 89.58C609.66 90.44 610.62 91.18 611.66 91.76C612 91.18 612.66 90.34 613.14 89.9C612.04 89.42 611.04 88.68 610.18 87.8C611.3 86 612.12 83.8 612.58 81.1L611.16 80.64ZM623.98 84.14C624.12 83.66 624.22 83.18 624.32 82.64L621.86 82.44C621.78 83.06 621.66 83.6 621.54 84.14H615.88V86.16H620.66C619.5 88.06 617.48 89.14 614.56 89.74C615 90.2 615.7 91.2 615.94 91.7C619.56 90.7 621.92 89.08 623.28 86.16H628.62C628.32 88.04 627.94 89.02 627.54 89.34C627.28 89.54 627 89.56 626.58 89.56C625.98 89.56 624.54 89.54 623.24 89.42C623.64 89.98 623.94 90.84 623.98 91.46C625.3 91.52 626.58 91.52 627.32 91.48C628.22 91.44 628.86 91.28 629.44 90.74C630.18 90.1 630.68 88.5 631.12 85.1C631.18 84.78 631.24 84.14 631.24 84.14H623.98ZM620.34 76.94H627.6C626.5 77.82 625.1 78.52 623.5 79.12C622.12 78.58 621.02 77.9 620.2 77.06L620.34 76.94ZM629.98 74.86L629.64 74.96H622.16C622.52 74.5 622.84 74.02 623.14 73.54L620.72 73.04C619.7 74.74 617.84 76.54 615.02 77.82C615.46 78.2 616.12 79.1 616.4 79.66C617.24 79.24 617.98 78.76 618.66 78.28C619.3 78.92 619.98 79.48 620.76 79.94C618.76 80.46 616.58 80.8 614.4 80.98C614.76 81.52 615.16 82.46 615.32 83.06C618.14 82.72 620.96 82.16 623.52 81.28C625.78 82.12 628.5 82.6 631.56 82.82C631.86 82.2 632.4 81.26 632.88 80.74C630.56 80.64 628.4 80.4 626.5 79.98C628.56 78.92 630.28 77.56 631.48 75.82L629.98 74.86Z" fill="white"/>
<path d="M575.68 207.3C576.8 206.2 577.84 204.92 578.68 203.54C579.76 204.76 580.9 206.16 581.7 207.3H575.68ZM582.52 208.02L584.04 206.58C583.16 205.24 581.3 203.18 579.76 201.56C579.88 201.28 580.02 200.98 580.14 200.7L577.96 200.02C576.92 202.56 574.82 205.24 572.4 206.88C572.92 207.28 573.72 208.14 574.1 208.64C574.3 208.48 574.52 208.32 574.72 208.16V215.46C574.72 217.76 575.46 218.4 577.8 218.4H581C583.04 218.4 583.66 217.56 583.92 214.74C583.32 214.62 582.36 214.26 581.86 213.88C581.74 215.98 581.6 216.38 580.78 216.38H578.08C577.18 216.38 577.04 216.26 577.04 215.44V209.34H580.2C580.08 211.06 579.94 211.8 579.76 212.02C579.62 212.2 579.46 212.24 579.2 212.24C578.9 212.24 578.3 212.24 577.66 212.16C577.96 212.7 578.2 213.54 578.22 214.16C579.1 214.18 579.88 214.16 580.36 214.1C580.9 214.02 581.34 213.86 581.7 213.42C582.16 212.88 582.36 211.42 582.52 208.1V208.02ZM586.6 202.34H584.32V213.64H586.6V202.34ZM588.14 200.44V215.94C588.14 216.32 587.98 216.44 587.6 216.46C587.2 216.46 585.86 216.46 584.6 216.4C584.94 217.04 585.3 218.04 585.4 218.7C587.28 218.7 588.56 218.64 589.38 218.26C590.22 217.9 590.5 217.3 590.5 215.94V200.44H588.14ZM598.1 211.64C597.6 209.74 596.44 206.6 595.5 204.26L593.32 204.9C594.24 207.36 595.3 210.56 595.72 212.48L598.1 211.64ZM605.78 215.44V211.68L607.6 212.6C608.64 210.68 609.9 207.86 610.78 205.34L608.64 204.32C607.98 206.6 606.78 209.44 605.78 211.34V200.32H603.32V215.44H600.7V200.32H598.24V215.44H593.08V217.82H610.96V215.44H605.78ZM614.92 211.92V207.04C615.14 208.06 615.36 209.14 615.44 209.94L616.32 209.72C616.3 210.24 616.28 210.8 616.24 211.34L614.92 211.92ZM616.32 208.1C616.16 207.32 615.96 206.5 615.76 205.82L614.92 206.02V203.5C616.2 202.9 617.54 202.2 618.62 201.44L616.78 200.04C615.98 200.8 614.6 201.74 613.32 202.38V211.94C613.32 212.64 613.1 212.82 612.82 212.96C613.08 213.44 613.34 214.28 613.44 214.8C613.66 214.52 614.08 214.2 615.94 213.22C615.56 214.86 614.78 216.42 613.24 217.72C613.62 217.96 614.2 218.48 614.48 218.84C617.52 216.22 617.88 212.68 617.88 209.2V203.48H616.32V208.1ZM619.98 205.8V203.54H621.22V207.52C621.02 206.86 620.8 206.2 620.6 205.62L619.98 205.8ZM622.88 201.7H618.4V218.74H619.98V207.64C620.22 208.46 620.42 209.28 620.52 209.92L621.22 209.72V213.24C621.22 213.42 621.18 213.48 621.04 213.48C620.86 213.48 620.46 213.48 620 213.46C620.24 213.94 620.44 214.72 620.5 215.22C621.3 215.22 621.88 215.16 622.32 214.86C622.78 214.54 622.88 214.06 622.88 213.26V201.7ZM630.48 200.16C628.56 200.74 625.56 201.18 622.96 201.38C623.16 201.88 623.42 202.62 623.48 203.12C626.08 203 629.22 202.64 631.46 202.02L630.48 200.16ZM628 206.38C627.94 205.54 627.72 204.22 627.48 203.24L625.98 203.48C626.18 204.48 626.38 205.82 626.44 206.68L628 206.38ZM626 206.46C625.76 205.68 625.28 204.44 624.84 203.48L623.3 204C623.74 204.96 624.24 206.24 624.44 207.04L626 206.46ZM628.2 211.2C629.16 210.34 630.12 209.24 630.82 208.24L629.5 207.28L629.12 207.4H623.72V209.24H627.56C627.1 209.78 626.58 210.28 626.1 210.64V212.02H623.32V214.02H626.1V216.4C626.1 216.6 626.02 216.66 625.78 216.66C625.52 216.68 624.66 216.66 623.86 216.64C624.12 217.24 624.4 218.06 624.46 218.66C625.72 218.66 626.68 218.66 627.34 218.34C628.04 218 628.2 217.46 628.2 216.44V214.02H631.12V212.02H628.2V211.2ZM629.7 207.18C630.18 206.18 630.7 204.6 631.2 203.22L629.34 202.78C629.1 203.98 628.6 205.7 628.14 206.76L629.7 207.18ZM645.52 216.02C644.72 216.02 644.6 215.84 644.6 214.68V210.84C646.96 209.04 649.28 206.8 651.14 204.22L648.86 202.66C647.68 204.48 646.2 206.14 644.6 207.58V200.36H642.02V209.64C640.74 210.56 639.42 211.32 638.18 211.92V204.62C638.92 203.36 639.58 202.06 640.12 200.78L637.7 199.98C636.6 202.86 634.64 205.68 632.64 207.46C633.08 208.02 633.86 209.3 634.16 209.88C634.66 209.38 635.16 208.84 635.66 208.24V218.74H638.18V212.18C638.76 212.66 639.42 213.36 639.74 213.82C640.5 213.46 641.24 213.06 642.02 212.58V214.64C642.02 217.52 642.72 218.4 645.18 218.4H648.1C650.48 218.4 651.1 216.94 651.36 213.06C650.68 212.9 649.62 212.4 649.02 211.92C648.86 215.22 648.72 216.02 647.86 216.02H645.52ZM599.22 232.2C598.52 231.36 596.96 230.12 595.86 229.26L594.36 230.78C595.48 231.72 596.94 233.06 597.62 233.94L599.22 232.2ZM598.14 242.9V235.2H592.8V237.56H595.72V243.58C595.72 244.48 595.08 245.14 594.64 245.44C595.02 245.96 595.6 247.04 595.8 247.66C596.18 247.16 596.92 246.58 600.94 243.68C600.68 243.2 600.32 242.18 600.18 241.5L598.14 242.9ZM611.3 235.32H606.7V229.14H604.14V235.32H599.34V237.8H604.14V247.74H606.7V237.8H611.3V235.32ZM622.36 231.9C621.78 231.1 620.52 229.98 619.5 229.2L617.94 230.5C618.9 231.32 620.14 232.54 620.68 233.32L622.36 231.9ZM620.64 236.46C620.08 237.78 619.36 239.04 618.54 240.2C618.26 239.02 618.02 237.72 617.84 236.3L623.74 235.64L623.52 233.4L617.6 234.06C617.48 232.46 617.42 230.76 617.44 229.08H615C615.02 230.84 615.08 232.6 615.24 234.32L612.56 234.6L612.78 236.86L615.46 236.56C615.74 238.7 616.14 240.7 616.64 242.4C615.44 243.6 614.04 244.62 612.56 245.42C613.06 245.86 613.9 246.78 614.22 247.28C615.4 246.58 616.5 245.7 617.56 244.7C618.46 246.48 619.58 247.58 620.98 247.58C622.78 247.58 623.54 246.72 623.92 243.24C623.28 243.02 622.46 242.46 621.96 241.94C621.84 244.28 621.62 245.2 621.16 245.2C620.54 245.2 619.9 244.32 619.32 242.84C620.76 241.16 621.96 239.24 622.88 237.14L620.64 236.46ZM626.68 231.18H624.4V242.18H626.68V231.18ZM628.2 229.26V244.96C628.2 245.3 628.06 245.4 627.7 245.42C627.38 245.42 626.22 245.42 625.12 245.38C625.44 246.04 625.78 247.08 625.86 247.74C627.56 247.74 628.74 247.66 629.5 247.28C630.26 246.9 630.52 246.28 630.52 244.96V229.26H628.2Z" fill="white"/>
<path d="M721.74 135.36H716.34V134.36H721.74V135.36ZM721.74 137.9H716.34V136.88H721.74V137.9ZM724.02 132.68H714.16V139.58H724.02V132.68ZM713.16 142.66L712.84 140.52L711.04 141V138.04H713.04V135.84H711.04V132.06H708.88V135.84H706.72V138.04H708.88V141.58C707.98 141.8 707.18 142.02 706.5 142.16L707.04 144.46C707.62 144.3 708.22 144.12 708.88 143.94V147.94C708.88 148.2 708.78 148.28 708.54 148.28C708.3 148.3 707.62 148.3 706.88 148.28C707.18 148.9 707.44 149.88 707.5 150.46C708.78 150.48 709.66 150.4 710.26 150C710.86 149.64 711.04 149.06 711.04 147.96V143.3L713.16 142.66ZM720.14 146.04H723.96V144.18H720.14V142.42H725.02V140.5H713.2V142.42H717.9V147.64C717.18 147.18 716.6 146.46 716.16 145.3C716.32 144.68 716.44 144 716.54 143.28L714.38 143.02C714.08 145.74 713.26 147.96 711.6 149.28C712.08 149.58 712.98 150.32 713.36 150.7C714.22 149.88 714.94 148.82 715.44 147.56C716.8 149.98 718.82 150.46 721.44 150.46H724.92C725 149.86 725.28 148.86 725.56 148.38C724.7 148.4 722.22 148.4 721.54 148.4C721.04 148.4 720.6 148.38 720.14 148.34V146.04ZM730.9 132.1C729.9 134.96 728.14 137.78 726.34 139.58C726.76 140.16 727.4 141.46 727.62 142.06C728.04 141.6 728.46 141.12 728.88 140.58V150.72H731.22V136.96C731.94 135.6 732.6 134.18 733.12 132.8L730.9 132.1ZM735.56 145.36C734.74 146.78 733.34 148.24 731.94 149.18C732.46 149.5 733.36 150.24 733.8 150.68C735.18 149.54 736.78 147.78 737.78 146.04L735.56 145.36ZM739.92 146.38C741.18 147.68 742.58 149.52 743.22 150.72L745.22 149.46C744.5 148.3 743.12 146.6 741.82 145.34L739.92 146.38ZM737.34 138.24H740.24V142.22H737.34V138.24ZM742.56 142.22V138.24H745.16V135.96H742.56V132.2H740.24V135.96H737.34V132.22H735.02V135.96H732.84V138.24H735.02V142.22H732.34V144.54H745.32V142.22H742.56ZM749.98 141.9C750 141.24 750 140.62 750 140.02V139.48H751.96V141.9H749.98ZM751.96 134.96V137.28H750V134.96H751.96ZM754.16 132.76H747.86V140.02C747.86 142.94 747.78 146.96 746.54 149.68C747.06 149.86 748.04 150.42 748.46 150.76C749.28 148.94 749.68 146.48 749.86 144.14H751.96V148.1C751.96 148.38 751.86 148.46 751.62 148.46C751.38 148.46 750.64 148.48 749.92 148.44C750.22 149.04 750.5 150.12 750.56 150.74C751.86 150.74 752.72 150.68 753.34 150.3C754 149.88 754.16 149.24 754.16 148.14V132.76ZM757.52 141.86H757.64C758.24 143.68 758.98 145.36 759.96 146.82C759.22 147.66 758.42 148.36 757.52 148.86V141.86ZM762.5 141.86C762.18 142.98 761.74 144.04 761.2 144.98C760.58 144.02 760.06 142.96 759.66 141.86H762.5ZM763.66 139.64L763.3 139.72H757.52V134.98H762.18V136.58C762.18 136.82 762.08 136.88 761.76 136.9C761.44 136.92 760.26 136.92 759.26 136.86C759.54 137.44 759.86 138.24 759.96 138.86C761.48 138.86 762.62 138.86 763.4 138.56C764.24 138.24 764.46 137.68 764.46 136.64V132.78H755.26V150.76H757.52V149.12C757.96 149.56 758.46 150.26 758.7 150.72C759.68 150.14 760.56 149.42 761.32 148.58C762.16 149.44 763.12 150.18 764.16 150.76C764.5 150.18 765.16 149.34 765.64 148.9C764.54 148.42 763.54 147.68 762.68 146.8C763.8 145 764.62 142.8 765.08 140.1L763.66 139.64ZM776.48 143.14C776.62 142.66 776.72 142.18 776.82 141.64L774.36 141.44C774.28 142.06 774.16 142.6 774.04 143.14H768.38V145.16H773.16C772 147.06 769.98 148.14 767.06 148.74C767.5 149.2 768.2 150.2 768.44 150.7C772.06 149.7 774.42 148.08 775.78 145.16H781.12C780.82 147.04 780.44 148.02 780.04 148.34C779.78 148.54 779.5 148.56 779.08 148.56C778.48 148.56 777.04 148.54 775.74 148.42C776.14 148.98 776.44 149.84 776.48 150.46C777.8 150.52 779.08 150.52 779.82 150.48C780.72 150.44 781.36 150.28 781.94 149.74C782.68 149.1 783.18 147.5 783.62 144.1C783.68 143.78 783.74 143.14 783.74 143.14H776.48ZM772.84 135.94H780.1C779 136.82 777.6 137.52 776 138.12C774.62 137.58 773.52 136.9 772.7 136.06L772.84 135.94ZM782.48 133.86L782.14 133.96H774.66C775.02 133.5 775.34 133.02 775.64 132.54L773.22 132.04C772.2 133.74 770.34 135.54 767.52 136.82C767.96 137.2 768.62 138.1 768.9 138.66C769.74 138.24 770.48 137.76 771.16 137.28C771.8 137.92 772.48 138.48 773.26 138.94C771.26 139.46 769.08 139.8 766.9 139.98C767.26 140.52 767.66 141.46 767.82 142.06C770.64 141.72 773.46 141.16 776.02 140.28C778.28 141.12 781 141.6 784.06 141.82C784.36 141.2 784.9 140.26 785.38 139.74C783.06 139.64 780.9 139.4 779 138.98C781.06 137.92 782.78 136.56 783.98 134.82L782.48 133.86Z" fill="white"/>
<path d="M841.4 65.24H839.6V60.24H841.4V65.24ZM843.68 54.16V52H836.42V54.16H838.54C838.04 56.78 837.22 59.2 836 60.84C836.32 61.52 836.74 63.04 836.82 63.68C837.1 63.34 837.36 62.98 837.62 62.6V68.8H839.6V67.34H843.42V58.14H839.68C840.12 56.86 840.48 55.5 840.76 54.16H843.68ZM848.24 59.2V54.26H850.48V59.2H848.24ZM854.84 59.2H852.74V54.26H854.44V52.06H844.64V54.26H846.02V59.2H844.12V61.44H845.98C845.86 63.88 845.36 66.66 843.64 68.52C844.18 68.82 845.04 69.48 845.44 69.9C847.5 67.72 848.08 64.38 848.2 61.44H850.48V69.76H852.74V61.44H854.84V59.2ZM862.48 54.36C861.66 53.48 859.94 52.16 858.7 51.26L857.24 52.84C858.48 53.84 860.16 55.26 860.92 56.18L862.48 54.36ZM861.36 64.9V57.2H856.18V59.48H859.08V65.76C859.08 66.84 858.52 67.58 858.08 67.94C858.46 68.28 859.1 69.12 859.3 69.6C859.66 69.08 860.32 68.48 864.12 65.4C863.86 64.94 863.48 64.02 863.3 63.36L861.36 64.9ZM874.8 55.2H872.42V51.22H870.02V55.2H863.04V57.54H870.02V66.62C870.02 67.02 869.86 67.16 869.42 67.16C868.98 67.16 867.54 67.16 866.12 67.12C866.48 67.8 866.86 68.86 866.98 69.58C868.98 69.58 870.38 69.5 871.22 69.12C872.1 68.74 872.42 68.08 872.42 66.62V57.54H874.8V55.2ZM868.56 63.48C868.12 62.22 867.18 60.32 866.3 58.84L864.24 59.84C865.04 61.34 866 63.32 866.38 64.62L868.56 63.48ZM887.54 64.36C888.12 64.9 888.7 65.52 889.26 66.14L882.3 66.54C883.42 65.54 884.52 64.38 885.44 63.24H893.84V60.94H877.3V63.24H882.14C881.06 64.56 879.98 65.64 879.5 66C878.88 66.54 878.44 66.88 877.92 66.98C878.2 67.66 878.6 68.88 878.72 69.38C879.7 69.02 881.08 68.94 890.94 68.22C891.34 68.76 891.68 69.28 891.92 69.74L894.04 68.44C893.16 66.94 891.32 64.84 889.58 63.32L887.54 64.36ZM882.2 57.08C883.4 56.24 884.54 55.34 885.54 54.34C886.52 55.26 887.76 56.2 889.08 57.08H882.2ZM885.42 50.96C883.52 53.52 879.9 55.96 876.1 57.4C876.66 57.88 877.46 58.92 877.8 59.52C878.88 59.04 879.88 58.5 880.86 57.94V59.26H890.2V57.78C891.2 58.38 892.26 58.9 893.3 59.32C893.68 58.68 894.44 57.72 894.98 57.22C892.02 56.28 888.86 54.48 886.92 52.84C887.16 52.56 887.38 52.28 887.6 52L885.42 50.96ZM902.4 59.2H905.3V57H902.4V53.94C903.46 53.7 904.5 53.42 905.38 53.1L903.84 51.24C902.02 51.96 899.1 52.6 896.5 52.96C896.76 53.48 897.04 54.28 897.14 54.82C898.06 54.7 899.02 54.56 900 54.4V57H896.44V59.2H899.42C898.64 61.4 897.36 63.7 896 65.14C896.4 65.74 896.98 66.68 897.2 67.38C898.26 66.2 899.2 64.48 900 62.6V69.72H902.4V62.34C903.06 63.28 903.7 64.28 904.08 64.96L905.44 62.98C905 62.44 903.2 60.34 902.4 59.54V59.2ZM908.16 64.92V55.22H911.36V64.92H908.16ZM905.82 52.94V68.78H908.16V67.2H911.36V68.64H913.82V52.94H905.82ZM867.54 93.36C868.12 93.9 868.7 94.52 869.26 95.14L862.3 95.54C863.42 94.54 864.52 93.38 865.44 92.24H873.84V89.94H857.3V92.24H862.14C861.06 93.56 859.98 94.64 859.5 95C858.88 95.54 858.44 95.88 857.92 95.98C858.2 96.66 858.6 97.88 858.72 98.38C859.7 98.02 861.08 97.94 870.94 97.22C871.34 97.76 871.68 98.28 871.92 98.74L874.04 97.44C873.16 95.94 871.32 93.84 869.58 92.32L867.54 93.36ZM862.2 86.08C863.4 85.24 864.54 84.34 865.54 83.34C866.52 84.26 867.76 85.2 869.08 86.08H862.2ZM865.42 79.96C863.52 82.52 859.9 84.96 856.1 86.4C856.66 86.88 857.46 87.92 857.8 88.52C858.88 88.04 859.88 87.5 860.86 86.94V88.26H870.2V86.78C871.2 87.38 872.26 87.9 873.3 88.32C873.68 87.68 874.44 86.72 874.98 86.22C872.02 85.28 868.86 83.48 866.92 81.84C867.16 81.56 867.38 81.28 867.6 81L865.42 79.96ZM889.84 84.58C889.58 83.38 888.8 81.58 888.04 80.2L886.02 81.02C886.74 82.44 887.44 84.32 887.64 85.48L889.84 84.58ZM881.48 83.64C880.98 82.78 879.9 81.4 879.06 80.42L877.34 81.64C878.18 82.7 879.2 84.12 879.64 85.06L881.48 83.64ZM881.02 94.02V86.18H876.3V88.46H878.7V94.42C878.7 95.54 878.12 96.38 877.68 96.76C878.04 97.1 878.72 97.92 878.96 98.4C879.34 97.92 880 97.38 883.82 94.62C883.58 94.14 883.24 93.22 883.08 92.58L881.02 94.02ZM891.54 81.44C891 85.14 890.1 88.6 888.32 91.44C886.56 88.8 885.5 85.42 884.86 81.58L882.64 81.96C883.48 86.62 884.68 90.5 886.76 93.5C885.48 94.92 883.84 96.1 881.76 97C882.2 97.5 882.82 98.42 883.14 99C885.24 98.02 886.92 96.8 888.28 95.36C889.68 96.82 891.4 97.98 893.5 98.86C893.86 98.2 894.62 97.24 895.16 96.76C893.02 95.98 891.28 94.84 889.9 93.38C892.1 90.14 893.24 86.14 893.96 81.8L891.54 81.44Z" fill="white"/>
<path d="M869.22 202.3C870.96 201.14 872.8 199.7 874.54 198.1L872.84 196.76L872.32 196.96H864.5V199.2H869.78C868.42 200.34 867.06 201.26 866.54 201.6C865.78 202.08 865.04 202.52 864.46 202.62C864.76 203.22 865.24 204.34 865.42 204.84C865.6 204.64 866.42 204.54 867.2 204.54H867.4C866.78 206.26 865.7 207.76 864.32 208.82L864.1 207.74L862.24 208.4V203.06H864.22V200.8H862.24V196.32H860.02V200.8H857.86V203.06H860.02V209.16C859.08 209.48 858.26 209.76 857.56 209.96L858.34 212.38C860.16 211.68 862.46 210.76 864.56 209.9L864.5 209.58C864.9 209.86 865.32 210.18 865.56 210.4C867.34 209.08 868.8 207.02 869.64 204.54H870.78C869.72 208.38 867.78 211.46 864.84 213.3C865.34 213.58 866.26 214.24 866.64 214.58C869.58 212.42 871.72 208.98 872.94 204.54H873.64C873.34 209.62 872.96 211.68 872.5 212.16C872.3 212.42 872.1 212.5 871.78 212.5C871.42 212.5 870.72 212.48 869.96 212.4C870.32 213.02 870.58 213.96 870.6 214.62C871.54 214.66 872.4 214.64 872.96 214.54C873.62 214.46 874.1 214.24 874.58 213.62C875.28 212.76 875.68 210.16 876.08 203.34C876.12 203.04 876.14 202.3 876.14 202.3H869.22ZM882.28 202.92H884.3V200.66H882.28V196.32H880.06V200.66H877.72V202.92H880.06V208.56C879.06 208.94 878.18 209.28 877.46 209.54L878.42 211.94C880.26 211.1 882.54 210.02 884.66 208.96L884.12 206.86C883.52 207.12 882.9 207.38 882.28 207.64V202.92ZM889.1 212.24C887.88 212.24 887.7 212.06 887.7 210.9V204.72L889.36 204V210.1H891.58V203.04L893.3 202.28C893.3 205.12 893.28 206.58 893.24 206.9C893.16 207.26 893.04 207.34 892.8 207.34C892.62 207.34 892.18 207.34 891.84 207.3C892.1 207.8 892.28 208.68 892.34 209.3C892.98 209.3 893.84 209.28 894.42 209.02C895.02 208.76 895.38 208.28 895.44 207.36C895.54 206.54 895.58 204.14 895.58 200.34L895.66 199.94L894 199.36L893.58 199.64L893.16 199.92L891.58 200.6V196.04H889.36V201.56L887.7 202.26V197.98H885.42V203.24L883.46 204.06L884.34 206.18L885.42 205.72V210.86C885.42 213.62 886.2 214.36 888.9 214.36H893.16C895.5 214.36 896.2 213.4 896.52 210.6C895.86 210.48 894.94 210.1 894.44 209.74C894.26 211.78 894.06 212.24 892.96 212.24H889.1ZM872.48 235.04V240.28H868.26V234H874.34V226.74H871.7V231.7H868.26V225.06H865.62V231.7H862.32V226.74H859.8V234H865.62V240.28H861.42V235.06H858.74V242.64H872.48V243.72H875.16V235.04H872.48ZM885.66 236.32C885.3 235.78 883.48 233.62 882.96 233.12V232.88H885.44V230.66H882.96V227.94C883.9 227.72 884.8 227.46 885.6 227.16L884.28 225.22C882.62 225.92 880.12 226.52 877.84 226.86C878.1 227.38 878.4 228.18 878.48 228.72C879.2 228.64 879.94 228.52 880.7 228.4V230.66H877.7V232.88H880.38C879.68 234.82 878.56 236.96 877.46 238.24C877.82 238.84 878.34 239.82 878.56 240.5C879.34 239.5 880.06 238.1 880.7 236.6V243.74H882.96V235.72C883.5 236.6 884.02 237.56 884.3 238.2L885.66 236.32ZM888.7 238.04H892.16V240.94H888.7V238.04ZM892.16 228.26V230.96H888.7V228.26H892.16ZM892.16 235.9H888.7V233.1H892.16V235.9ZM894.58 240.94V226.06H886.4V240.94H884.52V243.14H896.28V240.94H894.58Z" fill="white"/>
<path d="M1006.7 138.9C1006.48 140.66 1006.12 142.2 1005.64 143.58C1005.1 142.16 1004.7 140.56 1004.42 138.9H1006.7ZM999.48 141.16L999.06 141.28H997.94C998.24 140.96 998.52 140.62 998.8 140.26H1001.14C1000.84 140.8 1000.52 141.3 1000.18 141.72L999.48 141.16ZM996.9 136.88H998.5C998.2 137.34 997.9 137.78 997.6 138.22H996.9V136.88ZM1010.34 138.9V136.7H1005.02C1005.3 135.66 1005.54 134.54 1005.74 133.44L1003.32 133.06C1002.94 135.52 1002.3 137.9 1001.38 139.8V138.22H1000.26C1001.04 136.98 1001.74 135.62 1002.3 134.16L1000.1 133.56C999.76 134.5 999.34 135.44 998.84 136.28V134.88H996.9V133.06H994.7V134.88H992.42V136.88H994.7V138.22H991.66V140.26H995.82C995.48 140.62 995.1 140.96 994.72 141.28H993.4V142.28C992.76 142.72 992.08 143.1 991.4 143.46C991.86 143.88 992.68 144.8 993 145.26C994.08 144.66 995.1 143.92 996.06 143.12H997.32C996.78 143.64 996.2 144.14 995.66 144.52V145.66C994.14 145.78 992.72 145.88 991.6 145.96L991.86 148.08C992.94 147.98 994.26 147.86 995.66 147.74V149.42C995.66 149.62 995.58 149.68 995.32 149.7C995.06 149.7 994.22 149.7 993.42 149.68C993.72 150.26 994.02 151.08 994.1 151.7C995.36 151.7 996.3 151.68 997 151.36C997.7 151.04 997.88 150.5 997.88 149.46V147.56C999.06 147.46 1000.26 147.36 1001.46 147.24V145.2C1000.26 145.3 999.06 145.4 997.88 145.5V144.94C998.86 144.16 999.86 143.24 1000.64 142.34C1001.14 142.76 1001.7 143.28 1001.96 143.58C1002.28 143.16 1002.58 142.68 1002.88 142.2C1003.24 143.66 1003.7 145.02 1004.24 146.24C1003.22 147.72 1001.82 148.84 999.94 149.66C1000.38 150.16 1001.08 151.26 1001.3 151.82C1003.04 150.94 1004.42 149.86 1005.54 148.56C1006.42 149.86 1007.54 150.94 1008.9 151.76C1009.26 151.1 1010 150.16 1010.54 149.68C1009.08 148.94 1007.9 147.8 1007 146.34C1008.06 144.32 1008.74 141.88 1009.16 138.9H1010.34ZM1017.02 146.9V145.94H1025.04V146.9H1017.02ZM1025.04 143.36V144.3H1017.02V143.36H1025.04ZM1027.46 141.44H1014.62V151.76H1017.02V148.54H1025.04V149.42C1025.04 149.76 1024.9 149.88 1024.48 149.88C1024.1 149.9 1022.44 149.9 1021.2 149.82C1021.52 150.36 1021.88 151.16 1022 151.74C1023.92 151.74 1025.28 151.74 1026.2 151.46C1027.12 151.16 1027.46 150.64 1027.46 149.44V141.44ZM1023.92 138.28L1017.76 138.54C1018.5 138.02 1019.24 137.46 1019.96 136.86H1023.58L1022.82 137.34L1023.92 138.28ZM1029.88 134.78H1022.8C1022.48 134.14 1022.06 133.4 1021.72 132.8L1019.34 133.46C1019.54 133.86 1019.78 134.32 1020 134.78H1012.16V136.86H1016.34C1015.68 137.4 1015.08 137.82 1014.78 138C1014.24 138.34 1013.82 138.58 1013.4 138.66C1013.64 139.32 1014.04 140.5 1014.18 141.02C1015.06 140.68 1016.28 140.66 1025.92 140.1C1026.38 140.54 1026.8 140.94 1027.1 141.28L1029.1 139.94C1028.28 139.12 1026.78 137.9 1025.54 136.86H1029.88V134.78Z" fill="white"/>
<path d="M1129.14 70.42C1128.7 74.84 1127.44 78.26 1124.72 80.2C1125.28 80.54 1126.34 81.3 1126.76 81.7C1128.26 80.44 1129.36 78.72 1130.18 76.62C1131.1 78.48 1132.44 80.34 1134.3 81.42C1134.66 80.76 1135.42 79.76 1135.94 79.28C1133.38 78.1 1131.84 75.46 1131.14 73.26C1131.3 72.46 1131.44 71.58 1131.56 70.68L1129.14 70.42ZM1126.54 62.86C1124.86 66.32 1121.6 68.68 1117.86 69.96C1118.5 70.56 1119.18 71.48 1119.54 72.18C1120.36 71.84 1121.12 71.44 1121.86 71.04C1121.38 75.02 1120.24 78.24 1117.86 80.12C1118.42 80.46 1119.48 81.2 1119.9 81.6C1121.42 80.2 1122.52 78.26 1123.26 75.88C1124.18 76.78 1125.04 77.74 1125.52 78.46L1127.14 76.72C1126.46 75.8 1125.12 74.56 1123.88 73.54C1124.08 72.6 1124.24 71.6 1124.36 70.58L1122.88 70.44C1124.5 69.38 1125.94 68.08 1127.14 66.54C1129.02 69.02 1131.62 70.98 1134.68 72C1135.06 71.36 1135.76 70.4 1136.3 69.9C1132.98 69.04 1130 67.08 1128.36 64.76C1128.56 64.44 1128.74 64.12 1128.9 63.8L1126.54 62.86ZM1147.22 68.3C1147.28 68.02 1147.34 67.72 1147.38 67.44C1147.74 67.68 1148.08 67.92 1148.3 68.12C1148.78 67.62 1149.26 67.04 1149.68 66.34H1150.7C1151.18 67 1151.68 67.76 1151.9 68.3H1147.22ZM1140.02 68.3C1140.54 67.72 1141.02 67.08 1141.5 66.34H1142C1142.34 66.9 1142.66 67.56 1142.8 68L1144.86 67.34C1144.76 67.06 1144.58 66.7 1144.36 66.34H1146.86C1146.7 66.52 1146.54 66.68 1146.36 66.84C1146.6 66.96 1146.9 67.14 1147.2 67.32L1145.06 67.04C1145 67.46 1144.92 67.88 1144.84 68.3H1140.02ZM1156.02 64.62H1150.6C1150.78 64.24 1150.92 63.84 1151.06 63.46L1148.82 62.9C1148.44 64.06 1147.8 65.26 1147.02 66.16V64.62H1142.48C1142.66 64.24 1142.82 63.86 1142.98 63.48L1140.76 62.9C1140.1 64.7 1138.88 66.5 1137.52 67.64C1137.98 67.82 1138.7 68.18 1139.22 68.5V70.02H1144.46C1144.4 70.24 1144.34 70.46 1144.3 70.68H1140.28V72.36H1143.72C1143.64 72.6 1143.54 72.82 1143.44 73.04H1138V74.78H1142.52C1141.36 76.56 1139.84 77.98 1137.82 78.98C1138.32 79.4 1139.22 80.3 1139.56 80.74C1141.22 79.78 1142.6 78.54 1143.72 77.04V77.66H1145.14L1144 78.54C1144.78 79.2 1145.72 80.2 1146.1 80.86L1147.86 79.46C1147.52 78.94 1146.8 78.24 1146.12 77.66H1149.98V79.46C1149.98 79.66 1149.9 79.72 1149.68 79.74C1149.46 79.74 1148.74 79.74 1148.1 79.7C1148.38 80.28 1148.72 81.1 1148.82 81.72C1149.94 81.72 1150.8 81.7 1151.46 81.38C1152.16 81.06 1152.34 80.56 1152.34 79.54V77.66H1154.9V75.86H1152.34V75.02H1149.98V75.86H1144.52C1144.72 75.5 1144.92 75.16 1145.12 74.78H1155.96V73.04H1145.88C1145.98 72.82 1146.06 72.6 1146.14 72.36H1153.54V70.68H1146.66C1146.72 70.46 1146.78 70.24 1146.84 70.02H1154.56V68.3H1152.02L1153.92 67.52C1153.76 67.2 1153.48 66.76 1153.2 66.34H1156.02V64.62Z" fill="white"/>
<path d="M1105.04 211.36C1105.62 211.9 1106.2 212.52 1106.76 213.14L1099.8 213.54C1100.92 212.54 1102.02 211.38 1102.94 210.24H1111.34V207.94H1094.8V210.24H1099.64C1098.56 211.56 1097.48 212.64 1097 213C1096.38 213.54 1095.94 213.88 1095.42 213.98C1095.7 214.66 1096.1 215.88 1096.22 216.38C1097.2 216.02 1098.58 215.94 1108.44 215.22C1108.84 215.76 1109.18 216.28 1109.42 216.74L1111.54 215.44C1110.66 213.94 1108.82 211.84 1107.08 210.32L1105.04 211.36ZM1099.7 204.08C1100.9 203.24 1102.04 202.34 1103.04 201.34C1104.02 202.26 1105.26 203.2 1106.58 204.08H1099.7ZM1102.92 197.96C1101.02 200.52 1097.4 202.96 1093.6 204.4C1094.16 204.88 1094.96 205.92 1095.3 206.52C1096.38 206.04 1097.38 205.5 1098.36 204.94V206.26H1107.7V204.78C1108.7 205.38 1109.76 205.9 1110.8 206.32C1111.18 205.68 1111.94 204.72 1112.48 204.22C1109.52 203.28 1106.36 201.48 1104.42 199.84C1104.66 199.56 1104.88 199.28 1105.1 199L1102.92 197.96ZM1119.1 200.88H1126.94V202.42H1119.1V200.88ZM1116.6 198.86V204.44H1129.6V198.86H1116.6ZM1121.58 208.84V210.56C1121.58 211.88 1120.98 213.74 1114.12 214.98C1114.72 215.48 1115.46 216.4 1115.76 216.92C1122.98 215.3 1124.18 212.74 1124.18 210.62V208.84H1121.58ZM1123.72 214.1C1126 214.84 1129.2 216.1 1130.76 216.88L1131.98 214.84C1130.3 214.1 1127.02 212.96 1124.88 212.34L1123.72 214.1ZM1115.76 205.72V213.04H1118.24V207.9H1127.9V212.78H1130.5V205.72H1115.76ZM1149.2 201.64L1148.74 201.76H1144.04L1145.26 201.06C1144.8 200.2 1143.76 198.82 1143.02 197.82L1140.88 198.96C1141.46 199.8 1142.2 200.9 1142.68 201.76H1134.88V204.1H1146.94C1144.8 206.82 1141.38 209.9 1138.1 211.86H1137.98C1136.88 211.86 1135.3 212.92 1133.86 214.46L1135.58 216.7C1136.4 215.42 1137.3 214.08 1137.92 214.08C1138.36 214.08 1139.02 214.76 1139.88 215.26C1141.24 216.1 1142.84 216.36 1145.3 216.36C1147.26 216.36 1150.28 216.24 1151.7 216.14C1151.74 215.5 1152.14 214.26 1152.38 213.6C1150.48 213.88 1147.42 214.08 1145.38 214.08C1143.28 214.08 1141.6 213.94 1140.36 213.18C1144.38 210.54 1148.52 206.6 1151.04 202.86L1149.2 201.64ZM1154.46 216.72H1156.94V202.86H1154.46V216.72ZM1154.76 199.34C1155.66 200.28 1156.68 201.62 1157.1 202.48L1159.1 201.2C1158.64 200.3 1157.56 199.06 1156.62 198.18L1154.76 199.34ZM1161.08 209.36H1164.94V211.26H1161.08V209.36ZM1161.08 205.56H1164.94V207.44H1161.08V205.56ZM1158.96 213.18H1167.16V203.66H1158.96V213.18ZM1171.72 199.04H1159.8V201.26H1169.24V214.14C1169.24 214.4 1169.18 214.5 1168.92 214.5C1168.68 214.5 1167.96 214.52 1167.32 214.48C1167.6 215.06 1167.9 215.98 1168 216.6C1169.24 216.6 1170.2 216.56 1170.86 216.2C1171.52 215.82 1171.72 215.28 1171.72 214.16V199.04ZM1106.68 241.58V237.66H1109.86V241.58H1106.68ZM1109.86 235.6H1106.68V232.36H1109.86V235.6ZM1116.22 230.14C1116.52 229.3 1116.78 228.46 1117 227.6L1114.72 227.08C1114.14 229.42 1113.18 231.84 1112.02 233.52V230.28H1108.92C1109.26 229.42 1109.62 228.42 1109.96 227.42L1107.36 227.06C1107.28 228 1107.04 229.28 1106.78 230.28H1104.52V245.14H1106.68V243.68H1112.02V234.34C1112.56 234.7 1113.24 235.16 1113.56 235.46C1114.18 234.6 1114.8 233.5 1115.32 232.3H1119.6C1119.38 239.36 1119.12 242.36 1118.54 243C1118.28 243.26 1118.06 243.34 1117.66 243.34C1117.14 243.34 1115.96 243.34 1114.68 243.22C1115.1 243.88 1115.42 244.88 1115.46 245.54C1116.64 245.58 1117.84 245.6 1118.6 245.5C1119.4 245.36 1119.96 245.14 1120.52 244.4C1121.34 243.34 1121.56 240.16 1121.82 231.22C1121.84 230.94 1121.84 230.14 1121.84 230.14H1116.22ZM1118.52 239.26C1117.9 238.1 1116.58 236.2 1115.58 234.82L1113.72 235.88C1114.7 237.34 1115.94 239.3 1116.5 240.5L1118.52 239.26ZM1141.76 229.58H1134.68L1134.74 229.56C1134.48 228.8 1133.82 227.66 1133.28 226.8L1131 227.6C1131.36 228.2 1131.74 228.92 1132.02 229.58H1124.22V231.9H1141.76V229.58ZM1134.9 233.3C1136.68 234.6 1138.9 236.48 1139.88 237.72L1141.92 236.18C1140.82 234.9 1138.5 233.14 1136.78 231.96L1134.9 233.3ZM1128.96 232.08C1127.8 233.52 1125.86 234.98 1124.08 235.88C1124.62 236.28 1125.52 237.14 1125.96 237.62C1127.74 236.54 1129.9 234.72 1131.26 232.96L1128.96 232.08ZM1135.62 235.52C1135.04 237.08 1134.16 238.38 1133.02 239.46C1131.92 238.38 1131.06 237.08 1130.46 235.62L1128.32 236.28C1129.08 238.06 1130.06 239.6 1131.24 240.88C1129.28 242.18 1126.82 243.04 1123.92 243.6C1124.38 244.12 1125.08 245.18 1125.36 245.72C1128.3 245 1130.88 243.98 1133 242.48C1135.02 244 1137.52 245.02 1140.68 245.62C1140.98 244.98 1141.6 244 1142.12 243.48C1139.18 243.04 1136.78 242.18 1134.86 240.92C1136.16 239.64 1137.22 238.08 1138.02 236.22L1135.62 235.52ZM1148.88 232.84H1157.28V234.1H1148.88V232.84ZM1148.88 229.82H1157.28V231.06H1148.88V229.82ZM1150.24 237.22C1150.54 236.82 1150.82 236.42 1151.08 236H1159.7V227.9H1146.54V236H1148.3C1147.08 237.64 1145.32 239.08 1143.5 240.04C1144 240.4 1144.9 241.28 1145.3 241.72C1146.34 241.08 1147.42 240.24 1148.4 239.3H1150.14C1148.88 241.08 1147.06 242.62 1145.1 243.6C1145.6 243.98 1146.48 244.82 1146.86 245.3C1149.1 243.92 1151.34 241.78 1152.82 239.3H1154.54C1153.64 241.4 1152.22 243.22 1150.54 244.42C1151.08 244.74 1152.02 245.48 1152.42 245.88C1154.26 244.36 1155.96 241.98 1157 239.3H1158.72C1158.44 242 1158.04 243.22 1157.66 243.58C1157.46 243.78 1157.28 243.82 1156.92 243.82C1156.56 243.82 1155.78 243.82 1154.94 243.74C1155.3 244.3 1155.54 245.16 1155.56 245.76C1156.56 245.78 1157.5 245.78 1158.06 245.72C1158.68 245.66 1159.2 245.48 1159.68 244.96C1160.34 244.3 1160.8 242.48 1161.22 238.16C1161.26 237.86 1161.3 237.22 1161.3 237.22H1150.24Z" fill="white"/>
<path d="M313.26 206.32C312.4 205.76 310.66 204.88 309.54 204.32L308.2 206.04C309.36 206.7 311.06 207.64 311.84 208.24L313.26 206.32ZM312.3 211.72C311.42 211.18 309.64 210.32 308.54 209.78L307.26 211.54C308.44 212.18 310.16 213.12 310.98 213.7L312.3 211.72ZM309.54 222.52C310.76 220.58 312.02 218.3 313.08 216.2L311.34 214.6C310.14 216.92 308.6 219.4 307.54 220.9L309.54 222.52ZM322.52 219.76H316.52V216.82H322.52V219.76ZM325.78 212.14V209.86H320.7V207.12C322.26 206.82 323.76 206.42 325.04 205.94L323.22 204.06C321.02 204.94 317.26 205.6 313.86 205.94C314.14 206.48 314.46 207.4 314.56 207.98C315.8 207.86 317.14 207.72 318.44 207.52V209.86H313.12V212.14H318.44V214.66H314.36V222.74H316.52V221.92H322.52V222.64H324.78V214.66H320.7V212.14H325.78ZM335.98 205.6H328.16V207.7H335.98V205.6ZM341.16 208.38C341.18 207.1 341.2 205.78 341.2 204.42H338.84C338.84 205.78 338.84 207.12 338.82 208.38H336.58V210.66H338.74C338.6 213.82 338.16 216.58 337 218.76C336.64 217.38 335.84 215.26 335.14 213.64L333.24 214.16C333.54 214.92 333.84 215.78 334.14 216.64L330.74 217.44C331.4 215.88 332 214.08 332.42 212.38H336.34V210.22H327.52V212.38H329.98C329.54 214.5 328.84 216.52 328.58 217.12C328.26 217.84 327.98 218.3 327.6 218.44C327.88 219.02 328.24 220.1 328.36 220.56C328.94 220.2 329.8 219.9 334.74 218.62C334.84 218.96 334.92 219.3 334.98 219.56L336.88 218.98C336.46 219.66 335.96 220.32 335.38 220.9C335.96 221.28 336.76 222.12 337.14 222.72C339.96 219.92 340.8 215.68 341.08 210.66H343.14C342.96 216.92 342.76 219.32 342.32 219.88C342.12 220.16 341.92 220.22 341.58 220.22C341.16 220.22 340.3 220.22 339.36 220.14C339.76 220.8 340.02 221.78 340.06 222.46C341.1 222.5 342.12 222.5 342.74 222.4C343.46 222.26 343.92 222.06 344.4 221.36C345.06 220.44 345.28 217.52 345.48 209.46C345.48 209.16 345.5 208.38 345.5 208.38H341.16ZM351.32 206.74V207.7H349.46C349.68 207.38 349.86 207.06 350.02 206.74H351.32ZM352.58 209.24V209.86C352.58 210.74 352.1 211.1 351.76 211.28C352 211.56 352.32 212.2 352.44 212.6C352.76 212.38 353.36 212.22 356.52 211.56C356.52 211.18 356.56 210.48 356.66 210.04L354.52 210.42V209.24H356.14V207.7H353.48V206.74H355.76V205.22H353.48V204.06H351.32V205.22H350.62C350.7 204.96 350.78 204.7 350.86 204.42L348.98 204.12C348.74 205 348.32 206.06 347.66 206.88C348.1 207.04 348.68 207.36 349.12 207.7H347.54V209.24H349.68C349.42 210.3 348.84 211.04 347.18 211.54C347.58 211.86 348.1 212.52 348.3 212.98C350.52 212.16 351.32 210.98 351.62 209.24H352.58ZM363.08 219.04V212.82H350V219.18H352.4V214.82H360.56V219.04H363.08ZM357.58 215.62H355.22V216.82C355.22 218.46 354.3 219.86 348.14 220.72C348.62 221.2 349.38 222.2 349.62 222.74C356 221.74 357.58 219.52 357.58 216.92V215.62ZM356.94 220.06C359.22 220.76 362.3 222 363.82 222.84L365.04 220.84C363.42 220 360.26 218.88 358.1 218.3L356.94 220.06ZM360.1 206.76V207.7H358.14C358.34 207.4 358.54 207.08 358.7 206.76H360.1ZM363.4 210.74C363.14 210.74 363.1 210.72 363.1 210.3V209.24H365.42V207.7H362.28V206.76H364.82V205.24H362.28V204.06H360.1V205.24H359.34C359.44 204.96 359.52 204.7 359.62 204.42L357.78 204.12C357.52 205 357.06 206.06 356.34 206.9C356.78 207.06 357.36 207.38 357.78 207.7H356.66V209.24H358.64C358.44 210.22 357.94 210.84 356.54 211.3C356.94 211.6 357.42 212.3 357.62 212.72C359.6 211.98 360.22 210.86 360.48 209.24H361.2V210.32C361.2 211.82 361.52 212.3 363.04 212.3H364.24C365.28 212.3 365.76 211.88 365.92 210.42C365.44 210.32 364.68 210.04 364.34 209.8C364.3 210.62 364.22 210.74 363.98 210.74H363.4ZM370.54 215.26H373.18V217.14C372.26 217.32 371.38 217.52 370.54 217.68V215.26ZM373.18 207.02V209.04H370.54V207.02H373.18ZM373.18 213.18H370.54V211.12H373.18V213.18ZM385.2 208.36H380.86C380.9 207 380.9 205.56 380.9 204.06H378.56C378.56 205.58 378.56 207 378.54 208.36H375.92V210.6H378.46C378.28 213.7 377.8 216.28 376.46 218.36L376.24 216.48L375.38 216.66V204.88H368.44V218.08C367.94 218.18 367.46 218.26 367.06 218.34L367.44 220.78C369.88 220.2 373.16 219.44 376.22 218.68C375.62 219.54 374.84 220.28 373.86 220.94C374.42 221.36 375.16 222.16 375.52 222.74C379.38 220.08 380.46 215.88 380.76 210.6H382.88C382.76 217.02 382.58 219.5 382.12 220.04C381.94 220.32 381.74 220.38 381.42 220.38C380.98 220.38 380.08 220.36 379.1 220.3C379.52 220.92 379.76 221.92 379.8 222.56C380.84 222.6 381.88 222.62 382.52 222.5C383.24 222.38 383.72 222.16 384.18 221.48C384.84 220.56 385.02 217.62 385.2 209.42V208.36Z" fill="white"/>
<path d="M54.72 218.64V220.28H45.42V218.64H54.72ZM43.14 222.78H45.42V222.22H54.72V222.78H57.1V216.58H43.14V222.78ZM52.96 214.3H47.04V213.1H52.96V214.3ZM44.82 211.52V215.86H55.32V211.52H44.82ZM41.6 213.06H43.78V210.74H56.28V213.06H58.58V208.94H41.6V213.06ZM54.84 205.46V204.08H52.46V205.46H47.44V204.08H45.1V205.46H41.16V207.58H45.1V208.52H47.44V207.58H52.46V208.52H54.84V207.58H58.88V205.46H54.84ZM77.16 204.54C76.78 205.72 76.04 207.34 75.5 208.34L77.32 209.12C77.9 208.16 78.62 206.74 79.24 205.36L77.16 204.54ZM65.82 211.84H67.92V209.72H62.58C62.9 209.32 63.18 208.92 63.46 208.48H68.26V206.24H64.72C64.92 205.74 65.14 205.24 65.32 204.74L63.32 204.12C62.72 205.86 61.64 207.54 60.46 208.66C60.82 209.16 61.34 210.4 61.5 210.88C61.72 210.68 61.94 210.46 62.14 210.22V211.84H63.64V213.8H61.14V215.92H63.64V218.98C63.64 219.84 63.08 220.42 62.66 220.68C63 221.14 63.48 222.1 63.64 222.66C64.02 222.28 64.7 221.88 68.28 220.04C68.12 219.58 67.94 218.62 67.9 217.98L65.82 219V215.92H68.32V213.8H65.82V211.84ZM72.14 208.22C71.88 207.22 71.1 205.78 70.36 204.7L68.54 205.56C69.24 206.74 69.94 208.26 70.16 209.22L72.14 208.22ZM71 216.8V215.3H76.48V216.8H71ZM76.48 211.86V213.3H71V211.86H76.48ZM76.48 209.62L74.88 209.64V204.04H72.72V209.64H68.88V222.72H71V218.8H76.48V220.14C76.48 220.38 76.38 220.46 76.12 220.48C75.82 220.5 74.88 220.5 73.98 220.46C74.28 221.04 74.58 222 74.64 222.62C76.06 222.62 77.06 222.58 77.72 222.22C78.42 221.86 78.6 221.22 78.6 220.18V209.62H76.48ZM83.98 213.9C84 213.24 84 212.62 84 212.02V211.48H85.96V213.9H83.98ZM85.96 206.96V209.28H84V206.96H85.96ZM88.16 204.76H81.86V212.02C81.86 214.94 81.78 218.96 80.54 221.68C81.06 221.86 82.04 222.42 82.46 222.76C83.28 220.94 83.68 218.48 83.86 216.14H85.96V220.1C85.96 220.38 85.86 220.46 85.62 220.46C85.38 220.46 84.64 220.48 83.92 220.44C84.22 221.04 84.5 222.12 84.56 222.74C85.86 222.74 86.72 222.68 87.34 222.3C88 221.88 88.16 221.24 88.16 220.14V204.76ZM91.52 213.86H91.64C92.24 215.68 92.98 217.36 93.96 218.82C93.22 219.66 92.42 220.36 91.52 220.86V213.86ZM96.5 213.86C96.18 214.98 95.74 216.04 95.2 216.98C94.58 216.02 94.06 214.96 93.66 213.86H96.5ZM97.66 211.64L97.3 211.72H91.52V206.98H96.18V208.58C96.18 208.82 96.08 208.88 95.76 208.9C95.44 208.92 94.26 208.92 93.26 208.86C93.54 209.44 93.86 210.24 93.96 210.86C95.48 210.86 96.62 210.86 97.4 210.56C98.24 210.24 98.46 209.68 98.46 208.64V204.78H89.26V222.76H91.52V221.12C91.96 221.56 92.46 222.26 92.7 222.72C93.68 222.14 94.56 221.42 95.32 220.58C96.16 221.44 97.12 222.18 98.16 222.76C98.5 222.18 99.16 221.34 99.64 220.9C98.54 220.42 97.54 219.68 96.68 218.8C97.8 217 98.62 214.8 99.08 212.1L97.66 211.64ZM110.48 215.14C110.62 214.66 110.72 214.18 110.82 213.64L108.36 213.44C108.28 214.06 108.16 214.6 108.04 215.14H102.38V217.16H107.16C106 219.06 103.98 220.14 101.06 220.74C101.5 221.2 102.2 222.2 102.44 222.7C106.06 221.7 108.42 220.08 109.78 217.16H115.12C114.82 219.04 114.44 220.02 114.04 220.34C113.78 220.54 113.5 220.56 113.08 220.56C112.48 220.56 111.04 220.54 109.74 220.42C110.14 220.98 110.44 221.84 110.48 222.46C111.8 222.52 113.08 222.52 113.82 222.48C114.72 222.44 115.36 222.28 115.94 221.74C116.68 221.1 117.18 219.5 117.62 216.1C117.68 215.78 117.74 215.14 117.74 215.14H110.48ZM106.84 207.94H114.1C113 208.82 111.6 209.52 110 210.12C108.62 209.58 107.52 208.9 106.7 208.06L106.84 207.94ZM116.48 205.86L116.14 205.96H108.66C109.02 205.5 109.34 205.02 109.64 204.54L107.22 204.04C106.2 205.74 104.34 207.54 101.52 208.82C101.96 209.2 102.62 210.1 102.9 210.66C103.74 210.24 104.48 209.76 105.16 209.28C105.8 209.92 106.48 210.48 107.26 210.94C105.26 211.46 103.08 211.8 100.9 211.98C101.26 212.52 101.66 213.46 101.82 214.06C104.64 213.72 107.46 213.16 110.02 212.28C112.28 213.12 115 213.6 118.06 213.82C118.36 213.2 118.9 212.26 119.38 211.74C117.06 211.64 114.9 211.4 113 210.98C115.06 209.92 116.78 208.56 117.98 206.82L116.48 205.86Z" fill="white"/>
<path d="M184.5 118.32C184.18 119.06 183.64 120.14 183.18 120.84L184.7 121.52C185.22 120.9 185.84 120 186.5 119.1L184.5 118.32ZM180.7 127.04H182.9V124.86C183.66 125.46 184.44 126.12 184.88 126.54L186.12 124.88C185.78 124.64 184.66 123.98 183.76 123.46H186.68V121.58H182.9V118.06H180.7V121.58H178.68L180.3 120.86C180.14 120.18 179.64 119.14 179.1 118.4L177.42 119.1C177.86 119.88 178.32 120.9 178.48 121.58H176.92V123.46H179.88C178.94 124.44 177.68 125.32 176.5 125.8C176.94 126.24 177.46 127.02 177.72 127.54C178.72 127 179.78 126.16 180.7 125.24V127.04ZM183.52 130.22C183.16 130.92 182.68 131.54 182.12 132.1C181.6 131.82 181.04 131.54 180.5 131.28C180.7 130.96 180.9 130.6 181.1 130.22H183.52ZM185.32 133.96C184.92 133.68 184.44 133.38 183.9 133.08C184.92 131.92 185.72 130.48 186.2 128.72L184.92 128.24L184.56 128.3H182.02C182.14 128.04 182.26 127.78 182.36 127.52L180.26 127.14C180.12 127.52 179.96 127.9 179.78 128.3H177.28V130.22H178.8C178.4 130.9 178.02 131.52 177.66 132.04C178.56 132.42 179.56 132.88 180.5 133.38C179.36 134.08 178.02 134.6 176.58 134.92C176.98 135.32 177.44 136.16 177.66 136.7C179.46 136.2 181.06 135.48 182.4 134.46C183 134.82 183.52 135.18 183.92 135.48L185.32 133.96ZM191.66 123.94C191.46 125.64 191.14 127.14 190.68 128.5C190.16 127.08 189.76 125.54 189.46 123.94H191.66ZM195.12 123.94V121.74H189.8C190.04 120.68 190.24 119.56 190.4 118.44L188.24 118.12C187.78 121.68 186.9 125.08 185.3 127.16C185.78 127.5 186.68 128.28 187 128.68C187.38 128.14 187.74 127.54 188.06 126.9C188.46 128.42 188.9 129.82 189.48 131.08C188.46 132.74 186.98 134 184.96 134.9C185.38 135.36 186 136.36 186.22 136.84C188.08 135.9 189.52 134.7 190.66 133.18C191.56 134.58 192.66 135.72 194.04 136.58C194.36 135.98 195.06 135.12 195.58 134.7C194.08 133.88 192.86 132.62 191.94 131.04C192.88 129.08 193.48 126.74 193.86 123.94H195.12ZM201.6 132.24H200.14V127.22H201.6V132.24ZM196.92 121.1H199.06C198.54 123.74 197.72 126.18 196.48 127.84C196.8 128.52 197.22 130.04 197.3 130.68C197.58 130.34 197.86 129.96 198.12 129.58V135.78H200.14V134.32H203.64V125.14H200.18C200.64 123.84 200.98 122.46 201.26 121.1H204.08V118.94H196.92V121.1ZM211.48 130.62H204.4V132.74H211.48V130.62ZM212.76 126.68C213.04 124.18 213.34 121.38 213.48 119.14L211.8 119L211.42 119.08H204.78V121.22H211.04C210.92 122.86 210.7 124.88 210.48 126.68H207.5C207.68 125.22 207.84 123.56 207.96 122.12L205.74 122C205.6 124.14 205.3 126.94 205.02 128.7H212.54C212.24 132.34 211.84 133.9 211.42 134.34C211.22 134.56 211.02 134.6 210.7 134.6C210.32 134.6 209.54 134.6 208.74 134.52C209.08 135.1 209.3 136 209.34 136.64C210.32 136.68 211.22 136.66 211.74 136.6C212.4 136.52 212.88 136.32 213.36 135.78C214.04 135.04 214.48 132.88 214.88 127.64C214.92 127.34 214.94 126.68 214.94 126.68H212.76ZM219.98 127.9C220 127.24 220 126.62 220 126.02V125.48H221.96V127.9H219.98ZM221.96 120.96V123.28H220V120.96H221.96ZM224.16 118.76H217.86V126.02C217.86 128.94 217.78 132.96 216.54 135.68C217.06 135.86 218.04 136.42 218.46 136.76C219.28 134.94 219.68 132.48 219.86 130.14H221.96V134.1C221.96 134.38 221.86 134.46 221.62 134.46C221.38 134.46 220.64 134.48 219.92 134.44C220.22 135.04 220.5 136.12 220.56 136.74C221.86 136.74 222.72 136.68 223.34 136.3C224 135.88 224.16 135.24 224.16 134.14V118.76ZM227.52 127.86H227.64C228.24 129.68 228.98 131.36 229.96 132.82C229.22 133.66 228.42 134.36 227.52 134.86V127.86ZM232.5 127.86C232.18 128.98 231.74 130.04 231.2 130.98C230.58 130.02 230.06 128.96 229.66 127.86H232.5ZM233.66 125.64L233.3 125.72H227.52V120.98H232.18V122.58C232.18 122.82 232.08 122.88 231.76 122.9C231.44 122.92 230.26 122.92 229.26 122.86C229.54 123.44 229.86 124.24 229.96 124.86C231.48 124.86 232.62 124.86 233.4 124.56C234.24 124.24 234.46 123.68 234.46 122.64V118.78H225.26V136.76H227.52V135.12C227.96 135.56 228.46 136.26 228.7 136.72C229.68 136.14 230.56 135.42 231.32 134.58C232.16 135.44 233.12 136.18 234.16 136.76C234.5 136.18 235.16 135.34 235.64 134.9C234.54 134.42 233.54 133.68 232.68 132.8C233.8 131 234.62 128.8 235.08 126.1L233.66 125.64ZM246.48 129.14C246.62 128.66 246.72 128.18 246.82 127.64L244.36 127.44C244.28 128.06 244.16 128.6 244.04 129.14H238.38V131.16H243.16C242 133.06 239.98 134.14 237.06 134.74C237.5 135.2 238.2 136.2 238.44 136.7C242.06 135.7 244.42 134.08 245.78 131.16H251.12C250.82 133.04 250.44 134.02 250.04 134.34C249.78 134.54 249.5 134.56 249.08 134.56C248.48 134.56 247.04 134.54 245.74 134.42C246.14 134.98 246.44 135.84 246.48 136.46C247.8 136.52 249.08 136.52 249.82 136.48C250.72 136.44 251.36 136.28 251.94 135.74C252.68 135.1 253.18 133.5 253.62 130.1C253.68 129.78 253.74 129.14 253.74 129.14H246.48ZM242.84 121.94H250.1C249 122.82 247.6 123.52 246 124.12C244.62 123.58 243.52 122.9 242.7 122.06L242.84 121.94ZM252.48 119.86L252.14 119.96H244.66C245.02 119.5 245.34 119.02 245.64 118.54L243.22 118.04C242.2 119.74 240.34 121.54 237.52 122.82C237.96 123.2 238.62 124.1 238.9 124.66C239.74 124.24 240.48 123.76 241.16 123.28C241.8 123.92 242.48 124.48 243.26 124.94C241.26 125.46 239.08 125.8 236.9 125.98C237.26 126.52 237.66 127.46 237.82 128.06C240.64 127.72 243.46 127.16 246.02 126.28C248.28 127.12 251 127.6 254.06 127.82C254.36 127.2 254.9 126.26 255.38 125.74C253.06 125.64 250.9 125.4 249 124.98C251.06 123.92 252.78 122.56 253.98 120.82L252.48 119.86ZM201.34 147.16C200.28 150.1 198.46 152.98 196.56 154.8C196.98 155.38 197.7 156.7 197.96 157.28C198.42 156.8 198.9 156.26 199.36 155.68V165.7H201.8V151.96C202.54 150.62 203.16 149.26 203.7 147.92L201.34 147.16ZM215.32 151.36H213.12V147.28H210.64V151.36H203.02V153.76H210.64V162.84C210.64 163.28 210.46 163.44 209.96 163.44C209.5 163.46 207.74 163.46 206.2 163.4C206.56 164.02 206.98 165.08 207.12 165.76C209.32 165.78 210.82 165.74 211.8 165.36C212.76 165 213.12 164.38 213.12 162.84V153.76H215.32V151.36ZM208.78 159.82C208.18 158.62 206.94 156.66 206.04 155.2L203.92 156.18C204.82 157.7 206 159.76 206.52 160.98L208.78 159.82ZM225.68 154.48H217.54V156.4H225.68L225.7 155.58C226.22 155.94 226.88 156.46 227.2 156.74C227.84 155.68 228.4 154.34 228.86 152.82H232.74C232.52 154.04 232.24 155.24 231.98 156.1L233.9 156.68C234.42 155.22 234.98 152.98 235.38 151.02L233.72 150.56L233.38 150.66H229.42C229.64 149.62 229.82 148.52 229.96 147.42L227.66 147.1C227.36 149.9 226.74 152.66 225.7 154.6L225.68 154.48ZM220.5 151.62H217.42V153.54H225.8V151.62H222.72V150.6H226.24V148.66H222.72V147.2H220.5V148.66H216.92V150.6H220.5V151.62ZM217.92 159.68C217.56 161.02 217.04 162.54 216.44 163.58C216.94 163.74 217.82 164.12 218.26 164.36C218.82 163.3 219.48 161.6 219.86 160.14L217.92 159.68ZM226.48 159.3V157.34H216.66V159.3H220.52V163.44C220.52 163.64 220.46 163.7 220.26 163.7C220.04 163.7 219.4 163.7 218.78 163.68C219.04 164.26 219.34 165.1 219.42 165.74C220.5 165.74 221.32 165.7 221.94 165.36C222.6 165.04 222.74 164.48 222.74 163.5V159.3H226.48ZM223.3 160.32C223.76 161.34 224.28 162.68 224.5 163.48L226.36 162.7C226.12 161.88 225.56 160.6 225.06 159.64L223.3 160.32ZM231.36 154.14H229.1V155.06C229.1 157.54 228.8 161.34 225.5 164.18C226.08 164.54 226.9 165.28 227.3 165.8C228.88 164.38 229.86 162.74 230.44 161.1C231.24 163.08 232.36 164.7 233.96 165.7C234.3 165.06 235.02 164.14 235.54 163.68C233.28 162.5 231.96 159.96 231.3 156.98C231.34 156.32 231.36 155.7 231.36 155.12V154.14Z" fill="white"/>
<defs>
<linearGradient id="paint0_linear" x1="-0.994941" y1="69.5002" x2="161.006" y2="69.5002" gradientUnits="userSpaceOnUse">
<stop offset="0.161458" stop-color="#31C5E7"/>
<stop offset="1" stop-color="#1492AF"/>
</linearGradient>
<linearGradient id="paint1_linear" x1="-0.994941" y1="216.5" x2="161.006" y2="216.5" gradientUnits="userSpaceOnUse">
<stop offset="0.161458" stop-color="#31C5E7"/>
<stop offset="1" stop-color="#1492AF"/>
</linearGradient>
<linearGradient id="paint2_linear" x1="132.005" y1="139.5" x2="294.006" y2="139.5" gradientUnits="userSpaceOnUse">
<stop offset="0.161458" stop-color="#31C5E7"/>
<stop offset="1" stop-color="#1492AF"/>
</linearGradient>
<linearGradient id="paint3_linear" x1="261.958" y1="69.5002" x2="425.054" y2="69.5002" gradientUnits="userSpaceOnUse">
<stop offset="0.161458" stop-color="#31C5E7"/>
<stop offset="1" stop-color="#1492AF"/>
</linearGradient>
<linearGradient id="paint4_linear" x1="401.005" y1="139.5" x2="563.006" y2="139.5" gradientUnits="userSpaceOnUse">
<stop offset="0.161458" stop-color="#31C5E7"/>
<stop offset="1" stop-color="#1492AF"/>
</linearGradient>
<linearGradient id="paint5_linear" x1="531.005" y1="69.5002" x2="693.006" y2="69.5002" gradientUnits="userSpaceOnUse">
<stop offset="0.161458" stop-color="#31C5E7"/>
<stop offset="1" stop-color="#1492AF"/>
</linearGradient>
<linearGradient id="paint6_linear" x1="663.958" y1="139.5" x2="827.054" y2="139.5" gradientUnits="userSpaceOnUse">
<stop offset="0.161458" stop-color="#31C5E7"/>
<stop offset="1" stop-color="#1492AF"/>
</linearGradient>
<linearGradient id="paint7_linear" x1="793.958" y1="69.5002" x2="957.054" y2="69.5002" gradientUnits="userSpaceOnUse">
<stop offset="0.161458" stop-color="#31C5E7"/>
<stop offset="1" stop-color="#1492AF"/>
</linearGradient>
<linearGradient id="paint8_linear" x1="793.958" y1="216.5" x2="957.054" y2="216.5" gradientUnits="userSpaceOnUse">
<stop offset="0.161458" stop-color="#31C5E7"/>
<stop offset="1" stop-color="#1492AF"/>
</linearGradient>
<linearGradient id="paint9_linear" x1="928.005" y1="139.5" x2="1090.01" y2="139.5" gradientUnits="userSpaceOnUse">
<stop offset="0.161458" stop-color="#31C5E7"/>
<stop offset="1" stop-color="#1492AF"/>
</linearGradient>
<linearGradient id="paint10_linear" x1="1053.01" y1="216.5" x2="1215.01" y2="216.5" gradientUnits="userSpaceOnUse">
<stop offset="0.161458" stop-color="#31C5E7"/>
<stop offset="1" stop-color="#1492AF"/>
</linearGradient>
<linearGradient id="paint11_linear" x1="1058.01" y1="69.5002" x2="1220.01" y2="69.5002" gradientUnits="userSpaceOnUse">
<stop offset="0.161458" stop-color="#31C5E7"/>
<stop offset="1" stop-color="#1492AF"/>
</linearGradient>
<linearGradient id="paint12_linear" x1="531.005" y1="216.5" x2="693.006" y2="216.5" gradientUnits="userSpaceOnUse">
<stop offset="0.161458" stop-color="#31C5E7"/>
<stop offset="1" stop-color="#1492AF"/>
</linearGradient>
<linearGradient id="paint13_linear" x1="261.958" y1="216.5" x2="425.054" y2="216.5" gradientUnits="userSpaceOnUse">
<stop offset="0.161458" stop-color="#31C5E7"/>
<stop offset="1" stop-color="#1492AF"/>
</linearGradient>
</defs>
</svg>
