<svg width="1133" height="306" viewBox="0 0 1133 306" fill="none" xmlns="http://www.w3.org/2000/svg">
<path d="M120 5H44L6 72.0317L44 139H120L158 72.0317L120 5Z" stroke="url(#paint0_linear)" stroke-width="10" stroke-miterlimit="10"/>
<path d="M120 169H44L6 235.031L44 301H120L158 235.031L120 169Z" stroke="url(#paint1_linear)" stroke-width="10" stroke-miterlimit="10"/>
<path d="M257.5 89H180.5L142 156.032L180.5 223H257.5L296 156.032L257.5 89Z" stroke="url(#paint2_linear)" stroke-width="10" stroke-miterlimit="10"/>
<path d="M396 5H320L282 72.0317L320 139H396L434 72.0317L396 5Z" stroke="url(#paint3_linear)" stroke-width="10" stroke-miterlimit="10"/>
<path d="M396 169H320L282 235.031L320 301H396L434 235.031L396 169Z" stroke="url(#paint4_linear)" stroke-width="10" stroke-miterlimit="10"/>
<path d="M541.5 89H464.5L426 156.032L464.5 223H541.5L580 156.032L541.5 89Z" stroke="url(#paint5_linear)" stroke-width="10" stroke-miterlimit="10"/>
<path d="M673.5 169H596.5L558 235.031L596.5 301H673.5L712 235.031L673.5 169Z" stroke="url(#paint6_linear)" stroke-width="10" stroke-miterlimit="10"/>
<path d="M948.5 169H871.5L833 235.031L871.5 301H948.5L987 235.031L948.5 169Z" stroke="url(#paint7_linear)" stroke-width="10" stroke-miterlimit="10"/>
<path d="M948.5 5H871.5L833 72.0317L871.5 139H948.5L987 72.0317L948.5 5Z" stroke="url(#paint8_linear)" stroke-width="10" stroke-miterlimit="10"/>
<path d="M1088.25 89H1010.75L972 156.032L1010.75 223H1088.25L1127 156.032L1088.25 89Z" stroke="url(#paint9_linear)" stroke-width="10" stroke-miterlimit="10"/>
<path d="M811.5 89H734.5L696 156.032L734.5 223H811.5L850 156.032L811.5 89Z" stroke="url(#paint10_linear)" stroke-width="10" stroke-miterlimit="10"/>
<path d="M673.5 5H596.5L558 72.0317L596.5 139H673.5L712 72.0317L673.5 5Z" stroke="url(#paint11_linear)" stroke-width="10" stroke-miterlimit="10"/>
<path d="M56.18 67.3C57.3 66.2 58.34 64.92 59.18 63.54C60.26 64.76 61.4 66.16 62.2 67.3H56.18ZM63.02 68.02L64.54 66.58C63.66 65.24 61.8 63.18 60.26 61.56C60.38 61.28 60.52 60.98 60.64 60.7L58.46 60.02C57.42 62.56 55.32 65.24 52.9 66.88C53.42 67.28 54.22 68.14 54.6 68.64C54.8 68.48 55.02 68.32 55.22 68.16V75.46C55.22 77.76 55.96 78.4 58.3 78.4H61.5C63.54 78.4 64.16 77.56 64.42 74.74C63.82 74.62 62.86 74.26 62.36 73.88C62.24 75.98 62.1 76.38 61.28 76.38H58.58C57.68 76.38 57.54 76.26 57.54 75.44V69.34H60.7C60.58 71.06 60.44 71.8 60.26 72.02C60.12 72.2 59.96 72.24 59.7 72.24C59.4 72.24 58.8 72.24 58.16 72.16C58.46 72.7 58.7 73.54 58.72 74.16C59.6 74.18 60.38 74.16 60.86 74.1C61.4 74.02 61.84 73.86 62.2 73.42C62.66 72.88 62.86 71.42 63.02 68.1V68.02ZM67.1 62.34H64.82V73.64H67.1V62.34ZM68.64 60.44V75.94C68.64 76.32 68.48 76.44 68.1 76.46C67.7 76.46 66.36 76.46 65.1 76.4C65.44 77.04 65.8 78.04 65.9 78.7C67.78 78.7 69.06 78.64 69.88 78.26C70.72 77.9 71 77.3 71 75.94V60.44H68.64ZM78.6 71.64C78.1 69.74 76.94 66.6 76 64.26L73.82 64.9C74.74 67.36 75.8 70.56 76.22 72.48L78.6 71.64ZM86.28 75.44V71.68L88.1 72.6C89.14 70.68 90.4 67.86 91.28 65.34L89.14 64.32C88.48 66.6 87.28 69.44 86.28 71.34V60.32H83.82V75.44H81.2V60.32H78.74V75.44H73.58V77.82H91.46V75.44H86.28ZM96.26 63.8H108.74V66.16H111.18V61.64H104.06C103.86 61.06 103.52 60.4 103.2 59.86L100.68 60.58C100.84 60.88 101.02 61.26 101.16 61.64H93.92V66.16H96.26V63.8ZM107.96 67.22C107 68.2 105.56 69.32 104.18 70.26C103.78 69.4 103.2 68.56 102.42 67.84C102.86 67.56 103.26 67.24 103.62 66.92H108.06V64.9H96.88V66.92H100.32C98.52 67.9 96.16 68.66 93.9 69.12C94.28 69.58 94.88 70.52 95.1 70.98C96.98 70.48 98.92 69.8 100.66 68.88C100.86 69.1 101.04 69.32 101.22 69.54C99.48 70.7 96.2 71.96 93.74 72.48C94.16 72.98 94.66 73.78 94.92 74.32C97.2 73.62 100.12 72.32 102.12 71.06C102.24 71.32 102.34 71.58 102.42 71.82C100.44 73.5 96.6 75.22 93.44 75.9C93.9 76.44 94.42 77.3 94.68 77.88C97.34 77.08 100.48 75.6 102.76 74.04C102.76 75 102.52 75.74 102.18 76.06C101.9 76.48 101.58 76.54 101.1 76.54C100.64 76.54 100 76.52 99.3 76.44C99.7 77.1 99.9 78.04 99.94 78.7C100.52 78.72 101.12 78.74 101.56 78.72C102.6 78.7 103.24 78.5 103.94 77.78C104.96 76.94 105.44 74.64 104.88 72.24C105.08 72.12 105.3 72 105.5 71.86C106.48 74.58 108.06 76.72 110.46 77.86C110.8 77.28 111.5 76.36 112.04 75.92C109.74 75 108.14 73.02 107.36 70.66C108.24 70.06 109.14 69.42 109.94 68.8L107.96 67.22Z" fill="white"/>
<path d="M340.48 62.92L343.06 62.9V65.02C343.06 67.02 343.48 67.86 345.44 67.86H346.78C347.24 67.86 347.74 67.84 348.04 67.7C347.96 67.16 347.9 66.34 347.86 65.74C347.58 65.82 347.08 65.88 346.74 65.88H345.68C345.36 65.88 345.32 65.64 345.32 65.06V60.7H338.28V62.84C338.28 64.22 337.98 65.66 335.62 66.74C336.06 67.06 336.92 68 337.2 68.44C339.9 67.14 340.48 64.92 340.48 62.92ZM336.3 70.82L336 68.64L334.54 69V66.06H336.64V63.86H334.54V60.06H332.2V63.86H329.82V66.06H332.2V69.58C331.22 69.8 330.32 70 329.56 70.16L330.18 72.44L332.2 71.92V76.06C332.2 76.34 332.1 76.44 331.82 76.44C331.56 76.44 330.74 76.44 329.94 76.42C330.24 77.02 330.54 77.96 330.62 78.58C332.02 78.58 332.98 78.52 333.64 78.14C334.32 77.8 334.54 77.22 334.54 76.06V71.3L336.3 70.82ZM344.06 70.92C343.46 72 342.68 72.94 341.74 73.72C340.72 72.92 339.9 71.98 339.3 70.92H344.06ZM345.66 68.6L345.24 68.7H336.56V70.92H337.7L336.96 71.18C337.7 72.66 338.64 73.94 339.74 75.04C338.38 75.74 336.82 76.26 335.12 76.56C335.52 77.1 336.04 78.08 336.26 78.74C338.28 78.26 340.1 77.56 341.72 76.6C343.18 77.56 344.9 78.28 346.88 78.76C347.2 78.1 347.88 77.1 348.38 76.56C346.64 76.24 345.1 75.72 343.76 75.04C345.3 73.58 346.46 71.7 347.2 69.26L345.66 68.6ZM355.74 62.6C354.82 61.92 353 61.06 351.66 60.58L350.48 62.18C351.84 62.72 353.62 63.7 354.5 64.38L355.74 62.6ZM355.76 64.86C353.62 65.58 351.4 66.3 349.9 66.7L350.62 68.88C352.26 68.32 354.28 67.6 356.16 66.9L355.76 64.86ZM365.98 74.78V69.52H352.3V75H354.64V71.68H363.5V74.78H365.98ZM357.9 72.2C357.3 74.66 356.04 76.1 349.7 76.78C350.1 77.28 350.6 78.24 350.76 78.78C357.78 77.8 359.52 75.68 360.22 72.2H357.9ZM359.12 76C361.5 76.68 364.8 77.9 366.42 78.66L367.9 76.78C366.14 76 362.78 74.9 360.5 74.32L359.12 76ZM364.92 63.52C364.74 64.06 364.54 64.56 364.38 64.96L366.46 65.5C366.92 64.6 367.44 63.28 367.86 62.1L366.12 61.68L365.72 61.78H360.04C360.2 61.38 360.38 60.96 360.52 60.56L358.28 60.22C357.84 61.64 356.9 63.22 355.34 64.4C355.84 64.66 356.62 65.38 356.98 65.88C357.86 65.16 358.52 64.38 359.08 63.52H360.64C360.1 65.28 358.98 66.86 355.66 67.78C356.1 68.18 356.66 68.98 356.9 69.5C359.52 68.66 361.04 67.46 361.98 66C363.1 67.56 364.74 68.68 366.76 69.3C367.04 68.7 367.66 67.86 368.14 67.44C365.74 66.94 363.84 65.74 362.82 64.12C362.9 63.92 362.94 63.72 363 63.52H364.92ZM378.82 64.28H382.08C381.4 64.92 380.68 65.52 379.92 66.1H378.82V64.28ZM383.18 73.02H376.3V71.74H383.18V73.02ZM376.3 76.18V74.82H383.18V76.18H376.3ZM387.96 68.2V66.1H383.32C384.78 64.76 386.12 63.28 387.26 61.7L385.22 60.66C384.6 61.54 383.92 62.38 383.16 63.2V62.22H378.82V60.06H376.46V62.22H371.76V64.28H376.46V66.1H370.04V68.2H376.84C374.54 69.56 372.04 70.7 369.42 71.52C369.86 72 370.58 72.96 370.86 73.48C371.88 73.1 372.92 72.66 373.92 72.22V78.76H376.3V78.16H383.18V78.68H385.68V69.8H378.4C379.22 69.28 379.98 68.76 380.76 68.2H387.96Z" fill="white"/>
<path d="M888.96 224.34V221.98H881.26V219.42H887.52V217.06H881.26V214.08H878.72V217.06H872.64V219.42H878.72V221.98H871.14V224.34H877.62C875.86 226.56 873.14 228.68 870.48 229.82C871.04 230.32 871.82 231.28 872.22 231.88C874.56 230.66 876.9 228.72 878.72 226.52V232.76H881.26V226.4C883.08 228.68 885.4 230.68 887.76 231.9C888.16 231.28 888.92 230.32 889.48 229.84C886.82 228.68 884.1 226.56 882.36 224.34H888.96ZM898.74 218.52V222.74H895.28L897.18 222C896.92 221.02 896.18 219.6 895.48 218.52H898.74ZM904.64 218.52C904.24 219.68 903.52 221.18 902.94 222.16L904.62 222.74H901.26V218.52H904.64ZM908.94 225.02V222.74H905.06C905.7 221.84 906.46 220.5 907.16 219.2L904.86 218.52H908.18V216.24H901.26V214.06H898.74V216.24H892V218.52H895.4L893.34 219.3C893.98 220.38 894.62 221.78 894.84 222.74H891.06V225.02H897.34C895.6 227.08 893.02 228.98 890.5 230.02C891.06 230.5 891.8 231.44 892.18 232.02C894.58 230.82 896.92 228.86 898.74 226.62V232.72H901.26V226.58C903.06 228.86 905.4 230.86 907.8 232.06C908.16 231.48 908.92 230.54 909.46 230.06C906.96 229.02 904.4 227.1 902.68 225.02H908.94ZM914.02 229.9V217.22H928.58V214.94H911.7V232.18H929.1V229.9H914.02ZM927.24 227.22C926.24 226.12 924.74 224.76 923.06 223.38C924.4 221.94 925.6 220.38 926.6 218.74L924.34 217.84C923.5 219.26 922.48 220.62 921.28 221.9C919.78 220.66 918.24 219.48 916.94 218.46L915.28 219.92C916.64 220.98 918.16 222.24 919.64 223.52C918.04 224.96 916.28 226.24 914.46 227.18C915 227.62 915.88 228.54 916.28 229.02C918.02 227.96 919.76 226.62 921.4 225.06C923 226.52 924.44 227.9 925.36 228.98L927.24 227.22ZM937.06 224.56L935.28 225.32V220.92H937.22V218.66H935.28V214.32H933.06V218.66H930.92V220.92H933.06V226.26C932.12 226.62 931.26 226.96 930.56 227.2L931.52 229.6C933.32 228.76 935.54 227.7 937.62 226.66L937.06 224.56ZM943.26 219.44H945.48V223.02H943.22C943.24 222.46 943.26 221.9 943.26 221.34V219.44ZM948.96 225.26V223.02H947.7V217.22H943.26V214.26H940.96V217.22H938.04V219.44H940.96V221.32C940.96 221.9 940.94 222.44 940.9 223.02H937.54V225.26H940.54C939.98 227.5 938.58 229.52 935.4 230.98C935.92 231.38 936.7 232.24 937.02 232.78C940.38 231.18 941.98 228.9 942.68 226.4C943.7 229.28 945.24 231.5 947.68 232.78C948.06 232.14 948.8 231.14 949.34 230.66C946.98 229.66 945.42 227.7 944.48 225.26H948.96ZM894.24 251.98V253.78H890.74V255.82H894.24V258.62H896.3V255.82H899.16V253.78H896.3V251.98H898.78L898.8 250.04H896.3V247.94H894.24V250.04H892.88C893.26 249.2 893.66 248.24 894.02 247.26H899.22V245.28H894.68C894.86 244.66 895.04 244.04 895.18 243.42L892.98 243C892.86 243.76 892.7 244.54 892.52 245.28H890.52V247.26H891.98C891.72 248.1 891.48 248.74 891.36 249.02C891.08 249.76 890.78 250.24 890.42 250.36C890.66 250.9 891.02 251.88 891.12 252.3C891.28 252.1 892 251.98 892.74 251.98H894.24ZM890.14 247.52C889.9 246.42 889.36 244.8 888.9 243.54L886.94 244.12C887.4 245.38 887.9 247.08 888.08 248.18L890.14 247.52ZM884.94 257.58V254.9H886.94V252.88H884.94V250.78H886.38V248.78H882.28C882.62 248.24 882.94 247.68 883.22 247.06H886.82V245.02H884.04C884.2 244.56 884.36 244.1 884.48 243.66L882.52 243.1C882.08 244.84 881.36 246.56 880.42 247.74C880.76 248.22 881.32 249.4 881.48 249.88C881.6 249.76 881.7 249.62 881.82 249.48V250.78H882.84V252.88H881V254.9H882.84V257.96C882.84 259 882.26 259.74 881.84 260.1C882.2 260.4 882.78 261.18 882.98 261.62C883.3 261.2 883.88 260.7 887.02 258.36C886.8 257.96 886.5 257.12 886.36 256.54L884.94 257.58ZM890.12 249.6H886.64V251.76H887.98V257.94C887.34 258.3 886.66 258.86 886.04 259.5L887.48 261.74C888.08 260.74 888.88 259.56 889.38 259.56C889.74 259.56 890.34 260.06 891.04 260.48C892.12 261.14 893.32 261.44 895.02 261.44C896.24 261.44 898.02 261.38 899.02 261.3C899.04 260.7 899.32 259.54 899.54 258.92C898.24 259.1 896.22 259.2 895.04 259.2C893.52 259.2 892.28 259.04 891.28 258.44C890.82 258.16 890.46 257.88 890.12 257.7V249.6ZM908.22 247.5V256.9H910.56V249.58H915.78V256.82H918.22V247.5H913.6C913.86 247.02 914.14 246.5 914.42 245.94H919.22V243.82H907.68V245.94H911.62C911.46 246.48 911.28 247 911.12 247.5H908.22ZM907.48 253.98L905.42 254.52V247.46H907.4V245.22H900.76V247.46H903.06V255.16C902.06 255.42 901.16 255.64 900.42 255.82L901 258.34C902.94 257.68 905.42 256.8 907.78 255.98L907.48 253.98ZM914.38 250.36H912V254.4C912 256.38 911.32 258.64 906 259.98C906.52 260.42 907.22 261.3 907.5 261.8C913.12 260.08 914.38 257.2 914.38 254.44V250.36ZM913.7 258.52C915.12 259.44 917 260.78 917.88 261.68L919.46 260.06C918.52 259.18 916.58 257.94 915.16 257.1L913.7 258.52ZM925.26 257.96V255.6H934.52V257.96H925.26ZM934.52 251V253.36H925.26V251H934.52ZM934.52 246.46V248.76H925.26V246.46H934.52ZM922.86 244.14V261.52H925.26V260.28H934.52V261.52H937.04V244.14H922.86Z" fill="white"/>
<path d="M613.44 236.06H615.38V233.8H613.44V229.34H611.32V233.8H609.28V236.06H611.32V242.2C610.48 242.5 609.72 242.76 609.08 242.96L609.82 245.4C611.58 244.68 613.78 243.74 615.86 242.86L615.42 240.68C614.76 240.94 614.1 241.18 613.44 241.42V236.06ZM624 242.22V244.96H619.04V242.22H624ZM616.9 247.74H619.04V247.04H624V247.66H626.28V240.14H616.9V247.74ZM623.72 233.36C623.5 234.38 623.04 235.76 622.62 236.74H618.46L620.18 236.18C620.06 235.42 619.68 234.26 619.26 233.36H623.72ZM624.76 236.74C625.14 235.88 625.54 234.8 625.92 233.78L624.16 233.36H627.14V231.26H622.78C622.66 230.58 622.42 229.68 622.16 228.98L620.04 229.32C620.22 229.92 620.38 230.64 620.48 231.26H616.08V233.36H619.04L617.32 233.88C617.66 234.74 618.02 235.92 618.14 236.74H615.34V238.86H627.82V236.74H624.76ZM635.16 232.28C634.36 231.42 632.66 230.16 631.46 229.26L630 230.84C631.22 231.8 632.84 233.2 633.58 234.08L635.16 232.28ZM636.74 236.62C636.74 238.9 636.66 241.18 636.04 243.28C635.76 242.8 635.4 242 635.22 241.42L633.78 242.66V235.2H629.18V237.48H631.5V243.78C631.5 244.86 630.96 245.6 630.52 245.96C630.9 246.3 631.52 247.14 631.74 247.62C632.08 247.12 632.66 246.5 635.94 243.62C635.62 244.58 635.22 245.52 634.62 246.4C635.3 246.64 636.4 247.28 636.96 247.7C638.9 244.48 639.12 240.46 639.12 236.62V229.7H636.74V236.62ZM640.84 245.06H643.04V230.72H640.84V245.06ZM644.82 229.56V247.5H647.2V229.56H644.82ZM652.12 231.36H650V241.08H652.12V231.36ZM653.3 237.02C653.3 240.46 652.98 243.74 650.2 246.12C650.76 246.46 651.6 247.2 652 247.68C655.1 244.94 655.48 241.02 655.48 237.04V229.12H653.3V237.02ZM667.56 232.14V229.98H656.16V232.14H660.66V233.92H656.7V244.84H658.84V236.06H660.66V247.7H662.88V236.06H664.88V242.5C664.88 242.72 664.82 242.78 664.62 242.78C664.44 242.78 663.88 242.78 663.34 242.76C663.62 243.32 663.88 244.18 663.96 244.8C665 244.8 665.76 244.76 666.32 244.42C666.92 244.06 667.08 243.5 667.08 242.56V233.92H662.88V232.14H667.56Z" fill="white"/>
<path d="M1017.82 166H1027.12V163.52H1020.78V159.56H1025.98V157.08H1020.78V153.66H1026.9V151.18H1017.82V166ZM1033.78 166.28C1036.6 166.28 1038.98 164.74 1038.98 162.1C1038.98 160.2 1037.7 158.98 1036.04 158.54V158.44C1037.58 157.82 1038.5 156.74 1038.5 155.18C1038.5 152.7 1036.56 151.3 1033.7 151.3C1031.96 151.3 1030.54 152.02 1029.26 153.14L1030.76 154.94C1031.64 154.12 1032.5 153.62 1033.56 153.62C1034.82 153.62 1035.54 154.28 1035.54 155.4C1035.54 156.64 1034.66 157.54 1031.94 157.54V159.66C1035.16 159.66 1036.02 160.52 1036.02 161.92C1036.02 163.16 1035 163.88 1033.5 163.88C1032.16 163.88 1031.08 163.22 1030.2 162.36L1028.82 164.22C1029.86 165.4 1031.44 166.28 1033.78 166.28ZM1061.29 152.66C1060.97 154.52 1060.29 156.98 1059.69 158.56L1061.83 159.18C1062.49 157.7 1063.27 155.4 1063.89 153.3L1061.29 152.66ZM1053.47 159.46C1054.17 157.78 1054.61 155.18 1054.71 153L1052.43 152.7C1052.27 154.68 1051.81 157.14 1051.15 158.54L1053.47 159.46ZM1049.71 149.04C1048.65 151.88 1046.85 154.7 1044.99 156.48C1045.41 157.1 1046.07 158.42 1046.29 159.02C1046.75 158.52 1047.23 157.98 1047.71 157.38V167.7H1050.19V153.58C1050.89 152.32 1051.47 151.04 1051.97 149.78L1049.71 149.04ZM1056.15 149.32C1056.11 157.86 1056.47 162.94 1050.51 165.74C1051.07 166.22 1051.83 167.14 1052.15 167.76C1054.99 166.38 1056.59 164.44 1057.49 161.96C1058.45 164.62 1059.97 166.52 1062.59 167.64C1062.93 166.96 1063.67 165.94 1064.19 165.46C1060.57 164.18 1059.15 161.02 1058.53 156.72C1058.71 154.52 1058.71 152.06 1058.73 149.32H1056.15ZM1081.15 149.9C1080.79 151.24 1080.07 153.04 1079.49 154.2L1081.43 154.98C1082.05 153.88 1082.85 152.26 1083.57 150.74L1081.15 149.9ZM1075.39 154.2C1075.15 153.08 1074.43 151.34 1073.71 150.06L1071.71 150.8C1072.39 152.16 1073.05 153.94 1073.25 155.06L1075.39 154.2ZM1069.73 149.1C1068.65 151.94 1066.81 154.78 1064.91 156.58C1065.31 157.14 1065.93 158.44 1066.15 159C1066.71 158.44 1067.27 157.82 1067.81 157.12V167.68H1070.07V153.68C1070.79 152.42 1071.41 151.1 1071.93 149.82L1069.73 149.1ZM1083.99 160.24H1078.65V157.54H1083.19V155.34H1078.65V149.32H1076.25V155.34H1071.79V157.54H1076.25V160.24H1070.99V162.44H1076.25V167.74H1078.65V162.44H1083.99V160.24Z" fill="white"/>
<path d="M746.42 152.9H749.18C748.92 154.94 748.5 156.68 747.84 158.2C747.18 156.68 746.66 154.98 746.32 153.16L746.42 152.9ZM752.82 152.9V150.7H747.12C747.42 149.64 747.68 148.54 747.86 147.42L745.5 147.06C745.06 149.88 744.26 152.58 743.02 154.52V154.02H740.74V150.52H743.58V148.24H734.42V150.52H738.42V160.82L737.14 161.06V152.92H735V161.44L733.96 161.62L734.38 164.04C736.94 163.46 740.48 162.7 743.76 161.94L743.56 159.76C742.62 159.96 741.68 160.16 740.74 160.36V156.26H743.02V156.08C743.46 156.46 743.88 156.88 744.12 157.16C744.36 156.86 744.6 156.52 744.82 156.18C745.26 157.8 745.78 159.26 746.46 160.58C745.46 161.88 744.12 162.92 742.38 163.68C742.82 164.18 743.52 165.24 743.72 165.78C745.4 164.96 746.72 163.92 747.8 162.68C748.76 163.92 749.92 164.96 751.38 165.72C751.72 165.08 752.46 164.16 753 163.68C751.48 162.98 750.24 161.92 749.26 160.6C750.4 158.52 751.12 155.98 751.58 152.9H752.82ZM758.06 151.2H772.62V149H765.88C765.62 148.3 765.26 147.5 764.9 146.82L762.5 147.44C762.7 147.92 762.94 148.46 763.12 149H755.64V155.12C755.64 157.9 755.52 161.84 754.06 164.52C754.64 164.72 755.72 165.44 756.16 165.88C757.8 162.92 758.06 158.22 758.06 155.1V151.2ZM761.4 151.38C760.86 153.4 759.6 155.86 758.06 157.32C758.38 157.88 758.86 158.98 759.04 159.56C759.38 159.24 759.74 158.9 760.08 158.5V165.7H762.32V155.24C762.88 154.18 763.36 153.1 763.74 152.02L761.4 151.38ZM763.42 158.18C764.12 159.38 764.94 160.98 765.32 162.02L767.32 161.08C766.9 160.08 766.08 158.58 765.34 157.4L763.42 158.18ZM772.64 154.34H770.76V151.7H768.38V154.34H763.16V156.52H768.38V163.06C768.38 163.34 768.26 163.42 767.94 163.44C767.62 163.44 766.5 163.44 765.5 163.4C765.82 164.06 766.14 165.06 766.24 165.74C767.8 165.74 768.94 165.7 769.72 165.32C770.52 164.94 770.76 164.32 770.76 163.08V156.52H772.64V154.34ZM782.52 157.94C782.12 157.44 780.4 155.36 779.68 154.62V153.4H782.28V151.16H779.68V147.06H777.4V151.16H774.46V153.4H777.1C776.46 155.8 775.28 158.5 773.96 160.08C774.34 160.68 774.86 161.64 775.08 162.32C775.96 161.2 776.74 159.54 777.4 157.74V165.72H779.68V157.4C780.24 158.28 780.82 159.22 781.14 159.86L782.52 157.94ZM790.7 163.34C790.6 163.34 790.52 163.3 790.48 163.22C790.44 163.14 790.42 162.86 790.42 162.34V148.2H783.26V154.64C783.26 157.64 783.02 161.54 780.38 164.18C780.9 164.48 781.84 165.26 782.22 165.7C785.1 162.82 785.56 158.02 785.56 154.66V150.46H788.06V162.4C788.06 164.12 788.22 164.6 788.6 164.98C788.94 165.34 789.5 165.52 790 165.52H791.1C791.54 165.52 792.02 165.42 792.34 165.16C792.66 164.92 792.86 164.54 792.98 163.94C793.1 163.36 793.18 161.94 793.2 160.88C792.62 160.68 791.96 160.32 791.5 159.92C791.5 161.1 791.46 162.08 791.44 162.52C791.4 162.92 791.38 163.12 791.3 163.22C791.24 163.3 791.14 163.34 791.04 163.34H790.7ZM809.2 160.92C808.88 159.72 808.08 157.76 807.42 156.32L805.66 156.94C805.9 157.46 806.14 158.06 806.34 158.66L804.18 159.04C805 157.5 805.82 155.72 806.36 154L804.12 153.36C803.62 155.54 802.58 157.9 802.24 158.52C801.92 159.16 801.6 159.54 801.24 159.64C801.48 160.22 801.86 161.28 801.96 161.68C802.4 161.44 803.1 161.22 806.98 160.44C807.12 160.9 807.24 161.32 807.32 161.66L809.2 160.92ZM805.02 150.22C805.34 149.36 805.64 148.48 805.88 147.58L803.56 147.06C803.06 149.14 802.24 151.22 801.18 152.8V150.78H799.28V147.06H796.96V150.78H794.34V152.98H796.82C796.24 155.4 795.16 158.2 793.96 159.76C794.34 160.38 794.86 161.48 795.08 162.14C795.78 161.12 796.42 159.64 796.96 157.96V165.74H799.28V156.62C799.7 157.48 800.12 158.36 800.32 158.96L801.76 157.32C801.42 156.72 799.86 154.38 799.28 153.68V152.98H801.06C800.82 153.34 800.56 153.66 800.3 153.96C800.86 154.28 801.82 155.04 802.24 155.46C802.86 154.62 803.5 153.56 804.08 152.42H810.02C809.82 159.58 809.52 162.46 809 163.08C808.8 163.36 808.6 163.44 808.24 163.44C807.78 163.44 806.86 163.44 805.86 163.34C806.28 164.02 806.56 165.04 806.6 165.7C807.64 165.74 808.7 165.76 809.36 165.62C810.1 165.5 810.62 165.26 811.14 164.54C811.88 163.52 812.12 160.34 812.4 151.34C812.4 151.04 812.42 150.22 812.42 150.22H805.02Z" fill="white"/>
<path d="M877.384 67.88V65.42H869.524C869.724 63.56 869.744 61.72 869.764 60.08H867.164C867.144 61.72 867.164 63.54 866.964 65.42H859.684V67.88H866.564C865.784 71.32 863.884 74.64 859.304 76.68C860.004 77.18 860.704 78.04 861.084 78.7C865.324 76.66 867.484 73.54 868.564 70.2C870.124 74.06 872.444 76.98 876.064 78.68C876.444 78 877.224 76.94 877.824 76.44C874.084 74.92 871.664 71.78 870.344 67.88H877.384ZM882.124 65.32H894.884V67.6H897.224V63.22H894.304C894.864 62.5 895.464 61.72 896.004 60.94L893.524 60.2C893.124 61.1 892.444 62.28 891.804 63.22H889.204L890.384 62.76C890.124 61.96 889.464 60.74 888.804 59.88L886.704 60.66C887.204 61.44 887.724 62.42 888.004 63.22H884.644L885.404 62.86C885.064 62.1 884.264 61.02 883.564 60.24L881.544 61.14C882.024 61.76 882.584 62.54 882.944 63.22H879.884V67.6H882.124V65.32ZM897.444 71.32H889.684V70.94C891.384 70.12 893.004 69.04 894.224 67.92L892.704 66.74L892.224 66.86H883.204V68.92H889.504C888.784 69.36 888.004 69.78 887.244 70.08V71.32H879.624V73.52H887.244V76.02C887.244 76.28 887.144 76.38 886.724 76.38C886.324 76.4 884.844 76.4 883.564 76.34C883.944 76.96 884.384 77.96 884.544 78.64C886.244 78.64 887.504 78.62 888.464 78.26C889.384 77.92 889.684 77.32 889.684 76.08V73.52H897.444V71.32ZM903.315 80.64H905.275L910.235 60.88H908.295L903.315 80.64ZM917.14 77H920.1V62.18H917.14V77ZM923.742 77H926.702V70.6H932.302V77H935.242V62.18H932.302V68.02H926.702V62.18H923.742V77ZM938.879 77H947.859V74.52H941.839V62.18H938.879V77ZM954.256 77.28C957.676 77.28 959.696 75.22 959.696 72.8C959.696 70.66 958.516 69.52 956.716 68.78L954.776 67.96C953.516 67.46 952.476 67.08 952.476 66.02C952.476 65.04 953.296 64.46 954.596 64.46C955.816 64.46 956.796 64.9 957.736 65.68L959.236 63.82C958.036 62.6 956.316 61.92 954.596 61.92C951.596 61.92 949.476 63.78 949.476 66.2C949.476 68.36 950.976 69.56 952.476 70.18L954.456 71.02C955.776 71.58 956.676 71.92 956.676 73.02C956.676 74.06 955.856 74.72 954.316 74.72C953.016 74.72 951.616 74.06 950.556 73.08L948.856 75.12C950.296 76.5 952.276 77.28 954.256 77.28Z" fill="white"/>
<path d="M600.48 64.9C600.5 64.24 600.5 63.62 600.5 63.02V62.48H602.46V64.9H600.48ZM602.46 57.96V60.28H600.5V57.96H602.46ZM604.66 55.76H598.36V63.02C598.36 65.94 598.28 69.96 597.04 72.68C597.56 72.86 598.54 73.42 598.96 73.76C599.78 71.94 600.18 69.48 600.36 67.14H602.46V71.1C602.46 71.38 602.36 71.46 602.12 71.46C601.88 71.46 601.14 71.48 600.42 71.44C600.72 72.04 601 73.12 601.06 73.74C602.36 73.74 603.22 73.68 603.84 73.3C604.5 72.88 604.66 72.24 604.66 71.14V55.76ZM608.02 64.86H608.14C608.74 66.68 609.48 68.36 610.46 69.82C609.72 70.66 608.92 71.36 608.02 71.86V64.86ZM613 64.86C612.68 65.98 612.24 67.04 611.7 67.98C611.08 67.02 610.56 65.96 610.16 64.86H613ZM614.16 62.64L613.8 62.72H608.02V57.98H612.68V59.58C612.68 59.82 612.58 59.88 612.26 59.9C611.94 59.92 610.76 59.92 609.76 59.86C610.04 60.44 610.36 61.24 610.46 61.86C611.98 61.86 613.12 61.86 613.9 61.56C614.74 61.24 614.96 60.68 614.96 59.64V55.78H605.76V73.76H608.02V72.12C608.46 72.56 608.96 73.26 609.2 73.72C610.18 73.14 611.06 72.42 611.82 71.58C612.66 72.44 613.62 73.18 614.66 73.76C615 73.18 615.66 72.34 616.14 71.9C615.04 71.42 614.04 70.68 613.18 69.8C614.3 68 615.12 65.8 615.58 63.1L614.16 62.64ZM626.98 66.14C627.12 65.66 627.22 65.18 627.32 64.64L624.86 64.44C624.78 65.06 624.66 65.6 624.54 66.14H618.88V68.16H623.66C622.5 70.06 620.48 71.14 617.56 71.74C618 72.2 618.7 73.2 618.94 73.7C622.56 72.7 624.92 71.08 626.28 68.16H631.62C631.32 70.04 630.94 71.02 630.54 71.34C630.28 71.54 630 71.56 629.58 71.56C628.98 71.56 627.54 71.54 626.24 71.42C626.64 71.98 626.94 72.84 626.98 73.46C628.3 73.52 629.58 73.52 630.32 73.48C631.22 73.44 631.86 73.28 632.44 72.74C633.18 72.1 633.68 70.5 634.12 67.1C634.18 66.78 634.24 66.14 634.24 66.14H626.98ZM623.34 58.94H630.6C629.5 59.82 628.1 60.52 626.5 61.12C625.12 60.58 624.02 59.9 623.2 59.06L623.34 58.94ZM632.98 56.86L632.64 56.96H625.16C625.52 56.5 625.84 56.02 626.14 55.54L623.72 55.04C622.7 56.74 620.84 58.54 618.02 59.82C618.46 60.2 619.12 61.1 619.4 61.66C620.24 61.24 620.98 60.76 621.66 60.28C622.3 60.92 622.98 61.48 623.76 61.94C621.76 62.46 619.58 62.8 617.4 62.98C617.76 63.52 618.16 64.46 618.32 65.06C621.14 64.72 623.96 64.16 626.52 63.28C628.78 64.12 631.5 64.6 634.56 64.82C634.86 64.2 635.4 63.26 635.88 62.74C633.56 62.64 631.4 62.4 629.5 61.98C631.56 60.92 633.28 59.56 634.48 57.82L632.98 56.86ZM641.4 55.1C640.4 57.96 638.64 60.78 636.84 62.58C637.26 63.16 637.9 64.46 638.12 65.06C638.54 64.6 638.96 64.12 639.38 63.58V73.72H641.72V59.96C642.44 58.6 643.1 57.18 643.62 55.8L641.4 55.1ZM646.06 68.36C645.24 69.78 643.84 71.24 642.44 72.18C642.96 72.5 643.86 73.24 644.3 73.68C645.68 72.54 647.28 70.78 648.28 69.04L646.06 68.36ZM650.42 69.38C651.68 70.68 653.08 72.52 653.72 73.72L655.72 72.46C655 71.3 653.62 69.6 652.32 68.34L650.42 69.38ZM647.84 61.24H650.74V65.22H647.84V61.24ZM653.06 65.22V61.24H655.66V58.96H653.06V55.2H650.74V58.96H647.84V55.22H645.52V58.96H643.34V61.24H645.52V65.22H642.84V67.54H655.82V65.22H653.06ZM661.14 59.62H675.5V57.36H669.04C668.76 56.56 668.36 55.6 668 54.82L665.6 55.38C665.86 55.98 666.14 56.68 666.36 57.36H658.72V62.74C658.72 65.62 658.6 69.74 657.1 72.56C657.68 72.8 658.76 73.52 659.2 73.94C660.86 70.84 661.14 65.94 661.14 62.74V59.62ZM669.56 67.22C669.24 65.32 668.5 62.62 667.82 60.42L665.66 60.98C666.28 63.14 667.02 66 667.26 67.84L669.56 67.22ZM661.7 62.22C662.5 64.38 663.44 67.26 663.82 69.12L666.06 68.18C665.6 66.32 664.66 63.58 663.8 61.4L661.7 62.22ZM670.76 70.72C672.52 67.8 673.98 64.36 674.92 61.18L672.36 60.34C671.64 63.72 670.18 67.74 668.24 70.72H660.84V72.96H675.72V70.72H670.76ZM633.68 90.4L635.1 89.9C634.88 89.4 634.46 88.62 634.12 87.98H639.02C638.78 88.72 638.36 89.64 637.96 90.4H633.68ZM642.3 94.7C641.46 94.02 640.14 93.08 639.08 92.32H642.3V94.7ZM633.42 95.4C634.38 94.68 635.36 93.86 636.06 93.1L634.48 92.32H638.4L637.34 93.4C638.1 94 639.1 94.72 639.9 95.4H633.42ZM638.42 98.64H634.54V97.04H638.42V98.64ZM645.42 85.98H638.32C638.06 85.34 637.72 84.58 637.4 83.96L635 84.54C635.2 84.98 635.42 85.48 635.6 85.98H627.64V87.98H633.1L631.76 88.4C632.06 89.02 632.44 89.8 632.68 90.4H628.58V102.68H630.86V92.32H634.42C633.52 93.12 632.06 93.98 630.92 94.56C631.2 95.02 631.68 96.14 631.8 96.5C632.04 96.36 632.3 96.2 632.56 96.02V101.1H634.54V100.26H640.32V95.74C640.64 96 640.9 96.26 641.12 96.46L642.3 95.16V100.5C642.3 100.8 642.18 100.9 641.86 100.9C641.56 100.92 640.42 100.92 639.44 100.88C639.72 101.36 640 102.1 640.1 102.62C641.7 102.62 642.78 102.6 643.5 102.32C644.24 102.04 644.5 101.58 644.5 100.52V90.4H640.36C640.76 89.8 641.2 89.1 641.6 88.4L639.54 87.98H645.42V85.98Z" fill="white"/>
<path d="M314.5 231.72H309.42V234.04H314.5V236.32H309.64V238.58H314.5V241.04H308.96V243.36H314.5V247.72H316.98V229.12H314.5V231.72ZM327.28 240.94H321.72V238.6H326.48V236.32H321.72V234.04H326.92V231.72H321.72V229.16H319.2V247.76H321.72V243.26H327.28V240.94ZM340.92 234.9H343.68C343.42 236.94 343 238.68 342.34 240.2C341.68 238.68 341.16 236.98 340.82 235.16L340.92 234.9ZM347.32 234.9V232.7H341.62C341.92 231.64 342.18 230.54 342.36 229.42L340 229.06C339.56 231.88 338.76 234.58 337.52 236.52V236.02H335.24V232.52H338.08V230.24H328.92V232.52H332.92V242.82L331.64 243.06V234.92H329.5V243.44L328.46 243.62L328.88 246.04C331.44 245.46 334.98 244.7 338.26 243.94L338.06 241.76C337.12 241.96 336.18 242.16 335.24 242.36V238.26H337.52V238.08C337.96 238.46 338.38 238.88 338.62 239.16C338.86 238.86 339.1 238.52 339.32 238.18C339.76 239.8 340.28 241.26 340.96 242.58C339.96 243.88 338.62 244.92 336.88 245.68C337.32 246.18 338.02 247.24 338.22 247.78C339.9 246.96 341.22 245.92 342.3 244.68C343.26 245.92 344.42 246.96 345.88 247.72C346.22 247.08 346.96 246.16 347.5 245.68C345.98 244.98 344.74 243.92 343.76 242.6C344.9 240.52 345.62 237.98 346.08 234.9H347.32ZM352.56 233.2H367.12V231H360.38C360.12 230.3 359.76 229.5 359.4 228.82L357 229.44C357.2 229.92 357.44 230.46 357.62 231H350.14V237.12C350.14 239.9 350.02 243.84 348.56 246.52C349.14 246.72 350.22 247.44 350.66 247.88C352.3 244.92 352.56 240.22 352.56 237.1V233.2ZM355.9 233.38C355.36 235.4 354.1 237.86 352.56 239.32C352.88 239.88 353.36 240.98 353.54 241.56C353.88 241.24 354.24 240.9 354.58 240.5V247.7H356.82V237.24C357.38 236.18 357.86 235.1 358.24 234.02L355.9 233.38ZM357.92 240.18C358.62 241.38 359.44 242.98 359.82 244.02L361.82 243.08C361.4 242.08 360.58 240.58 359.84 239.4L357.92 240.18ZM367.14 236.34H365.26V233.7H362.88V236.34H357.66V238.52H362.88V245.06C362.88 245.34 362.76 245.42 362.44 245.44C362.12 245.44 361 245.44 360 245.4C360.32 246.06 360.64 247.06 360.74 247.74C362.3 247.74 363.44 247.7 364.22 247.32C365.02 246.94 365.26 246.32 365.26 245.08V238.52H367.14V236.34ZM377.02 239.94C376.62 239.44 374.9 237.36 374.18 236.62V235.4H376.78V233.16H374.18V229.06H371.9V233.16H368.96V235.4H371.6C370.96 237.8 369.78 240.5 368.46 242.08C368.84 242.68 369.36 243.64 369.58 244.32C370.46 243.2 371.24 241.54 371.9 239.74V247.72H374.18V239.4C374.74 240.28 375.32 241.22 375.64 241.86L377.02 239.94ZM385.2 245.34C385.1 245.34 385.02 245.3 384.98 245.22C384.94 245.14 384.92 244.86 384.92 244.34V230.2H377.76V236.64C377.76 239.64 377.52 243.54 374.88 246.18C375.4 246.48 376.34 247.26 376.72 247.7C379.6 244.82 380.06 240.02 380.06 236.66V232.46H382.56V244.4C382.56 246.12 382.72 246.6 383.1 246.98C383.44 247.34 384 247.52 384.5 247.52H385.6C386.04 247.52 386.52 247.42 386.84 247.16C387.16 246.92 387.36 246.54 387.48 245.94C387.6 245.36 387.68 243.94 387.7 242.88C387.12 242.68 386.46 242.32 386 241.92C386 243.1 385.96 244.08 385.94 244.52C385.9 244.92 385.88 245.12 385.8 245.22C385.74 245.3 385.64 245.34 385.54 245.34H385.2ZM403.7 242.92C403.38 241.72 402.58 239.76 401.92 238.32L400.16 238.94C400.4 239.46 400.64 240.06 400.84 240.66L398.68 241.04C399.5 239.5 400.32 237.72 400.86 236L398.62 235.36C398.12 237.54 397.08 239.9 396.74 240.52C396.42 241.16 396.1 241.54 395.74 241.64C395.98 242.22 396.36 243.28 396.46 243.68C396.9 243.44 397.6 243.22 401.48 242.44C401.62 242.9 401.74 243.32 401.82 243.66L403.7 242.92ZM399.52 232.22C399.84 231.36 400.14 230.48 400.38 229.58L398.06 229.06C397.56 231.14 396.74 233.22 395.68 234.8V232.78H393.78V229.06H391.46V232.78H388.84V234.98H391.32C390.74 237.4 389.66 240.2 388.46 241.76C388.84 242.38 389.36 243.48 389.58 244.14C390.28 243.12 390.92 241.64 391.46 239.96V247.74H393.78V238.62C394.2 239.48 394.62 240.36 394.82 240.96L396.26 239.32C395.92 238.72 394.36 236.38 393.78 235.68V234.98H395.56C395.32 235.34 395.06 235.66 394.8 235.96C395.36 236.28 396.32 237.04 396.74 237.46C397.36 236.62 398 235.56 398.58 234.42H404.52C404.32 241.58 404.02 244.46 403.5 245.08C403.3 245.36 403.1 245.44 402.74 245.44C402.28 245.44 401.36 245.44 400.36 245.34C400.78 246.02 401.06 247.04 401.1 247.7C402.14 247.74 403.2 247.76 403.86 247.62C404.6 247.5 405.12 247.26 405.64 246.54C406.38 245.52 406.62 242.34 406.9 233.34C406.9 233.04 406.92 232.22 406.92 232.22H399.52Z" fill="white"/>
<path d="M479.2 139.9C478.98 141.66 478.62 143.2 478.14 144.58C477.6 143.16 477.2 141.56 476.92 139.9H479.2ZM471.98 142.16L471.56 142.28H470.44C470.74 141.96 471.02 141.62 471.3 141.26H473.64C473.34 141.8 473.02 142.3 472.68 142.72L471.98 142.16ZM469.4 137.88H471C470.7 138.34 470.4 138.78 470.1 139.22H469.4V137.88ZM482.84 139.9V137.7H477.52C477.8 136.66 478.04 135.54 478.24 134.44L475.82 134.06C475.44 136.52 474.8 138.9 473.88 140.8V139.22H472.76C473.54 137.98 474.24 136.62 474.8 135.16L472.6 134.56C472.26 135.5 471.84 136.44 471.34 137.28V135.88H469.4V134.06H467.2V135.88H464.92V137.88H467.2V139.22H464.16V141.26H468.32C467.98 141.62 467.6 141.96 467.22 142.28H465.9V143.28C465.26 143.72 464.58 144.1 463.9 144.46C464.36 144.88 465.18 145.8 465.5 146.26C466.58 145.66 467.6 144.92 468.56 144.12H469.82C469.28 144.64 468.7 145.14 468.16 145.52V146.66C466.64 146.78 465.22 146.88 464.1 146.96L464.36 149.08C465.44 148.98 466.76 148.86 468.16 148.74V150.42C468.16 150.62 468.08 150.68 467.82 150.7C467.56 150.7 466.72 150.7 465.92 150.68C466.22 151.26 466.52 152.08 466.6 152.7C467.86 152.7 468.8 152.68 469.5 152.36C470.2 152.04 470.38 151.5 470.38 150.46V148.56C471.56 148.46 472.76 148.36 473.96 148.24V146.2C472.76 146.3 471.56 146.4 470.38 146.5V145.94C471.36 145.16 472.36 144.24 473.14 143.34C473.64 143.76 474.2 144.28 474.46 144.58C474.78 144.16 475.08 143.68 475.38 143.2C475.74 144.66 476.2 146.02 476.74 147.24C475.72 148.72 474.32 149.84 472.44 150.66C472.88 151.16 473.58 152.26 473.8 152.82C475.54 151.94 476.92 150.86 478.04 149.56C478.92 150.86 480.04 151.94 481.4 152.76C481.76 152.1 482.5 151.16 483.04 150.68C481.58 149.94 480.4 148.8 479.5 147.34C480.56 145.32 481.24 142.88 481.66 139.9H482.84ZM484.78 142.74C485.04 142.6 485.48 142.5 486.94 142.32C486.38 143.24 485.88 143.98 485.62 144.3C485.08 145 484.7 145.44 484.22 145.56C484.44 146.1 484.76 147 484.9 147.5L484.92 147.6L484.94 147.58V147.6V147.58C485.4 147.3 486.22 147.02 490.52 146.08C490.48 145.6 490.48 144.7 490.56 144.1L487.82 144.6C488.96 143.02 490.04 141.22 490.9 139.44L488.98 138.32C488.72 139 488.38 139.68 488.04 140.34L486.7 140.44C487.68 138.8 488.64 136.76 489.24 134.86L487.04 133.86C486.54 136.2 485.42 138.76 485.04 139.38C484.72 140.04 484.4 140.48 484 140.6C484.26 141.22 484.64 142.3 484.76 142.74C484.76 142.72 484.76 142.68 484.78 142.66V142.74ZM490.14 147.36C487.9 148.18 485.66 149 484.22 149.46L484.78 151.8C486.46 151.02 488.54 150.08 490.52 149.12L490.14 147.36ZM492.6 146.36C492.08 147.72 491 149.48 489.9 150.58C490.38 150.9 491.14 151.48 491.54 151.88C492.78 150.62 493.94 148.68 494.76 146.98L492.6 146.36ZM493.94 143.44C494.14 142.92 494.36 142.4 494.56 141.84H495.86V143.44H493.94ZM501.88 145.58V143.44H498.16V139.68H495.3C495.44 139.22 495.58 138.76 495.72 138.28H502.16V136.1H496.32C496.48 135.48 496.62 134.88 496.74 134.26L494.42 133.96C494.32 134.68 494.18 135.38 494.02 136.1H490.92V138.28H493.48C493.36 138.78 493.22 139.24 493.08 139.68H491.22V141.84H492.4L492.28 142.12C491.88 143.12 491.56 143.74 491.1 143.88C491.36 144.44 491.72 145.48 491.82 145.9C492 145.68 492.86 145.58 493.7 145.58H495.86V150.2C495.86 150.46 495.76 150.54 495.5 150.54C495.22 150.54 494.32 150.56 493.5 150.52C493.78 151.14 494.08 152.04 494.16 152.66C495.54 152.66 496.56 152.62 497.24 152.28C497.96 151.92 498.16 151.36 498.16 150.24V145.58H501.88ZM498.82 147.26C499.54 148.68 500.48 150.58 500.9 151.7L502.9 150.68C502.42 149.58 501.42 147.76 500.68 146.4L498.82 147.26ZM510.4 142.2H513.3V140H510.4V136.94C511.46 136.7 512.5 136.42 513.38 136.1L511.84 134.24C510.02 134.96 507.1 135.6 504.5 135.96C504.76 136.48 505.04 137.28 505.14 137.82C506.06 137.7 507.02 137.56 508 137.4V140H504.44V142.2H507.42C506.64 144.4 505.36 146.7 504 148.14C504.4 148.74 504.98 149.68 505.2 150.38C506.26 149.2 507.2 147.48 508 145.6V152.72H510.4V145.34C511.06 146.28 511.7 147.28 512.08 147.96L513.44 145.98C513 145.44 511.2 143.34 510.4 142.54V142.2ZM516.16 147.92V138.22H519.36V147.92H516.16ZM513.82 135.94V151.78H516.16V150.2H519.36V151.64H521.82V135.94H513.82ZM537.68 136.62V137.94H528.48V136.62H537.68ZM538.06 143.22C540.92 143.22 541.8 142.76 542.14 140.74C541.44 140.64 540.48 140.4 539.9 140.08C539.72 141.12 539.38 141.3 537.84 141.3H531.04C528.88 141.3 528.48 141.16 528.48 140.34V139.98H540.02V134.58H525.98V140.38C525.98 142.66 527.2 143.22 531.08 143.22H538.06ZM542.4 144.78H538.3V143.66H535.84V144.78H524.68V147H528.28L527.32 147.88C528.62 148.8 530.12 150.18 530.76 151.16L532.48 149.54C531.92 148.76 530.84 147.8 529.76 147H535.84V150.22C535.84 150.52 535.7 150.62 535.3 150.64C534.92 150.64 533.34 150.64 532.12 150.58C532.44 151.18 532.8 152.08 532.92 152.72C534.76 152.72 536.1 152.7 537.06 152.4C538 152.1 538.3 151.52 538.3 150.3V147H542.4V144.78ZM497.12 165.36H495V175.08H497.12V165.36ZM498.3 171.02C498.3 174.46 497.98 177.74 495.2 180.12C495.76 180.46 496.6 181.2 497 181.68C500.1 178.94 500.48 175.02 500.48 171.04V163.12H498.3V171.02ZM512.56 166.14V163.98H501.16V166.14H505.66V167.92H501.7V178.84H503.84V170.06H505.66V181.7H507.88V170.06H509.88V176.5C509.88 176.72 509.82 176.78 509.62 176.78C509.44 176.78 508.88 176.78 508.34 176.76C508.62 177.32 508.88 178.18 508.96 178.8C510 178.8 510.76 178.76 511.32 178.42C511.92 178.06 512.08 177.5 512.08 176.56V167.92H507.88V166.14H512.56Z" fill="white"/>
<path d="M189.68 140.4L191.1 139.9C190.88 139.4 190.46 138.62 190.12 137.98H195.02C194.78 138.72 194.36 139.64 193.96 140.4H189.68ZM198.3 144.7C197.46 144.02 196.14 143.08 195.08 142.32H198.3V144.7ZM189.42 145.4C190.38 144.68 191.36 143.86 192.06 143.1L190.48 142.32H194.4L193.34 143.4C194.1 144 195.1 144.72 195.9 145.4H189.42ZM194.42 148.64H190.54V147.04H194.42V148.64ZM201.42 135.98H194.32C194.06 135.34 193.72 134.58 193.4 133.96L191 134.54C191.2 134.98 191.42 135.48 191.6 135.98H183.64V137.98H189.1L187.76 138.4C188.06 139.02 188.44 139.8 188.68 140.4H184.58V152.68H186.86V142.32H190.42C189.52 143.12 188.06 143.98 186.92 144.56C187.2 145.02 187.68 146.14 187.8 146.5C188.04 146.36 188.3 146.2 188.56 146.02V151.1H190.54V150.26H196.32V145.74C196.64 146 196.9 146.26 197.12 146.46L198.3 145.16V150.5C198.3 150.8 198.18 150.9 197.86 150.9C197.56 150.92 196.42 150.92 195.44 150.88C195.72 151.36 196 152.1 196.1 152.62C197.7 152.62 198.78 152.6 199.5 152.32C200.24 152.04 200.5 151.58 200.5 150.52V140.4H196.36C196.76 139.8 197.2 139.1 197.6 138.4L195.54 137.98H201.42V135.98ZM208.6 145.64C208.1 143.74 206.94 140.6 206 138.26L203.82 138.9C204.74 141.36 205.8 144.56 206.22 146.48L208.6 145.64ZM216.28 149.44V145.68L218.1 146.6C219.14 144.68 220.4 141.86 221.28 139.34L219.14 138.32C218.48 140.6 217.28 143.44 216.28 145.34V134.32H213.82V149.44H211.2V134.32H208.74V149.44H203.58V151.82H221.46V149.44H216.28ZM236.6 146.48V149.64H228.68V146.48H236.6ZM226.24 152.72H228.68V151.84H236.6V152.64H239.14V144.38H226.24V152.72ZM229.38 140.48C230.56 139.62 231.66 138.68 232.68 137.62C233.86 138.78 235.02 139.7 236.16 140.48H229.38ZM232.68 133.96C230.58 137.08 226.8 139.5 223.12 140.96C223.78 141.56 224.48 142.46 224.86 143.14C225.76 142.72 226.66 142.22 227.54 141.68V142.66H237.54V141.36C238.48 141.9 239.46 142.38 240.42 142.84C240.74 142.1 241.44 141.22 242.06 140.66C239.36 139.68 236.7 138.32 234.14 135.94C234.36 135.66 234.58 135.36 234.8 135.06L232.68 133.96ZM247.54 134.14C246.54 136.98 244.8 139.82 242.98 141.62C243.4 142.22 244.08 143.58 244.3 144.16C244.7 143.72 245.12 143.22 245.54 142.72V152.72H247.94V139.02C248.68 137.68 249.34 136.26 249.86 134.86L247.54 134.14ZM261.88 139.58V137.32H254.12C254.5 136.5 254.82 135.68 255.1 134.84L252.8 134.26C251.9 137.12 250.32 140 248.56 141.8C249.06 142.18 250 143.02 250.38 143.46C251.28 142.42 252.2 141.06 253 139.58H253.76V152.74H256.2V148.3H261.64V146.1H256.2V143.84H261.38V141.68H256.2V139.58H261.88ZM219.18 166.66C218.86 168.52 218.18 170.98 217.58 172.56L219.72 173.18C220.38 171.7 221.16 169.4 221.78 167.3L219.18 166.66ZM211.36 173.46C212.06 171.78 212.5 169.18 212.6 167L210.32 166.7C210.16 168.68 209.7 171.14 209.04 172.54L211.36 173.46ZM207.6 163.04C206.54 165.88 204.74 168.7 202.88 170.48C203.3 171.1 203.96 172.42 204.18 173.02C204.64 172.52 205.12 171.98 205.6 171.38V181.7H208.08V167.58C208.78 166.32 209.36 165.04 209.86 163.78L207.6 163.04ZM214.04 163.32C214 171.86 214.36 176.94 208.4 179.74C208.96 180.22 209.72 181.14 210.04 181.76C212.88 180.38 214.48 178.44 215.38 175.96C216.34 178.62 217.86 180.52 220.48 181.64C220.82 180.96 221.56 179.94 222.08 179.46C218.46 178.18 217.04 175.02 216.42 170.72C216.6 168.52 216.6 166.06 216.62 163.32H214.04ZM239.04 163.9C238.68 165.24 237.96 167.04 237.38 168.2L239.32 168.98C239.94 167.88 240.74 166.26 241.46 164.74L239.04 163.9ZM233.28 168.2C233.04 167.08 232.32 165.34 231.6 164.06L229.6 164.8C230.28 166.16 230.94 167.94 231.14 169.06L233.28 168.2ZM227.62 163.1C226.54 165.94 224.7 168.78 222.8 170.58C223.2 171.14 223.82 172.44 224.04 173C224.6 172.44 225.16 171.82 225.7 171.12V181.68H227.96V167.68C228.68 166.42 229.3 165.1 229.82 163.82L227.62 163.1ZM241.88 174.24H236.54V171.54H241.08V169.34H236.54V163.32H234.14V169.34H229.68V171.54H234.14V174.24H228.88V176.44H234.14V181.74H236.54V176.44H241.88V174.24Z" fill="white"/>
<path d="M47.18 233.16C46.76 234.48 46.24 235.78 45.58 237.06C44.72 235.92 43.86 234.84 43.04 233.84L41.12 234.86C42.16 236.18 43.3 237.68 44.34 239.2C43.18 241 41.82 242.54 40.36 243.62C40.9 244.04 41.68 244.88 42.06 245.44C43.42 244.32 44.64 242.9 45.74 241.26C46.62 242.64 47.38 243.94 47.86 244.98L50.02 243.76C49.36 242.4 48.28 240.74 47.04 239.04C47.92 237.4 48.68 235.6 49.26 233.76L47.18 233.16ZM38.44 229.74V235.34C38.44 238.54 38.26 243.14 36.1 246.24C36.64 246.5 37.68 247.36 38.08 247.84C40.5 244.44 40.92 238.88 40.92 235.34V232.02H49.98C49.96 242.42 50.04 247.54 53.12 247.54C54.46 247.54 54.92 246.48 55.14 243.9C54.7 243.48 54.1 242.64 53.7 242.04C53.66 243.62 53.54 245.02 53.32 245.02C52.22 245.02 52.24 239.74 52.36 229.74H38.44ZM65.72 235.16C66.7 234.2 67.6 233.14 68.42 232C69.34 233.08 70.48 234.18 71.64 235.16H65.72ZM64.9 237.16H71.98V235.44C72.68 236.02 73.38 236.52 74.08 236.96C74.3 236.34 74.8 235.26 75.2 234.68C73.24 233.68 70.96 231.84 69.6 230.2C69.72 230 69.84 229.8 69.94 229.6L67.9 228.84C66.58 231.34 64.28 233.74 62 235.22C62.4 235.68 63.12 236.68 63.38 237.16C63.9 236.78 64.38 236.36 64.9 235.94V237.16ZM70.2 242.88C70.06 241.62 69.72 239.72 69.34 238.2L67.52 238.46C67.84 239.96 68.18 241.92 68.28 243.18L70.2 242.88ZM66.78 243.3C66.6 242.04 66.1 240.1 65.6 238.58L63.78 239.06C64.24 240.56 64.68 242.54 64.84 243.86L66.78 243.3ZM61.7 229.76L61.36 229.84H56.9V247.7H58.98V231.96H60.62C60.3 233.28 59.9 234.9 59.5 236.14C60.62 237.52 60.88 238.82 60.88 239.78C60.88 240.34 60.76 240.8 60.52 240.98C60.4 241.08 60.2 241.12 59.98 241.12C59.76 241.14 59.48 241.14 59.14 241.1C59.46 241.7 59.64 242.58 59.66 243.16C60.12 243.16 60.58 243.16 60.94 243.1C61.38 243.04 61.76 242.9 62.06 242.66C62.7 242.18 62.96 241.32 62.96 240.04C62.96 238.86 62.72 237.46 61.52 235.88C62.08 234.32 62.72 232.32 63.24 230.62L61.7 229.76ZM72.14 238.2C71.54 240.22 70.44 243.02 69.46 244.86H63V246.94H74.56V244.86H71.42C72.34 243.1 73.38 240.72 74.18 238.66L72.14 238.2ZM86.98 231.92L89.56 231.9V234.02C89.56 236.02 89.98 236.86 91.94 236.86H93.28C93.74 236.86 94.24 236.84 94.54 236.7C94.46 236.16 94.4 235.34 94.36 234.74C94.08 234.82 93.58 234.88 93.24 234.88H92.18C91.86 234.88 91.82 234.64 91.82 234.06V229.7H84.78V231.84C84.78 233.22 84.48 234.66 82.12 235.74C82.56 236.06 83.42 237 83.7 237.44C86.4 236.14 86.98 233.92 86.98 231.92ZM82.8 239.82L82.5 237.64L81.04 238V235.06H83.14V232.86H81.04V229.06H78.7V232.86H76.32V235.06H78.7V238.58C77.72 238.8 76.82 239 76.06 239.16L76.68 241.44L78.7 240.92V245.06C78.7 245.34 78.6 245.44 78.32 245.44C78.06 245.44 77.24 245.44 76.44 245.42C76.74 246.02 77.04 246.96 77.12 247.58C78.52 247.58 79.48 247.52 80.14 247.14C80.82 246.8 81.04 246.22 81.04 245.06V240.3L82.8 239.82ZM90.56 239.92C89.96 241 89.18 241.94 88.24 242.72C87.22 241.92 86.4 240.98 85.8 239.92H90.56ZM92.16 237.6L91.74 237.7H83.06V239.92H84.2L83.46 240.18C84.2 241.66 85.14 242.94 86.24 244.04C84.88 244.74 83.32 245.26 81.62 245.56C82.02 246.1 82.54 247.08 82.76 247.74C84.78 247.26 86.6 246.56 88.22 245.6C89.68 246.56 91.4 247.28 93.38 247.76C93.7 247.1 94.38 246.1 94.88 245.56C93.14 245.24 91.6 244.72 90.26 244.04C91.8 242.58 92.96 240.7 93.7 238.26L92.16 237.6ZM102.24 231.6C101.32 230.92 99.5 230.06 98.16 229.58L96.98 231.18C98.34 231.72 100.12 232.7 101 233.38L102.24 231.6ZM102.26 233.86C100.12 234.58 97.9 235.3 96.4 235.7L97.12 237.88C98.76 237.32 100.78 236.6 102.66 235.9L102.26 233.86ZM112.48 243.78V238.52H98.8V244H101.14V240.68H110V243.78H112.48ZM104.4 241.2C103.8 243.66 102.54 245.1 96.2 245.78C96.6 246.28 97.1 247.24 97.26 247.78C104.28 246.8 106.02 244.68 106.72 241.2H104.4ZM105.62 245C108 245.68 111.3 246.9 112.92 247.66L114.4 245.78C112.64 245 109.28 243.9 107 243.32L105.62 245ZM111.42 232.52C111.24 233.06 111.04 233.56 110.88 233.96L112.96 234.5C113.42 233.6 113.94 232.28 114.36 231.1L112.62 230.68L112.22 230.78H106.54C106.7 230.38 106.88 229.96 107.02 229.56L104.78 229.22C104.34 230.64 103.4 232.22 101.84 233.4C102.34 233.66 103.12 234.38 103.48 234.88C104.36 234.16 105.02 233.38 105.58 232.52H107.14C106.6 234.28 105.48 235.86 102.16 236.78C102.6 237.18 103.16 237.98 103.4 238.5C106.02 237.66 107.54 236.46 108.48 235C109.6 236.56 111.24 237.68 113.26 238.3C113.54 237.7 114.16 236.86 114.64 236.44C112.24 235.94 110.34 234.74 109.32 233.12C109.4 232.92 109.44 232.72 109.5 232.52H111.42ZM125.32 233.28H128.58C127.9 233.92 127.18 234.52 126.42 235.1H125.32V233.28ZM129.68 242.02H122.8V240.74H129.68V242.02ZM122.8 245.18V243.82H129.68V245.18H122.8ZM134.46 237.2V235.1H129.82C131.28 233.76 132.62 232.28 133.76 230.7L131.72 229.66C131.1 230.54 130.42 231.38 129.66 232.2V231.22H125.32V229.06H122.96V231.22H118.26V233.28H122.96V235.1H116.54V237.2H123.34C121.04 238.56 118.54 239.7 115.92 240.52C116.36 241 117.08 241.96 117.36 242.48C118.38 242.1 119.42 241.66 120.42 241.22V247.76H122.8V247.16H129.68V247.68H132.18V238.8H124.9C125.72 238.28 126.48 237.76 127.26 237.2H134.46Z" fill="white"/>
<defs>
<linearGradient id="paint0_linear" x1="-1.18399" y1="72.0003" x2="165.196" y2="72.0003" gradientUnits="userSpaceOnUse">
<stop offset="0.3281" stop-color="#DD45D3"/>
<stop offset="1" stop-color="#6A11EA"/>
</linearGradient>
<linearGradient id="paint1_linear" x1="-1.18399" y1="235" x2="165.196" y2="235" gradientUnits="userSpaceOnUse">
<stop offset="0.3281" stop-color="#DD45D3"/>
<stop offset="1" stop-color="#6A11EA"/>
</linearGradient>
<linearGradient id="paint2_linear" x1="134.721" y1="156" x2="303.29" y2="156" gradientUnits="userSpaceOnUse">
<stop offset="0.3281" stop-color="#DD45D3"/>
<stop offset="1" stop-color="#6A11EA"/>
</linearGradient>
<linearGradient id="paint3_linear" x1="274.816" y1="72.0003" x2="441.196" y2="72.0003" gradientUnits="userSpaceOnUse">
<stop offset="0.3281" stop-color="#DD45D3"/>
<stop offset="1" stop-color="#6A11EA"/>
</linearGradient>
<linearGradient id="paint4_linear" x1="274.816" y1="235" x2="441.196" y2="235" gradientUnits="userSpaceOnUse">
<stop offset="0.3281" stop-color="#DD45D3"/>
<stop offset="1" stop-color="#6A11EA"/>
</linearGradient>
<linearGradient id="paint5_linear" x1="418.721" y1="156" x2="587.29" y2="156" gradientUnits="userSpaceOnUse">
<stop offset="0.3281" stop-color="#DD45D3"/>
<stop offset="1" stop-color="#6A11EA"/>
</linearGradient>
<linearGradient id="paint6_linear" x1="550.721" y1="235" x2="719.29" y2="235" gradientUnits="userSpaceOnUse">
<stop offset="0.3281" stop-color="#DD45D3"/>
<stop offset="1" stop-color="#6A11EA"/>
</linearGradient>
<linearGradient id="paint7_linear" x1="825.721" y1="235" x2="994.29" y2="235" gradientUnits="userSpaceOnUse">
<stop offset="0.3281" stop-color="#DD45D3"/>
<stop offset="1" stop-color="#6A11EA"/>
</linearGradient>
<linearGradient id="paint8_linear" x1="825.721" y1="72.0003" x2="994.29" y2="72.0003" gradientUnits="userSpaceOnUse">
<stop offset="0.3281" stop-color="#DD45D3"/>
<stop offset="1" stop-color="#6A11EA"/>
</linearGradient>
<linearGradient id="paint9_linear" x1="964.674" y1="156" x2="1134.34" y2="156" gradientUnits="userSpaceOnUse">
<stop offset="0.3281" stop-color="#DD45D3"/>
<stop offset="1" stop-color="#6A11EA"/>
</linearGradient>
<linearGradient id="paint10_linear" x1="688.721" y1="156" x2="857.29" y2="156" gradientUnits="userSpaceOnUse">
<stop offset="0.3281" stop-color="#DD45D3"/>
<stop offset="1" stop-color="#6A11EA"/>
</linearGradient>
<linearGradient id="paint11_linear" x1="550.721" y1="72.0003" x2="719.29" y2="72.0003" gradientUnits="userSpaceOnUse">
<stop offset="0.3281" stop-color="#DD45D3"/>
<stop offset="1" stop-color="#6A11EA"/>
</linearGradient>
</defs>
</svg>
