<svg width="578" height="884" viewBox="0 0 578 884" fill="none" xmlns="http://www.w3.org/2000/svg">
<g clip-path="url(#clip0)">
<path d="M567.9 219.8L570 216.5C570 216.5 569.4 214.1 569.4 211.1C569.4 209.8 569.8 206.2 570.4 205.9C570.9 205.6 571.2 208.9 571.4 208.8C571.6 208.7 573.3 202.2 574.3 202.3C574.8 202.3 573.1 208.6 573.1 208.6C573.1 208.6 574.8 201.8 575.5 202C576.3 202.2 574.4 208.7 574.4 208.7C574.4 208.7 576 202.5 576.6 202.7C577.2 202.9 575.6 208.9 575.6 208.9C575.6 208.9 577.2 203.6 577.5 203.9C578 204.4 577.4 208 575.9 213.2C575.6 214.1 574.3 217.1 574.3 217.3C574.2 217.5 572.8 222.9 572.8 222.9" fill="#FC8975"/>
<path d="M571.6 209.4C572.2 210.4 572.8 211.4 573.1 212.5C573.4 213.8 573.1 215 572.7 216.2C572.7 216.3 572.8 216.3 572.8 216.3C574 213.7 573.2 211.7 571.7 209.4C571.7 209.3 571.6 209.4 571.6 209.4Z" fill="#CC6658"/>
<path d="M494.5 621.701C494.5 621.701 507 626.301 507.1 629.901C507.1 632.001 489 632.001 487.9 630.601C486.1 628.401 489.2 622.201 489.2 622.201L494.5 621.701Z" fill="#352E72"/>
<path d="M494.2 611.4L494.5 622C494.5 622 494.1 623.7 492.3 624C490.5 624.2 489.2 622.2 489.2 622.2L488.7 608.9" fill="#FC8975"/>
<path d="M502.7 375.001C502.7 375.001 509.5 416.201 506.1 495.301C503.8 549.301 496.5 614.601 493.8 614.701C491.1 614.801 488.7 614.401 488.7 614.401C488.7 614.401 471.7 536.101 470.5 492.001C468.7 424.101 450.8 408.501 458.6 373.301" fill="url(#paint0_linear)"/>
<path d="M495.6 610.4L495.1 615.1L487.6 615.3L487.3 610.6L495.6 610.4Z" fill="#75A1E9"/>
<path d="M456 622.701C456 622.701 468.5 627.301 468.6 630.901C468.6 633.001 450.5 633.001 449.4 631.601C447.6 629.401 450.7 623.201 450.7 623.201L456 622.701Z" fill="#352E72"/>
<path d="M455.7 612.4L456 623C456 623 455.6 624.7 453.8 625C452 625.2 450.7 623.2 450.7 623.2L450.2 609.9" fill="#FC8975"/>
<path d="M480.7 375.6C480.7 375.6 477.5 428 473.5 488.6C471.9 512.5 458.2 612.5 456.2 615.8C453.5 615.9 449.4 616 449.4 616C449.4 616 439.1 529.4 438 485.3C436.2 417.4 428.9 409.2 436.7 373.9" fill="url(#paint1_linear)"/>
<path d="M457.3 611.4L456.8 616.1L449.3 616.3L449 611.7L457.3 611.4Z" fill="#75A1E9"/>
<path d="M479.1 402.1C479.1 402.1 476.5 469.1 471.6 508.3" stroke="#4A578E" stroke-width="0.5" stroke-miterlimit="10"/>
<path d="M487.9 235.9C483.6 228.4 472.1 229.5 465.5 233C456.1 237.9 453.9 251.8 445.2 257.7C441.3 260.3 436.7 261.9 433.6 265.4C429.9 269.6 429.1 275.8 431 281.1C432.8 286.3 436.8 290.5 441.5 293.4C446.2 296.2 451.4 297.8 456.7 299C465.1 300.9 474.1 302 482.3 299.1C490.5 296.3 497.6 288.6 497.6 279.8C497.6 272.3 492.7 265.3 493.5 257.9" fill="#081466"/>
<path d="M568.6 217.201C568.6 217.201 546.3 249.301 541.1 256.601C533.1 267.901 500.5 270.101 483 280.501L470.9 281.801C465.1 283.001 445.3 297.101 443.4 302.801C439.2 315.801 434.9 329.001 434.1 342.601C433.8 347.201 434 351.901 434.1 356.501C434.3 363.201 434.5 369.901 434.8 376.601C434.8 377.001 434.8 377.501 435.1 377.901C435.4 378.301 435.9 378.401 436.3 378.501C458.2 383.601 481.1 380.801 503.4 378.101C504.2 378.001 505 377.901 505.6 377.301C506.3 376.601 506.4 375.601 506.4 374.601C506.5 370.301 506.3 366.001 506.1 361.701C505.4 343.101 506 324.501 508.1 306.001C515 301.701 543.6 292.701 553.2 279.301C574.6 249.401 574.6 218.601 574.6 218.601L568.6 217.201Z" fill="url(#paint2_linear)"/>
<path d="M483 280.501L482.6 265.201L475.8 266.101L470.9 281.701C470.9 281.701 473.1 284.901 478.2 284.201C482.5 283.601 483 280.501 483 280.501Z" fill="#FC8975"/>
<path d="M468.5 258.9C468.2 252.9 469.9 246.4 473.1 242.9C476.3 239.4 482.2 238.9 486.6 239.5C488.1 239.7 489.6 240.2 490.8 241.2C495.1 244.8 494.8 253.1 494.5 258.1C494.2 262.4 493 266.7 490.3 270.1C489.5 271.2 488.4 272.1 487.2 272.6C483.1 274.3 477.2 273.4 473.7 270.6C470.2 267.7 468.8 263.2 468.5 258.9Z" fill="#FC8975"/>
<path d="M466.6 263.7C465 264.4 462.5 265 461.3 263.2C460.3 261.8 461.2 259.7 461.5 258.2C462.6 253.4 464 248.6 465.7 243.9C466.6 241.5 467.5 239.1 469 237C471.9 233 480.3 231.1 485.2 231.5C490.6 231.1 499.2 239.9 494.5 250.2C493.8 247.7 492.8 247.9 491 245.8C489.2 247.6 486.8 248.5 484.3 248.8C481 249.1 477.3 248.4 474.9 250.6C472.4 252.9 473 257.1 471.2 260C470.1 261.8 468.3 262.9 466.6 263.7Z" fill="#081466"/>
<path d="M472.2 259.901C472.4 258.501 471.5 257.601 470.6 257.501C468.1 257.201 467.4 261.101 468.3 262.901C469 264.201 470.8 265.301 471.8 263.701" fill="#FC8975"/>
<path d="M476.3 269C475.7 268.9 475.1 268.9 474.5 268.7C473.1 268.4 471.2 267.5 469.8 265.7C469.3 265 469.1 264.4 469.1 263.7C469.1 263.5 469.2 263.4 469.4 263.4C469.6 263.4 469.7 263.5 469.7 263.7C469.7 264.2 469.9 264.7 470.3 265.3C471.5 267 473.3 267.8 474.6 268.1C476.3 268.5 478.2 268.5 479.8 268.4C480 268.4 480.1 268.5 480.1 268.7C480.1 268.9 480 269 479.8 269C478.8 269.1 477.6 269.1 476.3 269Z" fill="#081466"/>
<path d="M481.1 268.001C480.6 267.701 480 267.701 479.5 267.901C477.7 268.501 479.6 270.801 481.3 269.601C481.4 269.501 481.6 269.401 481.6 269.201C481.9 268.901 481.6 268.301 481.1 268.001Z" fill="url(#paint3_linear)"/>
<path d="M464.4 249.801C464.8 245.801 466.3 241.201 468.7 238.101C471.8 234.101 476.1 230.801 480.1 230.801C483.5 230.801 485.2 231.601 485.2 231.601C481 232.601 477.5 234.601 474.2 238.101C470.9 241.601 469 246.401 468.9 251.201" fill="#75A1E9"/>
<path d="M474.6 256.402C475.1 260.902 472.1 264.902 468 265.402C463.9 265.802 460.2 262.502 459.8 258.002C459.3 253.502 462.3 249.502 466.4 249.002C470.5 248.602 474.2 251.902 474.6 256.402Z" fill="#75A1E9"/>
<path d="M471.1 257.201C471.4 260.301 469.5 263.001 466.8 263.301C464.1 263.601 461.7 261.301 461.4 258.201C461.1 255.101 463 252.401 465.7 252.101C468.4 251.801 470.8 254.101 471.1 257.201Z" fill="#2D4CBA"/>
</g>
<path d="M16.5 400.5L281 247L550.5 400.5V707.5L281 866.5L16.5 707.5V400.5Z" fill="black"/>
<path d="M554 713L554 395L281.871 236L10 395L10 713L281.871 872L554 713Z" stroke="url(#paint4_linear)" stroke-width="20" stroke-miterlimit="10"/>
<g clip-path="url(#clip1)">
<path d="M452.9 364.301C452.9 364.301 456.5 366.801 457.7 366.901C458.9 367.001 461.8 366.001 465.3 366.401C466.9 366.601 470.9 367.501 471.2 368.101C471.4 368.701 467.5 368.601 467.6 368.901C467.7 369.201 474.9 371.901 474.6 373.001C474.4 373.501 467.5 370.901 467.5 370.901C467.5 370.901 475.1 373.601 474.7 374.401C474.3 375.201 467 372.401 467 372.401C467 372.401 473.9 374.901 473.5 375.601C473.1 376.301 466.4 374.501 466.4 374.501C466.4 374.501 472.3 375.801 471.9 376.501C471.7 376.901 465.3 376.101 459.8 374.001C454.7 372.101 450.5 368.901 450.5 368.901" fill="#FC8975"/>
<path d="M455.4 312.701C449.1 322.401 434.4 333.501 426.3 340.401C431 346.701 457.3 366.401 457.3 366.401L454.9 372.301C454.9 372.301 404.7 363.301 403.1 338.501C402.1 323.701 420.9 301.801 435.5 291.501C449.1 281.801 465.1 280.201 473.5 283.601" fill="url(#paint5_linear)"/>
</g>
<path d="M382.953 10.6257L151.427 15.8187C108.96 16.7712 74.9797 52.3376 75.9329 94.8372L76.925 139.068C77.8783 181.568 113.419 215.575 155.886 214.622L296.658 211.465L422.94 249.894L382.928 209.451L387.411 209.351C429.878 208.398 463.858 172.832 462.905 130.332L461.913 86.1011C460.961 43.6802 425.421 9.67318 382.953 10.6257Z" fill="url(#paint6_linear)"/>
<path d="M382.754 1.7323L151.228 6.92529C108.76 7.87781 74.7802 43.4441 75.7335 85.9437L76.7238 130.096C77.677 172.596 113.218 206.603 155.685 205.65L296.457 202.493L422.94 249.894L382.728 200.558L387.211 200.457C429.678 199.505 463.659 163.938 462.705 121.439L461.713 77.2077C460.76 34.7081 425.221 0.779776 382.754 1.7323Z" fill="url(#paint7_linear)"/>
<path d="M115.592 133.44L115.592 136.848L121.088 136.848L121.088 140.016L115.592 140.016L115.592 143.712L121.808 143.712L121.808 147L111.488 147L111.488 130.152L121.808 130.152L121.808 133.44L115.592 133.44ZM141.56 133.464C143.224 133.464 144.544 133.968 145.52 134.976C146.512 135.984 147.008 137.384 147.008 139.176L147.008 147L142.928 147L142.928 139.728C142.928 138.864 142.696 138.2 142.232 137.736C141.784 137.256 141.16 137.016 140.36 137.016C139.56 137.016 138.928 137.256 138.464 137.736C138.016 138.2 137.792 138.864 137.792 139.728L137.792 147L133.712 147L133.712 139.728C133.712 138.864 133.48 138.2 133.016 137.736C132.568 137.256 131.944 137.016 131.144 137.016C130.344 137.016 129.712 137.256 129.248 137.736C128.8 138.2 128.576 138.864 128.576 139.728L128.576 147L124.472 147L124.472 133.608L128.576 133.608L128.576 135.288C128.992 134.728 129.536 134.288 130.208 133.968C130.88 133.632 131.64 133.464 132.488 133.464C133.496 133.464 134.392 133.68 135.176 134.112C135.976 134.544 136.6 135.16 137.048 135.96C137.512 135.224 138.144 134.624 138.944 134.16C139.744 133.696 140.616 133.464 141.56 133.464ZM149.063 140.28C149.063 138.904 149.319 137.696 149.831 136.656C150.359 135.616 151.071 134.816 151.967 134.256C152.863 133.696 153.863 133.416 154.967 133.416C155.911 133.416 156.735 133.608 157.439 133.992C158.159 134.376 158.711 134.88 159.095 135.504L159.095 133.608L163.199 133.608L163.199 147L159.095 147L159.095 145.104C158.695 145.728 158.135 146.232 157.415 146.616C156.711 147 155.887 147.192 154.943 147.192C153.855 147.192 152.863 146.912 151.967 146.352C151.071 145.776 150.359 144.968 149.831 143.928C149.319 142.872 149.063 141.656 149.063 140.28ZM159.095 140.304C159.095 139.28 158.807 138.472 158.231 137.88C157.671 137.288 156.983 136.992 156.167 136.992C155.351 136.992 154.655 137.288 154.079 137.88C153.519 138.456 153.239 139.256 153.239 140.28C153.239 141.304 153.519 142.12 154.079 142.728C154.655 143.32 155.351 143.616 156.167 143.616C156.983 143.616 157.671 143.32 158.231 142.728C158.807 142.136 159.095 141.328 159.095 140.304ZM168.232 132.216C167.512 132.216 166.92 132.008 166.456 131.592C166.008 131.16 165.784 130.632 165.784 130.008C165.784 129.368 166.008 128.84 166.456 128.424C166.92 127.992 167.512 127.776 168.232 127.776C168.936 127.776 169.512 127.992 169.96 128.424C170.424 128.84 170.656 129.368 170.656 130.008C170.656 130.632 170.424 131.16 169.96 131.592C169.512 132.008 168.936 132.216 168.232 132.216ZM170.272 133.608L170.272 147L166.168 147L166.168 133.608L170.272 133.608ZM177.35 129.24L177.35 147L173.246 147L173.246 129.24L177.35 129.24ZM182.244 147.192C181.524 147.192 180.932 146.984 180.468 146.568C180.02 146.136 179.796 145.608 179.796 144.984C179.796 144.344 180.02 143.808 180.468 143.376C180.932 142.944 181.524 142.728 182.244 142.728C182.948 142.728 183.524 142.944 183.972 143.376C184.436 143.808 184.668 144.344 184.668 144.984C184.668 145.608 184.436 146.136 183.972 146.568C183.524 146.984 182.948 147.192 182.244 147.192ZM182.244 137.424C181.524 137.424 180.932 137.216 180.468 136.8C180.02 136.368 179.796 135.84 179.796 135.216C179.796 134.576 180.02 134.04 180.468 133.608C180.932 133.176 181.524 132.96 182.244 132.96C182.948 132.96 183.524 133.176 183.972 133.608C184.436 134.04 184.668 134.576 184.668 135.216C184.668 135.84 184.436 136.368 183.972 136.8C183.524 137.216 182.948 137.424 182.244 137.424ZM199.38 132.216C198.66 132.216 198.068 132.008 197.604 131.592C197.156 131.16 196.932 130.632 196.932 130.008C196.932 129.368 197.156 128.84 197.604 128.424C198.068 127.992 198.66 127.776 199.38 127.776C200.084 127.776 200.66 127.992 201.108 128.424C201.572 128.84 201.804 129.368 201.804 130.008C201.804 130.632 201.572 131.16 201.108 131.592C200.66 132.008 200.084 132.216 199.38 132.216ZM201.42 133.608L201.42 147L197.316 147L197.316 133.608L201.42 133.608ZM212.554 133.464C214.122 133.464 215.37 133.976 216.298 135C217.242 136.008 217.714 137.4 217.714 139.176L217.714 147L213.634 147L213.634 139.728C213.634 138.832 213.402 138.136 212.938 137.64C212.474 137.144 211.85 136.896 211.066 136.896C210.282 136.896 209.658 137.144 209.194 137.64C208.73 138.136 208.498 138.832 208.498 139.728L208.498 147L204.394 147L204.394 133.608L208.498 133.608L208.498 135.384C208.914 134.792 209.474 134.328 210.178 133.992C210.882 133.64 211.674 133.464 212.554 133.464ZM227.286 137.016L225.078 137.016L225.078 147L220.974 147L220.974 137.016L219.486 137.016L219.486 133.608L220.974 133.608L220.974 133.224C220.974 131.576 221.446 130.328 222.39 129.48C223.334 128.616 224.718 128.184 226.542 128.184C226.846 128.184 227.07 128.192 227.214 128.208L227.214 131.688C226.43 131.64 225.878 131.752 225.558 132.024C225.238 132.296 225.078 132.784 225.078 133.488L225.078 133.608L227.286 133.608L227.286 137.016ZM235.311 147.192C233.999 147.192 232.815 146.912 231.759 146.352C230.719 145.792 229.895 144.992 229.287 143.952C228.695 142.912 228.399 141.696 228.399 140.304C228.399 138.928 228.703 137.72 229.311 136.68C229.919 135.624 230.751 134.816 231.807 134.256C232.863 133.696 234.047 133.416 235.359 133.416C236.671 133.416 237.855 133.696 238.911 134.256C239.967 134.816 240.799 135.624 241.407 136.68C242.015 137.72 242.319 138.928 242.319 140.304C242.319 141.68 242.007 142.896 241.383 143.952C240.775 144.992 239.935 145.792 238.863 146.352C237.807 146.912 236.623 147.192 235.311 147.192ZM235.311 143.64C236.095 143.64 236.759 143.352 237.303 142.776C237.863 142.2 238.143 141.376 238.143 140.304C238.143 139.232 237.871 138.408 237.327 137.832C236.799 137.256 236.143 136.968 235.359 136.968C234.559 136.968 233.895 137.256 233.367 137.832C232.839 138.392 232.575 139.216 232.575 140.304C232.575 141.376 232.831 142.2 233.343 142.776C233.871 143.352 234.527 143.64 235.311 143.64ZM257.84 130.968C259.728 130.968 261.376 131.328 262.784 132.048C264.192 132.752 265.272 133.752 266.024 135.048C266.792 136.328 267.176 137.808 267.176 139.488C267.176 140.848 266.936 142.112 266.456 143.28C265.992 144.448 265.296 145.384 264.368 146.088C263.456 146.776 262.368 147.12 261.104 147.12C260.256 147.12 259.552 146.952 258.992 146.616C258.448 146.28 258.08 145.808 257.888 145.2C257.44 145.824 256.864 146.312 256.16 146.664C255.456 147 254.688 147.168 253.856 147.168C252.672 147.168 251.736 146.816 251.048 146.112C250.376 145.392 250.04 144.416 250.04 143.184C250.04 142.016 250.28 140.92 250.76 139.896C251.24 138.856 251.904 138.024 252.752 137.4C253.6 136.776 254.552 136.464 255.608 136.464C256.952 136.464 257.864 136.944 258.344 137.904L258.56 136.632L261.872 136.632L260.816 142.656C260.768 142.944 260.744 143.2 260.744 143.424C260.744 144.128 261.056 144.48 261.68 144.48C262.448 144.48 263.032 143.992 263.432 143.016C263.848 142.024 264.056 140.888 264.056 139.608C264.056 137.768 263.472 136.328 262.304 135.288C261.152 134.248 259.528 133.728 257.432 133.728C255.64 133.728 254.008 134.16 252.536 135.024C251.08 135.888 249.936 137.072 249.104 138.576C248.272 140.064 247.856 141.704 247.856 143.496C247.856 145.432 248.416 146.936 249.536 148.008C250.672 149.08 252.256 149.616 254.288 149.616C255.872 149.616 257.288 149.328 258.536 148.752L259.184 151.368C257.616 152.056 255.856 152.4 253.904 152.4C252.08 152.4 250.472 152.048 249.08 151.344C247.704 150.64 246.64 149.64 245.888 148.344C245.136 147.048 244.76 145.536 244.76 143.808C244.76 141.392 245.328 139.208 246.464 137.256C247.6 135.288 249.16 133.752 251.144 132.648C253.144 131.528 255.376 130.968 257.84 130.968ZM255.2 144.216C255.648 144.216 256.064 144.08 256.448 143.808C256.848 143.536 257.16 143.176 257.384 142.728C257.624 142.264 257.744 141.768 257.744 141.24C257.744 140.696 257.592 140.256 257.288 139.92C256.984 139.568 256.568 139.392 256.04 139.392C255.336 139.392 254.752 139.696 254.288 140.304C253.824 140.912 253.592 141.632 253.592 142.464C253.592 142.992 253.728 143.416 254 143.736C254.272 144.056 254.672 144.216 255.2 144.216ZM283.042 140.088C283.042 140.472 283.018 140.872 282.97 141.288L273.682 141.288C273.746 142.12 274.01 142.76 274.474 143.208C274.954 143.64 275.538 143.856 276.226 143.856C277.25 143.856 277.962 143.424 278.362 142.56L282.73 142.56C282.506 143.44 282.098 144.232 281.506 144.936C280.93 145.64 280.202 146.192 279.322 146.592C278.442 146.992 277.458 147.192 276.37 147.192C275.058 147.192 273.89 146.912 272.866 146.352C271.842 145.792 271.042 144.992 270.466 143.952C269.89 142.912 269.602 141.696 269.602 140.304C269.602 138.912 269.882 137.696 270.442 136.656C271.018 135.616 271.818 134.816 272.842 134.256C273.866 133.696 275.042 133.416 276.37 133.416C277.666 133.416 278.818 133.688 279.826 134.232C280.834 134.776 281.618 135.552 282.178 136.56C282.754 137.568 283.042 138.744 283.042 140.088ZM278.842 139.008C278.842 138.304 278.602 137.744 278.122 137.328C277.642 136.912 277.042 136.704 276.322 136.704C275.634 136.704 275.05 136.904 274.57 137.304C274.106 137.704 273.818 138.272 273.706 139.008L278.842 139.008ZM284.943 134.424C285.007 132.712 285.567 131.392 286.623 130.464C287.679 129.536 289.111 129.072 290.919 129.072C292.119 129.072 293.143 129.28 293.991 129.696C294.855 130.112 295.503 130.68 295.935 131.4C296.383 132.12 296.607 132.928 296.607 133.824C296.607 134.88 296.343 135.744 295.815 136.416C295.287 137.072 294.671 137.52 293.967 137.76L293.967 137.856C294.879 138.16 295.599 138.664 296.127 139.368C296.655 140.072 296.919 140.976 296.919 142.08C296.919 143.072 296.687 143.952 296.223 144.72C295.775 145.472 295.111 146.064 294.231 146.496C293.367 146.928 292.335 147.144 291.135 147.144C289.215 147.144 287.679 146.672 286.527 145.728C285.391 144.784 284.791 143.36 284.727 141.456L288.711 141.456C288.727 142.16 288.927 142.72 289.311 143.136C289.695 143.536 290.255 143.736 290.991 143.736C291.615 143.736 292.095 143.56 292.431 143.208C292.783 142.84 292.959 142.36 292.959 141.768C292.959 141 292.711 140.448 292.215 140.112C291.735 139.76 290.959 139.584 289.887 139.584L289.119 139.584L289.119 136.248L289.887 136.248C290.703 136.248 291.359 136.112 291.855 135.84C292.367 135.552 292.623 135.048 292.623 134.328C292.623 133.752 292.463 133.304 292.143 132.984C291.823 132.664 291.383 132.504 290.823 132.504C290.215 132.504 289.759 132.688 289.455 133.056C289.167 133.424 288.999 133.88 288.951 134.424L284.943 134.424ZM307.202 143.52L307.202 147L305.114 147C303.626 147 302.466 146.64 301.634 145.92C300.802 145.184 300.386 143.992 300.386 142.344L300.386 137.016L298.754 137.016L298.754 133.608L300.386 133.608L300.386 130.344L304.49 130.344L304.49 133.608L307.178 133.608L307.178 137.016L304.49 137.016L304.49 142.392C304.49 142.792 304.586 143.08 304.778 143.256C304.97 143.432 305.29 143.52 305.738 143.52L307.202 143.52ZM311.408 147.192C310.688 147.192 310.096 146.984 309.632 146.568C309.184 146.136 308.96 145.608 308.96 144.984C308.96 144.344 309.184 143.808 309.632 143.376C310.096 142.944 310.688 142.728 311.408 142.728C312.112 142.728 312.688 142.944 313.136 143.376C313.6 143.808 313.832 144.344 313.832 144.984C313.832 145.608 313.6 146.136 313.136 146.568C312.688 146.984 312.112 147.192 311.408 147.192ZM315.445 140.304C315.445 138.912 315.725 137.696 316.285 136.656C316.861 135.616 317.653 134.816 318.661 134.256C319.685 133.696 320.853 133.416 322.165 133.416C323.845 133.416 325.245 133.856 326.365 134.736C327.501 135.616 328.245 136.856 328.597 138.456L324.229 138.456C323.861 137.432 323.149 136.92 322.093 136.92C321.341 136.92 320.741 137.216 320.293 137.808C319.845 138.384 319.621 139.216 319.621 140.304C319.621 141.392 319.845 142.232 320.293 142.824C320.741 143.4 321.341 143.688 322.093 143.688C323.149 143.688 323.861 143.176 324.229 142.152L328.597 142.152C328.245 143.72 327.501 144.952 326.365 145.848C325.229 146.744 323.829 147.192 322.165 147.192C320.853 147.192 319.685 146.912 318.661 146.352C317.653 145.792 316.861 144.992 316.285 143.952C315.725 142.912 315.445 141.696 315.445 140.304ZM336.889 147.192C335.577 147.192 334.393 146.912 333.337 146.352C332.297 145.792 331.473 144.992 330.865 143.952C330.273 142.912 329.977 141.696 329.977 140.304C329.977 138.928 330.281 137.72 330.889 136.68C331.497 135.624 332.329 134.816 333.385 134.256C334.441 133.696 335.625 133.416 336.937 133.416C338.249 133.416 339.433 133.696 340.489 134.256C341.545 134.816 342.377 135.624 342.985 136.68C343.593 137.72 343.897 138.928 343.897 140.304C343.897 141.68 343.585 142.896 342.961 143.952C342.353 144.992 341.513 145.792 340.441 146.352C339.385 146.912 338.201 147.192 336.889 147.192ZM336.889 143.64C337.673 143.64 338.337 143.352 338.881 142.776C339.441 142.2 339.721 141.376 339.721 140.304C339.721 139.232 339.449 138.408 338.905 137.832C338.377 137.256 337.721 136.968 336.937 136.968C336.137 136.968 335.473 137.256 334.945 137.832C334.417 138.392 334.153 139.216 334.153 140.304C334.153 141.376 334.409 142.2 334.921 142.776C335.449 143.352 336.105 143.64 336.889 143.64Z" fill="white"/>
<path d="M118.34 67.8457C118.34 68.3529 118.235 68.8136 118.025 69.228C117.815 69.6362 117.533 69.9888 117.181 70.2856C116.828 70.5825 116.423 70.8114 115.965 70.9722C115.508 71.133 115.031 71.2134 114.537 71.2134C113.856 71.2134 113.232 71.0866 112.663 70.833C112.094 70.5794 111.642 70.2052 111.308 69.7104L111.308 71L110.232 71L110.232 67.3169L111.308 67.3169C111.308 67.7313 111.404 68.1117 111.596 68.458C111.787 68.7982 112.032 69.092 112.329 69.3394C112.625 69.5868 112.966 69.7816 113.349 69.9238C113.739 70.0599 114.135 70.1279 114.537 70.1279C114.895 70.1279 115.226 70.0785 115.529 69.9795C115.832 69.8743 116.098 69.729 116.327 69.5435C116.556 69.3517 116.735 69.1198 116.865 68.8477C117.001 68.5755 117.069 68.2663 117.069 67.9199C117.069 67.5303 116.983 67.1963 116.81 66.918C116.643 66.6396 116.414 66.4015 116.123 66.2036C115.839 66.0057 115.517 65.8387 115.158 65.7026C114.799 65.5604 114.435 65.4212 114.063 65.2852C113.624 65.1305 113.185 64.9697 112.746 64.8027C112.307 64.6296 111.914 64.4131 111.568 64.1533C111.222 63.8936 110.94 63.5781 110.724 63.207C110.507 62.8298 110.399 62.3628 110.399 61.8062C110.399 61.3114 110.504 60.8722 110.714 60.4888C110.925 60.0991 111.2 59.7713 111.54 59.5054C111.88 59.2394 112.276 59.0384 112.728 58.9023C113.179 58.7601 113.643 58.689 114.119 58.689C114.707 58.689 115.248 58.8096 115.743 59.0508C116.244 59.292 116.633 59.66 116.912 60.1548L116.912 58.8931L118.034 58.8931L118.034 62.3535L116.912 62.3535C116.912 61.9886 116.834 61.6484 116.68 61.333C116.531 61.0114 116.327 60.7393 116.067 60.5166C115.808 60.2878 115.511 60.1084 115.177 59.9785C114.843 59.8424 114.49 59.7744 114.119 59.7744C113.791 59.7744 113.479 59.8115 113.182 59.8857C112.885 59.96 112.625 60.0806 112.403 60.2476C112.18 60.4084 112.001 60.6187 111.865 60.8784C111.735 61.1382 111.67 61.4474 111.67 61.8062C111.67 62.1216 111.747 62.3906 111.902 62.6133C112.063 62.8359 112.276 63.0339 112.542 63.207C112.808 63.374 113.114 63.5286 113.46 63.6709C113.813 63.807 114.172 63.9461 114.537 64.0884C114.994 64.2492 115.449 64.4285 115.9 64.6265C116.352 64.8244 116.757 65.0625 117.116 65.3408C117.474 65.6191 117.768 65.9624 117.997 66.3706C118.226 66.7726 118.34 67.2643 118.34 67.8457ZM128.564 71L127.284 71L127.284 65.6655C127.284 64.8924 127.117 64.2925 126.783 63.8657C126.449 63.439 125.908 63.2256 125.159 63.2256C124.689 63.2256 124.262 63.3338 123.879 63.5503C123.502 63.7668 123.18 64.0575 122.914 64.4224C122.648 64.7811 122.444 65.1955 122.302 65.6655C122.166 66.1294 122.098 66.6149 122.098 67.1221L122.098 71L120.827 71L120.827 58.8931L122.098 58.8931L122.098 64.5244C122.71 62.9411 123.802 62.1494 125.373 62.1494C127.5 62.1494 128.564 63.3215 128.564 65.6655L128.564 71ZM139.613 66.7046C139.613 67.3787 139.505 67.991 139.289 68.5415C139.078 69.092 138.772 69.5651 138.37 69.9609C137.974 70.3506 137.498 70.6567 136.941 70.8794C136.385 71.1021 135.763 71.2134 135.077 71.2134C134.403 71.2134 133.787 71.1021 133.23 70.8794C132.674 70.6567 132.194 70.3506 131.792 69.9609C131.397 69.5651 131.09 69.092 130.874 68.5415C130.664 67.991 130.559 67.3787 130.559 66.7046C130.559 66.049 130.664 65.4398 130.874 64.877C131.09 64.3079 131.397 63.8255 131.792 63.4297C132.194 63.0277 132.674 62.7153 133.23 62.4927C133.787 62.2638 134.403 62.1494 135.077 62.1494C135.763 62.1494 136.385 62.2638 136.941 62.4927C137.498 62.7153 137.974 63.0277 138.37 63.4297C138.772 63.8255 139.078 64.3079 139.289 64.877C139.505 65.4398 139.613 66.049 139.613 66.7046ZM138.342 66.7046C138.342 66.2098 138.268 65.7552 138.12 65.3408C137.977 64.9202 137.764 64.5522 137.479 64.2368C137.195 63.9214 136.849 63.674 136.44 63.4946C136.038 63.3153 135.584 63.2256 135.077 63.2256C134.569 63.2256 134.112 63.3153 133.704 63.4946C133.302 63.674 132.961 63.9214 132.683 64.2368C132.405 64.5522 132.191 64.9202 132.043 65.3408C131.901 65.7552 131.83 66.2098 131.83 66.7046C131.83 67.1994 131.901 67.6571 132.043 68.0776C132.191 68.492 132.405 68.8507 132.683 69.1538C132.961 69.4569 133.302 69.695 133.704 69.8682C134.112 70.0413 134.569 70.1279 135.077 70.1279C135.584 70.1279 136.038 70.0413 136.44 69.8682C136.849 69.695 137.195 69.4569 137.479 69.1538C137.764 68.8507 137.977 68.492 138.12 68.0776C138.268 67.6571 138.342 67.1994 138.342 66.7046ZM141.571 62.3535L142.842 62.3535L142.842 67.6973C142.842 68.4704 143.009 69.0703 143.343 69.4971C143.683 69.9176 144.227 70.1279 144.976 70.1279C145.446 70.1279 145.869 70.0197 146.247 69.8032C146.624 69.5868 146.945 69.2992 147.211 68.9404C147.477 68.5755 147.678 68.1611 147.814 67.6973C147.957 67.2272 148.028 66.7386 148.028 66.2314L148.028 62.3535L149.308 62.3535L149.308 71L148.028 71L148.028 68.8384C147.422 70.4217 146.333 71.2134 144.762 71.2134C142.635 71.2134 141.571 70.0413 141.571 67.6973L141.571 62.3535ZM158.4 71L153.214 71L153.214 69.9146L155.171 69.9146L155.171 59.9785L153.214 59.9785L153.214 58.8931L156.452 58.8931L156.452 69.9146L158.4 69.9146L158.4 71ZM170.052 71L168.772 71L168.772 70.2021C168.407 70.5299 168.005 70.7804 167.566 70.9536C167.133 71.1268 166.688 71.2134 166.23 71.2134C165.543 71.2134 164.928 71.1021 164.384 70.8794C163.84 70.6567 163.379 70.3475 163.001 69.9517C162.63 69.5496 162.343 69.0703 162.139 68.5137C161.941 67.957 161.842 67.3478 161.842 66.686C161.842 66.0304 161.941 65.4243 162.139 64.8677C162.343 64.3049 162.63 63.8255 163.001 63.4297C163.379 63.0277 163.84 62.7153 164.384 62.4927C164.928 62.2638 165.543 62.1494 166.23 62.1494C166.688 62.1494 167.133 62.2329 167.566 62.3999C168.005 62.5607 168.407 62.805 168.772 63.1328L168.772 59.9785L167.046 59.9785L167.046 58.8931L170.052 58.8931L170.052 71ZM168.772 64.3667C168.407 63.9647 168.008 63.674 167.575 63.4946C167.148 63.3153 166.694 63.2256 166.211 63.2256C165.704 63.2256 165.256 63.3153 164.866 63.4946C164.483 63.674 164.161 63.9183 163.901 64.2275C163.642 64.5368 163.444 64.9017 163.308 65.3223C163.178 65.7367 163.113 66.1912 163.113 66.686C163.113 67.1808 163.178 67.6385 163.308 68.0591C163.444 68.4735 163.642 68.8353 163.901 69.1445C164.161 69.4538 164.483 69.6981 164.866 69.8774C165.256 70.0568 165.704 70.1465 166.211 70.1465C167.189 70.1465 168.042 69.7599 168.772 68.9868L168.772 64.3667ZM191.52 62.3535L186.844 73.1895C186.603 73.7956 186.263 74.1914 185.824 74.377C185.385 74.5687 184.899 74.6646 184.367 74.6646C183.773 74.6646 183.18 74.5563 182.586 74.3398L182.836 73.2451C183.127 73.3688 183.412 73.4554 183.69 73.5049C183.968 73.5605 184.194 73.5884 184.367 73.5884C184.788 73.5884 185.075 73.4863 185.23 73.2822C185.391 73.0781 185.53 72.8369 185.647 72.5586L186.176 71.2505L182.317 62.3535L183.82 62.3535L186.937 69.9146L189.999 62.3535L191.52 62.3535ZM201.846 66.7046C201.846 67.3787 201.737 67.991 201.521 68.5415C201.311 69.092 201.005 69.5651 200.603 69.9609C200.207 70.3506 199.73 70.6567 199.174 70.8794C198.617 71.1021 197.996 71.2134 197.309 71.2134C196.635 71.2134 196.02 71.1021 195.463 70.8794C194.906 70.6567 194.427 70.3506 194.025 69.9609C193.629 69.5651 193.323 69.092 193.106 68.5415C192.896 67.991 192.791 67.3787 192.791 66.7046C192.791 66.049 192.896 65.4398 193.106 64.877C193.323 64.3079 193.629 63.8255 194.025 63.4297C194.427 63.0277 194.906 62.7153 195.463 62.4927C196.02 62.2638 196.635 62.1494 197.309 62.1494C197.996 62.1494 198.617 62.2638 199.174 62.4927C199.73 62.7153 200.207 63.0277 200.603 63.4297C201.005 63.8255 201.311 64.3079 201.521 64.877C201.737 65.4398 201.846 66.049 201.846 66.7046ZM200.575 66.7046C200.575 66.2098 200.5 65.7552 200.352 65.3408C200.21 64.9202 199.996 64.5522 199.712 64.2368C199.427 63.9214 199.081 63.674 198.673 63.4946C198.271 63.3153 197.816 63.2256 197.309 63.2256C196.802 63.2256 196.344 63.3153 195.936 63.4946C195.534 63.674 195.194 63.9214 194.916 64.2368C194.637 64.5522 194.424 64.9202 194.275 65.3408C194.133 65.7552 194.062 66.2098 194.062 66.7046C194.062 67.1994 194.133 67.6571 194.275 68.0776C194.424 68.492 194.637 68.8507 194.916 69.1538C195.194 69.4569 195.534 69.695 195.936 69.8682C196.344 70.0413 196.802 70.1279 197.309 70.1279C197.816 70.1279 198.271 70.0413 198.673 69.8682C199.081 69.695 199.427 69.4569 199.712 69.1538C199.996 68.8507 200.21 68.492 200.352 68.0776C200.5 67.6571 200.575 67.1994 200.575 66.7046ZM203.803 62.3535L205.074 62.3535L205.074 67.6973C205.074 68.4704 205.241 69.0703 205.575 69.4971C205.915 69.9176 206.46 70.1279 207.208 70.1279C207.678 70.1279 208.102 70.0197 208.479 69.8032C208.856 69.5868 209.178 69.2992 209.444 68.9404C209.71 68.5755 209.911 68.1611 210.047 67.6973C210.189 67.2272 210.26 66.7386 210.26 66.2314L210.26 62.3535L211.541 62.3535L211.541 71L210.26 71L210.26 68.8384C209.654 70.4217 208.566 71.2134 206.995 71.2134C204.867 71.2134 203.803 70.0413 203.803 67.6973L203.803 62.3535ZM232.285 71L231.004 71L231.004 65.6655C231.004 64.8924 230.837 64.2925 230.503 63.8657C230.169 63.439 229.628 63.2256 228.88 63.2256C228.41 63.2256 227.983 63.3338 227.6 63.5503C227.222 63.7668 226.901 64.0575 226.635 64.4224C226.369 64.7811 226.165 65.1955 226.022 65.6655C225.886 66.1294 225.818 66.6149 225.818 67.1221L225.818 71L224.547 71L224.547 58.8931L225.818 58.8931L225.818 64.5244C226.431 62.9411 227.522 62.1494 229.093 62.1494C231.221 62.1494 232.285 63.3215 232.285 65.6655L232.285 71ZM234.446 68.6621C234.446 68.1178 234.582 67.6632 234.854 67.2983C235.127 66.9272 235.482 66.6366 235.921 66.4263C236.367 66.2098 236.874 66.0552 237.443 65.9624C238.018 65.8634 238.603 65.814 239.196 65.814C239.425 65.814 239.629 65.8171 239.809 65.8232C239.994 65.8294 240.167 65.8387 240.328 65.8511C240.495 65.8634 240.662 65.8789 240.829 65.8975C240.996 65.916 241.179 65.9377 241.376 65.9624L241.376 65.3408C241.376 64.9202 241.284 64.5739 241.098 64.3018C240.919 64.0296 240.696 63.8162 240.43 63.6616C240.164 63.5008 239.886 63.3895 239.595 63.3276C239.305 63.2596 239.057 63.2256 238.853 63.2256C238.21 63.2256 237.616 63.3122 237.072 63.4854C236.528 63.6585 236.02 63.8905 235.55 64.1812L234.975 63.2256C235.495 62.9102 236.076 62.6535 236.719 62.4556C237.369 62.2515 238.08 62.1494 238.853 62.1494C239.323 62.1494 239.784 62.2113 240.235 62.335C240.693 62.4525 241.101 62.638 241.46 62.8916C241.825 63.139 242.116 63.4668 242.332 63.875C242.549 64.2832 242.657 64.7718 242.657 65.3408L242.657 71L241.376 71L241.376 69.5527C241.154 69.8311 240.9 70.0754 240.616 70.2856C240.337 70.4959 240.044 70.6691 239.734 70.8052C239.425 70.9351 239.116 71.034 238.807 71.1021C238.497 71.1763 238.204 71.2134 237.925 71.2134C236.781 71.2134 235.915 70.9938 235.328 70.5547C234.74 70.1156 234.446 69.4847 234.446 68.6621ZM237.925 70.1279C238.457 70.1279 238.933 70.0506 239.354 69.896C239.781 69.7352 240.143 69.5373 240.439 69.3022C240.736 69.0672 240.965 68.8167 241.126 68.5508C241.293 68.2848 241.376 68.0436 241.376 67.8271L241.376 67.0107C240.962 66.9489 240.563 66.9149 240.18 66.9087C239.802 66.9025 239.475 66.8994 239.196 66.8994C238.739 66.8994 238.296 66.9303 237.87 66.9922C237.449 67.054 237.081 67.1561 236.766 67.2983C236.45 67.4344 236.197 67.6138 236.005 67.8364C235.813 68.0591 235.717 68.3343 235.717 68.6621C235.717 69.027 235.894 69.3641 236.246 69.6733C236.605 69.9764 237.165 70.1279 237.925 70.1279ZM253.771 62.3535L250.023 71L248.316 71L244.549 62.3535L246.071 62.3535L249.169 69.9331L252.25 62.3535L253.771 62.3535ZM256.48 67.1221C256.573 68.0374 256.907 68.7673 257.482 69.3115C258.057 69.8558 258.806 70.1279 259.727 70.1279C260.376 70.1279 260.955 69.995 261.462 69.729C261.969 69.4631 262.349 69.1322 262.603 68.7363L263.494 69.3486C263.061 69.9548 262.544 70.4186 261.944 70.7402C261.344 71.0557 260.605 71.2134 259.727 71.2134C259.059 71.2134 258.447 71.1021 257.89 70.8794C257.333 70.6567 256.851 70.3475 256.443 69.9517C256.041 69.5496 255.729 69.0734 255.506 68.5229C255.283 67.9725 255.172 67.3602 255.172 66.686C255.172 66.0304 255.271 65.4274 255.469 64.877C255.673 64.3203 255.964 63.841 256.341 63.439C256.724 63.0308 257.188 62.7153 257.732 62.4927C258.277 62.2638 258.886 62.1494 259.56 62.1494C260.296 62.1494 260.939 62.2731 261.49 62.5205C262.04 62.7679 262.498 63.1112 262.863 63.5503C263.234 63.9832 263.506 64.5028 263.679 65.1089C263.859 65.715 263.948 66.3861 263.948 67.1221L256.48 67.1221ZM262.603 66.0366C262.461 65.0903 262.118 64.3853 261.573 63.9214C261.029 63.4575 260.358 63.2256 259.56 63.2256C259.152 63.2256 258.775 63.2936 258.428 63.4297C258.082 63.5596 257.776 63.7482 257.51 63.9956C257.244 64.243 257.021 64.543 256.842 64.8955C256.662 65.2419 256.548 65.6222 256.499 66.0366L262.603 66.0366ZM275.935 68.6621C275.935 68.1178 276.071 67.6632 276.343 67.2983C276.615 66.9272 276.971 66.6366 277.41 66.4263C277.855 66.2098 278.362 66.0552 278.931 65.9624C279.506 65.8634 280.091 65.814 280.685 65.814C280.913 65.814 281.118 65.8171 281.297 65.8232C281.482 65.8294 281.656 65.8387 281.816 65.8511C281.983 65.8634 282.15 65.8789 282.317 65.8975C282.484 65.916 282.667 65.9377 282.865 65.9624L282.865 65.3408C282.865 64.9202 282.772 64.5739 282.586 64.3018C282.407 64.0296 282.184 63.8162 281.918 63.6616C281.653 63.5008 281.374 63.3895 281.083 63.3276C280.793 63.2596 280.545 63.2256 280.341 63.2256C279.698 63.2256 279.104 63.3122 278.56 63.4854C278.016 63.6585 277.509 63.8905 277.039 64.1812L276.463 63.2256C276.983 62.9102 277.564 62.6535 278.208 62.4556C278.857 62.2515 279.568 62.1494 280.341 62.1494C280.811 62.1494 281.272 62.2113 281.724 62.335C282.181 62.4525 282.59 62.638 282.948 62.8916C283.313 63.139 283.604 63.4668 283.82 63.875C284.037 64.2832 284.145 64.7718 284.145 65.3408L284.145 71L282.865 71L282.865 69.5527C282.642 69.8311 282.389 70.0754 282.104 70.2856C281.826 70.4959 281.532 70.6691 281.223 70.8052C280.913 70.9351 280.604 71.034 280.295 71.1021C279.986 71.1763 279.692 71.2134 279.414 71.2134C278.269 71.2134 277.403 70.9938 276.816 70.5547C276.228 70.1156 275.935 69.4847 275.935 68.6621ZM279.414 70.1279C279.945 70.1279 280.422 70.0506 280.842 69.896C281.269 69.7352 281.631 69.5373 281.928 69.3022C282.225 69.0672 282.453 68.8167 282.614 68.5508C282.781 68.2848 282.865 68.0436 282.865 67.8271L282.865 67.0107C282.45 66.9489 282.051 66.9149 281.668 66.9087C281.291 66.9025 280.963 66.8994 280.685 66.8994C280.227 66.8994 279.785 66.9303 279.358 66.9922C278.937 67.054 278.569 67.1561 278.254 67.2983C277.938 67.4344 277.685 67.6138 277.493 67.8364C277.301 68.0591 277.206 68.3343 277.206 68.6621C277.206 69.027 277.382 69.3641 277.734 69.6733C278.093 69.9764 278.653 70.1279 279.414 70.1279ZM294.517 71L293.237 71L293.237 65.6655C293.237 64.8924 293.07 64.2925 292.736 63.8657C292.402 63.439 291.861 63.2256 291.112 63.2256C290.642 63.2256 290.215 63.3338 289.832 63.5503C289.455 63.7668 289.133 64.0575 288.867 64.4224C288.601 64.7811 288.397 65.1955 288.255 65.6655C288.119 66.1294 288.051 66.6149 288.051 67.1221L288.051 71L286.78 71L286.78 62.3535L288.051 62.3535L288.051 64.5244C288.663 62.9411 289.755 62.1494 291.326 62.1494C293.453 62.1494 294.517 63.3215 294.517 65.6655L294.517 71ZM305.613 62.3535L300.937 73.1895C300.696 73.7956 300.356 74.1914 299.917 74.377C299.477 74.5687 298.992 74.6646 298.46 74.6646C297.866 74.6646 297.272 74.5563 296.679 74.3398L296.929 73.2451C297.22 73.3688 297.504 73.4554 297.783 73.5049C298.061 73.5605 298.287 73.5884 298.46 73.5884C298.881 73.5884 299.168 73.4863 299.323 73.2822C299.484 73.0781 299.623 72.8369 299.74 72.5586L300.269 71.2505L296.41 62.3535L297.913 62.3535L301.03 69.9146L304.091 62.3535L305.613 62.3535ZM318.712 67.1221C318.805 68.0374 319.139 68.7673 319.714 69.3115C320.29 69.8558 321.038 70.1279 321.959 70.1279C322.609 70.1279 323.187 69.995 323.694 69.729C324.201 69.4631 324.582 69.1322 324.835 68.7363L325.726 69.3486C325.293 69.9548 324.777 70.4186 324.177 70.7402C323.577 71.0557 322.838 71.2134 321.959 71.2134C321.292 71.2134 320.679 71.1021 320.123 70.8794C319.566 70.6567 319.083 70.3475 318.675 69.9517C318.273 69.5496 317.961 69.0734 317.738 68.5229C317.516 67.9725 317.404 67.3602 317.404 66.686C317.404 66.0304 317.503 65.4274 317.701 64.877C317.905 64.3203 318.196 63.841 318.573 63.439C318.957 63.0308 319.421 62.7153 319.965 62.4927C320.509 62.2638 321.118 62.1494 321.792 62.1494C322.528 62.1494 323.172 62.2731 323.722 62.5205C324.273 62.7679 324.73 63.1112 325.095 63.5503C325.466 63.9832 325.738 64.5028 325.912 65.1089C326.091 65.715 326.181 66.3861 326.181 67.1221L318.712 67.1221ZM324.835 66.0366C324.693 65.0903 324.35 64.3853 323.806 63.9214C323.261 63.4575 322.59 63.2256 321.792 63.2256C321.384 63.2256 321.007 63.2936 320.661 63.4297C320.314 63.5596 320.008 63.7482 319.742 63.9956C319.476 64.243 319.254 64.543 319.074 64.8955C318.895 65.2419 318.78 65.6222 318.731 66.0366L324.835 66.0366ZM336.005 71L334.725 71L334.725 65.6655C334.725 64.8924 334.558 64.2925 334.224 63.8657C333.89 63.439 333.349 63.2256 332.601 63.2256C332.131 63.2256 331.704 63.3338 331.32 63.5503C330.943 63.7668 330.621 64.0575 330.355 64.4224C330.09 64.7811 329.885 65.1955 329.743 65.6655C329.607 66.1294 329.539 66.6149 329.539 67.1221L329.539 71L328.268 71L328.268 62.3535L329.539 62.3535L329.539 64.5244C330.151 62.9411 331.243 62.1494 332.814 62.1494C334.942 62.1494 336.005 63.3215 336.005 65.6655L336.005 71ZM338.186 66.686C338.186 66.0304 338.291 65.4243 338.501 64.8677C338.711 64.3049 339.005 63.8224 339.382 63.4204C339.76 63.0122 340.217 62.6999 340.755 62.4834C341.3 62.2607 341.906 62.1494 342.574 62.1494C343.471 62.1494 344.312 62.4834 345.097 63.1514L345.097 62.3535L346.377 62.3535L346.377 74.4604L345.097 74.4604L345.097 70.2207C344.732 70.5485 344.333 70.7959 343.9 70.9629C343.474 71.1299 343.031 71.2134 342.574 71.2134C341.906 71.2134 341.3 71.1021 340.755 70.8794C340.217 70.6567 339.76 70.3475 339.382 69.9517C339.005 69.5496 338.711 69.0734 338.501 68.5229C338.291 67.9725 338.186 67.3602 338.186 66.686ZM339.457 66.686C339.457 67.1685 339.521 67.62 339.651 68.0405C339.787 68.4549 339.988 68.8167 340.254 69.126C340.52 69.4352 340.845 69.6795 341.229 69.8589C341.618 70.0382 342.067 70.1279 342.574 70.1279C343.056 70.1279 343.505 70.0413 343.919 69.8682C344.34 69.695 344.732 69.4074 345.097 69.0054L345.097 64.3667C344.732 63.9647 344.34 63.674 343.919 63.4946C343.505 63.3153 343.056 63.2256 342.574 63.2256C342.067 63.2256 341.618 63.3153 341.229 63.4946C340.845 63.674 340.52 63.9183 340.254 64.2275C339.988 64.5368 339.787 64.9048 339.651 65.3315C339.521 65.7521 339.457 66.2036 339.457 66.686ZM349.012 62.3535L350.283 62.3535L350.283 67.6973C350.283 68.4704 350.45 69.0703 350.784 69.4971C351.124 69.9176 351.669 70.1279 352.417 70.1279C352.887 70.1279 353.311 70.0197 353.688 69.8032C354.065 69.5868 354.387 69.2992 354.653 68.9404C354.919 68.5755 355.12 68.1611 355.256 67.6973C355.398 67.2272 355.469 66.7386 355.469 66.2314L355.469 62.3535L356.75 62.3535L356.75 71L355.469 71L355.469 68.8384C354.863 70.4217 353.775 71.2134 352.204 71.2134C350.076 71.2134 349.012 70.0413 349.012 67.6973L349.012 62.3535ZM364.116 60.6279L362.39 60.6279L362.39 58.8931L364.116 58.8931L364.116 60.6279ZM365.841 71L360.655 71L360.655 69.9146L362.613 69.9146L362.613 63.439L360.655 63.439L360.655 62.3535L363.893 62.3535L363.893 69.9146L365.841 69.9146L365.841 71ZM377.475 63.5688C377.017 63.34 376.473 63.2256 375.842 63.2256C375.323 63.2256 374.859 63.3369 374.451 63.5596C374.042 63.7822 373.696 64.076 373.412 64.4409C373.127 64.7996 372.908 65.214 372.753 65.6841C372.604 66.1479 372.53 66.6273 372.53 67.1221L372.53 69.9146L374.488 69.9146L374.488 71L369.302 71L369.302 69.9146L371.259 69.9146L371.259 63.439L369.302 63.439L369.302 62.3535L372.53 62.3535L372.53 64.5244C373.112 62.9411 374.216 62.1494 375.842 62.1494C376.281 62.1494 376.662 62.1772 376.983 62.2329C377.311 62.2886 377.614 62.3875 377.893 62.5298L377.475 63.5688ZM384.86 60.6279L383.134 60.6279L383.134 58.8931L384.86 58.8931L384.86 60.6279ZM386.585 71L381.399 71L381.399 69.9146L383.357 69.9146L383.357 63.439L381.399 63.439L381.399 62.3535L384.637 62.3535L384.637 69.9146L386.585 69.9146L386.585 71ZM391.317 67.1221C391.41 68.0374 391.744 68.7673 392.319 69.3115C392.894 69.8558 393.642 70.1279 394.564 70.1279C395.213 70.1279 395.792 69.995 396.299 69.729C396.806 69.4631 397.186 69.1322 397.44 68.7363L398.331 69.3486C397.898 69.9548 397.381 70.4186 396.781 70.7402C396.181 71.0557 395.442 71.2134 394.564 71.2134C393.896 71.2134 393.284 71.1021 392.727 70.8794C392.17 70.6567 391.688 70.3475 391.28 69.9517C390.878 69.5496 390.565 69.0734 390.343 68.5229C390.12 67.9725 390.009 67.3602 390.009 66.686C390.009 66.0304 390.108 65.4274 390.306 64.877C390.51 64.3203 390.8 63.841 391.178 63.439C391.561 63.0308 392.025 62.7153 392.569 62.4927C393.114 62.2638 393.723 62.1494 394.397 62.1494C395.133 62.1494 395.776 62.2731 396.327 62.5205C396.877 62.7679 397.335 63.1112 397.7 63.5503C398.071 63.9832 398.343 64.5028 398.516 65.1089C398.695 65.715 398.785 66.3861 398.785 67.1221L391.317 67.1221ZM397.44 66.0366C397.298 65.0903 396.954 64.3853 396.41 63.9214C395.866 63.4575 395.195 63.2256 394.397 63.2256C393.989 63.2256 393.611 63.2936 393.265 63.4297C392.919 63.5596 392.613 63.7482 392.347 63.9956C392.081 64.243 391.858 64.543 391.679 64.8955C391.499 65.2419 391.385 65.6222 391.335 66.0366L397.44 66.0366ZM408.833 68.6064C408.833 69.1136 408.706 69.5342 408.452 69.8682C408.199 70.2021 407.871 70.4681 407.469 70.666C407.073 70.8639 406.628 71.0031 406.133 71.0835C405.644 71.1701 405.165 71.2134 404.695 71.2134C403.909 71.2134 403.127 71.099 402.348 70.8701C401.568 70.6413 400.894 70.3413 400.325 69.9702L400.891 68.8755C401.528 69.2775 402.156 69.5868 402.774 69.8032C403.393 70.0197 404.033 70.1279 404.695 70.1279C406.606 70.1279 407.562 69.6331 407.562 68.6436C407.562 68.4023 407.481 68.2075 407.32 68.0591C407.166 67.9045 406.955 67.7808 406.689 67.688C406.424 67.589 406.117 67.5117 405.771 67.4561C405.431 67.4004 405.072 67.3478 404.695 67.2983C404.212 67.2303 403.733 67.1499 403.257 67.0571C402.781 66.9644 402.345 66.8252 401.949 66.6396C401.559 66.4541 401.244 66.2067 401.002 65.8975C400.767 65.5882 400.65 65.18 400.65 64.6729C400.65 64.2399 400.758 63.8657 400.975 63.5503C401.197 63.2349 401.491 62.972 401.856 62.7617C402.227 62.5514 402.66 62.3968 403.155 62.2979C403.65 62.1989 404.163 62.1494 404.695 62.1494C405.456 62.1494 406.136 62.2391 406.736 62.4185C407.336 62.5916 407.877 62.8421 408.359 63.1699L407.849 64.1626C407.354 63.8162 406.853 63.575 406.346 63.439C405.839 63.2967 405.289 63.2256 404.695 63.2256C404.429 63.2256 404.132 63.2503 403.804 63.2998C403.483 63.3431 403.183 63.4235 402.904 63.541C402.626 63.6523 402.391 63.8008 402.199 63.9863C402.014 64.1657 401.921 64.3945 401.921 64.6729C401.921 64.9141 401.998 65.1089 402.153 65.2573C402.314 65.3996 402.527 65.5202 402.793 65.6191C403.059 65.7119 403.362 65.7861 403.702 65.8418C404.049 65.8975 404.41 65.95 404.788 65.9995C405.258 66.0675 405.731 66.1479 406.207 66.2407C406.689 66.3335 407.125 66.4696 407.515 66.6489C407.911 66.8283 408.229 67.0726 408.471 67.3818C408.712 67.6911 408.833 68.0993 408.833 68.6064ZM416.449 69.2744L413.907 74.4604L413.017 74.4604L414.742 69.2744L416.449 69.2744ZM118.646 85.686C118.646 86.3602 118.541 86.9725 118.331 87.5229C118.121 88.0734 117.824 88.5496 117.44 88.9517C117.063 89.3475 116.605 89.6567 116.067 89.8794C115.529 90.1021 114.926 90.2134 114.258 90.2134C113.801 90.2134 113.355 90.1299 112.922 89.9629C112.496 89.7959 112.097 89.5485 111.726 89.2207L111.726 93.4604L110.455 93.4604L110.455 81.3535L111.726 81.3535L111.726 82.1514C112.511 81.4834 113.355 81.1494 114.258 81.1494C114.926 81.1494 115.529 81.2607 116.067 81.4834C116.605 81.6999 117.063 82.0122 117.44 82.4204C117.824 82.8224 118.121 83.3049 118.331 83.8677C118.541 84.4243 118.646 85.0304 118.646 85.686ZM117.375 85.686C117.375 85.2036 117.307 84.7521 117.171 84.3315C117.042 83.9048 116.844 83.5368 116.578 83.2275C116.312 82.9183 115.984 82.674 115.594 82.4946C115.211 82.3153 114.765 82.2256 114.258 82.2256C113.776 82.2256 113.324 82.3153 112.904 82.4946C112.489 82.674 112.097 82.9647 111.726 83.3667L111.726 88.0054C112.097 88.4074 112.489 88.695 112.904 88.8682C113.324 89.0413 113.776 89.1279 114.258 89.1279C114.765 89.1279 115.211 89.0382 115.594 88.8589C115.984 88.6795 116.312 88.4352 116.578 88.126C116.844 87.8167 117.042 87.4549 117.171 87.0405C117.307 86.62 117.375 86.1685 117.375 85.686ZM127.284 90L122.098 90L122.098 88.9146L124.055 88.9146L124.055 78.9785L122.098 78.9785L122.098 77.8931L125.335 77.8931L125.335 88.9146L127.284 88.9146L127.284 90ZM132.015 86.1221C132.108 87.0374 132.442 87.7673 133.017 88.3115C133.592 88.8558 134.341 89.1279 135.262 89.1279C135.912 89.1279 136.49 88.995 136.997 88.729C137.504 88.4631 137.885 88.1322 138.138 87.7363L139.029 88.3486C138.596 88.9548 138.079 89.4186 137.479 89.7402C136.88 90.0557 136.14 90.2134 135.262 90.2134C134.594 90.2134 133.982 90.1021 133.425 89.8794C132.869 89.6567 132.386 89.3475 131.978 88.9517C131.576 88.5496 131.264 88.0734 131.041 87.5229C130.818 86.9725 130.707 86.3602 130.707 85.686C130.707 85.0304 130.806 84.4274 131.004 83.877C131.208 83.3203 131.499 82.841 131.876 82.439C132.259 82.0308 132.723 81.7153 133.268 81.4927C133.812 81.2638 134.421 81.1494 135.095 81.1494C135.831 81.1494 136.474 81.2731 137.025 81.5205C137.575 81.7679 138.033 82.1112 138.398 82.5503C138.769 82.9832 139.041 83.5028 139.214 84.1089C139.394 84.715 139.483 85.3861 139.483 86.1221L132.015 86.1221ZM138.138 85.0366C137.996 84.0903 137.653 83.3853 137.108 82.9214C136.564 82.4575 135.893 82.2256 135.095 82.2256C134.687 82.2256 134.31 82.2936 133.963 82.4297C133.617 82.5596 133.311 82.7482 133.045 82.9956C132.779 83.243 132.556 83.543 132.377 83.8955C132.198 84.2419 132.083 84.6222 132.034 85.0366L138.138 85.0366ZM141.098 87.6621C141.098 87.1178 141.234 86.6632 141.506 86.2983C141.778 85.9272 142.134 85.6366 142.573 85.4263C143.018 85.2098 143.525 85.0552 144.094 84.9624C144.669 84.8634 145.254 84.814 145.848 84.814C146.076 84.814 146.281 84.8171 146.46 84.8232C146.646 84.8294 146.819 84.8387 146.979 84.8511C147.146 84.8634 147.313 84.8789 147.48 84.8975C147.647 84.916 147.83 84.9377 148.028 84.9624L148.028 84.3408C148.028 83.9202 147.935 83.5739 147.75 83.3018C147.57 83.0296 147.347 82.8162 147.082 82.6616C146.816 82.5008 146.537 82.3895 146.247 82.3276C145.956 82.2596 145.708 82.2256 145.504 82.2256C144.861 82.2256 144.267 82.3122 143.723 82.4854C143.179 82.6585 142.672 82.8905 142.202 83.1812L141.626 82.2256C142.146 81.9102 142.727 81.6535 143.371 81.4556C144.02 81.2515 144.731 81.1494 145.504 81.1494C145.974 81.1494 146.435 81.2113 146.887 81.335C147.344 81.4525 147.753 81.638 148.111 81.8916C148.476 82.139 148.767 82.4668 148.983 82.875C149.2 83.2832 149.308 83.7718 149.308 84.3408L149.308 90L148.028 90L148.028 88.5527C147.805 88.8311 147.552 89.0754 147.267 89.2856C146.989 89.4959 146.695 89.6691 146.386 89.8052C146.076 89.9351 145.767 90.034 145.458 90.1021C145.149 90.1763 144.855 90.2134 144.577 90.2134C143.432 90.2134 142.567 89.9938 141.979 89.5547C141.391 89.1156 141.098 88.4847 141.098 87.6621ZM144.577 89.1279C145.109 89.1279 145.585 89.0506 146.005 88.896C146.432 88.7352 146.794 88.5373 147.091 88.3022C147.388 88.0672 147.617 87.8167 147.777 87.5508C147.944 87.2848 148.028 87.0436 148.028 86.8271L148.028 86.0107C147.613 85.9489 147.215 85.9149 146.831 85.9087C146.454 85.9025 146.126 85.8994 145.848 85.8994C145.39 85.8994 144.948 85.9303 144.521 85.9922C144.1 86.054 143.732 86.1561 143.417 86.2983C143.102 86.4344 142.848 86.6138 142.656 86.8364C142.465 87.0591 142.369 87.3343 142.369 87.6621C142.369 88.027 142.545 88.3641 142.897 88.6733C143.256 88.9764 143.816 89.1279 144.577 89.1279ZM159.903 87.6064C159.903 88.1136 159.776 88.5342 159.522 88.8682C159.269 89.2021 158.941 89.4681 158.539 89.666C158.143 89.8639 157.698 90.0031 157.203 90.0835C156.715 90.1701 156.235 90.2134 155.765 90.2134C154.98 90.2134 154.197 90.099 153.418 89.8701C152.639 89.6413 151.965 89.3413 151.396 88.9702L151.961 87.8755C152.598 88.2775 153.226 88.5868 153.845 88.8032C154.463 89.0197 155.103 89.1279 155.765 89.1279C157.676 89.1279 158.632 88.6331 158.632 87.6436C158.632 87.4023 158.551 87.2075 158.391 87.0591C158.236 86.9045 158.026 86.7808 157.76 86.688C157.494 86.589 157.188 86.5117 156.841 86.4561C156.501 86.4004 156.142 86.3478 155.765 86.2983C155.283 86.2303 154.803 86.1499 154.327 86.0571C153.851 85.9644 153.415 85.8252 153.019 85.6396C152.629 85.4541 152.314 85.2067 152.073 84.8975C151.838 84.5882 151.72 84.18 151.72 83.6729C151.72 83.2399 151.828 82.8657 152.045 82.5503C152.268 82.2349 152.561 81.972 152.926 81.7617C153.297 81.5514 153.73 81.3968 154.225 81.2979C154.72 81.1989 155.233 81.1494 155.765 81.1494C156.526 81.1494 157.206 81.2391 157.806 81.4185C158.406 81.5916 158.947 81.8421 159.43 82.1699L158.919 83.1626C158.425 82.8162 157.924 82.575 157.417 82.439C156.909 82.2967 156.359 82.2256 155.765 82.2256C155.499 82.2256 155.202 82.2503 154.875 82.2998C154.553 82.3431 154.253 82.4235 153.975 82.541C153.696 82.6523 153.461 82.8008 153.27 82.9863C153.084 83.1657 152.991 83.3945 152.991 83.6729C152.991 83.9141 153.069 84.1089 153.223 84.2573C153.384 84.3996 153.597 84.5202 153.863 84.6191C154.129 84.7119 154.432 84.7861 154.772 84.8418C155.119 84.8975 155.481 84.95 155.858 84.9995C156.328 85.0675 156.801 85.1479 157.277 85.2407C157.76 85.3335 158.196 85.4696 158.585 85.6489C158.981 85.8283 159.3 86.0726 159.541 86.3818C159.782 86.6911 159.903 87.0993 159.903 87.6064ZM163.131 86.1221C163.224 87.0374 163.558 87.7673 164.133 88.3115C164.708 88.8558 165.457 89.1279 166.378 89.1279C167.028 89.1279 167.606 88.995 168.113 88.729C168.62 88.4631 169.001 88.1322 169.254 87.7363L170.145 88.3486C169.712 88.9548 169.196 89.4186 168.596 89.7402C167.996 90.0557 167.257 90.2134 166.378 90.2134C165.71 90.2134 165.098 90.1021 164.542 89.8794C163.985 89.6567 163.502 89.3475 163.094 88.9517C162.692 88.5496 162.38 88.0734 162.157 87.5229C161.935 86.9725 161.823 86.3602 161.823 85.686C161.823 85.0304 161.922 84.4274 162.12 83.877C162.324 83.3203 162.615 82.841 162.992 82.439C163.376 82.0308 163.84 81.7153 164.384 81.4927C164.928 81.2638 165.537 81.1494 166.211 81.1494C166.947 81.1494 167.591 81.2731 168.141 81.5205C168.692 81.7679 169.149 82.1112 169.514 82.5503C169.885 82.9832 170.157 83.5028 170.331 84.1089C170.51 84.715 170.6 85.3861 170.6 86.1221L163.131 86.1221ZM169.254 85.0366C169.112 84.0903 168.769 83.3853 168.225 82.9214C167.68 82.4575 167.009 82.2256 166.211 82.2256C165.803 82.2256 165.426 82.2936 165.08 82.4297C164.733 82.5596 164.427 82.7482 164.161 82.9956C163.895 83.243 163.673 83.543 163.493 83.8955C163.314 84.2419 163.199 84.6222 163.15 85.0366L169.254 85.0366ZM190.796 90L189.516 90L189.516 89.2021C189.151 89.5299 188.749 89.7804 188.31 89.9536C187.877 90.1268 187.432 90.2134 186.974 90.2134C186.288 90.2134 185.672 90.1021 185.128 89.8794C184.584 89.6567 184.123 89.3475 183.746 88.9517C183.375 88.5496 183.087 88.0703 182.883 87.5137C182.685 86.957 182.586 86.3478 182.586 85.686C182.586 85.0304 182.685 84.4243 182.883 83.8677C183.087 83.3049 183.375 82.8255 183.746 82.4297C184.123 82.0277 184.584 81.7153 185.128 81.4927C185.672 81.2638 186.288 81.1494 186.974 81.1494C187.432 81.1494 187.877 81.2329 188.31 81.3999C188.749 81.5607 189.151 81.805 189.516 82.1328L189.516 78.9785L187.791 78.9785L187.791 77.8931L190.796 77.8931L190.796 90ZM189.516 83.3667C189.151 82.9647 188.752 82.674 188.319 82.4946C187.893 82.3153 187.438 82.2256 186.956 82.2256C186.448 82.2256 186 82.3153 185.61 82.4946C185.227 82.674 184.905 82.9183 184.646 83.2275C184.386 83.5368 184.188 83.9017 184.052 84.3223C183.922 84.7367 183.857 85.1912 183.857 85.686C183.857 86.1808 183.922 86.6385 184.052 87.0591C184.188 87.4735 184.386 87.8353 184.646 88.1445C184.905 88.4538 185.227 88.6981 185.61 88.8774C186 89.0568 186.448 89.1465 186.956 89.1465C187.933 89.1465 188.786 88.7599 189.516 87.9868L189.516 83.3667ZM201.846 85.7046C201.846 86.3787 201.737 86.991 201.521 87.5415C201.311 88.092 201.005 88.5651 200.603 88.9609C200.207 89.3506 199.73 89.6567 199.174 89.8794C198.617 90.1021 197.996 90.2134 197.309 90.2134C196.635 90.2134 196.02 90.1021 195.463 89.8794C194.906 89.6567 194.427 89.3506 194.025 88.9609C193.629 88.5651 193.323 88.092 193.106 87.5415C192.896 86.991 192.791 86.3787 192.791 85.7046C192.791 85.049 192.896 84.4398 193.106 83.877C193.323 83.3079 193.629 82.8255 194.025 82.4297C194.427 82.0277 194.906 81.7153 195.463 81.4927C196.02 81.2638 196.635 81.1494 197.309 81.1494C197.996 81.1494 198.617 81.2638 199.174 81.4927C199.73 81.7153 200.207 82.0277 200.603 82.4297C201.005 82.8255 201.311 83.3079 201.521 83.877C201.737 84.4398 201.846 85.049 201.846 85.7046ZM200.575 85.7046C200.575 85.2098 200.5 84.7552 200.352 84.3408C200.21 83.9202 199.996 83.5522 199.712 83.2368C199.427 82.9214 199.081 82.674 198.673 82.4946C198.271 82.3153 197.816 82.2256 197.309 82.2256C196.802 82.2256 196.344 82.3153 195.936 82.4946C195.534 82.674 195.194 82.9214 194.916 83.2368C194.637 83.5522 194.424 83.9202 194.275 84.3408C194.133 84.7552 194.062 85.2098 194.062 85.7046C194.062 86.1994 194.133 86.6571 194.275 87.0776C194.424 87.492 194.637 87.8507 194.916 88.1538C195.194 88.4569 195.534 88.695 195.936 88.8682C196.344 89.0413 196.802 89.1279 197.309 89.1279C197.816 89.1279 198.271 89.0413 198.673 88.8682C199.081 88.695 199.427 88.4569 199.712 88.1538C199.996 87.8507 200.21 87.492 200.352 87.0776C200.5 86.6571 200.575 86.1994 200.575 85.7046ZM221.913 90L220.632 90L220.632 84.6655C220.632 83.8924 220.465 83.2925 220.131 82.8657C219.797 82.439 219.256 82.2256 218.508 82.2256C218.038 82.2256 217.611 82.3338 217.228 82.5503C216.85 82.7668 216.529 83.0575 216.263 83.4224C215.997 83.7811 215.793 84.1955 215.65 84.6655C215.514 85.1294 215.446 85.6149 215.446 86.1221L215.446 90L214.175 90L214.175 81.3535L215.446 81.3535L215.446 83.5244C216.059 81.9411 217.15 81.1494 218.721 81.1494C220.849 81.1494 221.913 82.3215 221.913 84.6655L221.913 90ZM232.962 85.7046C232.962 86.3787 232.854 86.991 232.637 87.5415C232.427 88.092 232.121 88.5651 231.719 88.9609C231.323 89.3506 230.847 89.6567 230.29 89.8794C229.733 90.1021 229.112 90.2134 228.425 90.2134C227.751 90.2134 227.136 90.1021 226.579 89.8794C226.022 89.6567 225.543 89.3506 225.141 88.9609C224.745 88.5651 224.439 88.092 224.223 87.5415C224.012 86.991 223.907 86.3787 223.907 85.7046C223.907 85.049 224.012 84.4398 224.223 83.877C224.439 83.3079 224.745 82.8255 225.141 82.4297C225.543 82.0277 226.022 81.7153 226.579 81.4927C227.136 81.2638 227.751 81.1494 228.425 81.1494C229.112 81.1494 229.733 81.2638 230.29 81.4927C230.847 81.7153 231.323 82.0277 231.719 82.4297C232.121 82.8255 232.427 83.3079 232.637 83.877C232.854 84.4398 232.962 85.049 232.962 85.7046ZM231.691 85.7046C231.691 85.2098 231.617 84.7552 231.468 84.3408C231.326 83.9202 231.113 83.5522 230.828 83.2368C230.544 82.9214 230.197 82.674 229.789 82.4946C229.387 82.3153 228.932 82.2256 228.425 82.2256C227.918 82.2256 227.46 82.3153 227.052 82.4946C226.65 82.674 226.31 82.9214 226.032 83.2368C225.753 83.5522 225.54 83.9202 225.392 84.3408C225.249 84.7552 225.178 85.2098 225.178 85.7046C225.178 86.1994 225.249 86.6571 225.392 87.0776C225.54 87.492 225.753 87.8507 226.032 88.1538C226.31 88.4569 226.65 88.695 227.052 88.8682C227.46 89.0413 227.918 89.1279 228.425 89.1279C228.932 89.1279 229.387 89.0413 229.789 88.8682C230.197 88.695 230.544 88.4569 230.828 88.1538C231.113 87.8507 231.326 87.492 231.468 87.0776C231.617 86.6571 231.691 86.1994 231.691 85.7046ZM243.204 87.2446C243.105 88.1538 242.746 88.8774 242.128 89.4155C241.516 89.9474 240.749 90.2134 239.827 90.2134C239.32 90.2134 238.856 90.1299 238.436 89.9629C238.015 89.7959 237.656 89.564 237.359 89.2671C237.062 88.9702 236.831 88.6146 236.664 88.2002C236.503 87.7796 236.422 87.3219 236.422 86.8271L236.422 82.439L234.465 82.439L234.465 81.3535L236.422 81.3535L236.422 77.8931L237.693 77.8931L237.693 81.3535L241.376 81.3535L241.376 82.439L237.693 82.439L237.693 86.8271C237.693 87.1426 237.743 87.4395 237.842 87.7178C237.947 87.9961 238.089 88.2404 238.269 88.4507C238.454 88.661 238.677 88.828 238.937 88.9517C239.196 89.0692 239.493 89.1279 239.827 89.1279C240.458 89.1279 240.984 88.9331 241.404 88.5435C241.831 88.1476 242.075 87.6374 242.137 87.0127L243.204 87.2446ZM263.401 90L262.121 90L262.121 84.6655C262.121 83.8924 261.954 83.2925 261.62 82.8657C261.286 82.439 260.744 82.2256 259.996 82.2256C259.526 82.2256 259.099 82.3338 258.716 82.5503C258.339 82.7668 258.017 83.0575 257.751 83.4224C257.485 83.7811 257.281 84.1955 257.139 84.6655C257.003 85.1294 256.935 85.6149 256.935 86.1221L256.935 90L255.664 90L255.664 77.8931L256.935 77.8931L256.935 83.5244C257.547 81.9411 258.639 81.1494 260.209 81.1494C262.337 81.1494 263.401 82.3215 263.401 84.6655L263.401 90ZM266.852 86.1221C266.945 87.0374 267.279 87.7673 267.854 88.3115C268.429 88.8558 269.178 89.1279 270.099 89.1279C270.749 89.1279 271.327 88.995 271.834 88.729C272.341 88.4631 272.722 88.1322 272.975 87.7363L273.866 88.3486C273.433 88.9548 272.916 89.4186 272.316 89.7402C271.716 90.0557 270.977 90.2134 270.099 90.2134C269.431 90.2134 268.819 90.1021 268.262 89.8794C267.706 89.6567 267.223 89.3475 266.815 88.9517C266.413 88.5496 266.101 88.0734 265.878 87.5229C265.655 86.9725 265.544 86.3602 265.544 85.686C265.544 85.0304 265.643 84.4274 265.841 83.877C266.045 83.3203 266.336 82.841 266.713 82.439C267.096 82.0308 267.56 81.7153 268.104 81.4927C268.649 81.2638 269.258 81.1494 269.932 81.1494C270.668 81.1494 271.311 81.2731 271.862 81.5205C272.412 81.7679 272.87 82.1112 273.235 82.5503C273.606 82.9832 273.878 83.5028 274.051 84.1089C274.231 84.715 274.32 85.3861 274.32 86.1221L266.852 86.1221ZM272.975 85.0366C272.833 84.0903 272.49 83.3853 271.945 82.9214C271.401 82.4575 270.73 82.2256 269.932 82.2256C269.524 82.2256 269.147 82.2936 268.8 82.4297C268.454 82.5596 268.148 82.7482 267.882 82.9956C267.616 83.243 267.393 83.543 267.214 83.8955C267.035 84.2419 266.92 84.6222 266.871 85.0366L272.975 85.0366ZM284.368 87.6064C284.368 88.1136 284.241 88.5342 283.987 88.8682C283.734 89.2021 283.406 89.4681 283.004 89.666C282.608 89.8639 282.163 90.0031 281.668 90.0835C281.179 90.1701 280.7 90.2134 280.23 90.2134C279.444 90.2134 278.662 90.099 277.883 89.8701C277.104 89.6413 276.429 89.3413 275.86 88.9702L276.426 87.8755C277.063 88.2775 277.691 88.5868 278.31 88.8032C278.928 89.0197 279.568 89.1279 280.23 89.1279C282.141 89.1279 283.097 88.6331 283.097 87.6436C283.097 87.4023 283.016 87.2075 282.855 87.0591C282.701 86.9045 282.491 86.7808 282.225 86.688C281.959 86.589 281.653 86.5117 281.306 86.4561C280.966 86.4004 280.607 86.3478 280.23 86.2983C279.748 86.2303 279.268 86.1499 278.792 86.0571C278.316 85.9644 277.88 85.8252 277.484 85.6396C277.094 85.4541 276.779 85.2067 276.538 84.8975C276.303 84.5882 276.185 84.18 276.185 83.6729C276.185 83.2399 276.293 82.8657 276.51 82.5503C276.732 82.2349 277.026 81.972 277.391 81.7617C277.762 81.5514 278.195 81.3968 278.69 81.2979C279.185 81.1989 279.698 81.1494 280.23 81.1494C280.991 81.1494 281.671 81.2391 282.271 81.4185C282.871 81.5916 283.412 81.8421 283.895 82.1699L283.384 83.1626C282.889 82.8162 282.389 82.575 281.881 82.439C281.374 82.2967 280.824 82.2256 280.23 82.2256C279.964 82.2256 279.667 82.2503 279.339 82.2998C279.018 82.3431 278.718 82.4235 278.439 82.541C278.161 82.6523 277.926 82.8008 277.734 82.9863C277.549 83.1657 277.456 83.3945 277.456 83.6729C277.456 83.9141 277.533 84.1089 277.688 84.2573C277.849 84.3996 278.062 84.5202 278.328 84.6191C278.594 84.7119 278.897 84.7861 279.237 84.8418C279.584 84.8975 279.945 84.95 280.323 84.9995C280.793 85.0675 281.266 85.1479 281.742 85.2407C282.225 85.3335 282.661 85.4696 283.05 85.6489C283.446 85.8283 283.765 86.0726 284.006 86.3818C284.247 86.6911 284.368 87.0993 284.368 87.6064ZM291.511 79.6279L289.786 79.6279L289.786 77.8931L291.511 77.8931L291.511 79.6279ZM293.237 90L288.051 90L288.051 88.9146L290.008 88.9146L290.008 82.439L288.051 82.439L288.051 81.3535L291.289 81.3535L291.289 88.9146L293.237 88.9146L293.237 90ZM305.437 87.2446C305.338 88.1538 304.979 88.8774 304.36 89.4155C303.748 89.9474 302.981 90.2134 302.06 90.2134C301.552 90.2134 301.089 90.1299 300.668 89.9629C300.247 89.7959 299.889 89.564 299.592 89.2671C299.295 88.9702 299.063 88.6146 298.896 88.2002C298.735 87.7796 298.655 87.3219 298.655 86.8271L298.655 82.439L296.697 82.439L296.697 81.3535L298.655 81.3535L298.655 77.8931L299.926 77.8931L299.926 81.3535L303.609 81.3535L303.609 82.439L299.926 82.439L299.926 86.8271C299.926 87.1426 299.975 87.4395 300.074 87.7178C300.179 87.9961 300.322 88.2404 300.501 88.4507C300.687 88.661 300.909 88.828 301.169 88.9517C301.429 89.0692 301.726 89.1279 302.06 89.1279C302.69 89.1279 303.216 88.9331 303.637 88.5435C304.063 88.1476 304.308 87.6374 304.37 87.0127L305.437 87.2446ZM307.051 87.6621C307.051 87.1178 307.187 86.6632 307.459 86.2983C307.731 85.9272 308.087 85.6366 308.526 85.4263C308.971 85.2098 309.478 85.0552 310.047 84.9624C310.623 84.8634 311.207 84.814 311.801 84.814C312.03 84.814 312.234 84.8171 312.413 84.8232C312.599 84.8294 312.772 84.8387 312.933 84.8511C313.1 84.8634 313.267 84.8789 313.434 84.8975C313.601 84.916 313.783 84.9377 313.981 84.9624L313.981 84.3408C313.981 83.9202 313.888 83.5739 313.703 83.3018C313.523 83.0296 313.301 82.8162 313.035 82.6616C312.769 82.5008 312.49 82.3895 312.2 82.3276C311.909 82.2596 311.662 82.2256 311.458 82.2256C310.814 82.2256 310.221 82.3122 309.676 82.4854C309.132 82.6585 308.625 82.8905 308.155 83.1812L307.58 82.2256C308.099 81.9102 308.681 81.6535 309.324 81.4556C309.973 81.2515 310.684 81.1494 311.458 81.1494C311.928 81.1494 312.388 81.2113 312.84 81.335C313.298 81.4525 313.706 81.638 314.064 81.8916C314.429 82.139 314.72 82.4668 314.937 82.875C315.153 83.2832 315.261 83.7718 315.261 84.3408L315.261 90L313.981 90L313.981 88.5527C313.758 88.8311 313.505 89.0754 313.22 89.2856C312.942 89.4959 312.648 89.6691 312.339 89.8052C312.03 89.9351 311.72 90.034 311.411 90.1021C311.102 90.1763 310.808 90.2134 310.53 90.2134C309.386 90.2134 308.52 89.9938 307.932 89.5547C307.345 89.1156 307.051 88.4847 307.051 87.6621ZM310.53 89.1279C311.062 89.1279 311.538 89.0506 311.958 88.896C312.385 88.7352 312.747 88.5373 313.044 88.3022C313.341 88.0672 313.57 87.8167 313.73 87.5508C313.897 87.2848 313.981 87.0436 313.981 86.8271L313.981 86.0107C313.567 85.9489 313.168 85.9149 312.784 85.9087C312.407 85.9025 312.079 85.8994 311.801 85.8994C311.343 85.8994 310.901 85.9303 310.474 85.9922C310.054 86.054 309.686 86.1561 309.37 86.2983C309.055 86.4344 308.801 86.6138 308.609 86.8364C308.418 87.0591 308.322 87.3343 308.322 87.6621C308.322 88.027 308.498 88.3641 308.851 88.6733C309.209 88.9764 309.769 89.1279 310.53 89.1279ZM326.181 87.2446C326.082 88.1538 325.723 88.8774 325.104 89.4155C324.492 89.9474 323.725 90.2134 322.804 90.2134C322.297 90.2134 321.833 90.1299 321.412 89.9629C320.992 89.7959 320.633 89.564 320.336 89.2671C320.039 88.9702 319.807 88.6146 319.64 88.2002C319.479 87.7796 319.399 87.3219 319.399 86.8271L319.399 82.439L317.441 82.439L317.441 81.3535L319.399 81.3535L319.399 77.8931L320.67 77.8931L320.67 81.3535L324.353 81.3535L324.353 82.439L320.67 82.439L320.67 86.8271C320.67 87.1426 320.719 87.4395 320.818 87.7178C320.924 87.9961 321.066 88.2404 321.245 88.4507C321.431 88.661 321.653 88.828 321.913 88.9517C322.173 89.0692 322.47 89.1279 322.804 89.1279C323.435 89.1279 323.96 88.9331 324.381 88.5435C324.808 88.1476 325.052 87.6374 325.114 87.0127L326.181 87.2446ZM329.084 86.1221C329.177 87.0374 329.511 87.7673 330.086 88.3115C330.662 88.8558 331.41 89.1279 332.332 89.1279C332.981 89.1279 333.559 88.995 334.066 88.729C334.574 88.4631 334.954 88.1322 335.208 87.7363L336.098 88.3486C335.665 88.9548 335.149 89.4186 334.549 89.7402C333.949 90.0557 333.21 90.2134 332.332 90.2134C331.664 90.2134 331.051 90.1021 330.495 89.8794C329.938 89.6567 329.456 89.3475 329.047 88.9517C328.645 88.5496 328.333 88.0734 328.11 87.5229C327.888 86.9725 327.776 86.3602 327.776 85.686C327.776 85.0304 327.875 84.4274 328.073 83.877C328.277 83.3203 328.568 82.841 328.945 82.439C329.329 82.0308 329.793 81.7153 330.337 81.4927C330.881 81.2638 331.49 81.1494 332.165 81.1494C332.901 81.1494 333.544 81.2731 334.094 81.5205C334.645 81.7679 335.102 82.1112 335.467 82.5503C335.838 82.9832 336.111 83.5028 336.284 84.1089C336.463 84.715 336.553 85.3861 336.553 86.1221L329.084 86.1221ZM335.208 85.0366C335.065 84.0903 334.722 83.3853 334.178 82.9214C333.633 82.4575 332.962 82.2256 332.165 82.2256C331.756 82.2256 331.379 82.2936 331.033 82.4297C330.686 82.5596 330.38 82.7482 330.114 82.9956C329.848 83.243 329.626 83.543 329.446 83.8955C329.267 84.2419 329.153 84.6222 329.103 85.0366L335.208 85.0366ZM357.297 87.2446C357.198 88.1538 356.839 88.8774 356.221 89.4155C355.608 89.9474 354.841 90.2134 353.92 90.2134C353.413 90.2134 352.949 90.1299 352.528 89.9629C352.108 89.7959 351.749 89.564 351.452 89.2671C351.155 88.9702 350.923 88.6146 350.756 88.2002C350.596 87.7796 350.515 87.3219 350.515 86.8271L350.515 82.439L348.558 82.439L348.558 81.3535L350.515 81.3535L350.515 77.8931L351.786 77.8931L351.786 81.3535L355.469 81.3535L355.469 82.439L351.786 82.439L351.786 86.8271C351.786 87.1426 351.836 87.4395 351.935 87.7178C352.04 87.9961 352.182 88.2404 352.361 88.4507C352.547 88.661 352.77 88.828 353.029 88.9517C353.289 89.0692 353.586 89.1279 353.92 89.1279C354.551 89.1279 355.076 88.9331 355.497 88.5435C355.924 88.1476 356.168 87.6374 356.23 87.0127L357.297 87.2446ZM367.799 85.7046C367.799 86.3787 367.691 86.991 367.474 87.5415C367.264 88.092 366.958 88.5651 366.556 88.9609C366.16 89.3506 365.684 89.6567 365.127 89.8794C364.57 90.1021 363.949 90.2134 363.262 90.2134C362.588 90.2134 361.973 90.1021 361.416 89.8794C360.859 89.6567 360.38 89.3506 359.978 88.9609C359.582 88.5651 359.276 88.092 359.06 87.5415C358.849 86.991 358.744 86.3787 358.744 85.7046C358.744 85.049 358.849 84.4398 359.06 83.877C359.276 83.3079 359.582 82.8255 359.978 82.4297C360.38 82.0277 360.859 81.7153 361.416 81.4927C361.973 81.2638 362.588 81.1494 363.262 81.1494C363.949 81.1494 364.57 81.2638 365.127 81.4927C365.684 81.7153 366.16 82.0277 366.556 82.4297C366.958 82.8255 367.264 83.3079 367.474 83.877C367.691 84.4398 367.799 85.049 367.799 85.7046ZM366.528 85.7046C366.528 85.2098 366.454 84.7552 366.305 84.3408C366.163 83.9202 365.95 83.5522 365.665 83.2368C365.381 82.9214 365.034 82.674 364.626 82.4946C364.224 82.3153 363.769 82.2256 363.262 82.2256C362.755 82.2256 362.297 82.3153 361.889 82.4946C361.487 82.674 361.147 82.9214 360.869 83.2368C360.59 83.5522 360.377 83.9202 360.229 84.3408C360.086 84.7552 360.015 85.2098 360.015 85.7046C360.015 86.1994 360.086 86.6571 360.229 87.0776C360.377 87.492 360.59 87.8507 360.869 88.1538C361.147 88.4569 361.487 88.695 361.889 88.8682C362.297 89.0413 362.755 89.1279 363.262 89.1279C363.769 89.1279 364.224 89.0413 364.626 88.8682C365.034 88.695 365.381 88.4569 365.665 88.1538C365.95 87.8507 366.163 87.492 366.305 87.0776C366.454 86.6571 366.528 86.1994 366.528 85.7046ZM387.996 88.3486C387.631 88.9176 387.13 89.3722 386.493 89.7124C385.862 90.0464 385.11 90.2134 384.238 90.2134C383.564 90.2134 382.946 90.1021 382.383 89.8794C381.82 89.6567 381.338 89.3475 380.936 88.9517C380.54 88.5496 380.23 88.0734 380.008 87.5229C379.785 86.9725 379.674 86.3602 379.674 85.686C379.674 85.0304 379.776 84.4243 379.98 83.8677C380.184 83.3049 380.475 82.8255 380.852 82.4297C381.229 82.0277 381.69 81.7153 382.234 81.4927C382.785 81.2638 383.394 81.1494 384.062 81.1494C384.328 81.1494 384.6 81.1803 384.878 81.2422C385.157 81.304 385.42 81.3999 385.667 81.5298C385.914 81.6535 386.137 81.805 386.335 81.9844C386.533 82.1576 386.681 82.3647 386.78 82.606L386.78 81.3535L387.921 81.3535L387.921 84.814L386.78 84.814C386.78 84.4305 386.709 84.0811 386.567 83.7656C386.431 83.4502 386.242 83.1781 386.001 82.9492C385.76 82.7204 385.472 82.5441 385.138 82.4204C384.804 82.2905 384.445 82.2256 384.062 82.2256C383.542 82.2256 383.088 82.3153 382.698 82.4946C382.315 82.674 381.993 82.9183 381.733 83.2275C381.474 83.5368 381.276 83.9017 381.14 84.3223C381.01 84.7367 380.945 85.1912 380.945 85.686C380.945 86.1808 381.019 86.6385 381.167 87.0591C381.322 87.4735 381.542 87.8322 381.826 88.1353C382.117 88.4383 382.463 88.6795 382.865 88.8589C383.273 89.0382 383.731 89.1279 384.238 89.1279C384.882 89.1279 385.454 89.0011 385.955 88.7476C386.456 88.494 386.839 88.1569 387.105 87.7363L387.996 88.3486ZM398.915 85.7046C398.915 86.3787 398.807 86.991 398.59 87.5415C398.38 88.092 398.074 88.5651 397.672 88.9609C397.276 89.3506 396.8 89.6567 396.243 89.8794C395.687 90.1021 395.065 90.2134 394.378 90.2134C393.704 90.2134 393.089 90.1021 392.532 89.8794C391.976 89.6567 391.496 89.3506 391.094 88.9609C390.698 88.5651 390.392 88.092 390.176 87.5415C389.965 86.991 389.86 86.3787 389.86 85.7046C389.86 85.049 389.965 84.4398 390.176 83.877C390.392 83.3079 390.698 82.8255 391.094 82.4297C391.496 82.0277 391.976 81.7153 392.532 81.4927C393.089 81.2638 393.704 81.1494 394.378 81.1494C395.065 81.1494 395.687 81.2638 396.243 81.4927C396.8 81.7153 397.276 82.0277 397.672 82.4297C398.074 82.8255 398.38 83.3079 398.59 83.877C398.807 84.4398 398.915 85.049 398.915 85.7046ZM397.644 85.7046C397.644 85.2098 397.57 84.7552 397.421 84.3408C397.279 83.9202 397.066 83.5522 396.781 83.2368C396.497 82.9214 396.15 82.674 395.742 82.4946C395.34 82.3153 394.886 82.2256 394.378 82.2256C393.871 82.2256 393.414 82.3153 393.005 82.4946C392.603 82.674 392.263 82.9214 391.985 83.2368C391.707 83.5522 391.493 83.9202 391.345 84.3408C391.202 84.7552 391.131 85.2098 391.131 85.7046C391.131 86.1994 391.202 86.6571 391.345 87.0776C391.493 87.492 391.707 87.8507 391.985 88.1538C392.263 88.4569 392.603 88.695 393.005 88.8682C393.414 89.0413 393.871 89.1279 394.378 89.1279C394.886 89.1279 395.34 89.0413 395.742 88.8682C396.15 88.695 396.497 88.4569 396.781 88.1538C397.066 87.8507 397.279 87.492 397.421 87.0776C397.57 86.6571 397.644 86.1994 397.644 85.7046ZM408.61 90L407.33 90L407.33 84.6655C407.33 83.8924 407.163 83.2925 406.829 82.8657C406.495 82.439 405.953 82.2256 405.205 82.2256C404.735 82.2256 404.308 82.3338 403.925 82.5503C403.548 82.7668 403.226 83.0575 402.96 83.4224C402.694 83.7811 402.49 84.1955 402.348 84.6655C402.212 85.1294 402.144 85.6149 402.144 86.1221L402.144 90L400.873 90L400.873 81.3535L402.144 81.3535L402.144 83.5244C402.756 81.9411 403.847 81.1494 405.418 81.1494C407.546 81.1494 408.61 82.3215 408.61 84.6655L408.61 90ZM419.529 87.2446C419.43 88.1538 419.072 88.8774 418.453 89.4155C417.841 89.9474 417.074 90.2134 416.152 90.2134C415.645 90.2134 415.181 90.1299 414.761 89.9629C414.34 89.7959 413.981 89.564 413.685 89.2671C413.388 88.9702 413.156 88.6146 412.989 88.2002C412.828 87.7796 412.748 87.3219 412.748 86.8271L412.748 82.439L410.79 82.439L410.79 81.3535L412.748 81.3535L412.748 77.8931L414.019 77.8931L414.019 81.3535L417.702 81.3535L417.702 82.439L414.019 82.439L414.019 86.8271C414.019 87.1426 414.068 87.4395 414.167 87.7178C414.272 87.9961 414.414 88.2404 414.594 88.4507C414.779 88.661 415.002 88.828 415.262 88.9517C415.521 89.0692 415.818 89.1279 416.152 89.1279C416.783 89.1279 417.309 88.9331 417.729 88.5435C418.156 88.1476 418.401 87.6374 418.462 87.0127L419.529 87.2446ZM421.144 87.6621C421.144 87.1178 421.28 86.6632 421.552 86.2983C421.824 85.9272 422.18 85.6366 422.619 85.4263C423.064 85.2098 423.571 85.0552 424.14 84.9624C424.715 84.8634 425.3 84.814 425.894 84.814C426.122 84.814 426.326 84.8171 426.506 84.8232C426.691 84.8294 426.865 84.8387 427.025 84.8511C427.192 84.8634 427.359 84.8789 427.526 84.8975C427.693 84.916 427.876 84.9377 428.074 84.9624L428.074 84.3408C428.074 83.9202 427.981 83.5739 427.795 83.3018C427.616 83.0296 427.393 82.8162 427.127 82.6616C426.861 82.5008 426.583 82.3895 426.292 82.3276C426.002 82.2596 425.754 82.2256 425.55 82.2256C424.907 82.2256 424.313 82.3122 423.769 82.4854C423.225 82.6585 422.718 82.8905 422.248 83.1812L421.672 82.2256C422.192 81.9102 422.773 81.6535 423.417 81.4556C424.066 81.2515 424.777 81.1494 425.55 81.1494C426.02 81.1494 426.481 81.2113 426.933 81.335C427.39 81.4525 427.799 81.638 428.157 81.8916C428.522 82.139 428.813 82.4668 429.029 82.875C429.246 83.2832 429.354 83.7718 429.354 84.3408L429.354 90L428.074 90L428.074 88.5527C427.851 88.8311 427.597 89.0754 427.313 89.2856C427.035 89.4959 426.741 89.6691 426.432 89.8052C426.122 89.9351 425.813 90.034 425.504 90.1021C425.195 90.1763 424.901 90.2134 424.623 90.2134C423.478 90.2134 422.612 89.9938 422.025 89.5547C421.437 89.1156 421.144 88.4847 421.144 87.6621ZM424.623 89.1279C425.154 89.1279 425.631 89.0506 426.051 88.896C426.478 88.7352 426.84 88.5373 427.137 88.3022C427.434 88.0672 427.662 87.8167 427.823 87.5508C427.99 87.2848 428.074 87.0436 428.074 86.8271L428.074 86.0107C427.659 85.9489 427.26 85.9149 426.877 85.9087C426.5 85.9025 426.172 85.8994 425.894 85.8994C425.436 85.8994 424.994 85.9303 424.567 85.9922C424.146 86.054 423.778 86.1561 423.463 86.2983C423.147 86.4344 422.894 86.6138 422.702 86.8364C422.51 87.0591 422.415 87.3343 422.415 87.6621C422.415 88.027 422.591 88.3641 422.943 88.6733C423.302 88.9764 423.862 89.1279 424.623 89.1279ZM439.856 88.3486C439.491 88.9176 438.99 89.3722 438.353 89.7124C437.722 90.0464 436.971 90.2134 436.099 90.2134C435.424 90.2134 434.806 90.1021 434.243 89.8794C433.68 89.6567 433.198 89.3475 432.796 88.9517C432.4 88.5496 432.091 88.0734 431.868 87.5229C431.646 86.9725 431.534 86.3602 431.534 85.686C431.534 85.0304 431.636 84.4243 431.84 83.8677C432.044 83.3049 432.335 82.8255 432.712 82.4297C433.09 82.0277 433.55 81.7153 434.095 81.4927C434.645 81.2638 435.254 81.1494 435.922 81.1494C436.188 81.1494 436.46 81.1803 436.739 81.2422C437.017 81.304 437.28 81.3999 437.527 81.5298C437.775 81.6535 437.997 81.805 438.195 81.9844C438.393 82.1576 438.542 82.3647 438.641 82.606L438.641 81.3535L439.782 81.3535L439.782 84.814L438.641 84.814C438.641 84.4305 438.569 84.0811 438.427 83.7656C438.291 83.4502 438.103 83.1781 437.861 82.9492C437.62 82.7204 437.333 82.5441 436.999 82.4204C436.665 82.2905 436.306 82.2256 435.922 82.2256C435.403 82.2256 434.948 82.3153 434.559 82.4946C434.175 82.674 433.854 82.9183 433.594 83.2275C433.334 83.5368 433.136 83.9017 433 84.3223C432.87 84.7367 432.805 85.1912 432.805 85.686C432.805 86.1808 432.879 86.6385 433.028 87.0591C433.182 87.4735 433.402 87.8322 433.687 88.1353C433.977 88.4383 434.324 88.6795 434.726 88.8589C435.134 89.0382 435.591 89.1279 436.099 89.1279C436.742 89.1279 437.314 89.0011 437.815 88.7476C438.316 88.494 438.699 88.1569 438.965 87.7363L439.856 88.3486ZM450.646 87.2446C450.547 88.1538 450.188 88.8774 449.569 89.4155C448.957 89.9474 448.19 90.2134 447.269 90.2134C446.761 90.2134 446.298 90.1299 445.877 89.9629C445.456 89.7959 445.098 89.564 444.801 89.2671C444.504 88.9702 444.272 88.6146 444.105 88.2002C443.944 87.7796 443.864 87.3219 443.864 86.8271L443.864 82.439L441.906 82.439L441.906 81.3535L443.864 81.3535L443.864 77.8931L445.135 77.8931L445.135 81.3535L448.818 81.3535L448.818 82.439L445.135 82.439L445.135 86.8271C445.135 87.1426 445.184 87.4395 445.283 87.7178C445.388 87.9961 445.531 88.2404 445.71 88.4507C445.896 88.661 446.118 88.828 446.378 88.9517C446.638 89.0692 446.935 89.1279 447.269 89.1279C447.899 89.1279 448.425 88.9331 448.846 88.5435C449.272 88.1476 449.517 87.6374 449.579 87.0127L450.646 87.2446ZM110.455 100.354L111.726 100.354L111.726 105.697C111.726 106.47 111.893 107.07 112.227 107.497C112.567 107.918 113.111 108.128 113.859 108.128C114.329 108.128 114.753 108.02 115.13 107.803C115.508 107.587 115.829 107.299 116.095 106.94C116.361 106.576 116.562 106.161 116.698 105.697C116.84 105.227 116.912 104.739 116.912 104.231L116.912 100.354L118.192 100.354L118.192 109L116.912 109L116.912 106.838C116.306 108.422 115.217 109.213 113.646 109.213C111.518 109.213 110.455 108.041 110.455 105.697L110.455 100.354ZM128.787 106.606C128.787 107.114 128.66 107.534 128.406 107.868C128.153 108.202 127.825 108.468 127.423 108.666C127.027 108.864 126.582 109.003 126.087 109.083C125.598 109.17 125.119 109.213 124.649 109.213C123.863 109.213 123.081 109.099 122.302 108.87C121.522 108.641 120.848 108.341 120.279 107.97L120.845 106.875C121.482 107.278 122.11 107.587 122.729 107.803C123.347 108.02 123.987 108.128 124.649 108.128C126.56 108.128 127.516 107.633 127.516 106.644C127.516 106.402 127.435 106.208 127.274 106.059C127.12 105.904 126.91 105.781 126.644 105.688C126.378 105.589 126.071 105.512 125.725 105.456C125.385 105.4 125.026 105.348 124.649 105.298C124.167 105.23 123.687 105.15 123.211 105.057C122.735 104.964 122.299 104.825 121.903 104.64C121.513 104.454 121.198 104.207 120.957 103.897C120.722 103.588 120.604 103.18 120.604 102.673C120.604 102.24 120.712 101.866 120.929 101.55C121.151 101.235 121.445 100.972 121.81 100.762C122.181 100.551 122.614 100.397 123.109 100.298C123.604 100.199 124.117 100.149 124.649 100.149C125.41 100.149 126.09 100.239 126.69 100.418C127.29 100.592 127.831 100.842 128.313 101.17L127.803 102.163C127.308 101.816 126.807 101.575 126.3 101.439C125.793 101.297 125.243 101.226 124.649 101.226C124.383 101.226 124.086 101.25 123.758 101.3C123.437 101.343 123.137 101.424 122.858 101.541C122.58 101.652 122.345 101.801 122.153 101.986C121.968 102.166 121.875 102.395 121.875 102.673C121.875 102.914 121.952 103.109 122.107 103.257C122.268 103.4 122.481 103.52 122.747 103.619C123.013 103.712 123.316 103.786 123.656 103.842C124.003 103.897 124.364 103.95 124.742 104C125.212 104.068 125.685 104.148 126.161 104.241C126.644 104.333 127.08 104.47 127.469 104.649C127.865 104.828 128.184 105.073 128.425 105.382C128.666 105.691 128.787 106.099 128.787 106.606ZM141.098 106.662C141.098 106.118 141.234 105.663 141.506 105.298C141.778 104.927 142.134 104.637 142.573 104.426C143.018 104.21 143.525 104.055 144.094 103.962C144.669 103.863 145.254 103.814 145.848 103.814C146.076 103.814 146.281 103.817 146.46 103.823C146.646 103.829 146.819 103.839 146.979 103.851C147.146 103.863 147.313 103.879 147.48 103.897C147.647 103.916 147.83 103.938 148.028 103.962L148.028 103.341C148.028 102.92 147.935 102.574 147.75 102.302C147.57 102.03 147.347 101.816 147.082 101.662C146.816 101.501 146.537 101.389 146.247 101.328C145.956 101.26 145.708 101.226 145.504 101.226C144.861 101.226 144.267 101.312 143.723 101.485C143.179 101.659 142.672 101.89 142.202 102.181L141.626 101.226C142.146 100.91 142.727 100.653 143.371 100.456C144.02 100.251 144.731 100.149 145.504 100.149C145.974 100.149 146.435 100.211 146.887 100.335C147.344 100.452 147.753 100.638 148.111 100.892C148.476 101.139 148.767 101.467 148.983 101.875C149.2 102.283 149.308 102.772 149.308 103.341L149.308 109L148.028 109L148.028 107.553C147.805 107.831 147.552 108.075 147.267 108.286C146.989 108.496 146.695 108.669 146.386 108.805C146.076 108.935 145.767 109.034 145.458 109.102C145.149 109.176 144.855 109.213 144.577 109.213C143.432 109.213 142.567 108.994 141.979 108.555C141.391 108.116 141.098 107.485 141.098 106.662ZM144.577 108.128C145.109 108.128 145.585 108.051 146.005 107.896C146.432 107.735 146.794 107.537 147.091 107.302C147.388 107.067 147.617 106.817 147.777 106.551C147.944 106.285 148.028 106.044 148.028 105.827L148.028 105.011C147.613 104.949 147.215 104.915 146.831 104.909C146.454 104.903 146.126 104.899 145.848 104.899C145.39 104.899 144.948 104.93 144.521 104.992C144.1 105.054 143.732 105.156 143.417 105.298C143.102 105.434 142.848 105.614 142.656 105.836C142.465 106.059 142.369 106.334 142.369 106.662C142.369 107.027 142.545 107.364 142.897 107.673C143.256 107.976 143.816 108.128 144.577 108.128ZM160.228 106.245C160.129 107.154 159.77 107.877 159.151 108.416C158.539 108.947 157.772 109.213 156.851 109.213C156.343 109.213 155.88 109.13 155.459 108.963C155.038 108.796 154.68 108.564 154.383 108.267C154.086 107.97 153.854 107.615 153.687 107.2C153.526 106.78 153.446 106.322 153.446 105.827L153.446 101.439L151.488 101.439L151.488 100.354L153.446 100.354L153.446 96.8931L154.717 96.8931L154.717 100.354L158.4 100.354L158.4 101.439L154.717 101.439L154.717 105.827C154.717 106.143 154.766 106.439 154.865 106.718C154.97 106.996 155.113 107.24 155.292 107.451C155.478 107.661 155.7 107.828 155.96 107.952C156.22 108.069 156.517 108.128 156.851 108.128C157.481 108.128 158.007 107.933 158.428 107.543C158.854 107.148 159.099 106.637 159.161 106.013L160.228 106.245ZM167.046 102.088L165.321 102.088L165.321 100.354L167.046 100.354L167.046 102.088ZM167.046 109L165.321 109L165.321 107.274L167.046 107.274L167.046 109Z" fill="#FFFEFE"/>
<defs>
<linearGradient id="paint0_linear" x1="487.239" y1="614.88" x2="480.739" y2="372.728" gradientUnits="userSpaceOnUse">
<stop stop-color="#29225E"/>
<stop offset="1" stop-color="#3F368C"/>
</linearGradient>
<linearGradient id="paint1_linear" x1="462.991" y1="615.558" x2="456.491" y2="373.393" gradientUnits="userSpaceOnUse">
<stop stop-color="#29225E"/>
<stop offset="1" stop-color="#3F368C"/>
</linearGradient>
<linearGradient id="paint2_linear" x1="498.626" y1="315.759" x2="609.284" y2="262.929" gradientUnits="userSpaceOnUse">
<stop stop-color="#9AE8E0"/>
<stop offset="1" stop-color="#25FFF3"/>
</linearGradient>
<linearGradient id="paint3_linear" x1="478.827" y1="268.907" x2="481.718" y2="268.907" gradientUnits="userSpaceOnUse">
<stop stop-color="#9AE8E0"/>
<stop offset="1" stop-color="#25FFF3"/>
</linearGradient>
<linearGradient id="paint4_linear" x1="281.999" y1="205.941" x2="281.999" y2="902.108" gradientUnits="userSpaceOnUse">
<stop offset="0.3281" stop-color="#DD45D3"/>
<stop offset="1" stop-color="#6A11EA"/>
</linearGradient>
<linearGradient id="paint5_linear" x1="467.865" y1="309.785" x2="394.923" y2="378.674" gradientUnits="userSpaceOnUse">
<stop stop-color="#9AE8E0"/>
<stop offset="1" stop-color="#25FFF3"/>
</linearGradient>
<linearGradient id="paint6_linear" x1="197.753" y1="43.9865" x2="440.967" y2="276.354" gradientUnits="userSpaceOnUse">
<stop stop-color="#9AE8E0"/>
<stop offset="1" stop-color="#25FFF3"/>
</linearGradient>
<linearGradient id="paint7_linear" x1="198.455" y1="35.946" x2="445.693" y2="272.157" gradientUnits="userSpaceOnUse">
<stop offset="0.3281" stop-color="#DD45D3"/>
<stop offset="1" stop-color="#6A11EA"/>
</linearGradient>
<clipPath id="clip0">
<rect width="147.8" height="430.6" fill="white" transform="translate(430 202)"/>
</clipPath>
<clipPath id="clip1">
<rect width="71.7" height="94.6" fill="white" transform="translate(403 282)"/>
</clipPath>
</defs>
</svg>
