<svg width="386" height="249" viewBox="0 0 386 249" fill="none" xmlns="http://www.w3.org/2000/svg">
<g clip-path="url(#clip0)">
<path d="M77.2472 240.104H308.831C351.31 240.104 386.079 205.309 386.079 162.799V118.556C386.079 76.0462 351.31 41.2507 308.831 41.2507H168.024L42.6354 0L81.731 41.3294H77.2472C34.7691 41.3294 0 76.1249 0 118.635V162.877C0 205.309 34.7691 240.104 77.2472 240.104Z" fill="url(#paint0_linear)"/>
<path d="M77.2472 249H308.831C351.31 249 386.079 214.205 386.079 171.694V127.531C386.079 85.0206 351.31 50.2251 308.831 50.2251H168.024L42.6354 0L81.731 50.2251H77.2472C34.7691 50.2251 0 85.0206 0 127.531V171.773C0 214.283 34.7691 249 77.2472 249Z" fill="url(#paint1_linear)"/>
<path d="M38.3403 108.846C38.3403 109.353 38.2352 109.814 38.0249 110.228C37.8146 110.636 37.5332 110.989 37.1807 111.286C36.8281 111.583 36.423 111.811 35.9653 111.972C35.5076 112.133 35.0314 112.213 34.5366 112.213C33.8563 112.213 33.2316 112.087 32.6626 111.833C32.0936 111.579 31.6421 111.205 31.3081 110.71V112H30.2319V108.317H31.3081C31.3081 108.731 31.404 109.112 31.5957 109.458C31.7874 109.798 32.0317 110.092 32.3286 110.339C32.6255 110.587 32.9657 110.782 33.3491 110.924C33.7388 111.06 34.1346 111.128 34.5366 111.128C34.8953 111.128 35.2262 111.078 35.5293 110.979C35.8324 110.874 36.0983 110.729 36.3271 110.543C36.556 110.352 36.7354 110.12 36.8652 109.848C37.0013 109.576 37.0693 109.266 37.0693 108.92C37.0693 108.53 36.9827 108.196 36.8096 107.918C36.6426 107.64 36.4137 107.402 36.123 107.204C35.8385 107.006 35.5169 106.839 35.1582 106.703C34.7995 106.56 34.4346 106.421 34.0635 106.285C33.6243 106.131 33.1852 105.97 32.7461 105.803C32.307 105.63 31.9142 105.413 31.5679 105.153C31.2215 104.894 30.9401 104.578 30.7236 104.207C30.5072 103.83 30.3989 103.363 30.3989 102.806C30.3989 102.311 30.5041 101.872 30.7144 101.489C30.9246 101.099 31.1999 100.771 31.54 100.505C31.8802 100.239 32.276 100.038 32.7275 99.9023C33.179 99.7601 33.6429 99.689 34.1191 99.689C34.7067 99.689 35.2479 99.8096 35.7427 100.051C36.2437 100.292 36.6333 100.66 36.9116 101.155V99.8931H38.0342V103.354H36.9116C36.9116 102.989 36.8343 102.648 36.6797 102.333C36.5312 102.011 36.3271 101.739 36.0674 101.517C35.8076 101.288 35.5107 101.108 35.1768 100.979C34.8428 100.842 34.4902 100.774 34.1191 100.774C33.7913 100.774 33.479 100.812 33.1821 100.886C32.8853 100.96 32.6255 101.081 32.4028 101.248C32.1802 101.408 32.0008 101.619 31.8647 101.878C31.7349 102.138 31.6699 102.447 31.6699 102.806C31.6699 103.122 31.7472 103.391 31.9019 103.613C32.0627 103.836 32.276 104.034 32.542 104.207C32.8079 104.374 33.1141 104.529 33.4604 104.671C33.813 104.807 34.1717 104.946 34.5366 105.088C34.9943 105.249 35.4489 105.429 35.9004 105.626C36.3519 105.824 36.757 106.062 37.1157 106.341C37.4744 106.619 37.7682 106.962 37.9971 107.371C38.2259 107.773 38.3403 108.264 38.3403 108.846ZM48.564 112H47.2837V106.666C47.2837 105.892 47.1167 105.292 46.7827 104.866C46.4487 104.439 45.9076 104.226 45.1592 104.226C44.6891 104.226 44.2624 104.334 43.8789 104.55C43.5016 104.767 43.18 105.057 42.9141 105.422C42.6481 105.781 42.444 106.195 42.3018 106.666C42.1657 107.129 42.0977 107.615 42.0977 108.122V112H40.8267V99.8931H42.0977V105.524C42.71 103.941 43.8016 103.149 45.3726 103.149C47.5002 103.149 48.564 104.321 48.564 106.666V112ZM59.6133 107.705C59.6133 108.379 59.505 108.991 59.2886 109.542C59.0783 110.092 58.7721 110.565 58.3701 110.961C57.9743 111.351 57.498 111.657 56.9414 111.879C56.3848 112.102 55.7632 112.213 55.0767 112.213C54.4025 112.213 53.7871 112.102 53.2305 111.879C52.6738 111.657 52.1945 111.351 51.7925 110.961C51.3966 110.565 51.0905 110.092 50.874 109.542C50.6637 108.991 50.5586 108.379 50.5586 107.705C50.5586 107.049 50.6637 106.44 50.874 105.877C51.0905 105.308 51.3966 104.826 51.7925 104.43C52.1945 104.028 52.6738 103.715 53.2305 103.493C53.7871 103.264 54.4025 103.149 55.0767 103.149C55.7632 103.149 56.3848 103.264 56.9414 103.493C57.498 103.715 57.9743 104.028 58.3701 104.43C58.7721 104.826 59.0783 105.308 59.2886 105.877C59.505 106.44 59.6133 107.049 59.6133 107.705ZM58.3423 107.705C58.3423 107.21 58.2681 106.755 58.1196 106.341C57.9774 105.92 57.764 105.552 57.4795 105.237C57.195 104.921 56.8486 104.674 56.4404 104.495C56.0384 104.315 55.5838 104.226 55.0767 104.226C54.5695 104.226 54.1118 104.315 53.7036 104.495C53.3016 104.674 52.9614 104.921 52.6831 105.237C52.4048 105.552 52.1914 105.92 52.043 106.341C51.9007 106.755 51.8296 107.21 51.8296 107.705C51.8296 108.199 51.9007 108.657 52.043 109.078C52.1914 109.492 52.4048 109.851 52.6831 110.154C52.9614 110.457 53.3016 110.695 53.7036 110.868C54.1118 111.041 54.5695 111.128 55.0767 111.128C55.5838 111.128 56.0384 111.041 56.4404 110.868C56.8486 110.695 57.195 110.457 57.4795 110.154C57.764 109.851 57.9774 109.492 58.1196 109.078C58.2681 108.657 58.3423 108.199 58.3423 107.705ZM61.5708 103.354H62.8418V108.697C62.8418 109.47 63.0088 110.07 63.3428 110.497C63.6829 110.918 64.2272 111.128 64.9756 111.128C65.4456 111.128 65.8693 111.02 66.2466 110.803C66.6239 110.587 66.9455 110.299 67.2114 109.94C67.4774 109.576 67.6784 109.161 67.8145 108.697C67.9567 108.227 68.0278 107.739 68.0278 107.231V103.354H69.3081V112H68.0278V109.838C67.4217 111.422 66.3332 112.213 64.7622 112.213C62.6346 112.213 61.5708 111.041 61.5708 108.697V103.354ZM78.3999 112H73.2139V110.915H75.1714V100.979H73.2139V99.8931H76.4517V110.915H78.3999V112ZM90.0522 112H88.772V111.202C88.4071 111.53 88.005 111.78 87.5659 111.954C87.133 112.127 86.6877 112.213 86.23 112.213C85.5435 112.213 84.9281 112.102 84.3838 111.879C83.8395 111.657 83.3787 111.347 83.0015 110.952C82.6304 110.55 82.3428 110.07 82.1387 109.514C81.9408 108.957 81.8418 108.348 81.8418 107.686C81.8418 107.03 81.9408 106.424 82.1387 105.868C82.3428 105.305 82.6304 104.826 83.0015 104.43C83.3787 104.028 83.8395 103.715 84.3838 103.493C84.9281 103.264 85.5435 103.149 86.23 103.149C86.6877 103.149 87.133 103.233 87.5659 103.4C88.005 103.561 88.4071 103.805 88.772 104.133V100.979H87.0464V99.8931H90.0522V112ZM88.772 105.367C88.4071 104.965 88.0081 104.674 87.5752 104.495C87.1484 104.315 86.6938 104.226 86.2114 104.226C85.7043 104.226 85.2559 104.315 84.8662 104.495C84.4827 104.674 84.1611 104.918 83.9014 105.228C83.6416 105.537 83.4437 105.902 83.3076 106.322C83.1777 106.737 83.1128 107.191 83.1128 107.686C83.1128 108.181 83.1777 108.639 83.3076 109.059C83.4437 109.473 83.6416 109.835 83.9014 110.145C84.1611 110.454 84.4827 110.698 84.8662 110.877C85.2559 111.057 85.7043 111.146 86.2114 111.146C87.1886 111.146 88.0422 110.76 88.772 109.987V105.367ZM111.52 103.354L106.844 114.189C106.603 114.796 106.263 115.191 105.824 115.377C105.385 115.569 104.899 115.665 104.367 115.665C103.773 115.665 103.18 115.556 102.586 115.34L102.836 114.245C103.127 114.369 103.412 114.455 103.69 114.505C103.968 114.561 104.194 114.588 104.367 114.588C104.788 114.588 105.075 114.486 105.23 114.282C105.391 114.078 105.53 113.837 105.647 113.559L106.176 112.25L102.317 103.354H103.82L106.937 110.915L109.999 103.354H111.52ZM121.846 107.705C121.846 108.379 121.737 108.991 121.521 109.542C121.311 110.092 121.005 110.565 120.603 110.961C120.207 111.351 119.73 111.657 119.174 111.879C118.617 112.102 117.996 112.213 117.309 112.213C116.635 112.213 116.02 112.102 115.463 111.879C114.906 111.657 114.427 111.351 114.025 110.961C113.629 110.565 113.323 110.092 113.106 109.542C112.896 108.991 112.791 108.379 112.791 107.705C112.791 107.049 112.896 106.44 113.106 105.877C113.323 105.308 113.629 104.826 114.025 104.43C114.427 104.028 114.906 103.715 115.463 103.493C116.02 103.264 116.635 103.149 117.309 103.149C117.996 103.149 118.617 103.264 119.174 103.493C119.73 103.715 120.207 104.028 120.603 104.43C121.005 104.826 121.311 105.308 121.521 105.877C121.737 106.44 121.846 107.049 121.846 107.705ZM120.575 107.705C120.575 107.21 120.5 106.755 120.352 106.341C120.21 105.92 119.996 105.552 119.712 105.237C119.427 104.921 119.081 104.674 118.673 104.495C118.271 104.315 117.816 104.226 117.309 104.226C116.802 104.226 116.344 104.315 115.936 104.495C115.534 104.674 115.194 104.921 114.916 105.237C114.637 105.552 114.424 105.92 114.275 106.341C114.133 106.755 114.062 107.21 114.062 107.705C114.062 108.199 114.133 108.657 114.275 109.078C114.424 109.492 114.637 109.851 114.916 110.154C115.194 110.457 115.534 110.695 115.936 110.868C116.344 111.041 116.802 111.128 117.309 111.128C117.816 111.128 118.271 111.041 118.673 110.868C119.081 110.695 119.427 110.457 119.712 110.154C119.996 109.851 120.21 109.492 120.352 109.078C120.5 108.657 120.575 108.199 120.575 107.705ZM123.803 103.354H125.074V108.697C125.074 109.47 125.241 110.07 125.575 110.497C125.915 110.918 126.46 111.128 127.208 111.128C127.678 111.128 128.102 111.02 128.479 110.803C128.856 110.587 129.178 110.299 129.444 109.94C129.71 109.576 129.911 109.161 130.047 108.697C130.189 108.227 130.26 107.739 130.26 107.231V103.354H131.541V112H130.26V109.838C129.654 111.422 128.566 112.213 126.995 112.213C124.867 112.213 123.803 111.041 123.803 108.697V103.354ZM152.285 112H151.004V106.666C151.004 105.892 150.837 105.292 150.503 104.866C150.169 104.439 149.628 104.226 148.88 104.226C148.41 104.226 147.983 104.334 147.6 104.55C147.222 104.767 146.901 105.057 146.635 105.422C146.369 105.781 146.165 106.195 146.022 106.666C145.886 107.129 145.818 107.615 145.818 108.122V112H144.547V99.8931H145.818V105.524C146.431 103.941 147.522 103.149 149.093 103.149C151.221 103.149 152.285 104.321 152.285 106.666V112ZM154.446 109.662C154.446 109.118 154.582 108.663 154.854 108.298C155.127 107.927 155.482 107.637 155.921 107.426C156.367 107.21 156.874 107.055 157.443 106.962C158.018 106.863 158.603 106.814 159.196 106.814C159.425 106.814 159.629 106.817 159.809 106.823C159.994 106.829 160.167 106.839 160.328 106.851C160.495 106.863 160.662 106.879 160.829 106.897C160.996 106.916 161.179 106.938 161.376 106.962V106.341C161.376 105.92 161.284 105.574 161.098 105.302C160.919 105.03 160.696 104.816 160.43 104.662C160.164 104.501 159.886 104.389 159.595 104.328C159.305 104.26 159.057 104.226 158.853 104.226C158.21 104.226 157.616 104.312 157.072 104.485C156.528 104.659 156.02 104.89 155.55 105.181L154.975 104.226C155.495 103.91 156.076 103.653 156.719 103.456C157.369 103.251 158.08 103.149 158.853 103.149C159.323 103.149 159.784 103.211 160.235 103.335C160.693 103.452 161.101 103.638 161.46 103.892C161.825 104.139 162.116 104.467 162.332 104.875C162.549 105.283 162.657 105.772 162.657 106.341V112H161.376V110.553C161.154 110.831 160.9 111.075 160.616 111.286C160.337 111.496 160.044 111.669 159.734 111.805C159.425 111.935 159.116 112.034 158.807 112.102C158.497 112.176 158.204 112.213 157.925 112.213C156.781 112.213 155.915 111.994 155.328 111.555C154.74 111.116 154.446 110.485 154.446 109.662ZM157.925 111.128C158.457 111.128 158.933 111.051 159.354 110.896C159.781 110.735 160.143 110.537 160.439 110.302C160.736 110.067 160.965 109.817 161.126 109.551C161.293 109.285 161.376 109.044 161.376 108.827V108.011C160.962 107.949 160.563 107.915 160.18 107.909C159.802 107.903 159.475 107.899 159.196 107.899C158.739 107.899 158.296 107.93 157.87 107.992C157.449 108.054 157.081 108.156 156.766 108.298C156.45 108.434 156.197 108.614 156.005 108.836C155.813 109.059 155.717 109.334 155.717 109.662C155.717 110.027 155.894 110.364 156.246 110.673C156.605 110.976 157.165 111.128 157.925 111.128ZM173.771 103.354L170.023 112H168.316L164.549 103.354H166.071L169.169 110.933L172.25 103.354H173.771ZM176.48 108.122C176.573 109.037 176.907 109.767 177.482 110.312C178.057 110.856 178.806 111.128 179.727 111.128C180.376 111.128 180.955 110.995 181.462 110.729C181.969 110.463 182.349 110.132 182.603 109.736L183.494 110.349C183.061 110.955 182.544 111.419 181.944 111.74C181.344 112.056 180.605 112.213 179.727 112.213C179.059 112.213 178.447 112.102 177.89 111.879C177.333 111.657 176.851 111.347 176.443 110.952C176.041 110.55 175.729 110.073 175.506 109.523C175.283 108.972 175.172 108.36 175.172 107.686C175.172 107.03 175.271 106.427 175.469 105.877C175.673 105.32 175.964 104.841 176.341 104.439C176.724 104.031 177.188 103.715 177.732 103.493C178.277 103.264 178.886 103.149 179.56 103.149C180.296 103.149 180.939 103.273 181.49 103.521C182.04 103.768 182.498 104.111 182.863 104.55C183.234 104.983 183.506 105.503 183.679 106.109C183.859 106.715 183.948 107.386 183.948 108.122H176.48ZM182.603 107.037C182.461 106.09 182.118 105.385 181.573 104.921C181.029 104.458 180.358 104.226 179.56 104.226C179.152 104.226 178.775 104.294 178.428 104.43C178.082 104.56 177.776 104.748 177.51 104.996C177.244 105.243 177.021 105.543 176.842 105.896C176.662 106.242 176.548 106.622 176.499 107.037H182.603ZM195.935 109.662C195.935 109.118 196.071 108.663 196.343 108.298C196.615 107.927 196.971 107.637 197.41 107.426C197.855 107.21 198.362 107.055 198.931 106.962C199.506 106.863 200.091 106.814 200.685 106.814C200.913 106.814 201.118 106.817 201.297 106.823C201.482 106.829 201.656 106.839 201.816 106.851C201.983 106.863 202.15 106.879 202.317 106.897C202.484 106.916 202.667 106.938 202.865 106.962V106.341C202.865 105.92 202.772 105.574 202.586 105.302C202.407 105.03 202.184 104.816 201.918 104.662C201.653 104.501 201.374 104.389 201.083 104.328C200.793 104.26 200.545 104.226 200.341 104.226C199.698 104.226 199.104 104.312 198.56 104.485C198.016 104.659 197.509 104.89 197.039 105.181L196.463 104.226C196.983 103.91 197.564 103.653 198.208 103.456C198.857 103.251 199.568 103.149 200.341 103.149C200.811 103.149 201.272 103.211 201.724 103.335C202.181 103.452 202.59 103.638 202.948 103.892C203.313 104.139 203.604 104.467 203.82 104.875C204.037 105.283 204.145 105.772 204.145 106.341V112H202.865V110.553C202.642 110.831 202.389 111.075 202.104 111.286C201.826 111.496 201.532 111.669 201.223 111.805C200.913 111.935 200.604 112.034 200.295 112.102C199.986 112.176 199.692 112.213 199.414 112.213C198.269 112.213 197.403 111.994 196.816 111.555C196.228 111.116 195.935 110.485 195.935 109.662ZM199.414 111.128C199.945 111.128 200.422 111.051 200.842 110.896C201.269 110.735 201.631 110.537 201.928 110.302C202.225 110.067 202.453 109.817 202.614 109.551C202.781 109.285 202.865 109.044 202.865 108.827V108.011C202.45 107.949 202.051 107.915 201.668 107.909C201.291 107.903 200.963 107.899 200.685 107.899C200.227 107.899 199.785 107.93 199.358 107.992C198.937 108.054 198.569 108.156 198.254 108.298C197.938 108.434 197.685 108.614 197.493 108.836C197.301 109.059 197.206 109.334 197.206 109.662C197.206 110.027 197.382 110.364 197.734 110.673C198.093 110.976 198.653 111.128 199.414 111.128ZM214.517 112H213.237V106.666C213.237 105.892 213.07 105.292 212.736 104.866C212.402 104.439 211.861 104.226 211.112 104.226C210.642 104.226 210.215 104.334 209.832 104.55C209.455 104.767 209.133 105.057 208.867 105.422C208.601 105.781 208.397 106.195 208.255 106.666C208.119 107.129 208.051 107.615 208.051 108.122V112H206.78V103.354H208.051V105.524C208.663 103.941 209.755 103.149 211.326 103.149C213.453 103.149 214.517 104.321 214.517 106.666V112ZM225.613 103.354L220.937 114.189C220.696 114.796 220.356 115.191 219.917 115.377C219.477 115.569 218.992 115.665 218.46 115.665C217.866 115.665 217.272 115.556 216.679 115.34L216.929 114.245C217.22 114.369 217.504 114.455 217.783 114.505C218.061 114.561 218.287 114.588 218.46 114.588C218.881 114.588 219.168 114.486 219.323 114.282C219.484 114.078 219.623 113.837 219.74 113.559L220.269 112.25L216.41 103.354H217.913L221.03 110.915L224.091 103.354H225.613ZM238.712 108.122C238.805 109.037 239.139 109.767 239.714 110.312C240.29 110.856 241.038 111.128 241.959 111.128C242.609 111.128 243.187 110.995 243.694 110.729C244.201 110.463 244.582 110.132 244.835 109.736L245.726 110.349C245.293 110.955 244.777 111.419 244.177 111.74C243.577 112.056 242.838 112.213 241.959 112.213C241.292 112.213 240.679 112.102 240.123 111.879C239.566 111.657 239.083 111.347 238.675 110.952C238.273 110.55 237.961 110.073 237.738 109.523C237.516 108.972 237.404 108.36 237.404 107.686C237.404 107.03 237.503 106.427 237.701 105.877C237.905 105.32 238.196 104.841 238.573 104.439C238.957 104.031 239.421 103.715 239.965 103.493C240.509 103.264 241.118 103.149 241.792 103.149C242.528 103.149 243.172 103.273 243.722 103.521C244.273 103.768 244.73 104.111 245.095 104.55C245.466 104.983 245.738 105.503 245.912 106.109C246.091 106.715 246.181 107.386 246.181 108.122H238.712ZM244.835 107.037C244.693 106.09 244.35 105.385 243.806 104.921C243.261 104.458 242.59 104.226 241.792 104.226C241.384 104.226 241.007 104.294 240.661 104.43C240.314 104.56 240.008 104.748 239.742 104.996C239.476 105.243 239.254 105.543 239.074 105.896C238.895 106.242 238.78 106.622 238.731 107.037H244.835ZM256.005 112H254.725V106.666C254.725 105.892 254.558 105.292 254.224 104.866C253.89 104.439 253.349 104.226 252.601 104.226C252.131 104.226 251.704 104.334 251.32 104.55C250.943 104.767 250.621 105.057 250.355 105.422C250.09 105.781 249.885 106.195 249.743 106.666C249.607 107.129 249.539 107.615 249.539 108.122V112H248.268V103.354H249.539V105.524C250.151 103.941 251.243 103.149 252.814 103.149C254.942 103.149 256.005 104.321 256.005 106.666V112ZM258.186 107.686C258.186 107.03 258.291 106.424 258.501 105.868C258.711 105.305 259.005 104.822 259.382 104.42C259.76 104.012 260.217 103.7 260.755 103.483C261.3 103.261 261.906 103.149 262.574 103.149C263.471 103.149 264.312 103.483 265.097 104.151V103.354H266.377V115.46H265.097V111.221C264.732 111.549 264.333 111.796 263.9 111.963C263.474 112.13 263.031 112.213 262.574 112.213C261.906 112.213 261.3 112.102 260.755 111.879C260.217 111.657 259.76 111.347 259.382 110.952C259.005 110.55 258.711 110.073 258.501 109.523C258.291 108.972 258.186 108.36 258.186 107.686ZM259.457 107.686C259.457 108.168 259.521 108.62 259.651 109.041C259.787 109.455 259.988 109.817 260.254 110.126C260.52 110.435 260.845 110.68 261.229 110.859C261.618 111.038 262.067 111.128 262.574 111.128C263.056 111.128 263.505 111.041 263.919 110.868C264.34 110.695 264.732 110.407 265.097 110.005V105.367C264.732 104.965 264.34 104.674 263.919 104.495C263.505 104.315 263.056 104.226 262.574 104.226C262.067 104.226 261.618 104.315 261.229 104.495C260.845 104.674 260.52 104.918 260.254 105.228C259.988 105.537 259.787 105.905 259.651 106.332C259.521 106.752 259.457 107.204 259.457 107.686ZM269.012 103.354H270.283V108.697C270.283 109.47 270.45 110.07 270.784 110.497C271.124 110.918 271.669 111.128 272.417 111.128C272.887 111.128 273.311 111.02 273.688 110.803C274.065 110.587 274.387 110.299 274.653 109.94C274.919 109.576 275.12 109.161 275.256 108.697C275.398 108.227 275.469 107.739 275.469 107.231V103.354H276.75V112H275.469V109.838C274.863 111.422 273.775 112.213 272.204 112.213C270.076 112.213 269.012 111.041 269.012 108.697V103.354ZM284.116 101.628H282.39V99.8931H284.116V101.628ZM285.841 112H280.655V110.915H282.613V104.439H280.655V103.354H283.893V110.915H285.841V112ZM297.475 104.569C297.017 104.34 296.473 104.226 295.842 104.226C295.323 104.226 294.859 104.337 294.451 104.56C294.042 104.782 293.696 105.076 293.412 105.441C293.127 105.8 292.908 106.214 292.753 106.684C292.604 107.148 292.53 107.627 292.53 108.122V110.915H294.488V112H289.302V110.915H291.259V104.439H289.302V103.354H292.53V105.524C293.112 103.941 294.216 103.149 295.842 103.149C296.281 103.149 296.662 103.177 296.983 103.233C297.311 103.289 297.614 103.388 297.893 103.53L297.475 104.569ZM304.86 101.628H303.134V99.8931H304.86V101.628ZM306.585 112H301.399V110.915H303.357V104.439H301.399V103.354H304.637V110.915H306.585V112ZM311.317 108.122C311.41 109.037 311.744 109.767 312.319 110.312C312.894 110.856 313.642 111.128 314.564 111.128C315.213 111.128 315.792 110.995 316.299 110.729C316.806 110.463 317.186 110.132 317.44 109.736L318.331 110.349C317.898 110.955 317.381 111.419 316.781 111.74C316.181 112.056 315.442 112.213 314.564 112.213C313.896 112.213 313.284 112.102 312.727 111.879C312.17 111.657 311.688 111.347 311.28 110.952C310.878 110.55 310.565 110.073 310.343 109.523C310.12 108.972 310.009 108.36 310.009 107.686C310.009 107.03 310.108 106.427 310.306 105.877C310.51 105.32 310.8 104.841 311.178 104.439C311.561 104.031 312.025 103.715 312.569 103.493C313.114 103.264 313.723 103.149 314.397 103.149C315.133 103.149 315.776 103.273 316.327 103.521C316.877 103.768 317.335 104.111 317.7 104.55C318.071 104.983 318.343 105.503 318.516 106.109C318.695 106.715 318.785 107.386 318.785 108.122H311.317ZM317.44 107.037C317.298 106.09 316.954 105.385 316.41 104.921C315.866 104.458 315.195 104.226 314.397 104.226C313.989 104.226 313.611 104.294 313.265 104.43C312.919 104.56 312.613 104.748 312.347 104.996C312.081 105.243 311.858 105.543 311.679 105.896C311.499 106.242 311.385 106.622 311.335 107.037H317.44ZM328.833 109.606C328.833 110.114 328.706 110.534 328.452 110.868C328.199 111.202 327.871 111.468 327.469 111.666C327.073 111.864 326.628 112.003 326.133 112.083C325.644 112.17 325.165 112.213 324.695 112.213C323.909 112.213 323.127 112.099 322.348 111.87C321.568 111.641 320.894 111.341 320.325 110.97L320.891 109.875C321.528 110.278 322.156 110.587 322.774 110.803C323.393 111.02 324.033 111.128 324.695 111.128C326.606 111.128 327.562 110.633 327.562 109.644C327.562 109.402 327.481 109.208 327.32 109.059C327.166 108.904 326.955 108.781 326.689 108.688C326.424 108.589 326.117 108.512 325.771 108.456C325.431 108.4 325.072 108.348 324.695 108.298C324.212 108.23 323.733 108.15 323.257 108.057C322.781 107.964 322.345 107.825 321.949 107.64C321.559 107.454 321.244 107.207 321.002 106.897C320.767 106.588 320.65 106.18 320.65 105.673C320.65 105.24 320.758 104.866 320.975 104.55C321.197 104.235 321.491 103.972 321.856 103.762C322.227 103.551 322.66 103.397 323.155 103.298C323.65 103.199 324.163 103.149 324.695 103.149C325.456 103.149 326.136 103.239 326.736 103.418C327.336 103.592 327.877 103.842 328.359 104.17L327.849 105.163C327.354 104.816 326.853 104.575 326.346 104.439C325.839 104.297 325.289 104.226 324.695 104.226C324.429 104.226 324.132 104.25 323.804 104.3C323.483 104.343 323.183 104.424 322.904 104.541C322.626 104.652 322.391 104.801 322.199 104.986C322.014 105.166 321.921 105.395 321.921 105.673C321.921 105.914 321.998 106.109 322.153 106.257C322.314 106.4 322.527 106.52 322.793 106.619C323.059 106.712 323.362 106.786 323.702 106.842C324.049 106.897 324.41 106.95 324.788 107C325.258 107.068 325.731 107.148 326.207 107.241C326.689 107.333 327.125 107.47 327.515 107.649C327.911 107.828 328.229 108.073 328.471 108.382C328.712 108.691 328.833 109.099 328.833 109.606ZM336.449 110.274L333.907 115.46H333.017L334.742 110.274H336.449ZM38.6465 126.686C38.6465 127.36 38.5413 127.972 38.3311 128.523C38.1208 129.073 37.8239 129.55 37.4404 129.952C37.0632 130.347 36.6055 130.657 36.0674 130.879C35.5293 131.102 34.9263 131.213 34.2583 131.213C33.8006 131.213 33.3553 131.13 32.9224 130.963C32.4956 130.796 32.0967 130.549 31.7256 130.221V134.46H30.4546V122.354H31.7256V123.151C32.5111 122.483 33.3553 122.149 34.2583 122.149C34.9263 122.149 35.5293 122.261 36.0674 122.483C36.6055 122.7 37.0632 123.012 37.4404 123.42C37.8239 123.822 38.1208 124.305 38.3311 124.868C38.5413 125.424 38.6465 126.03 38.6465 126.686ZM37.3755 126.686C37.3755 126.204 37.3075 125.752 37.1714 125.332C37.0415 124.905 36.8436 124.537 36.5776 124.228C36.3117 123.918 35.9839 123.674 35.5942 123.495C35.2108 123.315 34.7655 123.226 34.2583 123.226C33.7759 123.226 33.3244 123.315 32.9038 123.495C32.4894 123.674 32.0967 123.965 31.7256 124.367V129.005C32.0967 129.407 32.4894 129.695 32.9038 129.868C33.3244 130.041 33.7759 130.128 34.2583 130.128C34.7655 130.128 35.2108 130.038 35.5942 129.859C35.9839 129.68 36.3117 129.435 36.5776 129.126C36.8436 128.817 37.0415 128.455 37.1714 128.041C37.3075 127.62 37.3755 127.168 37.3755 126.686ZM47.2837 131H42.0977V129.915H44.0552V119.979H42.0977V118.893H45.3354V129.915H47.2837V131ZM52.0151 127.122C52.1079 128.037 52.4419 128.767 53.0171 129.312C53.5923 129.856 54.3407 130.128 55.2622 130.128C55.9116 130.128 56.4899 129.995 56.9971 129.729C57.5042 129.463 57.8846 129.132 58.1382 128.736L59.0288 129.349C58.5959 129.955 58.0794 130.419 57.4795 130.74C56.8796 131.056 56.1405 131.213 55.2622 131.213C54.5942 131.213 53.9819 131.102 53.4253 130.879C52.8687 130.657 52.3862 130.347 51.978 129.952C51.576 129.55 51.2637 129.073 51.041 128.523C50.8184 127.972 50.707 127.36 50.707 126.686C50.707 126.03 50.806 125.427 51.0039 124.877C51.208 124.32 51.4987 123.841 51.876 123.439C52.2594 123.031 52.7233 122.715 53.2676 122.493C53.8118 122.264 54.4211 122.149 55.0952 122.149C55.8312 122.149 56.4744 122.273 57.0249 122.521C57.5754 122.768 58.033 123.111 58.3979 123.55C58.769 123.983 59.0412 124.503 59.2144 125.109C59.3937 125.715 59.4834 126.386 59.4834 127.122H52.0151ZM58.1382 126.037C57.9959 125.09 57.6527 124.385 57.1084 123.921C56.5641 123.458 55.8931 123.226 55.0952 123.226C54.687 123.226 54.3097 123.294 53.9634 123.43C53.617 123.56 53.3109 123.748 53.0449 123.996C52.779 124.243 52.5563 124.543 52.377 124.896C52.1976 125.242 52.0832 125.622 52.0337 126.037H58.1382ZM61.0977 128.662C61.0977 128.118 61.2337 127.663 61.5059 127.298C61.778 126.927 62.1336 126.637 62.5728 126.426C63.0181 126.21 63.5252 126.055 64.0942 125.962C64.6694 125.863 65.2539 125.814 65.8477 125.814C66.0765 125.814 66.2806 125.817 66.46 125.823C66.6455 125.829 66.8187 125.839 66.9795 125.851C67.1465 125.863 67.3135 125.879 67.4805 125.897C67.6475 125.916 67.8299 125.938 68.0278 125.962V125.341C68.0278 124.92 67.9351 124.574 67.7495 124.302C67.5701 124.03 67.3475 123.816 67.0815 123.662C66.8156 123.501 66.5373 123.389 66.2466 123.328C65.9559 123.26 65.7085 123.226 65.5044 123.226C64.8612 123.226 64.2674 123.312 63.7231 123.485C63.1789 123.659 62.6717 123.89 62.2017 124.181L61.6265 123.226C62.146 122.91 62.7274 122.653 63.3706 122.456C64.02 122.251 64.7313 122.149 65.5044 122.149C65.9744 122.149 66.4352 122.211 66.8867 122.335C67.3444 122.452 67.7526 122.638 68.1113 122.892C68.4762 123.139 68.7669 123.467 68.9834 123.875C69.1999 124.283 69.3081 124.772 69.3081 125.341V131H68.0278V129.553C67.8052 129.831 67.5516 130.075 67.2671 130.286C66.9888 130.496 66.695 130.669 66.3857 130.805C66.0765 130.935 65.7673 131.034 65.458 131.102C65.1488 131.176 64.855 131.213 64.5767 131.213C63.4325 131.213 62.5666 130.994 61.979 130.555C61.3914 130.116 61.0977 129.485 61.0977 128.662ZM64.5767 130.128C65.1086 130.128 65.5848 130.051 66.0054 129.896C66.4321 129.735 66.7939 129.537 67.0908 129.302C67.3877 129.067 67.6165 128.817 67.7773 128.551C67.9443 128.285 68.0278 128.044 68.0278 127.827V127.011C67.6134 126.949 67.2145 126.915 66.8311 126.909C66.4538 126.903 66.126 126.899 65.8477 126.899C65.39 126.899 64.9478 126.93 64.521 126.992C64.1004 127.054 63.7324 127.156 63.417 127.298C63.1016 127.434 62.848 127.614 62.6562 127.836C62.4645 128.059 62.3687 128.334 62.3687 128.662C62.3687 129.027 62.5449 129.364 62.8975 129.673C63.2562 129.976 63.8159 130.128 64.5767 130.128ZM79.9028 128.606C79.9028 129.114 79.776 129.534 79.5225 129.868C79.2689 130.202 78.9411 130.468 78.5391 130.666C78.1432 130.864 77.6979 131.003 77.2031 131.083C76.7145 131.17 76.2352 131.213 75.7651 131.213C74.9797 131.213 74.1973 131.099 73.418 130.87C72.6387 130.641 71.9645 130.341 71.3955 129.97L71.9614 128.875C72.5985 129.278 73.2262 129.587 73.8447 129.803C74.4632 130.02 75.1034 130.128 75.7651 130.128C77.6763 130.128 78.6318 129.633 78.6318 128.644C78.6318 128.402 78.5514 128.208 78.3906 128.059C78.236 127.904 78.0257 127.781 77.7598 127.688C77.4938 127.589 77.1877 127.512 76.8413 127.456C76.5011 127.4 76.1424 127.348 75.7651 127.298C75.2827 127.23 74.8034 127.15 74.3271 127.057C73.8509 126.964 73.4149 126.825 73.019 126.64C72.6294 126.454 72.314 126.207 72.0728 125.897C71.8377 125.588 71.7202 125.18 71.7202 124.673C71.7202 124.24 71.8285 123.866 72.0449 123.55C72.2676 123.235 72.5614 122.972 72.9263 122.762C73.2974 122.551 73.7303 122.397 74.2251 122.298C74.7199 122.199 75.2332 122.149 75.7651 122.149C76.5259 122.149 77.2062 122.239 77.8062 122.418C78.4061 122.592 78.9473 122.842 79.4297 123.17L78.9194 124.163C78.4246 123.816 77.9237 123.575 77.4165 123.439C76.9093 123.297 76.3589 123.226 75.7651 123.226C75.4992 123.226 75.2023 123.25 74.8745 123.3C74.5529 123.343 74.2529 123.424 73.9746 123.541C73.6963 123.652 73.4613 123.801 73.2695 123.986C73.084 124.166 72.9912 124.395 72.9912 124.673C72.9912 124.914 73.0685 125.109 73.2231 125.257C73.384 125.4 73.5973 125.52 73.8633 125.619C74.1292 125.712 74.4323 125.786 74.7725 125.842C75.1188 125.897 75.4806 125.95 75.8579 126C76.328 126.068 76.8011 126.148 77.2773 126.241C77.7598 126.333 78.1958 126.47 78.5854 126.649C78.9813 126.828 79.2998 127.073 79.541 127.382C79.7822 127.691 79.9028 128.099 79.9028 128.606ZM83.1313 127.122C83.2241 128.037 83.5581 128.767 84.1333 129.312C84.7085 129.856 85.4569 130.128 86.3784 130.128C87.0278 130.128 87.6061 129.995 88.1133 129.729C88.6204 129.463 89.0008 129.132 89.2544 128.736L90.145 129.349C89.7121 129.955 89.1956 130.419 88.5957 130.74C87.9958 131.056 87.2567 131.213 86.3784 131.213C85.7104 131.213 85.0981 131.102 84.5415 130.879C83.9849 130.657 83.5024 130.347 83.0942 129.952C82.6922 129.55 82.3799 129.073 82.1572 128.523C81.9346 127.972 81.8232 127.36 81.8232 126.686C81.8232 126.03 81.9222 125.427 82.1201 124.877C82.3242 124.32 82.6149 123.841 82.9922 123.439C83.3757 123.031 83.8395 122.715 84.3838 122.493C84.9281 122.264 85.5373 122.149 86.2114 122.149C86.9474 122.149 87.5907 122.273 88.1411 122.521C88.6916 122.768 89.1493 123.111 89.5142 123.55C89.8853 123.983 90.1574 124.503 90.3306 125.109C90.5099 125.715 90.5996 126.386 90.5996 127.122H83.1313ZM89.2544 126.037C89.1121 125.09 88.7689 124.385 88.2246 123.921C87.6803 123.458 87.0093 123.226 86.2114 123.226C85.8032 123.226 85.4259 123.294 85.0796 123.43C84.7332 123.56 84.4271 123.748 84.1611 123.996C83.8952 124.243 83.6725 124.543 83.4932 124.896C83.3138 125.242 83.1994 125.622 83.1499 126.037H89.2544ZM110.796 131H109.516V130.202C109.151 130.53 108.749 130.78 108.31 130.954C107.877 131.127 107.432 131.213 106.974 131.213C106.288 131.213 105.672 131.102 105.128 130.879C104.584 130.657 104.123 130.347 103.746 129.952C103.375 129.55 103.087 129.07 102.883 128.514C102.685 127.957 102.586 127.348 102.586 126.686C102.586 126.03 102.685 125.424 102.883 124.868C103.087 124.305 103.375 123.826 103.746 123.43C104.123 123.028 104.584 122.715 105.128 122.493C105.672 122.264 106.288 122.149 106.974 122.149C107.432 122.149 107.877 122.233 108.31 122.4C108.749 122.561 109.151 122.805 109.516 123.133V119.979H107.791V118.893H110.796V131ZM109.516 124.367C109.151 123.965 108.752 123.674 108.319 123.495C107.893 123.315 107.438 123.226 106.956 123.226C106.448 123.226 106 123.315 105.61 123.495C105.227 123.674 104.905 123.918 104.646 124.228C104.386 124.537 104.188 124.902 104.052 125.322C103.922 125.737 103.857 126.191 103.857 126.686C103.857 127.181 103.922 127.639 104.052 128.059C104.188 128.473 104.386 128.835 104.646 129.145C104.905 129.454 105.227 129.698 105.61 129.877C106 130.057 106.448 130.146 106.956 130.146C107.933 130.146 108.786 129.76 109.516 128.987V124.367ZM121.846 126.705C121.846 127.379 121.737 127.991 121.521 128.542C121.311 129.092 121.005 129.565 120.603 129.961C120.207 130.351 119.73 130.657 119.174 130.879C118.617 131.102 117.996 131.213 117.309 131.213C116.635 131.213 116.02 131.102 115.463 130.879C114.906 130.657 114.427 130.351 114.025 129.961C113.629 129.565 113.323 129.092 113.106 128.542C112.896 127.991 112.791 127.379 112.791 126.705C112.791 126.049 112.896 125.44 113.106 124.877C113.323 124.308 113.629 123.826 114.025 123.43C114.427 123.028 114.906 122.715 115.463 122.493C116.02 122.264 116.635 122.149 117.309 122.149C117.996 122.149 118.617 122.264 119.174 122.493C119.73 122.715 120.207 123.028 120.603 123.43C121.005 123.826 121.311 124.308 121.521 124.877C121.737 125.44 121.846 126.049 121.846 126.705ZM120.575 126.705C120.575 126.21 120.5 125.755 120.352 125.341C120.21 124.92 119.996 124.552 119.712 124.237C119.427 123.921 119.081 123.674 118.673 123.495C118.271 123.315 117.816 123.226 117.309 123.226C116.802 123.226 116.344 123.315 115.936 123.495C115.534 123.674 115.194 123.921 114.916 124.237C114.637 124.552 114.424 124.92 114.275 125.341C114.133 125.755 114.062 126.21 114.062 126.705C114.062 127.199 114.133 127.657 114.275 128.078C114.424 128.492 114.637 128.851 114.916 129.154C115.194 129.457 115.534 129.695 115.936 129.868C116.344 130.041 116.802 130.128 117.309 130.128C117.816 130.128 118.271 130.041 118.673 129.868C119.081 129.695 119.427 129.457 119.712 129.154C119.996 128.851 120.21 128.492 120.352 128.078C120.5 127.657 120.575 127.199 120.575 126.705ZM141.913 131H140.632V125.666C140.632 124.892 140.465 124.292 140.131 123.866C139.797 123.439 139.256 123.226 138.508 123.226C138.038 123.226 137.611 123.334 137.228 123.55C136.85 123.767 136.529 124.057 136.263 124.422C135.997 124.781 135.793 125.195 135.65 125.666C135.514 126.129 135.446 126.615 135.446 127.122V131H134.175V122.354H135.446V124.524C136.059 122.941 137.15 122.149 138.721 122.149C140.849 122.149 141.913 123.321 141.913 125.666V131ZM152.962 126.705C152.962 127.379 152.854 127.991 152.637 128.542C152.427 129.092 152.121 129.565 151.719 129.961C151.323 130.351 150.847 130.657 150.29 130.879C149.733 131.102 149.112 131.213 148.425 131.213C147.751 131.213 147.136 131.102 146.579 130.879C146.022 130.657 145.543 130.351 145.141 129.961C144.745 129.565 144.439 129.092 144.223 128.542C144.012 127.991 143.907 127.379 143.907 126.705C143.907 126.049 144.012 125.44 144.223 124.877C144.439 124.308 144.745 123.826 145.141 123.43C145.543 123.028 146.022 122.715 146.579 122.493C147.136 122.264 147.751 122.149 148.425 122.149C149.112 122.149 149.733 122.264 150.29 122.493C150.847 122.715 151.323 123.028 151.719 123.43C152.121 123.826 152.427 124.308 152.637 124.877C152.854 125.44 152.962 126.049 152.962 126.705ZM151.691 126.705C151.691 126.21 151.617 125.755 151.468 125.341C151.326 124.92 151.113 124.552 150.828 124.237C150.544 123.921 150.197 123.674 149.789 123.495C149.387 123.315 148.932 123.226 148.425 123.226C147.918 123.226 147.46 123.315 147.052 123.495C146.65 123.674 146.31 123.921 146.032 124.237C145.753 124.552 145.54 124.92 145.392 125.341C145.249 125.755 145.178 126.21 145.178 126.705C145.178 127.199 145.249 127.657 145.392 128.078C145.54 128.492 145.753 128.851 146.032 129.154C146.31 129.457 146.65 129.695 147.052 129.868C147.46 130.041 147.918 130.128 148.425 130.128C148.932 130.128 149.387 130.041 149.789 129.868C150.197 129.695 150.544 129.457 150.828 129.154C151.113 128.851 151.326 128.492 151.468 128.078C151.617 127.657 151.691 127.199 151.691 126.705ZM163.204 128.245C163.105 129.154 162.746 129.877 162.128 130.416C161.516 130.947 160.749 131.213 159.827 131.213C159.32 131.213 158.856 131.13 158.436 130.963C158.015 130.796 157.656 130.564 157.359 130.267C157.062 129.97 156.831 129.615 156.664 129.2C156.503 128.78 156.422 128.322 156.422 127.827V123.439H154.465V122.354H156.422V118.893H157.693V122.354H161.376V123.439H157.693V127.827C157.693 128.143 157.743 128.439 157.842 128.718C157.947 128.996 158.089 129.24 158.269 129.451C158.454 129.661 158.677 129.828 158.937 129.952C159.196 130.069 159.493 130.128 159.827 130.128C160.458 130.128 160.984 129.933 161.404 129.543C161.831 129.148 162.075 128.637 162.137 128.013L163.204 128.245ZM183.401 131H182.121V125.666C182.121 124.892 181.954 124.292 181.62 123.866C181.286 123.439 180.744 123.226 179.996 123.226C179.526 123.226 179.099 123.334 178.716 123.55C178.339 123.767 178.017 124.057 177.751 124.422C177.485 124.781 177.281 125.195 177.139 125.666C177.003 126.129 176.935 126.615 176.935 127.122V131H175.664V118.893H176.935V124.524C177.547 122.941 178.639 122.149 180.209 122.149C182.337 122.149 183.401 123.321 183.401 125.666V131ZM186.852 127.122C186.945 128.037 187.279 128.767 187.854 129.312C188.429 129.856 189.178 130.128 190.099 130.128C190.749 130.128 191.327 129.995 191.834 129.729C192.341 129.463 192.722 129.132 192.975 128.736L193.866 129.349C193.433 129.955 192.916 130.419 192.316 130.74C191.716 131.056 190.977 131.213 190.099 131.213C189.431 131.213 188.819 131.102 188.262 130.879C187.706 130.657 187.223 130.347 186.815 129.952C186.413 129.55 186.101 129.073 185.878 128.523C185.655 127.972 185.544 127.36 185.544 126.686C185.544 126.03 185.643 125.427 185.841 124.877C186.045 124.32 186.336 123.841 186.713 123.439C187.096 123.031 187.56 122.715 188.104 122.493C188.649 122.264 189.258 122.149 189.932 122.149C190.668 122.149 191.311 122.273 191.862 122.521C192.412 122.768 192.87 123.111 193.235 123.55C193.606 123.983 193.878 124.503 194.051 125.109C194.231 125.715 194.32 126.386 194.32 127.122H186.852ZM192.975 126.037C192.833 125.09 192.49 124.385 191.945 123.921C191.401 123.458 190.73 123.226 189.932 123.226C189.524 123.226 189.147 123.294 188.8 123.43C188.454 123.56 188.148 123.748 187.882 123.996C187.616 124.243 187.393 124.543 187.214 124.896C187.035 125.242 186.92 125.622 186.871 126.037H192.975ZM204.368 128.606C204.368 129.114 204.241 129.534 203.987 129.868C203.734 130.202 203.406 130.468 203.004 130.666C202.608 130.864 202.163 131.003 201.668 131.083C201.179 131.17 200.7 131.213 200.23 131.213C199.444 131.213 198.662 131.099 197.883 130.87C197.104 130.641 196.429 130.341 195.86 129.97L196.426 128.875C197.063 129.278 197.691 129.587 198.31 129.803C198.928 130.02 199.568 130.128 200.23 130.128C202.141 130.128 203.097 129.633 203.097 128.644C203.097 128.402 203.016 128.208 202.855 128.059C202.701 127.904 202.491 127.781 202.225 127.688C201.959 127.589 201.653 127.512 201.306 127.456C200.966 127.4 200.607 127.348 200.23 127.298C199.748 127.23 199.268 127.15 198.792 127.057C198.316 126.964 197.88 126.825 197.484 126.64C197.094 126.454 196.779 126.207 196.538 125.897C196.303 125.588 196.185 125.18 196.185 124.673C196.185 124.24 196.293 123.866 196.51 123.55C196.732 123.235 197.026 122.972 197.391 122.762C197.762 122.551 198.195 122.397 198.69 122.298C199.185 122.199 199.698 122.149 200.23 122.149C200.991 122.149 201.671 122.239 202.271 122.418C202.871 122.592 203.412 122.842 203.895 123.17L203.384 124.163C202.889 123.816 202.389 123.575 201.881 123.439C201.374 123.297 200.824 123.226 200.23 123.226C199.964 123.226 199.667 123.25 199.339 123.3C199.018 123.343 198.718 123.424 198.439 123.541C198.161 123.652 197.926 123.801 197.734 123.986C197.549 124.166 197.456 124.395 197.456 124.673C197.456 124.914 197.533 125.109 197.688 125.257C197.849 125.4 198.062 125.52 198.328 125.619C198.594 125.712 198.897 125.786 199.237 125.842C199.584 125.897 199.945 125.95 200.323 126C200.793 126.068 201.266 126.148 201.742 126.241C202.225 126.333 202.661 126.47 203.05 126.649C203.446 126.828 203.765 127.073 204.006 127.382C204.247 127.691 204.368 128.099 204.368 128.606ZM211.511 120.628H209.786V118.893H211.511V120.628ZM213.237 131H208.051V129.915H210.008V123.439H208.051V122.354H211.289V129.915H213.237V131ZM225.437 128.245C225.338 129.154 224.979 129.877 224.36 130.416C223.748 130.947 222.981 131.213 222.06 131.213C221.552 131.213 221.089 131.13 220.668 130.963C220.247 130.796 219.889 130.564 219.592 130.267C219.295 129.97 219.063 129.615 218.896 129.2C218.735 128.78 218.655 128.322 218.655 127.827V123.439H216.697V122.354H218.655V118.893H219.926V122.354H223.609V123.439H219.926V127.827C219.926 128.143 219.975 128.439 220.074 128.718C220.179 128.996 220.322 129.24 220.501 129.451C220.687 129.661 220.909 129.828 221.169 129.952C221.429 130.069 221.726 130.128 222.06 130.128C222.69 130.128 223.216 129.933 223.637 129.543C224.063 129.148 224.308 128.637 224.37 128.013L225.437 128.245ZM227.051 128.662C227.051 128.118 227.187 127.663 227.459 127.298C227.731 126.927 228.087 126.637 228.526 126.426C228.971 126.21 229.478 126.055 230.047 125.962C230.623 125.863 231.207 125.814 231.801 125.814C232.03 125.814 232.234 125.817 232.413 125.823C232.599 125.829 232.772 125.839 232.933 125.851C233.1 125.863 233.267 125.879 233.434 125.897C233.601 125.916 233.783 125.938 233.981 125.962V125.341C233.981 124.92 233.888 124.574 233.703 124.302C233.523 124.03 233.301 123.816 233.035 123.662C232.769 123.501 232.49 123.389 232.2 123.328C231.909 123.26 231.662 123.226 231.458 123.226C230.814 123.226 230.221 123.312 229.676 123.485C229.132 123.659 228.625 123.89 228.155 124.181L227.58 123.226C228.099 122.91 228.681 122.653 229.324 122.456C229.973 122.251 230.684 122.149 231.458 122.149C231.928 122.149 232.388 122.211 232.84 122.335C233.298 122.452 233.706 122.638 234.064 122.892C234.429 123.139 234.72 123.467 234.937 123.875C235.153 124.283 235.261 124.772 235.261 125.341V131H233.981V129.553C233.758 129.831 233.505 130.075 233.22 130.286C232.942 130.496 232.648 130.669 232.339 130.805C232.03 130.935 231.72 131.034 231.411 131.102C231.102 131.176 230.808 131.213 230.53 131.213C229.386 131.213 228.52 130.994 227.932 130.555C227.345 130.116 227.051 129.485 227.051 128.662ZM230.53 130.128C231.062 130.128 231.538 130.051 231.958 129.896C232.385 129.735 232.747 129.537 233.044 129.302C233.341 129.067 233.57 128.817 233.73 128.551C233.897 128.285 233.981 128.044 233.981 127.827V127.011C233.567 126.949 233.168 126.915 232.784 126.909C232.407 126.903 232.079 126.899 231.801 126.899C231.343 126.899 230.901 126.93 230.474 126.992C230.054 127.054 229.686 127.156 229.37 127.298C229.055 127.434 228.801 127.614 228.609 127.836C228.418 128.059 228.322 128.334 228.322 128.662C228.322 129.027 228.498 129.364 228.851 129.673C229.209 129.976 229.769 130.128 230.53 130.128ZM246.181 128.245C246.082 129.154 245.723 129.877 245.104 130.416C244.492 130.947 243.725 131.213 242.804 131.213C242.297 131.213 241.833 131.13 241.412 130.963C240.992 130.796 240.633 130.564 240.336 130.267C240.039 129.97 239.807 129.615 239.64 129.2C239.479 128.78 239.399 128.322 239.399 127.827V123.439H237.441V122.354H239.399V118.893H240.67V122.354H244.353V123.439H240.67V127.827C240.67 128.143 240.719 128.439 240.818 128.718C240.924 128.996 241.066 129.24 241.245 129.451C241.431 129.661 241.653 129.828 241.913 129.952C242.173 130.069 242.47 130.128 242.804 130.128C243.435 130.128 243.96 129.933 244.381 129.543C244.808 129.148 245.052 128.637 245.114 128.013L246.181 128.245ZM249.084 127.122C249.177 128.037 249.511 128.767 250.086 129.312C250.662 129.856 251.41 130.128 252.332 130.128C252.981 130.128 253.559 129.995 254.066 129.729C254.574 129.463 254.954 129.132 255.208 128.736L256.098 129.349C255.665 129.955 255.149 130.419 254.549 130.74C253.949 131.056 253.21 131.213 252.332 131.213C251.664 131.213 251.051 131.102 250.495 130.879C249.938 130.657 249.456 130.347 249.047 129.952C248.645 129.55 248.333 129.073 248.11 128.523C247.888 127.972 247.776 127.36 247.776 126.686C247.776 126.03 247.875 125.427 248.073 124.877C248.277 124.32 248.568 123.841 248.945 123.439C249.329 123.031 249.793 122.715 250.337 122.493C250.881 122.264 251.49 122.149 252.165 122.149C252.901 122.149 253.544 122.273 254.094 122.521C254.645 122.768 255.102 123.111 255.467 123.55C255.838 123.983 256.111 124.503 256.284 125.109C256.463 125.715 256.553 126.386 256.553 127.122H249.084ZM255.208 126.037C255.065 125.09 254.722 124.385 254.178 123.921C253.633 123.458 252.962 123.226 252.165 123.226C251.756 123.226 251.379 123.294 251.033 123.43C250.686 123.56 250.38 123.748 250.114 123.996C249.848 124.243 249.626 124.543 249.446 124.896C249.267 125.242 249.153 125.622 249.103 126.037H255.208ZM277.297 128.245C277.198 129.154 276.839 129.877 276.221 130.416C275.608 130.947 274.841 131.213 273.92 131.213C273.413 131.213 272.949 131.13 272.528 130.963C272.108 130.796 271.749 130.564 271.452 130.267C271.155 129.97 270.923 129.615 270.756 129.2C270.596 128.78 270.515 128.322 270.515 127.827V123.439H268.558V122.354H270.515V118.893H271.786V122.354H275.469V123.439H271.786V127.827C271.786 128.143 271.836 128.439 271.935 128.718C272.04 128.996 272.182 129.24 272.361 129.451C272.547 129.661 272.77 129.828 273.029 129.952C273.289 130.069 273.586 130.128 273.92 130.128C274.551 130.128 275.076 129.933 275.497 129.543C275.924 129.148 276.168 128.637 276.23 128.013L277.297 128.245ZM287.799 126.705C287.799 127.379 287.691 127.991 287.474 128.542C287.264 129.092 286.958 129.565 286.556 129.961C286.16 130.351 285.684 130.657 285.127 130.879C284.57 131.102 283.949 131.213 283.262 131.213C282.588 131.213 281.973 131.102 281.416 130.879C280.859 130.657 280.38 130.351 279.978 129.961C279.582 129.565 279.276 129.092 279.06 128.542C278.849 127.991 278.744 127.379 278.744 126.705C278.744 126.049 278.849 125.44 279.06 124.877C279.276 124.308 279.582 123.826 279.978 123.43C280.38 123.028 280.859 122.715 281.416 122.493C281.973 122.264 282.588 122.149 283.262 122.149C283.949 122.149 284.57 122.264 285.127 122.493C285.684 122.715 286.16 123.028 286.556 123.43C286.958 123.826 287.264 124.308 287.474 124.877C287.691 125.44 287.799 126.049 287.799 126.705ZM286.528 126.705C286.528 126.21 286.454 125.755 286.305 125.341C286.163 124.92 285.95 124.552 285.665 124.237C285.381 123.921 285.034 123.674 284.626 123.495C284.224 123.315 283.769 123.226 283.262 123.226C282.755 123.226 282.297 123.315 281.889 123.495C281.487 123.674 281.147 123.921 280.869 124.237C280.59 124.552 280.377 124.92 280.229 125.341C280.086 125.755 280.015 126.21 280.015 126.705C280.015 127.199 280.086 127.657 280.229 128.078C280.377 128.492 280.59 128.851 280.869 129.154C281.147 129.457 281.487 129.695 281.889 129.868C282.297 130.041 282.755 130.128 283.262 130.128C283.769 130.128 284.224 130.041 284.626 129.868C285.034 129.695 285.381 129.457 285.665 129.154C285.95 128.851 286.163 128.492 286.305 128.078C286.454 127.657 286.528 127.199 286.528 126.705ZM307.996 129.349C307.631 129.918 307.13 130.372 306.493 130.712C305.862 131.046 305.11 131.213 304.238 131.213C303.564 131.213 302.946 131.102 302.383 130.879C301.82 130.657 301.338 130.347 300.936 129.952C300.54 129.55 300.23 129.073 300.008 128.523C299.785 127.972 299.674 127.36 299.674 126.686C299.674 126.03 299.776 125.424 299.98 124.868C300.184 124.305 300.475 123.826 300.852 123.43C301.229 123.028 301.69 122.715 302.234 122.493C302.785 122.264 303.394 122.149 304.062 122.149C304.328 122.149 304.6 122.18 304.878 122.242C305.157 122.304 305.42 122.4 305.667 122.53C305.914 122.653 306.137 122.805 306.335 122.984C306.533 123.158 306.681 123.365 306.78 123.606V122.354H307.921V125.814H306.78C306.78 125.431 306.709 125.081 306.567 124.766C306.431 124.45 306.242 124.178 306.001 123.949C305.76 123.72 305.472 123.544 305.138 123.42C304.804 123.291 304.445 123.226 304.062 123.226C303.542 123.226 303.088 123.315 302.698 123.495C302.315 123.674 301.993 123.918 301.733 124.228C301.474 124.537 301.276 124.902 301.14 125.322C301.01 125.737 300.945 126.191 300.945 126.686C300.945 127.181 301.019 127.639 301.167 128.059C301.322 128.473 301.542 128.832 301.826 129.135C302.117 129.438 302.463 129.68 302.865 129.859C303.273 130.038 303.731 130.128 304.238 130.128C304.882 130.128 305.454 130.001 305.955 129.748C306.456 129.494 306.839 129.157 307.105 128.736L307.996 129.349ZM318.915 126.705C318.915 127.379 318.807 127.991 318.59 128.542C318.38 129.092 318.074 129.565 317.672 129.961C317.276 130.351 316.8 130.657 316.243 130.879C315.687 131.102 315.065 131.213 314.378 131.213C313.704 131.213 313.089 131.102 312.532 130.879C311.976 130.657 311.496 130.351 311.094 129.961C310.698 129.565 310.392 129.092 310.176 128.542C309.965 127.991 309.86 127.379 309.86 126.705C309.86 126.049 309.965 125.44 310.176 124.877C310.392 124.308 310.698 123.826 311.094 123.43C311.496 123.028 311.976 122.715 312.532 122.493C313.089 122.264 313.704 122.149 314.378 122.149C315.065 122.149 315.687 122.264 316.243 122.493C316.8 122.715 317.276 123.028 317.672 123.43C318.074 123.826 318.38 124.308 318.59 124.877C318.807 125.44 318.915 126.049 318.915 126.705ZM317.644 126.705C317.644 126.21 317.57 125.755 317.421 125.341C317.279 124.92 317.066 124.552 316.781 124.237C316.497 123.921 316.15 123.674 315.742 123.495C315.34 123.315 314.886 123.226 314.378 123.226C313.871 123.226 313.414 123.315 313.005 123.495C312.603 123.674 312.263 123.921 311.985 124.237C311.707 124.552 311.493 124.92 311.345 125.341C311.202 125.755 311.131 126.21 311.131 126.705C311.131 127.199 311.202 127.657 311.345 128.078C311.493 128.492 311.707 128.851 311.985 129.154C312.263 129.457 312.603 129.695 313.005 129.868C313.414 130.041 313.871 130.128 314.378 130.128C314.886 130.128 315.34 130.041 315.742 129.868C316.15 129.695 316.497 129.457 316.781 129.154C317.066 128.851 317.279 128.492 317.421 128.078C317.57 127.657 317.644 127.199 317.644 126.705ZM328.61 131H327.33V125.666C327.33 124.892 327.163 124.292 326.829 123.866C326.495 123.439 325.953 123.226 325.205 123.226C324.735 123.226 324.308 123.334 323.925 123.55C323.548 123.767 323.226 124.057 322.96 124.422C322.694 124.781 322.49 125.195 322.348 125.666C322.212 126.129 322.144 126.615 322.144 127.122V131H320.873V122.354H322.144V124.524C322.756 122.941 323.847 122.149 325.418 122.149C327.546 122.149 328.61 123.321 328.61 125.666V131ZM339.529 128.245C339.43 129.154 339.072 129.877 338.453 130.416C337.841 130.947 337.074 131.213 336.152 131.213C335.645 131.213 335.181 131.13 334.761 130.963C334.34 130.796 333.981 130.564 333.685 130.267C333.388 129.97 333.156 129.615 332.989 129.2C332.828 128.78 332.748 128.322 332.748 127.827V123.439H330.79V122.354H332.748V118.893H334.019V122.354H337.702V123.439H334.019V127.827C334.019 128.143 334.068 128.439 334.167 128.718C334.272 128.996 334.414 129.24 334.594 129.451C334.779 129.661 335.002 129.828 335.262 129.952C335.521 130.069 335.818 130.128 336.152 130.128C336.783 130.128 337.309 129.933 337.729 129.543C338.156 129.148 338.401 128.637 338.462 128.013L339.529 128.245ZM341.144 128.662C341.144 128.118 341.28 127.663 341.552 127.298C341.824 126.927 342.18 126.637 342.619 126.426C343.064 126.21 343.571 126.055 344.14 125.962C344.715 125.863 345.3 125.814 345.894 125.814C346.122 125.814 346.326 125.817 346.506 125.823C346.691 125.829 346.865 125.839 347.025 125.851C347.192 125.863 347.359 125.879 347.526 125.897C347.693 125.916 347.876 125.938 348.074 125.962V125.341C348.074 124.92 347.981 124.574 347.795 124.302C347.616 124.03 347.393 123.816 347.127 123.662C346.861 123.501 346.583 123.389 346.292 123.328C346.002 123.26 345.754 123.226 345.55 123.226C344.907 123.226 344.313 123.312 343.769 123.485C343.225 123.659 342.718 123.89 342.248 124.181L341.672 123.226C342.192 122.91 342.773 122.653 343.417 122.456C344.066 122.251 344.777 122.149 345.55 122.149C346.02 122.149 346.481 122.211 346.933 122.335C347.39 122.452 347.799 122.638 348.157 122.892C348.522 123.139 348.813 123.467 349.029 123.875C349.246 124.283 349.354 124.772 349.354 125.341V131H348.074V129.553C347.851 129.831 347.597 130.075 347.313 130.286C347.035 130.496 346.741 130.669 346.432 130.805C346.122 130.935 345.813 131.034 345.504 131.102C345.195 131.176 344.901 131.213 344.623 131.213C343.478 131.213 342.612 130.994 342.025 130.555C341.437 130.116 341.144 129.485 341.144 128.662ZM344.623 130.128C345.154 130.128 345.631 130.051 346.051 129.896C346.478 129.735 346.84 129.537 347.137 129.302C347.434 129.067 347.662 128.817 347.823 128.551C347.99 128.285 348.074 128.044 348.074 127.827V127.011C347.659 126.949 347.26 126.915 346.877 126.909C346.5 126.903 346.172 126.899 345.894 126.899C345.436 126.899 344.994 126.93 344.567 126.992C344.146 127.054 343.778 127.156 343.463 127.298C343.147 127.434 342.894 127.614 342.702 127.836C342.51 128.059 342.415 128.334 342.415 128.662C342.415 129.027 342.591 129.364 342.943 129.673C343.302 129.976 343.862 130.128 344.623 130.128ZM359.856 129.349C359.491 129.918 358.99 130.372 358.353 130.712C357.722 131.046 356.971 131.213 356.099 131.213C355.424 131.213 354.806 131.102 354.243 130.879C353.68 130.657 353.198 130.347 352.796 129.952C352.4 129.55 352.091 129.073 351.868 128.523C351.646 127.972 351.534 127.36 351.534 126.686C351.534 126.03 351.636 125.424 351.84 124.868C352.044 124.305 352.335 123.826 352.712 123.43C353.09 123.028 353.55 122.715 354.095 122.493C354.645 122.264 355.254 122.149 355.922 122.149C356.188 122.149 356.46 122.18 356.739 122.242C357.017 122.304 357.28 122.4 357.527 122.53C357.775 122.653 357.997 122.805 358.195 122.984C358.393 123.158 358.542 123.365 358.641 123.606V122.354H359.782V125.814H358.641C358.641 125.431 358.569 125.081 358.427 124.766C358.291 124.45 358.103 124.178 357.861 123.949C357.62 123.72 357.333 123.544 356.999 123.42C356.665 123.291 356.306 123.226 355.922 123.226C355.403 123.226 354.948 123.315 354.559 123.495C354.175 123.674 353.854 123.918 353.594 124.228C353.334 124.537 353.136 124.902 353 125.322C352.87 125.737 352.805 126.191 352.805 126.686C352.805 127.181 352.879 127.639 353.028 128.059C353.182 128.473 353.402 128.832 353.687 129.135C353.977 129.438 354.324 129.68 354.726 129.859C355.134 130.038 355.591 130.128 356.099 130.128C356.742 130.128 357.314 130.001 357.815 129.748C358.316 129.494 358.699 129.157 358.965 128.736L359.856 129.349ZM370.646 128.245C370.547 129.154 370.188 129.877 369.569 130.416C368.957 130.947 368.19 131.213 367.269 131.213C366.761 131.213 366.298 131.13 365.877 130.963C365.456 130.796 365.098 130.564 364.801 130.267C364.504 129.97 364.272 129.615 364.105 129.2C363.944 128.78 363.864 128.322 363.864 127.827V123.439H361.906V122.354H363.864V118.893H365.135V122.354H368.818V123.439H365.135V127.827C365.135 128.143 365.184 128.439 365.283 128.718C365.388 128.996 365.531 129.24 365.71 129.451C365.896 129.661 366.118 129.828 366.378 129.952C366.638 130.069 366.935 130.128 367.269 130.128C367.899 130.128 368.425 129.933 368.846 129.543C369.272 129.148 369.517 128.637 369.579 128.013L370.646 128.245ZM30.4546 141.354H31.7256V146.697C31.7256 147.47 31.8926 148.07 32.2266 148.497C32.5667 148.918 33.111 149.128 33.8594 149.128C34.3294 149.128 34.7531 149.02 35.1304 148.803C35.5076 148.587 35.8293 148.299 36.0952 147.94C36.3612 147.576 36.5622 147.161 36.6982 146.697C36.8405 146.227 36.9116 145.739 36.9116 145.231V141.354H38.1919V150H36.9116V147.838C36.3055 149.422 35.217 150.213 33.646 150.213C31.5184 150.213 30.4546 149.041 30.4546 146.697V141.354ZM48.7866 147.606C48.7866 148.114 48.6598 148.534 48.4062 148.868C48.1527 149.202 47.8249 149.468 47.4229 149.666C47.027 149.864 46.5817 150.003 46.0869 150.083C45.5983 150.17 45.119 150.213 44.6489 150.213C43.8634 150.213 43.0811 150.099 42.3018 149.87C41.5225 149.641 40.8483 149.341 40.2793 148.97L40.8452 147.875C41.4823 148.278 42.11 148.587 42.7285 148.803C43.347 149.02 43.9871 149.128 44.6489 149.128C46.5601 149.128 47.5156 148.633 47.5156 147.644C47.5156 147.402 47.4352 147.208 47.2744 147.059C47.1198 146.904 46.9095 146.781 46.6436 146.688C46.3776 146.589 46.0715 146.512 45.7251 146.456C45.3849 146.4 45.0262 146.348 44.6489 146.298C44.1665 146.23 43.6872 146.15 43.2109 146.057C42.7347 145.964 42.2987 145.825 41.9028 145.64C41.5132 145.454 41.1978 145.207 40.9565 144.897C40.7215 144.588 40.604 144.18 40.604 143.673C40.604 143.24 40.7122 142.866 40.9287 142.55C41.1514 142.235 41.4451 141.972 41.8101 141.762C42.1812 141.551 42.6141 141.397 43.1089 141.298C43.6037 141.199 44.117 141.149 44.6489 141.149C45.4097 141.149 46.09 141.239 46.6899 141.418C47.2899 141.592 47.8311 141.842 48.3135 142.17L47.8032 143.163C47.3084 142.816 46.8075 142.575 46.3003 142.439C45.7931 142.297 45.2427 142.226 44.6489 142.226C44.383 142.226 44.0861 142.25 43.7583 142.3C43.4367 142.343 43.1367 142.424 42.8584 142.541C42.5801 142.652 42.3451 142.801 42.1533 142.986C41.9678 143.166 41.875 143.395 41.875 143.673C41.875 143.914 41.9523 144.109 42.1069 144.257C42.2677 144.4 42.4811 144.52 42.7471 144.619C43.013 144.712 43.3161 144.786 43.6562 144.842C44.0026 144.897 44.3644 144.95 44.7417 145C45.2118 145.068 45.6849 145.148 46.1611 145.241C46.6436 145.333 47.0796 145.47 47.4692 145.649C47.8651 145.828 48.1836 146.073 48.4248 146.382C48.666 146.691 48.7866 147.099 48.7866 147.606ZM61.0977 147.662C61.0977 147.118 61.2337 146.663 61.5059 146.298C61.778 145.927 62.1336 145.637 62.5728 145.426C63.0181 145.21 63.5252 145.055 64.0942 144.962C64.6694 144.863 65.2539 144.814 65.8477 144.814C66.0765 144.814 66.2806 144.817 66.46 144.823C66.6455 144.829 66.8187 144.839 66.9795 144.851C67.1465 144.863 67.3135 144.879 67.4805 144.897C67.6475 144.916 67.8299 144.938 68.0278 144.962V144.341C68.0278 143.92 67.9351 143.574 67.7495 143.302C67.5701 143.03 67.3475 142.816 67.0815 142.662C66.8156 142.501 66.5373 142.389 66.2466 142.328C65.9559 142.26 65.7085 142.226 65.5044 142.226C64.8612 142.226 64.2674 142.312 63.7231 142.485C63.1789 142.659 62.6717 142.89 62.2017 143.181L61.6265 142.226C62.146 141.91 62.7274 141.653 63.3706 141.456C64.02 141.251 64.7313 141.149 65.5044 141.149C65.9744 141.149 66.4352 141.211 66.8867 141.335C67.3444 141.452 67.7526 141.638 68.1113 141.892C68.4762 142.139 68.7669 142.467 68.9834 142.875C69.1999 143.283 69.3081 143.772 69.3081 144.341V150H68.0278V148.553C67.8052 148.831 67.5516 149.075 67.2671 149.286C66.9888 149.496 66.695 149.669 66.3857 149.805C66.0765 149.935 65.7673 150.034 65.458 150.102C65.1488 150.176 64.855 150.213 64.5767 150.213C63.4325 150.213 62.5666 149.994 61.979 149.555C61.3914 149.116 61.0977 148.485 61.0977 147.662ZM64.5767 149.128C65.1086 149.128 65.5848 149.051 66.0054 148.896C66.4321 148.735 66.7939 148.537 67.0908 148.302C67.3877 148.067 67.6165 147.817 67.7773 147.551C67.9443 147.285 68.0278 147.044 68.0278 146.827V146.011C67.6134 145.949 67.2145 145.915 66.8311 145.909C66.4538 145.903 66.126 145.899 65.8477 145.899C65.39 145.899 64.9478 145.93 64.521 145.992C64.1004 146.054 63.7324 146.156 63.417 146.298C63.1016 146.434 62.848 146.614 62.6562 146.836C62.4645 147.059 62.3687 147.334 62.3687 147.662C62.3687 148.027 62.5449 148.364 62.8975 148.673C63.2562 148.976 63.8159 149.128 64.5767 149.128ZM80.2275 147.245C80.1286 148.154 79.7699 148.877 79.1514 149.416C78.5391 149.947 77.7721 150.213 76.8506 150.213C76.3434 150.213 75.8796 150.13 75.459 149.963C75.0384 149.796 74.6797 149.564 74.3828 149.267C74.0859 148.97 73.854 148.615 73.687 148.2C73.5262 147.78 73.4458 147.322 73.4458 146.827V142.439H71.4883V141.354H73.4458V137.893H74.7168V141.354H78.3999V142.439H74.7168V146.827C74.7168 147.143 74.7663 147.439 74.8652 147.718C74.9704 147.996 75.1126 148.24 75.292 148.451C75.4775 148.661 75.7002 148.828 75.96 148.952C76.2197 149.069 76.5166 149.128 76.8506 149.128C77.4814 149.128 78.0072 148.933 78.4277 148.543C78.8545 148.148 79.0988 147.637 79.1606 147.013L80.2275 147.245ZM87.0464 143.088H85.3208V141.354H87.0464V143.088ZM87.0464 150H85.3208V148.274H87.0464V150Z" fill="#FFFEFE"/>
<path d="M35.592 174.44V177.848H41.088V181.016H35.592V184.712H41.808V188H31.488V171.152H41.808V174.44H35.592ZM61.5604 174.464C63.2244 174.464 64.5444 174.968 65.5204 175.976C66.5124 176.984 67.0084 178.384 67.0084 180.176V188H62.9284V180.728C62.9284 179.864 62.6964 179.2 62.2324 178.736C61.7844 178.256 61.1604 178.016 60.3604 178.016C59.5604 178.016 58.9284 178.256 58.4644 178.736C58.0164 179.2 57.7924 179.864 57.7924 180.728V188H53.7124V180.728C53.7124 179.864 53.4804 179.2 53.0164 178.736C52.5684 178.256 51.9444 178.016 51.1444 178.016C50.3444 178.016 49.7124 178.256 49.2484 178.736C48.8004 179.2 48.5764 179.864 48.5764 180.728V188H44.4724V174.608H48.5764V176.288C48.9924 175.728 49.5364 175.288 50.2084 174.968C50.8804 174.632 51.6404 174.464 52.4884 174.464C53.4964 174.464 54.3924 174.68 55.1764 175.112C55.9764 175.544 56.6004 176.16 57.0484 176.96C57.5124 176.224 58.1444 175.624 58.9444 175.16C59.7444 174.696 60.6164 174.464 61.5604 174.464ZM69.0626 181.28C69.0626 179.904 69.3186 178.696 69.8306 177.656C70.3586 176.616 71.0706 175.816 71.9666 175.256C72.8626 174.696 73.8626 174.416 74.9666 174.416C75.9106 174.416 76.7346 174.608 77.4386 174.992C78.1586 175.376 78.7106 175.88 79.0946 176.504V174.608H83.1986V188H79.0946V186.104C78.6946 186.728 78.1346 187.232 77.4146 187.616C76.7106 188 75.8866 188.192 74.9426 188.192C73.8546 188.192 72.8626 187.912 71.9666 187.352C71.0706 186.776 70.3586 185.968 69.8306 184.928C69.3186 183.872 69.0626 182.656 69.0626 181.28ZM79.0946 181.304C79.0946 180.28 78.8066 179.472 78.2306 178.88C77.6706 178.288 76.9826 177.992 76.1666 177.992C75.3506 177.992 74.6546 178.288 74.0786 178.88C73.5186 179.456 73.2386 180.256 73.2386 181.28C73.2386 182.304 73.5186 183.12 74.0786 183.728C74.6546 184.32 75.3506 184.616 76.1666 184.616C76.9826 184.616 77.6706 184.32 78.2306 183.728C78.8066 183.136 79.0946 182.328 79.0946 181.304ZM88.2317 173.216C87.5117 173.216 86.9197 173.008 86.4557 172.592C86.0077 172.16 85.7837 171.632 85.7837 171.008C85.7837 170.368 86.0077 169.84 86.4557 169.424C86.9197 168.992 87.5117 168.776 88.2317 168.776C88.9357 168.776 89.5117 168.992 89.9597 169.424C90.4237 169.84 90.6557 170.368 90.6557 171.008C90.6557 171.632 90.4237 172.16 89.9597 172.592C89.5117 173.008 88.9357 173.216 88.2317 173.216ZM90.2717 174.608V188H86.1677V174.608H90.2717ZM97.3498 170.24V188H93.2458V170.24H97.3498ZM102.244 188.192C101.524 188.192 100.932 187.984 100.468 187.568C100.02 187.136 99.7959 186.608 99.7959 185.984C99.7959 185.344 100.02 184.808 100.468 184.376C100.932 183.944 101.524 183.728 102.244 183.728C102.948 183.728 103.524 183.944 103.972 184.376C104.436 184.808 104.668 185.344 104.668 185.984C104.668 186.608 104.436 187.136 103.972 187.568C103.524 187.984 102.948 188.192 102.244 188.192ZM102.244 178.424C101.524 178.424 100.932 178.216 100.468 177.8C100.02 177.368 99.7959 176.84 99.7959 176.216C99.7959 175.576 100.02 175.04 100.468 174.608C100.932 174.176 101.524 173.96 102.244 173.96C102.948 173.96 103.524 174.176 103.972 174.608C104.436 175.04 104.668 175.576 104.668 176.216C104.668 176.84 104.436 177.368 103.972 177.8C103.524 178.216 102.948 178.424 102.244 178.424ZM119.38 173.216C118.66 173.216 118.068 173.008 117.604 172.592C117.156 172.16 116.932 171.632 116.932 171.008C116.932 170.368 117.156 169.84 117.604 169.424C118.068 168.992 118.66 168.776 119.38 168.776C120.084 168.776 120.66 168.992 121.108 169.424C121.572 169.84 121.804 170.368 121.804 171.008C121.804 171.632 121.572 172.16 121.108 172.592C120.66 173.008 120.084 173.216 119.38 173.216ZM121.42 174.608V188H117.316V174.608H121.42ZM132.554 174.464C134.122 174.464 135.37 174.976 136.298 176C137.242 177.008 137.714 178.4 137.714 180.176V188H133.634V180.728C133.634 179.832 133.402 179.136 132.938 178.64C132.474 178.144 131.85 177.896 131.066 177.896C130.282 177.896 129.658 178.144 129.194 178.64C128.73 179.136 128.498 179.832 128.498 180.728V188H124.394V174.608H128.498V176.384C128.914 175.792 129.474 175.328 130.178 174.992C130.882 174.64 131.674 174.464 132.554 174.464ZM147.286 178.016H145.078V188H140.974V178.016H139.486V174.608H140.974V174.224C140.974 172.576 141.446 171.328 142.39 170.48C143.334 169.616 144.718 169.184 146.542 169.184C146.846 169.184 147.07 169.192 147.214 169.208V172.688C146.43 172.64 145.878 172.752 145.558 173.024C145.238 173.296 145.078 173.784 145.078 174.488V174.608H147.286V178.016ZM155.311 188.192C153.999 188.192 152.815 187.912 151.759 187.352C150.719 186.792 149.895 185.992 149.287 184.952C148.695 183.912 148.399 182.696 148.399 181.304C148.399 179.928 148.703 178.72 149.311 177.68C149.919 176.624 150.751 175.816 151.807 175.256C152.863 174.696 154.047 174.416 155.359 174.416C156.671 174.416 157.855 174.696 158.911 175.256C159.967 175.816 160.799 176.624 161.407 177.68C162.015 178.72 162.319 179.928 162.319 181.304C162.319 182.68 162.007 183.896 161.383 184.952C160.775 185.992 159.935 186.792 158.863 187.352C157.807 187.912 156.623 188.192 155.311 188.192ZM155.311 184.64C156.095 184.64 156.759 184.352 157.303 183.776C157.863 183.2 158.143 182.376 158.143 181.304C158.143 180.232 157.871 179.408 157.327 178.832C156.799 178.256 156.143 177.968 155.359 177.968C154.559 177.968 153.895 178.256 153.367 178.832C152.839 179.392 152.575 180.216 152.575 181.304C152.575 182.376 152.831 183.2 153.343 183.776C153.871 184.352 154.527 184.64 155.311 184.64ZM177.84 171.968C179.728 171.968 181.376 172.328 182.784 173.048C184.192 173.752 185.272 174.752 186.024 176.048C186.792 177.328 187.176 178.808 187.176 180.488C187.176 181.848 186.936 183.112 186.456 184.28C185.992 185.448 185.296 186.384 184.368 187.088C183.456 187.776 182.368 188.12 181.104 188.12C180.256 188.12 179.552 187.952 178.992 187.616C178.448 187.28 178.08 186.808 177.888 186.2C177.44 186.824 176.864 187.312 176.16 187.664C175.456 188 174.688 188.168 173.856 188.168C172.672 188.168 171.736 187.816 171.048 187.112C170.376 186.392 170.04 185.416 170.04 184.184C170.04 183.016 170.28 181.92 170.76 180.896C171.24 179.856 171.904 179.024 172.752 178.4C173.6 177.776 174.552 177.464 175.608 177.464C176.952 177.464 177.864 177.944 178.344 178.904L178.56 177.632H181.872L180.816 183.656C180.768 183.944 180.744 184.2 180.744 184.424C180.744 185.128 181.056 185.48 181.68 185.48C182.448 185.48 183.032 184.992 183.432 184.016C183.848 183.024 184.056 181.888 184.056 180.608C184.056 178.768 183.472 177.328 182.304 176.288C181.152 175.248 179.528 174.728 177.432 174.728C175.64 174.728 174.008 175.16 172.536 176.024C171.08 176.888 169.936 178.072 169.104 179.576C168.272 181.064 167.856 182.704 167.856 184.496C167.856 186.432 168.416 187.936 169.536 189.008C170.672 190.08 172.256 190.616 174.288 190.616C175.872 190.616 177.288 190.328 178.536 189.752L179.184 192.368C177.616 193.056 175.856 193.4 173.904 193.4C172.08 193.4 170.472 193.048 169.08 192.344C167.704 191.64 166.64 190.64 165.888 189.344C165.136 188.048 164.76 186.536 164.76 184.808C164.76 182.392 165.328 180.208 166.464 178.256C167.6 176.288 169.16 174.752 171.144 173.648C173.144 172.528 175.376 171.968 177.84 171.968ZM175.2 185.216C175.648 185.216 176.064 185.08 176.448 184.808C176.848 184.536 177.16 184.176 177.384 183.728C177.624 183.264 177.744 182.768 177.744 182.24C177.744 181.696 177.592 181.256 177.288 180.92C176.984 180.568 176.568 180.392 176.04 180.392C175.336 180.392 174.752 180.696 174.288 181.304C173.824 181.912 173.592 182.632 173.592 183.464C173.592 183.992 173.728 184.416 174 184.736C174.272 185.056 174.672 185.216 175.2 185.216ZM203.042 181.088C203.042 181.472 203.018 181.872 202.97 182.288H193.682C193.746 183.12 194.01 183.76 194.474 184.208C194.954 184.64 195.538 184.856 196.226 184.856C197.25 184.856 197.962 184.424 198.362 183.56H202.73C202.506 184.44 202.098 185.232 201.506 185.936C200.93 186.64 200.202 187.192 199.322 187.592C198.442 187.992 197.458 188.192 196.37 188.192C195.058 188.192 193.89 187.912 192.866 187.352C191.842 186.792 191.042 185.992 190.466 184.952C189.89 183.912 189.602 182.696 189.602 181.304C189.602 179.912 189.882 178.696 190.442 177.656C191.018 176.616 191.818 175.816 192.842 175.256C193.866 174.696 195.042 174.416 196.37 174.416C197.666 174.416 198.818 174.688 199.826 175.232C200.834 175.776 201.618 176.552 202.178 177.56C202.754 178.568 203.042 179.744 203.042 181.088ZM198.842 180.008C198.842 179.304 198.602 178.744 198.122 178.328C197.642 177.912 197.042 177.704 196.322 177.704C195.634 177.704 195.05 177.904 194.57 178.304C194.106 178.704 193.818 179.272 193.706 180.008H198.842ZM204.943 175.424C205.007 173.712 205.567 172.392 206.623 171.464C207.679 170.536 209.111 170.072 210.919 170.072C212.119 170.072 213.143 170.28 213.991 170.696C214.855 171.112 215.503 171.68 215.935 172.4C216.383 173.12 216.607 173.928 216.607 174.824C216.607 175.88 216.343 176.744 215.815 177.416C215.287 178.072 214.671 178.52 213.967 178.76V178.856C214.879 179.16 215.599 179.664 216.127 180.368C216.655 181.072 216.919 181.976 216.919 183.08C216.919 184.072 216.687 184.952 216.223 185.72C215.775 186.472 215.111 187.064 214.231 187.496C213.367 187.928 212.335 188.144 211.135 188.144C209.215 188.144 207.679 187.672 206.527 186.728C205.391 185.784 204.791 184.36 204.727 182.456H208.711C208.727 183.16 208.927 183.72 209.311 184.136C209.695 184.536 210.255 184.736 210.991 184.736C211.615 184.736 212.095 184.56 212.431 184.208C212.783 183.84 212.959 183.36 212.959 182.768C212.959 182 212.711 181.448 212.215 181.112C211.735 180.76 210.959 180.584 209.887 180.584H209.119V177.248H209.887C210.703 177.248 211.359 177.112 211.855 176.84C212.367 176.552 212.623 176.048 212.623 175.328C212.623 174.752 212.463 174.304 212.143 173.984C211.823 173.664 211.383 173.504 210.823 173.504C210.215 173.504 209.759 173.688 209.455 174.056C209.167 174.424 208.999 174.88 208.951 175.424H204.943ZM227.202 184.52V188H225.114C223.626 188 222.466 187.64 221.634 186.92C220.802 186.184 220.386 184.992 220.386 183.344V178.016H218.754V174.608H220.386V171.344H224.49V174.608H227.178V178.016H224.49V183.392C224.49 183.792 224.586 184.08 224.778 184.256C224.97 184.432 225.29 184.52 225.738 184.52H227.202ZM231.408 188.192C230.688 188.192 230.096 187.984 229.632 187.568C229.184 187.136 228.96 186.608 228.96 185.984C228.96 185.344 229.184 184.808 229.632 184.376C230.096 183.944 230.688 183.728 231.408 183.728C232.112 183.728 232.688 183.944 233.136 184.376C233.6 184.808 233.832 185.344 233.832 185.984C233.832 186.608 233.6 187.136 233.136 187.568C232.688 187.984 232.112 188.192 231.408 188.192ZM235.445 181.304C235.445 179.912 235.725 178.696 236.285 177.656C236.861 176.616 237.653 175.816 238.661 175.256C239.685 174.696 240.853 174.416 242.165 174.416C243.845 174.416 245.245 174.856 246.365 175.736C247.501 176.616 248.245 177.856 248.597 179.456H244.229C243.861 178.432 243.149 177.92 242.093 177.92C241.341 177.92 240.741 178.216 240.293 178.808C239.845 179.384 239.621 180.216 239.621 181.304C239.621 182.392 239.845 183.232 240.293 183.824C240.741 184.4 241.341 184.688 242.093 184.688C243.149 184.688 243.861 184.176 244.229 183.152H248.597C248.245 184.72 247.501 185.952 246.365 186.848C245.229 187.744 243.829 188.192 242.165 188.192C240.853 188.192 239.685 187.912 238.661 187.352C237.653 186.792 236.861 185.992 236.285 184.952C235.725 183.912 235.445 182.696 235.445 181.304ZM256.889 188.192C255.577 188.192 254.393 187.912 253.337 187.352C252.297 186.792 251.473 185.992 250.865 184.952C250.273 183.912 249.977 182.696 249.977 181.304C249.977 179.928 250.281 178.72 250.889 177.68C251.497 176.624 252.329 175.816 253.385 175.256C254.441 174.696 255.625 174.416 256.937 174.416C258.249 174.416 259.433 174.696 260.489 175.256C261.545 175.816 262.377 176.624 262.985 177.68C263.593 178.72 263.897 179.928 263.897 181.304C263.897 182.68 263.585 183.896 262.961 184.952C262.353 185.992 261.513 186.792 260.441 187.352C259.385 187.912 258.201 188.192 256.889 188.192ZM256.889 184.64C257.673 184.64 258.337 184.352 258.881 183.776C259.441 183.2 259.721 182.376 259.721 181.304C259.721 180.232 259.449 179.408 258.905 178.832C258.377 178.256 257.721 177.968 256.937 177.968C256.137 177.968 255.473 178.256 254.945 178.832C254.417 179.392 254.153 180.216 254.153 181.304C254.153 182.376 254.409 183.2 254.921 183.776C255.449 184.352 256.105 184.64 256.889 184.64Z" fill="white"/>
</g>
<defs>
<linearGradient id="paint0_linear" x1="263.149" y1="210.905" x2="25.2063" y2="-26.8578" gradientUnits="userSpaceOnUse">
<stop stop-color="#9AE8E0"/>
<stop offset="1" stop-color="#25FFF3"/>
</linearGradient>
<linearGradient id="paint1_linear" x1="262.266" y1="218.928" x2="20.3878" y2="-22.768" gradientUnits="userSpaceOnUse">
<stop offset="0.3281" stop-color="#DD45D3"/>
<stop offset="1" stop-color="#6A11EA"/>
</linearGradient>
<clipPath id="clip0">
<rect width="386" height="249" fill="white"/>
</clipPath>
</defs>
</svg>
