<svg width="268" height="232" viewBox="0 0 268 232" fill="none" xmlns="http://www.w3.org/2000/svg">
<path d="M60.056 112.272C61.88 112.272 63.456 112.616 64.784 113.304C66.128 113.976 67.152 114.944 67.856 116.208C68.576 117.472 68.936 118.96 68.936 120.672C68.936 122.384 68.576 123.872 67.856 125.136C67.152 126.384 66.128 127.344 64.784 128.016C63.456 128.672 61.88 129 60.056 129H54.848V112.272H60.056ZM60.056 127.2C62.216 127.2 63.864 126.632 65 125.496C66.136 124.344 66.704 122.736 66.704 120.672C66.704 118.592 66.128 116.968 64.976 115.8C63.84 114.632 62.2 114.048 60.056 114.048H57.032V127.2H60.056ZM83.8168 121.92C83.8168 122.336 83.7928 122.776 83.7448 123.24H73.2328C73.3128 124.536 73.7528 125.552 74.5528 126.288C75.3688 127.008 76.3528 127.368 77.5048 127.368C78.4488 127.368 79.2328 127.152 79.8568 126.72C80.4968 126.272 80.9448 125.68 81.2008 124.944H83.5528C83.2008 126.208 82.4968 127.24 81.4408 128.04C80.3848 128.824 79.0728 129.216 77.5048 129.216C76.2568 129.216 75.1368 128.936 74.1448 128.376C73.1688 127.816 72.4008 127.024 71.8408 126C71.2808 124.96 71.0008 123.76 71.0008 122.4C71.0008 121.04 71.2728 119.848 71.8168 118.824C72.3608 117.8 73.1208 117.016 74.0968 116.472C75.0888 115.912 76.2248 115.632 77.5048 115.632C78.7528 115.632 79.8568 115.904 80.8168 116.448C81.7768 116.992 82.5128 117.744 83.0248 118.704C83.5528 119.648 83.8168 120.72 83.8168 121.92ZM81.5608 121.464C81.5608 120.632 81.3768 119.92 81.0088 119.328C80.6408 118.72 80.1368 118.264 79.4968 117.96C78.8728 117.64 78.1768 117.48 77.4088 117.48C76.3048 117.48 75.3608 117.832 74.5768 118.536C73.8088 119.24 73.3688 120.216 73.2568 121.464H81.5608ZM91.5956 126.984L95.6756 115.848H98.0036L92.8436 129H90.2996L85.1396 115.848H87.4916L91.5956 126.984ZM112.153 121.92C112.153 122.336 112.129 122.776 112.081 123.24H101.569C101.649 124.536 102.089 125.552 102.889 126.288C103.705 127.008 104.689 127.368 105.841 127.368C106.785 127.368 107.569 127.152 108.193 126.72C108.833 126.272 109.281 125.68 109.537 124.944H111.889C111.537 126.208 110.833 127.24 109.777 128.04C108.721 128.824 107.409 129.216 105.841 129.216C104.593 129.216 103.473 128.936 102.481 128.376C101.505 127.816 100.737 127.024 100.177 126C99.6167 124.96 99.3367 123.76 99.3367 122.4C99.3367 121.04 99.6087 119.848 100.153 118.824C100.697 117.8 101.457 117.016 102.433 116.472C103.425 115.912 104.561 115.632 105.841 115.632C107.089 115.632 108.193 115.904 109.153 116.448C110.113 116.992 110.849 117.744 111.361 118.704C111.889 119.648 112.153 120.72 112.153 121.92ZM109.897 121.464C109.897 120.632 109.713 119.92 109.345 119.328C108.977 118.72 108.473 118.264 107.833 117.96C107.209 117.64 106.513 117.48 105.745 117.48C104.641 117.48 103.697 117.832 102.913 118.536C102.145 119.24 101.705 120.216 101.593 121.464H109.897ZM117.22 111.24V129H115.036V111.24H117.22ZM126.678 129.216C125.446 129.216 124.326 128.936 123.318 128.376C122.326 127.816 121.542 127.024 120.966 126C120.406 124.96 120.126 123.76 120.126 122.4C120.126 121.056 120.414 119.872 120.99 118.848C121.582 117.808 122.382 117.016 123.39 116.472C124.398 115.912 125.526 115.632 126.774 115.632C128.022 115.632 129.15 115.912 130.158 116.472C131.166 117.016 131.958 117.8 132.534 118.824C133.126 119.848 133.422 121.04 133.422 122.4C133.422 123.76 133.118 124.96 132.51 126C131.918 127.024 131.11 127.816 130.086 128.376C129.062 128.936 127.926 129.216 126.678 129.216ZM126.678 127.296C127.462 127.296 128.198 127.112 128.886 126.744C129.574 126.376 130.126 125.824 130.542 125.088C130.974 124.352 131.19 123.456 131.19 122.4C131.19 121.344 130.982 120.448 130.566 119.712C130.15 118.976 129.606 118.432 128.934 118.08C128.262 117.712 127.534 117.528 126.75 117.528C125.95 117.528 125.214 117.712 124.542 118.08C123.886 118.432 123.358 118.976 122.958 119.712C122.558 120.448 122.358 121.344 122.358 122.4C122.358 123.472 122.55 124.376 122.934 125.112C123.334 125.848 123.862 126.4 124.518 126.768C125.174 127.12 125.894 127.296 126.678 127.296ZM138.477 118.272C138.909 117.52 139.549 116.896 140.397 116.4C141.261 115.888 142.261 115.632 143.397 115.632C144.565 115.632 145.621 115.912 146.565 116.472C147.525 117.032 148.277 117.824 148.821 118.848C149.365 119.856 149.637 121.032 149.637 122.376C149.637 123.704 149.365 124.888 148.821 125.928C148.277 126.968 147.525 127.776 146.565 128.352C145.621 128.928 144.565 129.216 143.397 129.216C142.277 129.216 141.285 128.968 140.421 128.472C139.573 127.96 138.925 127.328 138.477 126.576V135.24H136.293V115.848H138.477V118.272ZM147.405 122.376C147.405 121.384 147.205 120.52 146.805 119.784C146.405 119.048 145.861 118.488 145.173 118.104C144.501 117.72 143.757 117.528 142.941 117.528C142.141 117.528 141.397 117.728 140.709 118.128C140.037 118.512 139.493 119.08 139.077 119.832C138.677 120.568 138.477 121.424 138.477 122.4C138.477 123.392 138.677 124.264 139.077 125.016C139.493 125.752 140.037 126.32 140.709 126.72C141.397 127.104 142.141 127.296 142.941 127.296C143.757 127.296 144.501 127.104 145.173 126.72C145.861 126.32 146.405 125.752 146.805 125.016C147.205 124.264 147.405 123.384 147.405 122.376ZM168.328 115.608C169.352 115.608 170.264 115.824 171.064 116.256C171.864 116.672 172.496 117.304 172.96 118.152C173.424 119 173.656 120.032 173.656 121.248V129H171.496V121.56C171.496 120.248 171.168 119.248 170.512 118.56C169.872 117.856 169 117.504 167.896 117.504C166.76 117.504 165.856 117.872 165.184 118.608C164.512 119.328 164.176 120.376 164.176 121.752V129H162.016V121.56C162.016 120.248 161.688 119.248 161.032 118.56C160.392 117.856 159.52 117.504 158.416 117.504C157.28 117.504 156.376 117.872 155.704 118.608C155.032 119.328 154.696 120.376 154.696 121.752V129H152.512V115.848H154.696V117.744C155.128 117.056 155.704 116.528 156.424 116.16C157.16 115.792 157.968 115.608 158.848 115.608C159.952 115.608 160.928 115.856 161.776 116.352C162.624 116.848 163.256 117.576 163.672 118.536C164.04 117.608 164.648 116.888 165.496 116.376C166.344 115.864 167.288 115.608 168.328 115.608ZM189.239 121.92C189.239 122.336 189.215 122.776 189.167 123.24H178.655C178.735 124.536 179.175 125.552 179.975 126.288C180.791 127.008 181.775 127.368 182.927 127.368C183.871 127.368 184.655 127.152 185.279 126.72C185.919 126.272 186.367 125.68 186.623 124.944H188.975C188.623 126.208 187.919 127.24 186.863 128.04C185.807 128.824 184.495 129.216 182.927 129.216C181.679 129.216 180.559 128.936 179.567 128.376C178.591 127.816 177.823 127.024 177.263 126C176.703 124.96 176.423 123.76 176.423 122.4C176.423 121.04 176.695 119.848 177.239 118.824C177.783 117.8 178.543 117.016 179.519 116.472C180.511 115.912 181.647 115.632 182.927 115.632C184.175 115.632 185.279 115.904 186.239 116.448C187.199 116.992 187.935 117.744 188.447 118.704C188.975 119.648 189.239 120.72 189.239 121.92ZM186.983 121.464C186.983 120.632 186.799 119.92 186.431 119.328C186.063 118.72 185.559 118.264 184.919 117.96C184.295 117.64 183.599 117.48 182.831 117.48C181.727 117.48 180.783 117.832 179.999 118.536C179.231 119.24 178.791 120.216 178.679 121.464H186.983ZM198.529 115.608C200.129 115.608 201.425 116.096 202.417 117.072C203.409 118.032 203.905 119.424 203.905 121.248V129H201.745V121.56C201.745 120.248 201.417 119.248 200.761 118.56C200.105 117.856 199.209 117.504 198.073 117.504C196.921 117.504 196.001 117.864 195.313 118.584C194.641 119.304 194.305 120.352 194.305 121.728V129H192.121V115.848H194.305V117.72C194.737 117.048 195.321 116.528 196.057 116.16C196.809 115.792 197.633 115.608 198.529 115.608ZM210.137 117.648V125.4C210.137 126.04 210.273 126.496 210.545 126.768C210.817 127.024 211.289 127.152 211.961 127.152H213.569V129H211.601C210.385 129 209.473 128.72 208.865 128.16C208.257 127.6 207.953 126.68 207.953 125.4V117.648H206.249V115.848H207.953V112.536H210.137V115.848H213.569V117.648H210.137Z" fill="white"/>
<path d="M195 10H73L12 115.7L73 221.3H195L256 115.7L195 10Z" stroke="url(#paint0_linear)" stroke-width="20" stroke-miterlimit="10"/>
<defs>
<linearGradient id="paint0_linear" x1="0.467802" y1="115.65" x2="267.551" y2="115.65" gradientUnits="userSpaceOnUse">
<stop offset="0.3281" stop-color="#DD45D3"/>
<stop offset="1" stop-color="#6A11EA"/>
</linearGradient>
</defs>
</svg>
