<svg width="268" height="232" viewBox="0 0 268 232" fill="none" xmlns="http://www.w3.org/2000/svg">
<path d="M126.872 80.272L122.024 97H119.576L115.688 83.536L111.656 97L109.232 97.024L104.552 80.272H106.88L110.528 94.456L114.56 80.272H117.008L120.848 94.408L124.52 80.272H126.872ZM130.39 81.712C129.974 81.712 129.622 81.568 129.334 81.28C129.046 80.992 128.902 80.64 128.902 80.224C128.902 79.808 129.046 79.456 129.334 79.168C129.622 78.88 129.974 78.736 130.39 78.736C130.79 78.736 131.126 78.88 131.398 79.168C131.686 79.456 131.83 79.808 131.83 80.224C131.83 80.64 131.686 80.992 131.398 81.28C131.126 81.568 130.79 81.712 130.39 81.712ZM131.446 83.848V97H129.262V83.848H131.446ZM134.352 90.376C134.352 89.032 134.624 87.856 135.168 86.848C135.712 85.824 136.456 85.032 137.4 84.472C138.36 83.912 139.432 83.632 140.616 83.632C141.64 83.632 142.592 83.872 143.472 84.352C144.352 84.816 145.024 85.432 145.488 86.2V79.24H147.696V97H145.488V94.528C145.056 95.312 144.416 95.96 143.568 96.472C142.72 96.968 141.728 97.216 140.592 97.216C139.424 97.216 138.36 96.928 137.4 96.352C136.456 95.776 135.712 94.968 135.168 93.928C134.624 92.888 134.352 91.704 134.352 90.376ZM145.488 90.4C145.488 89.408 145.288 88.544 144.888 87.808C144.488 87.072 143.944 86.512 143.256 86.128C142.584 85.728 141.84 85.528 141.024 85.528C140.208 85.528 139.464 85.72 138.792 86.104C138.12 86.488 137.584 87.048 137.184 87.784C136.784 88.52 136.584 89.384 136.584 90.376C136.584 91.384 136.784 92.264 137.184 93.016C137.584 93.752 138.12 94.32 138.792 94.72C139.464 95.104 140.208 95.296 141.024 95.296C141.84 95.296 142.584 95.104 143.256 94.72C143.944 94.32 144.488 93.752 144.888 93.016C145.288 92.264 145.488 91.392 145.488 90.4ZM163.387 89.92C163.387 90.336 163.363 90.776 163.315 91.24H152.803C152.883 92.536 153.323 93.552 154.123 94.288C154.939 95.008 155.923 95.368 157.075 95.368C158.019 95.368 158.803 95.152 159.427 94.72C160.067 94.272 160.515 93.68 160.771 92.944H163.123C162.771 94.208 162.067 95.24 161.011 96.04C159.955 96.824 158.643 97.216 157.075 97.216C155.827 97.216 154.707 96.936 153.715 96.376C152.739 95.816 151.971 95.024 151.411 94C150.851 92.96 150.571 91.76 150.571 90.4C150.571 89.04 150.843 87.848 151.387 86.824C151.931 85.8 152.691 85.016 153.667 84.472C154.659 83.912 155.795 83.632 157.075 83.632C158.323 83.632 159.427 83.904 160.387 84.448C161.347 84.992 162.083 85.744 162.595 86.704C163.123 87.648 163.387 88.72 163.387 89.92ZM161.131 89.464C161.131 88.632 160.947 87.92 160.579 87.328C160.211 86.72 159.707 86.264 159.067 85.96C158.443 85.64 157.747 85.48 156.979 85.48C155.875 85.48 154.931 85.832 154.147 86.536C153.379 87.24 152.939 88.216 152.827 89.464H161.131Z" fill="white"/>
<path d="M70.032 142.624C70.032 140.992 70.4 139.528 71.136 138.232C71.872 136.92 72.872 135.896 74.136 135.16C75.416 134.424 76.832 134.056 78.384 134.056C80.208 134.056 81.8 134.496 83.16 135.376C84.52 136.256 85.512 137.504 86.136 139.12H83.52C83.056 138.112 82.384 137.336 81.504 136.792C80.64 136.248 79.6 135.976 78.384 135.976C77.216 135.976 76.168 136.248 75.24 136.792C74.312 137.336 73.584 138.112 73.056 139.12C72.528 140.112 72.264 141.28 72.264 142.624C72.264 143.952 72.528 145.12 73.056 146.128C73.584 147.12 74.312 147.888 75.24 148.432C76.168 148.976 77.216 149.248 78.384 149.248C79.6 149.248 80.64 148.984 81.504 148.456C82.384 147.912 83.056 147.136 83.52 146.128H86.136C85.512 147.728 84.52 148.968 83.16 149.848C81.8 150.712 80.208 151.144 78.384 151.144C76.832 151.144 75.416 150.784 74.136 150.064C72.872 149.328 71.872 148.312 71.136 147.016C70.4 145.72 70.032 144.256 70.032 142.624ZM90.5151 135.712C90.0991 135.712 89.7471 135.568 89.4591 135.28C89.1711 134.992 89.0271 134.64 89.0271 134.224C89.0271 133.808 89.1711 133.456 89.4591 133.168C89.7471 132.88 90.0991 132.736 90.5151 132.736C90.9151 132.736 91.2511 132.88 91.5231 133.168C91.8111 133.456 91.9551 133.808 91.9551 134.224C91.9551 134.64 91.8111 134.992 91.5231 135.28C91.2511 135.568 90.9151 135.712 90.5151 135.712ZM91.5711 137.848V151H89.3871V137.848H91.5711ZM97.4773 139.984C97.8613 139.232 98.4053 138.648 99.1093 138.232C99.8293 137.816 100.701 137.608 101.725 137.608V139.864H101.149C98.7013 139.864 97.4773 141.192 97.4773 143.848V151H95.2933V137.848H97.4773V139.984ZM103.43 144.4C103.43 143.04 103.702 141.856 104.246 140.848C104.79 139.824 105.542 139.032 106.502 138.472C107.478 137.912 108.59 137.632 109.838 137.632C111.454 137.632 112.782 138.024 113.822 138.808C114.878 139.592 115.574 140.68 115.91 142.072H113.558C113.334 141.272 112.894 140.64 112.238 140.176C111.598 139.712 110.798 139.48 109.838 139.48C108.59 139.48 107.582 139.912 106.814 140.776C106.046 141.624 105.662 142.832 105.662 144.4C105.662 145.984 106.046 147.208 106.814 148.072C107.582 148.936 108.59 149.368 109.838 149.368C110.798 149.368 111.598 149.144 112.238 148.696C112.878 148.248 113.318 147.608 113.558 146.776H115.91C115.558 148.12 114.854 149.2 113.798 150.016C112.742 150.816 111.422 151.216 109.838 151.216C108.59 151.216 107.478 150.936 106.502 150.376C105.542 149.816 104.79 149.024 104.246 148C103.702 146.976 103.43 145.776 103.43 144.4ZM130.489 137.848V151H128.305V149.056C127.889 149.728 127.305 150.256 126.553 150.64C125.817 151.008 125.001 151.192 124.105 151.192C123.081 151.192 122.161 150.984 121.345 150.568C120.529 150.136 119.881 149.496 119.401 148.648C118.937 147.8 118.705 146.768 118.705 145.552V137.848H120.865V145.264C120.865 146.56 121.193 147.56 121.849 148.264C122.505 148.952 123.401 149.296 124.537 149.296C125.705 149.296 126.625 148.936 127.297 148.216C127.969 147.496 128.305 146.448 128.305 145.072V137.848H130.489ZM136.36 133.24V151H134.176V133.24H136.36ZM139.266 144.376C139.266 143.032 139.538 141.856 140.082 140.848C140.626 139.824 141.37 139.032 142.314 138.472C143.274 137.912 144.338 137.632 145.506 137.632C146.658 137.632 147.658 137.88 148.506 138.376C149.354 138.872 149.986 139.496 150.402 140.248V137.848H152.61V151H150.402V148.552C149.97 149.32 149.322 149.96 148.458 150.472C147.61 150.968 146.618 151.216 145.482 151.216C144.314 151.216 143.258 150.928 142.314 150.352C141.37 149.776 140.626 148.968 140.082 147.928C139.538 146.888 139.266 145.704 139.266 144.376ZM150.402 144.4C150.402 143.408 150.202 142.544 149.802 141.808C149.402 141.072 148.858 140.512 148.17 140.128C147.498 139.728 146.754 139.528 145.938 139.528C145.122 139.528 144.378 139.72 143.706 140.104C143.034 140.488 142.498 141.048 142.098 141.784C141.698 142.52 141.498 143.384 141.498 144.376C141.498 145.384 141.698 146.264 142.098 147.016C142.498 147.752 143.034 148.32 143.706 148.72C144.378 149.104 145.122 149.296 145.938 149.296C146.754 149.296 147.498 149.104 148.17 148.72C148.858 148.32 149.402 147.752 149.802 147.016C150.202 146.264 150.402 145.392 150.402 144.4ZM158.965 139.648V147.4C158.965 148.04 159.101 148.496 159.373 148.768C159.645 149.024 160.117 149.152 160.789 149.152H162.397V151H160.429C159.213 151 158.301 150.72 157.693 150.16C157.085 149.6 156.781 148.68 156.781 147.4V139.648H155.077V137.848H156.781V134.536H158.965V137.848H162.397V139.648H158.965ZM166.171 135.712C165.755 135.712 165.403 135.568 165.115 135.28C164.827 134.992 164.683 134.64 164.683 134.224C164.683 133.808 164.827 133.456 165.115 133.168C165.403 132.88 165.755 132.736 166.171 132.736C166.571 132.736 166.907 132.88 167.179 133.168C167.467 133.456 167.611 133.808 167.611 134.224C167.611 134.64 167.467 134.992 167.179 135.28C166.907 135.568 166.571 135.712 166.171 135.712ZM167.227 137.848V151H165.043V137.848H167.227ZM176.686 151.216C175.454 151.216 174.334 150.936 173.326 150.376C172.334 149.816 171.55 149.024 170.974 148C170.414 146.96 170.134 145.76 170.134 144.4C170.134 143.056 170.422 141.872 170.998 140.848C171.59 139.808 172.39 139.016 173.398 138.472C174.406 137.912 175.534 137.632 176.782 137.632C178.03 137.632 179.158 137.912 180.166 138.472C181.174 139.016 181.966 139.8 182.542 140.824C183.134 141.848 183.43 143.04 183.43 144.4C183.43 145.76 183.126 146.96 182.518 148C181.926 149.024 181.118 149.816 180.094 150.376C179.07 150.936 177.934 151.216 176.686 151.216ZM176.686 149.296C177.47 149.296 178.206 149.112 178.894 148.744C179.582 148.376 180.134 147.824 180.55 147.088C180.982 146.352 181.198 145.456 181.198 144.4C181.198 143.344 180.99 142.448 180.574 141.712C180.158 140.976 179.614 140.432 178.942 140.08C178.27 139.712 177.542 139.528 176.758 139.528C175.958 139.528 175.222 139.712 174.55 140.08C173.894 140.432 173.366 140.976 172.966 141.712C172.566 142.448 172.366 143.344 172.366 144.4C172.366 145.472 172.558 146.376 172.942 147.112C173.342 147.848 173.87 148.4 174.526 148.768C175.182 149.12 175.902 149.296 176.686 149.296ZM192.709 137.608C194.309 137.608 195.605 138.096 196.597 139.072C197.589 140.032 198.085 141.424 198.085 143.248V151H195.925V143.56C195.925 142.248 195.597 141.248 194.941 140.56C194.285 139.856 193.389 139.504 192.253 139.504C191.101 139.504 190.181 139.864 189.493 140.584C188.821 141.304 188.485 142.352 188.485 143.728V151H186.301V137.848H188.485V139.72C188.917 139.048 189.501 138.528 190.237 138.16C190.989 137.792 191.813 137.608 192.709 137.608Z" fill="white"/>
<path d="M195 10H73L12 115.7L73 221.3H195L256 115.7L195 10Z" stroke="url(#paint0_linear)" stroke-width="20" stroke-miterlimit="10"/>
<defs>
<linearGradient id="paint0_linear" x1="0.467802" y1="115.65" x2="267.551" y2="115.65" gradientUnits="userSpaceOnUse">
<stop offset="0.3281" stop-color="#DD45D3"/>
<stop offset="1" stop-color="#6A11EA"/>
</linearGradient>
</defs>
</svg>
