<svg width="268" height="232" viewBox="0 0 268 232" fill="none" xmlns="http://www.w3.org/2000/svg">
<path d="M84.032 114.048V119.64H90.128V121.44H84.032V127.2H90.848V129H81.848V112.248H90.848V114.048H84.032ZM93.7447 116.016C93.8567 114.544 94.4247 113.392 95.4487 112.56C96.4727 111.728 97.8007 111.312 99.4327 111.312C100.521 111.312 101.457 111.512 102.241 111.912C103.041 112.296 103.641 112.824 104.041 113.496C104.457 114.168 104.665 114.928 104.665 115.776C104.665 116.768 104.377 117.624 103.801 118.344C103.241 119.064 102.505 119.528 101.593 119.736V119.856C102.633 120.112 103.457 120.616 104.065 121.368C104.673 122.12 104.977 123.104 104.977 124.32C104.977 125.232 104.769 126.056 104.353 126.792C103.937 127.512 103.313 128.08 102.481 128.496C101.649 128.912 100.649 129.12 99.4807 129.12C97.7847 129.12 96.3927 128.68 95.3047 127.8C94.2167 126.904 93.6087 125.64 93.4807 124.008H95.5927C95.7047 124.968 96.0967 125.752 96.7687 126.36C97.4407 126.968 98.3367 127.272 99.4567 127.272C100.577 127.272 101.425 126.984 102.001 126.408C102.593 125.816 102.889 125.056 102.889 124.128C102.889 122.928 102.489 122.064 101.689 121.536C100.889 121.008 99.6807 120.744 98.0647 120.744H97.5127V118.92H98.0887C99.5607 118.904 100.673 118.664 101.425 118.2C102.177 117.72 102.553 116.984 102.553 115.992C102.553 115.144 102.273 114.464 101.713 113.952C101.169 113.44 100.385 113.184 99.3607 113.184C98.3687 113.184 97.5687 113.44 96.9607 113.952C96.3527 114.464 95.9927 115.152 95.8807 116.016H93.7447ZM135.708 112.272L130.86 129H128.412L124.524 115.536L120.492 129L118.068 129.024L113.388 112.272H115.716L119.364 126.456L123.396 112.272H125.844L129.684 126.408L133.356 112.272H135.708ZM137.282 122.376C137.282 121.032 137.554 119.856 138.098 118.848C138.642 117.824 139.386 117.032 140.33 116.472C141.29 115.912 142.354 115.632 143.522 115.632C144.674 115.632 145.674 115.88 146.522 116.376C147.37 116.872 148.002 117.496 148.418 118.248V115.848H150.626V129H148.418V126.552C147.986 127.32 147.338 127.96 146.474 128.472C145.626 128.968 144.634 129.216 143.498 129.216C142.33 129.216 141.274 128.928 140.33 128.352C139.386 127.776 138.642 126.968 138.098 125.928C137.554 124.888 137.282 123.704 137.282 122.376ZM148.418 122.4C148.418 121.408 148.218 120.544 147.818 119.808C147.418 119.072 146.874 118.512 146.186 118.128C145.514 117.728 144.77 117.528 143.954 117.528C143.138 117.528 142.394 117.72 141.722 118.104C141.05 118.488 140.514 119.048 140.114 119.784C139.714 120.52 139.514 121.384 139.514 122.376C139.514 123.384 139.714 124.264 140.114 125.016C140.514 125.752 141.05 126.32 141.722 126.72C142.394 127.104 143.138 127.296 143.954 127.296C144.77 127.296 145.514 127.104 146.186 126.72C146.874 126.32 147.418 125.752 147.818 125.016C148.218 124.264 148.418 123.392 148.418 122.4ZM156.501 111.24V129H154.317V111.24H156.501ZM162.407 111.24V129H160.223V111.24H162.407ZM178.129 121.92C178.129 122.336 178.105 122.776 178.057 123.24H167.545C167.625 124.536 168.065 125.552 168.865 126.288C169.681 127.008 170.665 127.368 171.817 127.368C172.761 127.368 173.545 127.152 174.169 126.72C174.809 126.272 175.257 125.68 175.513 124.944H177.865C177.513 126.208 176.809 127.24 175.753 128.04C174.697 128.824 173.385 129.216 171.817 129.216C170.569 129.216 169.449 128.936 168.457 128.376C167.481 127.816 166.713 127.024 166.153 126C165.593 124.96 165.313 123.76 165.313 122.4C165.313 121.04 165.585 119.848 166.129 118.824C166.673 117.8 167.433 117.016 168.409 116.472C169.401 115.912 170.537 115.632 171.817 115.632C173.065 115.632 174.169 115.904 175.129 116.448C176.089 116.992 176.825 117.744 177.337 118.704C177.865 119.648 178.129 120.72 178.129 121.92ZM175.873 121.464C175.873 120.632 175.689 119.92 175.321 119.328C174.953 118.72 174.449 118.264 173.809 117.96C173.185 117.64 172.489 117.48 171.721 117.48C170.617 117.48 169.673 117.832 168.889 118.536C168.121 119.24 167.681 120.216 167.569 121.464H175.873ZM183.676 117.648V125.4C183.676 126.04 183.812 126.496 184.084 126.768C184.356 127.024 184.828 127.152 185.5 127.152H187.108V129H185.14C183.924 129 183.012 128.72 182.404 128.16C181.796 127.6 181.492 126.68 181.492 125.4V117.648H179.788V115.848H181.492V112.536H183.676V115.848H187.108V117.648H183.676Z" fill="white"/>
<path d="M195 10H73L12 115.7L73 221.3H195L256 115.7L195 10Z" stroke="url(#paint0_linear)" stroke-width="20" stroke-miterlimit="10"/>
<defs>
<linearGradient id="paint0_linear" x1="0.467802" y1="115.65" x2="267.551" y2="115.65" gradientUnits="userSpaceOnUse">
<stop offset="0.3281" stop-color="#DD45D3"/>
<stop offset="1" stop-color="#6A11EA"/>
</linearGradient>
</defs>
</svg>
