<svg width="268" height="232" viewBox="0 0 268 232" fill="none" xmlns="http://www.w3.org/2000/svg">
<path d="M109.144 71.272V73.048H104.584V88H102.4V73.048H97.816V71.272H109.144ZM111.016 81.376C111.016 80.032 111.288 78.856 111.832 77.848C112.376 76.824 113.12 76.032 114.064 75.472C115.024 74.912 116.088 74.632 117.256 74.632C118.408 74.632 119.408 74.88 120.256 75.376C121.104 75.872 121.736 76.496 122.152 77.248V74.848H124.36V88H122.152V85.552C121.72 86.32 121.072 86.96 120.208 87.472C119.36 87.968 118.368 88.216 117.232 88.216C116.064 88.216 115.008 87.928 114.064 87.352C113.12 86.776 112.376 85.968 111.832 84.928C111.288 83.888 111.016 82.704 111.016 81.376ZM122.152 81.4C122.152 80.408 121.952 79.544 121.552 78.808C121.152 78.072 120.608 77.512 119.92 77.128C119.248 76.728 118.504 76.528 117.688 76.528C116.872 76.528 116.128 76.72 115.456 77.104C114.784 77.488 114.248 78.048 113.848 78.784C113.448 79.52 113.248 80.384 113.248 81.376C113.248 82.384 113.448 83.264 113.848 84.016C114.248 84.752 114.784 85.32 115.456 85.72C116.128 86.104 116.872 86.296 117.688 86.296C118.504 86.296 119.248 86.104 119.92 85.72C120.608 85.32 121.152 84.752 121.552 84.016C121.952 83.264 122.152 82.392 122.152 81.4ZM130.235 70.24V88H128.051V70.24H130.235ZM145.957 80.92C145.957 81.336 145.933 81.776 145.885 82.24H135.373C135.453 83.536 135.893 84.552 136.693 85.288C137.509 86.008 138.493 86.368 139.645 86.368C140.589 86.368 141.373 86.152 141.997 85.72C142.637 85.272 143.085 84.68 143.341 83.944H145.693C145.341 85.208 144.637 86.24 143.581 87.04C142.525 87.824 141.213 88.216 139.645 88.216C138.397 88.216 137.277 87.936 136.285 87.376C135.309 86.816 134.541 86.024 133.981 85C133.421 83.96 133.141 82.76 133.141 81.4C133.141 80.04 133.413 78.848 133.957 77.824C134.501 76.8 135.261 76.016 136.237 75.472C137.229 74.912 138.365 74.632 139.645 74.632C140.893 74.632 141.997 74.904 142.957 75.448C143.917 75.992 144.653 76.744 145.165 77.704C145.693 78.648 145.957 79.72 145.957 80.92ZM143.701 80.464C143.701 79.632 143.517 78.92 143.149 78.328C142.781 77.72 142.277 77.264 141.637 76.96C141.013 76.64 140.317 76.48 139.549 76.48C138.445 76.48 137.501 76.832 136.717 77.536C135.949 78.24 135.509 79.216 135.397 80.464H143.701ZM155.248 74.608C156.848 74.608 158.144 75.096 159.136 76.072C160.128 77.032 160.624 78.424 160.624 80.248V88H158.464V80.56C158.464 79.248 158.136 78.248 157.48 77.56C156.824 76.856 155.928 76.504 154.792 76.504C153.64 76.504 152.72 76.864 152.032 77.584C151.36 78.304 151.024 79.352 151.024 80.728V88H148.84V74.848H151.024V76.72C151.456 76.048 152.04 75.528 152.776 75.16C153.528 74.792 154.352 74.608 155.248 74.608ZM166.856 76.648V84.4C166.856 85.04 166.992 85.496 167.264 85.768C167.536 86.024 168.008 86.152 168.68 86.152H170.288V88H168.32C167.104 88 166.192 87.72 165.584 87.16C164.976 86.6 164.672 85.68 164.672 84.4V76.648H162.968V74.848H164.672V71.536H166.856V74.848H170.288V76.648H166.856Z" fill="white"/>
<path d="M111.816 107.392V124H109.632V111.616L104.112 124H102.576L97.032 111.592V124H94.848V107.392H97.2L103.344 121.12L109.488 107.392H111.816ZM114.704 117.376C114.704 116.032 114.976 114.856 115.52 113.848C116.064 112.824 116.808 112.032 117.752 111.472C118.712 110.912 119.776 110.632 120.944 110.632C122.096 110.632 123.096 110.88 123.944 111.376C124.792 111.872 125.424 112.496 125.84 113.248V110.848H128.048V124H125.84V121.552C125.408 122.32 124.76 122.96 123.896 123.472C123.048 123.968 122.056 124.216 120.92 124.216C119.752 124.216 118.696 123.928 117.752 123.352C116.808 122.776 116.064 121.968 115.52 120.928C114.976 119.888 114.704 118.704 114.704 117.376ZM125.84 117.4C125.84 116.408 125.64 115.544 125.24 114.808C124.84 114.072 124.296 113.512 123.608 113.128C122.936 112.728 122.192 112.528 121.376 112.528C120.56 112.528 119.816 112.72 119.144 113.104C118.472 113.488 117.936 114.048 117.536 114.784C117.136 115.52 116.936 116.384 116.936 117.376C116.936 118.384 117.136 119.264 117.536 120.016C117.936 120.752 118.472 121.32 119.144 121.72C119.816 122.104 120.56 122.296 121.376 122.296C122.192 122.296 122.936 122.104 123.608 121.72C124.296 121.32 124.84 120.752 125.24 120.016C125.64 119.264 125.84 118.392 125.84 117.4ZM133.923 112.984C134.307 112.232 134.851 111.648 135.555 111.232C136.275 110.816 137.147 110.608 138.171 110.608V112.864H137.595C135.147 112.864 133.923 114.192 133.923 116.848V124H131.739V110.848H133.923V112.984ZM148.036 124L142.876 118.192V124H140.692V106.24H142.876V116.68L147.94 110.848H150.988L144.796 117.4L151.012 124H148.036ZM165.043 116.92C165.043 117.336 165.019 117.776 164.971 118.24H154.459C154.539 119.536 154.979 120.552 155.779 121.288C156.595 122.008 157.579 122.368 158.731 122.368C159.675 122.368 160.459 122.152 161.083 121.72C161.723 121.272 162.171 120.68 162.427 119.944H164.779C164.427 121.208 163.723 122.24 162.667 123.04C161.611 123.824 160.299 124.216 158.731 124.216C157.483 124.216 156.363 123.936 155.371 123.376C154.395 122.816 153.627 122.024 153.067 121C152.507 119.96 152.227 118.76 152.227 117.4C152.227 116.04 152.499 114.848 153.043 113.824C153.587 112.8 154.347 112.016 155.323 111.472C156.315 110.912 157.451 110.632 158.731 110.632C159.979 110.632 161.083 110.904 162.043 111.448C163.003 111.992 163.739 112.744 164.251 113.704C164.779 114.648 165.043 115.72 165.043 116.92ZM162.787 116.464C162.787 115.632 162.603 114.92 162.235 114.328C161.867 113.72 161.363 113.264 160.723 112.96C160.099 112.64 159.403 112.48 158.635 112.48C157.531 112.48 156.587 112.832 155.803 113.536C155.035 114.24 154.595 115.216 154.483 116.464H162.787ZM170.59 112.648V120.4C170.59 121.04 170.726 121.496 170.998 121.768C171.27 122.024 171.742 122.152 172.414 122.152H174.022V124H172.054C170.838 124 169.926 123.72 169.318 123.16C168.71 122.6 168.406 121.68 168.406 120.4V112.648H166.702V110.848H168.406V107.536H170.59V110.848H174.022V112.648H170.59Z" fill="white"/>
<path d="M114.032 148.168C114.032 149.56 113.552 150.72 112.592 151.648C111.648 152.56 110.2 153.016 108.248 153.016H105.032V160H102.848V143.272H108.248C110.136 143.272 111.568 143.728 112.544 144.64C113.536 145.552 114.032 146.728 114.032 148.168ZM108.248 151.216C109.464 151.216 110.36 150.952 110.936 150.424C111.512 149.896 111.8 149.144 111.8 148.168C111.8 146.104 110.616 145.072 108.248 145.072H105.032V151.216H108.248ZM118.93 142.24V160H116.746V142.24H118.93ZM121.837 153.376C121.837 152.032 122.109 150.856 122.653 149.848C123.197 148.824 123.941 148.032 124.885 147.472C125.845 146.912 126.909 146.632 128.077 146.632C129.229 146.632 130.229 146.88 131.077 147.376C131.925 147.872 132.557 148.496 132.973 149.248V146.848H135.181V160H132.973V157.552C132.541 158.32 131.893 158.96 131.029 159.472C130.181 159.968 129.189 160.216 128.053 160.216C126.885 160.216 125.829 159.928 124.885 159.352C123.941 158.776 123.197 157.968 122.653 156.928C122.109 155.888 121.837 154.704 121.837 153.376ZM132.973 153.4C132.973 152.408 132.773 151.544 132.373 150.808C131.973 150.072 131.429 149.512 130.741 149.128C130.069 148.728 129.325 148.528 128.509 148.528C127.693 148.528 126.949 148.72 126.277 149.104C125.605 149.488 125.069 150.048 124.669 150.784C124.269 151.52 124.069 152.384 124.069 153.376C124.069 154.384 124.269 155.264 124.669 156.016C125.069 156.752 125.605 157.32 126.277 157.72C126.949 158.104 127.693 158.296 128.509 158.296C129.325 158.296 130.069 158.104 130.741 157.72C131.429 157.32 131.973 156.752 132.373 156.016C132.773 155.264 132.973 154.392 132.973 153.4ZM138.055 153.4C138.055 152.04 138.327 150.856 138.871 149.848C139.415 148.824 140.167 148.032 141.127 147.472C142.103 146.912 143.215 146.632 144.463 146.632C146.079 146.632 147.407 147.024 148.447 147.808C149.503 148.592 150.199 149.68 150.535 151.072H148.183C147.959 150.272 147.519 149.64 146.863 149.176C146.223 148.712 145.423 148.48 144.463 148.48C143.215 148.48 142.207 148.912 141.439 149.776C140.671 150.624 140.287 151.832 140.287 153.4C140.287 154.984 140.671 156.208 141.439 157.072C142.207 157.936 143.215 158.368 144.463 158.368C145.423 158.368 146.223 158.144 146.863 157.696C147.503 157.248 147.943 156.608 148.183 155.776H150.535C150.183 157.12 149.479 158.2 148.423 159.016C147.367 159.816 146.047 160.216 144.463 160.216C143.215 160.216 142.103 159.936 141.127 159.376C140.167 158.816 139.415 158.024 138.871 157C138.327 155.976 138.055 154.776 138.055 153.4ZM165.45 152.92C165.45 153.336 165.426 153.776 165.378 154.24H154.866C154.946 155.536 155.386 156.552 156.186 157.288C157.002 158.008 157.986 158.368 159.138 158.368C160.082 158.368 160.866 158.152 161.49 157.72C162.13 157.272 162.578 156.68 162.834 155.944H165.186C164.834 157.208 164.13 158.24 163.074 159.04C162.018 159.824 160.706 160.216 159.138 160.216C157.89 160.216 156.77 159.936 155.778 159.376C154.802 158.816 154.034 158.024 153.474 157C152.914 155.96 152.634 154.76 152.634 153.4C152.634 152.04 152.906 150.848 153.45 149.824C153.994 148.8 154.754 148.016 155.73 147.472C156.722 146.912 157.858 146.632 159.138 146.632C160.386 146.632 161.49 146.904 162.45 147.448C163.41 147.992 164.146 148.744 164.658 149.704C165.186 150.648 165.45 151.72 165.45 152.92ZM163.194 152.464C163.194 151.632 163.01 150.92 162.642 150.328C162.274 149.72 161.77 149.264 161.13 148.96C160.506 148.64 159.81 148.48 159.042 148.48C157.938 148.48 156.994 148.832 156.21 149.536C155.442 150.24 155.002 151.216 154.89 152.464H163.194Z" fill="white"/>
<path d="M195 10H73L12 115.7L73 221.3H195L256 115.7L195 10Z" stroke="url(#paint0_linear)" stroke-width="20" stroke-miterlimit="10"/>
<defs>
<linearGradient id="paint0_linear" x1="0.467802" y1="115.65" x2="267.551" y2="115.65" gradientUnits="userSpaceOnUse">
<stop offset="0.3281" stop-color="#DD45D3"/>
<stop offset="1" stop-color="#6A11EA"/>
</linearGradient>
</defs>
</svg>
